<?xml version="1.0" encoding="UTF-8"?> <svg xmlns="http://www.w3.org/2000/svg" width="198" height="198" viewBox="0 0 198 198" fill="none"> <g filter="url(#filter0_d)"> <path d="M82.0078 114.293C88.6769 114.293 93.9023 110.561 93.9023 105.797V104.098H90.087L84.9234 86.0265C86.8033 85.6902 88.3281 85.3189 89.7174 84.9765C92.0656 84.3992 94.2065 83.9114 97.3008 83.7692V118.594L83.1893 128H114.807L100.699 118.595V83.7692C103.794 83.9113 105.934 84.3992 108.283 84.9765C109.672 85.3189 111.197 85.6902 113.077 86.0265L107.913 104.098H104.098V105.797C104.098 110.561 109.323 114.293 115.992 114.293C122.661 114.293 128 110.561 128 105.797V104.098H124.071L119.123 86.7792C121.542 86.9754 124.484 87.1055 128 87.1055V83.707C117.808 83.707 113.447 80.5691 109.698 77.8012C107.076 75.8634 104.579 73.9106 100.699 73.4899V70H97.3008V73.4899C93.4214 73.9105 90.9244 75.8634 88.3019 77.8012C84.5534 80.5691 80.192 83.707 70 83.707V87.1055C73.5148 87.1055 76.4569 86.9756 78.8759 86.7794L73.9286 104.098H70V105.797C70 110.561 75.3387 114.293 82.0078 114.293V114.293ZM120.536 104.098H111.448L115.992 88.1967L120.536 104.098ZM82.0072 88.1942L86.5514 104.098H77.464L82.0072 88.1942Z" fill="#1FABFB"></path> </g> <defs> <filter id="filter0_d" x="0" y="0" width="198" height="198" filterUnits="userSpaceOnUse" color-interpolation-filters="sRGB"> <feFlood flood-opacity="0" result="BackgroundImageFix"></feFlood> <feColorMatrix in="SourceAlpha" type="matrix" values="0 0 0 0 0 0 0 0 0 0 0 0 0 0 0 0 0 0 127 0"></feColorMatrix> <feOffset></feOffset> <feGaussianBlur stdDeviation="35"></feGaussianBlur> <feColorMatrix type="matrix" values="0 0 0 0 0.148125 0 0 0 0 0.634962 0 0 0 0 0.9875 0 0 0 0.7 0"></feColorMatrix> <feBlend mode="normal" in2="BackgroundImageFix" result="effect1_dropShadow"></feBlend> <feBlend mode="normal" in="SourceGraphic" in2="effect1_dropShadow" result="shape"></feBlend> </filter> </defs> </svg> 