<?xml version="1.0" encoding="UTF-8"?> <svg xmlns="http://www.w3.org/2000/svg" width="191" height="191" viewBox="0 0 191 191" fill="none"> <g filter="url(#filter0_d)"> <path d="M119.451 110.523L107.664 100.523C107.383 100.289 107.039 100.163 106.691 100.163C106.203 100.163 105.739 100.408 105.449 100.819C104.108 102.722 102.463 104.368 100.56 105.71C100.206 105.96 99.9718 106.342 99.9172 106.759C99.8623 107.176 99.9841 107.588 100.26 107.92L110.267 119.717C110.945 120.531 111.93 121 112.964 121C113.894 121 114.78 120.627 115.458 119.949L119.688 115.719C120.409 114.998 120.781 114.057 120.736 113.069C120.691 112.081 120.234 111.177 119.451 110.523Z" fill="#1FABFB"></path> <path d="M88.7287 107.458C93.7309 107.458 98.4342 105.51 101.972 101.972C105.509 98.4343 107.458 93.7314 107.458 88.7289C107.458 78.4019 99.0559 70 88.7287 70C78.4014 70 70 78.4019 70 88.7289C70 99.0559 78.4016 107.458 88.7287 107.458ZM76.0693 88.7289C76.0693 81.7485 81.7482 76.0696 88.7287 76.0696C95.7092 76.0696 101.388 81.7485 101.388 88.7289C101.388 92.1048 100.07 95.2823 97.676 97.6759C95.282 100.07 92.1045 101.388 88.7287 101.388C81.7482 101.388 76.0693 95.7093 76.0693 88.7289Z" fill="#1FABFB"></path> </g> <defs> <filter id="filter0_d" x="0" y="0" width="190.74" height="191" filterUnits="userSpaceOnUse" color-interpolation-filters="sRGB"> <feFlood flood-opacity="0" result="BackgroundImageFix"></feFlood> <feColorMatrix in="SourceAlpha" type="matrix" values="0 0 0 0 0 0 0 0 0 0 0 0 0 0 0 0 0 0 127 0"></feColorMatrix> <feOffset></feOffset> <feGaussianBlur stdDeviation="35"></feGaussianBlur> <feColorMatrix type="matrix" values="0 0 0 0 0.148125 0 0 0 0 0.634962 0 0 0 0 0.9875 0 0 0 0.7 0"></feColorMatrix> <feBlend mode="normal" in2="BackgroundImageFix" result="effect1_dropShadow"></feBlend> <feBlend mode="normal" in="SourceGraphic" in2="effect1_dropShadow" result="shape"></feBlend> </filter> </defs> </svg> 