<?xml version="1.0" encoding="UTF-8"?> <svg xmlns="http://www.w3.org/2000/svg" width="632" height="626" viewBox="0 0 632 626" fill="none"> <rect width="632" height="626" rx="40" fill="#344852" fill-opacity="0.38"></rect> <g opacity="0.9"> <path d="M49.4613 124.802H46L49.4613 115L52.9227 124.802H49.4613Z" fill="url(#paint0_linear)"></path> <path d="M49.4613 124.802V483.569H574.594M49.4613 124.802H46L49.4613 115L52.9227 124.802H49.4613ZM574.594 483.569V479.648L583 483.569L574.594 487V483.569Z" stroke="white"></path> </g> <path opacity="0.08" d="M214 483L214 115" stroke="url(#paint1_linear)"></path> <path opacity="0.08" d="M382 483L382 115" stroke="url(#paint2_linear)"></path> <path opacity="0.08" d="M557 483L557 115" stroke="url(#paint3_linear)"></path> <path d="M54.4982 30.0017V44H51.2786V32.6414H44.9594V44H41.7398V30.0017H54.4982ZM64.0675 33.0813C65.0674 33.0813 65.974 33.3146 66.7872 33.7812C67.6138 34.2345 68.2604 34.8811 68.727 35.721C69.1936 36.5476 69.4269 37.5141 69.4269 38.6207C69.4269 39.7272 69.1936 40.7004 68.727 41.5403C68.2604 42.3669 67.6138 43.0135 66.7872 43.4801C65.974 43.9333 65.0674 44.16 64.0675 44.16C62.6944 44.16 61.6145 43.7267 60.8279 42.8601V47.8795H57.7083V33.2413H60.688V34.4812C61.4612 33.5479 62.5877 33.0813 64.0675 33.0813ZM63.5276 41.6003C64.3275 41.6003 64.9808 41.3337 65.4874 40.8004C66.0073 40.2538 66.2673 39.5272 66.2673 38.6207C66.2673 37.7141 66.0073 36.9942 65.4874 36.4609C64.9808 35.9143 64.3275 35.641 63.5276 35.641C62.7277 35.641 62.0678 35.9143 61.5479 36.4609C61.0412 36.9942 60.7879 37.7141 60.7879 38.6207C60.7879 39.5272 61.0412 40.2538 61.5479 40.8004C62.0678 41.3337 62.7277 41.6003 63.5276 41.6003ZM71.6133 33.2413H74.713V39.6405L79.9523 33.2413H82.812V44H79.7124V37.6008L74.493 44H71.6133V33.2413ZM96.3096 44V37.5608L93.09 42.9601H91.7701L88.6305 37.5408V44H85.8108V33.2413H89.0704L92.51 39.4606L96.1696 33.2413H99.0892L99.1292 44H96.3096ZM112.576 38.6606C112.576 38.7006 112.556 38.9806 112.516 39.5005H104.377C104.524 40.1671 104.87 40.6937 105.417 41.0804C105.964 41.467 106.644 41.6603 107.457 41.6603C108.017 41.6603 108.51 41.5803 108.937 41.4203C109.377 41.247 109.783 40.9804 110.156 40.6204L111.816 42.4202C110.803 43.5801 109.323 44.16 107.377 44.16C106.164 44.16 105.09 43.9267 104.157 43.4601C103.224 42.9801 102.504 42.3202 101.997 41.4803C101.491 40.6404 101.238 39.6872 101.238 38.6207C101.238 37.5674 101.484 36.6209 101.977 35.781C102.484 34.9278 103.171 34.2678 104.037 33.8012C104.917 33.3213 105.897 33.0813 106.977 33.0813C108.03 33.0813 108.983 33.308 109.837 33.7612C110.69 34.2145 111.356 34.8678 111.836 35.721C112.33 36.5609 112.576 37.5408 112.576 38.6606ZM106.997 35.441C106.29 35.441 105.697 35.641 105.217 36.041C104.737 36.4409 104.444 36.9875 104.337 37.6808H109.637C109.53 37.0009 109.237 36.4609 108.757 36.061C108.277 35.6477 107.69 35.441 106.997 35.441ZM121.307 33.0813C122.307 33.0813 123.213 33.3146 124.026 33.7812C124.853 34.2345 125.5 34.8811 125.966 35.721C126.433 36.5476 126.666 37.5141 126.666 38.6207C126.666 39.7272 126.433 40.7004 125.966 41.5403C125.5 42.3669 124.853 43.0135 124.026 43.4801C123.213 43.9333 122.307 44.16 121.307 44.16C119.934 44.16 118.854 43.7267 118.067 42.8601V47.8795H114.947V33.2413H117.927V34.4812C118.7 33.5479 119.827 33.0813 121.307 33.0813ZM120.767 41.6003C121.567 41.6003 122.22 41.3337 122.727 40.8004C123.246 40.2538 123.506 39.5272 123.506 38.6207C123.506 37.7141 123.246 36.9942 122.727 36.4609C122.22 35.9143 121.567 35.641 120.767 35.641C119.967 35.641 119.307 35.9143 118.787 36.4609C118.28 36.9942 118.027 37.7141 118.027 38.6207C118.027 39.5272 118.28 40.2538 118.787 40.8004C119.307 41.3337 119.967 41.6003 120.767 41.6003ZM134.512 36.6809C135.912 36.6942 136.972 37.0075 137.691 37.6208C138.411 38.234 138.771 39.1139 138.771 40.2605C138.771 41.4603 138.365 42.3869 137.551 43.0401C136.738 43.6934 135.585 44.02 134.092 44.02L128.852 44V33.2413H131.952V36.6809H134.512ZM139.931 33.2413H143.031V44H139.931V33.2413ZM133.812 41.8003C134.412 41.8136 134.872 41.6869 135.192 41.4203C135.512 41.1537 135.672 40.7537 135.672 40.2205C135.672 39.7005 135.512 39.3206 135.192 39.0806C134.885 38.8406 134.425 38.714 133.812 38.7006L131.952 38.6806V41.8003H133.812ZM158.041 33.0813C159.04 33.0813 159.947 33.3146 160.76 33.7812C161.587 34.2345 162.233 34.8811 162.7 35.721C163.167 36.5476 163.4 37.5141 163.4 38.6207C163.4 39.7272 163.167 40.7004 162.7 41.5403C162.233 42.3669 161.587 43.0135 160.76 43.4801C159.947 43.9333 159.04 44.16 158.041 44.16C156.667 44.16 155.587 43.7267 154.801 42.8601V47.8795H151.681V33.2413H154.661V34.4812C155.434 33.5479 156.561 33.0813 158.041 33.0813ZM157.501 41.6003C158.3 41.6003 158.954 41.3337 159.46 40.8004C159.98 40.2538 160.24 39.5272 160.24 38.6207C160.24 37.7141 159.98 36.9942 159.46 36.4609C158.954 35.9143 158.3 35.641 157.501 35.641C156.701 35.641 156.041 35.9143 155.521 36.4609C155.014 36.9942 154.761 37.7141 154.761 38.6207C154.761 39.5272 155.014 40.2538 155.521 40.8004C156.041 41.3337 156.701 41.6003 157.501 41.6003ZM176.045 38.6606C176.045 38.7006 176.025 38.9806 175.985 39.5005H167.846C167.993 40.1671 168.339 40.6937 168.886 41.0804C169.433 41.467 170.112 41.6603 170.926 41.6603C171.486 41.6603 171.979 41.5803 172.405 41.4203C172.845 41.247 173.252 40.9804 173.625 40.6204L175.285 42.4202C174.272 43.5801 172.792 44.16 170.846 44.16C169.632 44.16 168.559 43.9267 167.626 43.4601C166.693 42.9801 165.973 42.3202 165.466 41.4803C164.96 40.6404 164.706 39.6872 164.706 38.6207C164.706 37.5674 164.953 36.6209 165.446 35.781C165.953 34.9278 166.64 34.2678 167.506 33.8012C168.386 33.3213 169.366 33.0813 170.446 33.0813C171.499 33.0813 172.452 33.308 173.305 33.7612C174.159 34.2145 174.825 34.8678 175.305 35.721C175.798 36.5609 176.045 37.5408 176.045 38.6606ZM170.466 35.441C169.759 35.441 169.166 35.641 168.686 36.041C168.206 36.4409 167.913 36.9875 167.806 37.6808H173.105C172.999 37.0009 172.705 36.4609 172.225 36.061C171.746 35.6477 171.159 35.441 170.466 35.441ZM187.055 35.801H181.536V44H178.436V33.2413H187.055V35.801ZM199.585 33.2413L194.725 44.6599C194.232 45.8998 193.619 46.773 192.886 47.2796C192.166 47.7862 191.293 48.0395 190.266 48.0395C189.706 48.0395 189.153 47.9529 188.606 47.7795C188.06 47.6062 187.613 47.3663 187.266 47.0596L188.406 44.8399C188.646 45.0532 188.919 45.2199 189.226 45.3398C189.546 45.4598 189.859 45.5198 190.166 45.5198C190.593 45.5198 190.939 45.4132 191.206 45.1999C191.472 44.9999 191.712 44.6599 191.926 44.18L191.966 44.08L187.306 33.2413H190.526L193.546 40.5404L196.585 33.2413H199.585ZM210.647 33.2413V44H207.527V35.801H204.128L204.028 37.7008C203.974 39.1139 203.841 40.2871 203.628 41.2203C203.414 42.1536 203.068 42.8868 202.588 43.4201C202.108 43.9533 201.441 44.22 200.588 44.22C200.135 44.22 199.595 44.14 198.968 43.98L199.128 41.4203C199.342 41.447 199.495 41.4603 199.588 41.4603C200.055 41.4603 200.401 41.2937 200.628 40.9604C200.868 40.6137 201.028 40.1805 201.108 39.6605C201.188 39.1273 201.248 38.4273 201.288 37.5608L201.448 33.2413H210.647ZM223.206 33.2413V44H220.426V40.9204H218.126L216.087 44H212.767L215.227 40.4804C214.48 40.1871 213.907 39.7672 213.507 39.2206C213.12 38.6606 212.927 37.9874 212.927 37.2008C212.927 35.9343 213.38 34.9611 214.287 34.2812C215.207 33.5879 216.467 33.2413 218.066 33.2413H223.206ZM218.126 35.781C217.46 35.781 216.953 35.901 216.607 36.141C216.273 36.3809 216.107 36.7675 216.107 37.3008C216.107 37.8341 216.267 38.2274 216.587 38.4807C216.92 38.7206 217.42 38.8406 218.086 38.8406H220.426V35.781H218.126ZM232.543 33.0813C233.543 33.0813 234.45 33.3146 235.263 33.7812C236.089 34.2345 236.736 34.8811 237.203 35.721C237.669 36.5476 237.903 37.5141 237.903 38.6207C237.903 39.7272 237.669 40.7004 237.203 41.5403C236.736 42.3669 236.089 43.0135 235.263 43.4801C234.45 43.9333 233.543 44.16 232.543 44.16C231.17 44.16 230.09 43.7267 229.304 42.8601V47.8795H226.184V33.2413H229.164V34.4812C229.937 33.5479 231.063 33.0813 232.543 33.0813ZM232.003 41.6003C232.803 41.6003 233.456 41.3337 233.963 40.8004C234.483 40.2538 234.743 39.5272 234.743 38.6207C234.743 37.7141 234.483 36.9942 233.963 36.4609C233.456 35.9143 232.803 35.641 232.003 35.641C231.203 35.641 230.543 35.9143 230.023 36.4609C229.517 36.9942 229.264 37.7141 229.264 38.6207C229.264 39.5272 229.517 40.2538 230.023 40.8004C230.543 41.3337 231.203 41.6003 232.003 41.6003ZM240.089 33.2413H243.189V37.4408H247.868V33.2413H250.988V44H247.868V39.9805H243.189V44H240.089V33.2413ZM259.013 44.16C257.88 44.16 256.86 43.9267 255.954 43.4601C255.061 42.9801 254.361 42.3202 253.854 41.4803C253.347 40.6404 253.094 39.6872 253.094 38.6207C253.094 37.5541 253.347 36.6009 253.854 35.761C254.361 34.9211 255.061 34.2678 255.954 33.8012C256.86 33.3213 257.88 33.0813 259.013 33.0813C260.147 33.0813 261.16 33.3213 262.053 33.8012C262.946 34.2678 263.646 34.9211 264.153 35.761C264.659 36.6009 264.913 37.5541 264.913 38.6207C264.913 39.6872 264.659 40.6404 264.153 41.4803C263.646 42.3202 262.946 42.9801 262.053 43.4601C261.16 43.9267 260.147 44.16 259.013 44.16ZM259.013 41.6003C259.813 41.6003 260.467 41.3337 260.973 40.8004C261.493 40.2538 261.753 39.5272 261.753 38.6207C261.753 37.7141 261.493 36.9942 260.973 36.4609C260.467 35.9143 259.813 35.641 259.013 35.641C258.213 35.641 257.554 35.9143 257.034 36.4609C256.514 36.9942 256.254 37.7141 256.254 38.6207C256.254 39.5272 256.514 40.2538 257.034 40.8004C257.554 41.3337 258.213 41.6003 259.013 41.6003ZM267.058 33.2413H270.158V39.6405L275.397 33.2413H278.257V44H275.157V37.6008L269.938 44H267.058V33.2413ZM272.458 32.0814C270.111 32.0814 268.931 31.0482 268.918 28.9818H270.958C270.971 29.4484 271.098 29.8151 271.338 30.0817C271.591 30.335 271.958 30.4616 272.438 30.4616C272.918 30.4616 273.284 30.335 273.538 30.0817C273.804 29.8151 273.938 29.4484 273.938 28.9818H276.017C276.004 31.0482 274.817 32.0814 272.458 32.0814ZM293.258 33.0813C294.258 33.0813 295.165 33.3146 295.978 33.7812C296.805 34.2345 297.451 34.8811 297.918 35.721C298.384 36.5476 298.618 37.5141 298.618 38.6207C298.618 39.7272 298.384 40.7004 297.918 41.5403C297.451 42.3669 296.805 43.0135 295.978 43.4801C295.165 43.9333 294.258 44.16 293.258 44.16C291.885 44.16 290.805 43.7267 290.019 42.8601V47.8795H286.899V33.2413H289.879V34.4812C290.652 33.5479 291.779 33.0813 293.258 33.0813ZM292.719 41.6003C293.518 41.6003 294.172 41.3337 294.678 40.8004C295.198 40.2538 295.458 39.5272 295.458 38.6207C295.458 37.7141 295.198 36.9942 294.678 36.4609C294.172 35.9143 293.518 35.641 292.719 35.641C291.919 35.641 291.259 35.9143 290.739 36.4609C290.232 36.9942 289.979 37.7141 289.979 38.6207C289.979 39.5272 290.232 40.2538 290.739 40.8004C291.259 41.3337 291.919 41.6003 292.719 41.6003ZM304.808 33.0813C306.474 33.0813 307.754 33.4813 308.648 34.2812C309.541 35.0678 309.987 36.2609 309.987 37.8607V44H307.068V42.6602C306.481 43.66 305.388 44.16 303.788 44.16C302.962 44.16 302.242 44.02 301.628 43.74C301.028 43.4601 300.568 43.0734 300.249 42.5802C299.929 42.0869 299.769 41.527 299.769 40.9004C299.769 39.9005 300.142 39.1139 300.888 38.5407C301.648 37.9674 302.815 37.6808 304.388 37.6808H306.868C306.868 37.0009 306.661 36.4809 306.248 36.121C305.835 35.7477 305.215 35.561 304.388 35.561C303.815 35.561 303.248 35.6543 302.688 35.841C302.142 36.0143 301.675 36.2543 301.288 36.5609L300.169 34.3812C300.755 33.9679 301.455 33.6479 302.268 33.4213C303.095 33.1946 303.941 33.0813 304.808 33.0813ZM304.568 42.0602C305.101 42.0602 305.575 41.9403 305.988 41.7003C306.401 41.447 306.694 41.0804 306.868 40.6004V39.5005H304.728C303.448 39.5005 302.808 39.9205 302.808 40.7604C302.808 41.1603 302.962 41.4803 303.268 41.7203C303.588 41.9469 304.021 42.0602 304.568 42.0602ZM318.917 33.9812C319.943 33.9812 320.843 34.1945 321.616 34.6211C322.389 35.0344 322.983 35.621 323.396 36.3809C323.823 37.1408 324.036 38.0207 324.036 39.0206C324.036 40.0471 323.783 40.9604 323.276 41.7603C322.783 42.5468 322.09 43.1601 321.196 43.6C320.303 44.0267 319.29 44.24 318.157 44.24C316.277 44.24 314.797 43.64 313.717 42.4402C312.651 41.227 312.117 39.4539 312.117 37.1208C312.117 34.9611 312.584 33.2413 313.517 31.9615C314.464 30.6683 315.91 29.8217 317.857 29.4218L322.976 28.4019L323.396 31.0816L318.877 31.9815C317.65 32.2214 316.737 32.6214 316.137 33.1813C315.55 33.7412 315.204 34.5345 315.097 35.561C315.564 35.0544 316.124 34.6678 316.777 34.4012C317.43 34.1212 318.143 33.9812 318.917 33.9812ZM318.177 41.8203C318.977 41.8203 319.616 41.5603 320.096 41.0404C320.59 40.5204 320.836 39.8605 320.836 39.0606C320.836 38.2474 320.59 37.6008 320.096 37.1208C319.616 36.6409 318.977 36.4009 318.177 36.4009C317.363 36.4009 316.71 36.6409 316.217 37.1208C315.724 37.6008 315.477 38.2474 315.477 39.0606C315.477 39.8738 315.73 40.5404 316.237 41.0604C316.744 41.567 317.39 41.8203 318.177 41.8203ZM331.192 44.16C330.059 44.16 329.039 43.9267 328.133 43.4601C327.239 42.9801 326.539 42.3202 326.033 41.4803C325.526 40.6404 325.273 39.6872 325.273 38.6207C325.273 37.5541 325.526 36.6009 326.033 35.761C326.539 34.9211 327.239 34.2678 328.133 33.8012C329.039 33.3213 330.059 33.0813 331.192 33.0813C332.325 33.0813 333.339 33.3213 334.232 33.8012C335.125 34.2678 335.825 34.9211 336.332 35.761C336.838 36.6009 337.091 37.5541 337.091 38.6207C337.091 39.6872 336.838 40.6404 336.332 41.4803C335.825 42.3202 335.125 42.9801 334.232 43.4601C333.339 43.9267 332.325 44.16 331.192 44.16ZM331.192 41.6003C331.992 41.6003 332.645 41.3337 333.152 40.8004C333.672 40.2538 333.932 39.5272 333.932 38.6207C333.932 37.7141 333.672 36.9942 333.152 36.4609C332.645 35.9143 331.992 35.641 331.192 35.641C330.392 35.641 329.732 35.9143 329.212 36.4609C328.692 36.9942 328.432 37.7141 328.432 38.6207C328.432 39.5272 328.692 40.2538 329.212 40.8004C329.732 41.3337 330.392 41.6003 331.192 41.6003ZM347.885 35.801H344.246V44H341.146V35.801H337.507V33.2413H347.885V35.801ZM355.208 36.6809C356.607 36.6942 357.667 37.0075 358.387 37.6208C359.107 38.234 359.467 39.1139 359.467 40.2605C359.467 41.4603 359.06 42.3869 358.247 43.0401C357.434 43.6934 356.281 44.02 354.788 44.02L349.548 44V33.2413H352.648V36.6809H355.208ZM360.627 33.2413H363.727V44H360.627V33.2413ZM354.508 41.8003C355.108 41.8136 355.568 41.6869 355.888 41.4203C356.208 41.1537 356.367 40.7537 356.367 40.2205C356.367 39.7005 356.208 39.3206 355.888 39.0806C355.581 38.8406 355.121 38.714 354.508 38.7006L352.648 38.6806V41.8003H354.508ZM372.397 33.2413H375.497V37.4408H380.176V33.2413H383.296V44H380.176V39.9805H375.497V44H372.397V33.2413ZM390.462 33.0813C392.128 33.0813 393.408 33.4813 394.301 34.2812C395.194 35.0678 395.641 36.2609 395.641 37.8607V44H392.721V42.6602C392.135 43.66 391.042 44.16 389.442 44.16C388.615 44.16 387.895 44.02 387.282 43.74C386.682 43.4601 386.222 43.0734 385.902 42.5802C385.582 42.0869 385.422 41.527 385.422 40.9004C385.422 39.9005 385.796 39.1139 386.542 38.5407C387.302 37.9674 388.469 37.6808 390.042 37.6808H392.521C392.521 37.0009 392.315 36.4809 391.901 36.121C391.488 35.7477 390.868 35.561 390.042 35.561C389.468 35.561 388.902 35.6543 388.342 35.841C387.795 36.0143 387.329 36.2543 386.942 36.5609L385.822 34.3812C386.409 33.9679 387.109 33.6479 387.922 33.4213C388.749 33.1946 389.595 33.0813 390.462 33.0813ZM390.222 42.0602C390.755 42.0602 391.228 41.9403 391.641 41.7003C392.055 41.447 392.348 41.0804 392.521 40.6004V39.5005H390.382C389.102 39.5005 388.462 39.9205 388.462 40.7604C388.462 41.1603 388.615 41.4803 388.922 41.7203C389.242 41.9469 389.675 42.0602 390.222 42.0602ZM410.41 41.4403V46.3197H407.51V44H399.951V46.3197H397.051V41.4403H397.491C398.158 41.427 398.618 41.0337 398.871 40.2605C399.124 39.4872 399.284 38.3873 399.351 36.9609L399.491 33.2413H408.87V41.4403H410.41ZM402.171 37.1808C402.131 38.274 402.044 39.1673 401.911 39.8605C401.791 40.5538 401.557 41.0804 401.211 41.4403H405.75V35.801H402.231L402.171 37.1808ZM423.155 44.16C422.009 44.16 420.976 43.9267 420.056 43.4601C419.149 42.9801 418.436 42.3202 417.916 41.4803C417.41 40.6404 417.156 39.6872 417.156 38.6207C417.156 37.5541 417.41 36.6009 417.916 35.761C418.436 34.9211 419.149 34.2678 420.056 33.8012C420.976 33.3213 422.009 33.0813 423.155 33.0813C424.289 33.0813 425.275 33.3213 426.115 33.8012C426.968 34.2678 427.588 34.9411 427.975 35.821L425.555 37.1208C424.995 36.1343 424.189 35.641 423.135 35.641C422.322 35.641 421.649 35.9076 421.116 36.4409C420.582 36.9742 420.316 37.7008 420.316 38.6207C420.316 39.5405 420.582 40.2671 421.116 40.8004C421.649 41.3337 422.322 41.6003 423.135 41.6003C424.202 41.6003 425.009 41.107 425.555 40.1205L427.975 41.4403C427.588 42.2935 426.968 42.9601 426.115 43.4401C425.275 43.92 424.289 44.16 423.155 44.16ZM434.773 44.16C433.64 44.16 432.62 43.9267 431.714 43.4601C430.82 42.9801 430.121 42.3202 429.614 41.4803C429.107 40.6404 428.854 39.6872 428.854 38.6207C428.854 37.5541 429.107 36.6009 429.614 35.761C430.121 34.9211 430.82 34.2678 431.714 33.8012C432.62 33.3213 433.64 33.0813 434.773 33.0813C435.906 33.0813 436.92 33.3213 437.813 33.8012C438.706 34.2678 439.406 34.9211 439.913 35.761C440.419 36.6009 440.673 37.5541 440.673 38.6207C440.673 39.6872 440.419 40.6404 439.913 41.4803C439.406 42.3202 438.706 42.9801 437.813 43.4601C436.92 43.9267 435.906 44.16 434.773 44.16ZM434.773 41.6003C435.573 41.6003 436.226 41.3337 436.733 40.8004C437.253 40.2538 437.513 39.5272 437.513 38.6207C437.513 37.7141 437.253 36.9942 436.733 36.4609C436.226 35.9143 435.573 35.641 434.773 35.641C433.973 35.641 433.313 35.9143 432.794 36.4609C432.274 36.9942 432.014 37.7141 432.014 38.6207C432.014 39.5272 432.274 40.2538 432.794 40.8004C433.313 41.3337 433.973 41.6003 434.773 41.6003ZM449.602 38.4007C450.242 38.6007 450.735 38.9073 451.082 39.3206C451.442 39.7339 451.622 40.2271 451.622 40.8004C451.622 41.4803 451.389 42.0802 450.922 42.6002C450.455 43.1068 449.815 43.5001 449.002 43.78C448.189 44.06 447.269 44.2 446.243 44.2C445.403 44.2 444.576 44.1133 443.763 43.94C442.95 43.7667 442.196 43.5067 441.503 43.1601L442.343 40.9804C443.476 41.527 444.729 41.8003 446.103 41.8003C446.836 41.8003 447.409 41.6936 447.822 41.4803C448.249 41.2537 448.462 40.9404 448.462 40.5404C448.462 40.1938 448.316 39.9338 448.022 39.7605C447.729 39.5739 447.302 39.4805 446.742 39.4805H444.543V37.5408H446.462C447.009 37.5408 447.429 37.4541 447.722 37.2808C448.016 37.1075 448.162 36.8542 448.162 36.5209C448.162 36.1743 447.976 35.9076 447.602 35.721C447.242 35.5344 446.722 35.441 446.043 35.441C445.003 35.441 443.869 35.6877 442.643 36.1809L441.883 34.0212C443.376 33.368 444.829 33.0413 446.243 33.0413C447.216 33.0413 448.082 33.1613 448.842 33.4013C449.615 33.6413 450.222 33.9945 450.662 34.4612C451.102 34.9144 451.322 35.4477 451.322 36.061C451.322 36.5676 451.169 37.0275 450.862 37.4408C450.555 37.8407 450.135 38.1607 449.602 38.4007ZM465.95 41.4403V46.3197H463.05V44H455.491V46.3197H452.591V41.4403H453.031C453.698 41.427 454.158 41.0337 454.411 40.2605C454.664 39.4872 454.824 38.3873 454.891 36.9609L455.031 33.2413H464.41V41.4403H465.95ZM457.711 37.1808C457.671 38.274 457.584 39.1673 457.451 39.8605C457.331 40.5538 457.097 41.0804 456.751 41.4403H461.29V35.801H457.771L457.711 37.1808ZM472.092 33.0813C473.759 33.0813 475.039 33.4813 475.932 34.2812C476.825 35.0678 477.272 36.2609 477.272 37.8607V44H474.352V42.6602C473.765 43.66 472.672 44.16 471.072 44.16C470.246 44.16 469.526 44.02 468.913 43.74C468.313 43.4601 467.853 43.0734 467.533 42.5802C467.213 42.0869 467.053 41.527 467.053 40.9004C467.053 39.9005 467.426 39.1139 468.173 38.5407C468.933 37.9674 470.099 37.6808 471.672 37.6808H474.152C474.152 37.0009 473.945 36.4809 473.532 36.121C473.119 35.7477 472.499 35.561 471.672 35.561C471.099 35.561 470.533 35.6543 469.973 35.841C469.426 36.0143 468.959 36.2543 468.573 36.5609L467.453 34.3812C468.039 33.9679 468.739 33.6479 469.553 33.4213C470.379 33.1946 471.226 33.0813 472.092 33.0813ZM471.852 42.0602C472.386 42.0602 472.859 41.9403 473.272 41.7003C473.685 41.447 473.979 41.0804 474.152 40.6004V39.5005H472.012C470.733 39.5005 470.093 39.9205 470.093 40.7604C470.093 41.1603 470.246 41.4803 470.553 41.7203C470.872 41.9469 471.306 42.0602 471.852 42.0602ZM479.982 33.2413H483.081V37.4408H487.761V33.2413H490.88V44H487.761V39.9805H483.081V44H479.982V33.2413ZM493.867 33.2413H496.966V39.6405L502.206 33.2413H505.065V44H501.966V37.6008L496.746 44H493.867V33.2413ZM518.523 38.6606C518.523 38.7006 518.503 38.9806 518.463 39.5005H510.324C510.471 40.1671 510.817 40.6937 511.364 41.0804C511.91 41.467 512.59 41.6603 513.404 41.6603C513.963 41.6603 514.457 41.5803 514.883 41.4203C515.323 41.247 515.73 40.9804 516.103 40.6204L517.763 42.4202C516.75 43.5801 515.27 44.16 513.324 44.16C512.11 44.16 511.037 43.9267 510.104 43.4601C509.171 42.9801 508.451 42.3202 507.944 41.4803C507.438 40.6404 507.184 39.6872 507.184 38.6207C507.184 37.5674 507.431 36.6209 507.924 35.781C508.431 34.9278 509.117 34.2678 509.984 33.8012C510.864 33.3213 511.844 33.0813 512.924 33.0813C513.977 33.0813 514.93 33.308 515.783 33.7612C516.637 34.2145 517.303 34.8678 517.783 35.721C518.276 36.5609 518.523 37.5408 518.523 38.6606ZM512.944 35.441C512.237 35.441 511.644 35.641 511.164 36.041C510.684 36.4409 510.391 36.9875 510.284 37.6808H515.583C515.477 37.0009 515.183 36.4609 514.703 36.061C514.223 35.6477 513.637 35.441 512.944 35.441ZM531.413 44V37.5608L528.193 42.9601H526.873L523.734 37.5408V44H520.914V33.2413H524.174L527.613 39.4606L531.273 33.2413H534.193L534.233 44H531.413ZM52.1985 63.2413V74H49.0789V65.801H44.5994V74H41.4998V63.2413H52.1985ZM59.3691 63.0813C61.0355 63.0813 62.3154 63.4813 63.2086 64.2812C64.1018 65.0678 64.5484 66.2609 64.5484 67.8607V74H61.6288V72.6602C61.0422 73.66 59.949 74.16 58.3492 74.16C57.5226 74.16 56.8027 74.02 56.1894 73.74C55.5895 73.4601 55.1296 73.0734 54.8096 72.5802C54.4896 72.0869 54.3297 71.527 54.3297 70.9004C54.3297 69.9005 54.703 69.1139 55.4495 68.5407C56.2094 67.9674 57.376 67.6808 58.9491 67.6808H61.4288C61.4288 67.0009 61.2222 66.4809 60.8089 66.121C60.3956 65.7477 59.7757 65.561 58.9491 65.561C58.3758 65.561 57.8092 65.6543 57.2493 65.841C56.7027 66.0143 56.2361 66.2543 55.8495 66.5609L54.7296 64.3812C55.3162 63.9679 56.0161 63.6479 56.8294 63.4213C57.6559 63.1946 58.5025 63.0813 59.3691 63.0813ZM59.1291 72.0602C59.6624 72.0602 60.1356 71.9403 60.5489 71.7003C60.9622 71.447 61.2555 71.0804 61.4288 70.6004V69.5005H59.2891C58.0092 69.5005 57.3693 69.9205 57.3693 70.7604C57.3693 71.1603 57.5226 71.4803 57.8292 71.7203C58.1492 71.9469 58.5825 72.0602 59.1291 72.0602ZM72.3778 74.16C71.2313 74.16 70.198 73.9267 69.2782 73.4601C68.3716 72.9801 67.6584 72.3202 67.1384 71.4803C66.6318 70.6404 66.3785 69.6872 66.3785 68.6207C66.3785 67.5541 66.6318 66.6009 67.1384 65.761C67.6584 64.9211 68.3716 64.2678 69.2782 63.8012C70.198 63.3213 71.2313 63.0813 72.3778 63.0813C73.511 63.0813 74.4975 63.3213 75.3374 63.8012C76.1907 64.2678 76.8106 64.9411 77.1972 65.821L74.7775 67.1208C74.2176 66.1343 73.411 65.641 72.3578 65.641C71.5446 65.641 70.8713 65.9076 70.338 66.4409C69.8048 66.9742 69.5381 67.7008 69.5381 68.6207C69.5381 69.5405 69.8048 70.2671 70.338 70.8004C70.8713 71.3337 71.5446 71.6003 72.3578 71.6003C73.4243 71.6003 74.2309 71.107 74.7775 70.1205L77.1972 71.4403C76.8106 72.2935 76.1907 72.9601 75.3374 73.4401C74.4975 73.92 73.511 74.16 72.3778 74.16ZM84.0756 74.16C82.9291 74.16 81.8958 73.9267 80.976 73.4601C80.0694 72.9801 79.3562 72.3202 78.8362 71.4803C78.3296 70.6404 78.0763 69.6872 78.0763 68.6207C78.0763 67.5541 78.3296 66.6009 78.8362 65.761C79.3562 64.9211 80.0694 64.2678 80.976 63.8012C81.8958 63.3213 82.9291 63.0813 84.0756 63.0813C85.2088 63.0813 86.1953 63.3213 87.0352 63.8012C87.8885 64.2678 88.5084 64.9411 88.895 65.821L86.4753 67.1208C85.9154 66.1343 85.1088 65.641 84.0556 65.641C83.2424 65.641 82.5691 65.9076 82.0358 66.4409C81.5026 66.9742 81.2359 67.7008 81.2359 68.6207C81.2359 69.5405 81.5026 70.2671 82.0358 70.8004C82.5691 71.3337 83.2424 71.6003 84.0556 71.6003C85.1221 71.6003 85.9287 71.107 86.4753 70.1205L88.895 71.4403C88.5084 72.2935 87.8885 72.9601 87.0352 73.4401C86.1953 73.92 85.2088 74.16 84.0756 74.16ZM90.7907 63.2413H93.8903V69.6405L99.1297 63.2413H101.989V74H98.8897V67.6008L93.6704 74H90.7907V63.2413ZM113.207 68.3807C114.474 68.8073 115.107 69.6605 115.107 70.9404C115.107 71.9136 114.74 72.6668 114.007 73.2001C113.274 73.7334 112.181 74 110.728 74H104.988V63.2413H110.488C111.834 63.2413 112.887 63.4879 113.647 63.9812C114.407 64.4612 114.787 65.1411 114.787 66.021C114.787 66.5542 114.647 67.0275 114.367 67.4408C114.1 67.8407 113.714 68.154 113.207 68.3807ZM107.848 67.6608H110.208C111.301 67.6608 111.847 67.2742 111.847 66.5009C111.847 65.741 111.301 65.361 110.208 65.361H107.848V67.6608ZM110.468 71.8803C111.614 71.8803 112.187 71.487 112.187 70.7004C112.187 70.2871 112.054 69.9872 111.787 69.8005C111.521 69.6005 111.101 69.5005 110.528 69.5005H107.848V71.8803H110.468ZM117.428 63.2413H120.528V67.4408H125.207V63.2413H128.327V74H125.207V69.9805H120.528V74H117.428V63.2413ZM136.353 74.16C135.219 74.16 134.199 73.9267 133.293 73.4601C132.4 72.9801 131.7 72.3202 131.193 71.4803C130.687 70.6404 130.433 69.6872 130.433 68.6207C130.433 67.5541 130.687 66.6009 131.193 65.761C131.7 64.9211 132.4 64.2678 133.293 63.8012C134.199 63.3213 135.219 63.0813 136.353 63.0813C137.486 63.0813 138.499 63.3213 139.392 63.8012C140.285 64.2678 140.985 64.9211 141.492 65.761C141.998 66.6009 142.252 67.5541 142.252 68.6207C142.252 69.6872 141.998 70.6404 141.492 71.4803C140.985 72.3202 140.285 72.9801 139.392 73.4601C138.499 73.9267 137.486 74.16 136.353 74.16ZM136.353 71.6003C137.152 71.6003 137.806 71.3337 138.312 70.8004C138.832 70.2538 139.092 69.5272 139.092 68.6207C139.092 67.7141 138.832 66.9942 138.312 66.4609C137.806 65.9143 137.152 65.641 136.353 65.641C135.553 65.641 134.893 65.9143 134.373 66.4609C133.853 66.9942 133.593 67.7141 133.593 68.6207C133.593 69.5272 133.853 70.2538 134.373 70.8004C134.893 71.3337 135.553 71.6003 136.353 71.6003ZM153.016 65.801H147.497V74H144.397V63.2413H153.016V65.801ZM159.26 74.16C158.127 74.16 157.107 73.9267 156.2 73.4601C155.307 72.9801 154.607 72.3202 154.101 71.4803C153.594 70.6404 153.341 69.6872 153.341 68.6207C153.341 67.5541 153.594 66.6009 154.101 65.761C154.607 64.9211 155.307 64.2678 156.2 63.8012C157.107 63.3213 158.127 63.0813 159.26 63.0813C160.393 63.0813 161.406 63.3213 162.3 63.8012C163.193 64.2678 163.893 64.9211 164.399 65.761C164.906 66.6009 165.159 67.5541 165.159 68.6207C165.159 69.6872 164.906 70.6404 164.399 71.4803C163.893 72.3202 163.193 72.9801 162.3 73.4601C161.406 73.9267 160.393 74.16 159.26 74.16ZM159.26 71.6003C160.06 71.6003 160.713 71.3337 161.22 70.8004C161.74 70.2538 162 69.5272 162 68.6207C162 67.7141 161.74 66.9942 161.22 66.4609C160.713 65.9143 160.06 65.641 159.26 65.641C158.46 65.641 157.8 65.9143 157.28 66.4609C156.76 66.9942 156.5 67.7141 156.5 68.6207C156.5 69.5272 156.76 70.2538 157.28 70.8004C157.8 71.3337 158.46 71.6003 159.26 71.6003ZM185.027 71.4403V76.3197H182.127V74H174.568V76.3197H171.668V71.4403H172.108C172.775 71.427 173.235 71.0337 173.488 70.2605C173.741 69.4872 173.901 68.3873 173.968 66.9609L174.108 63.2413H183.487V71.4403H185.027ZM176.788 67.1808C176.748 68.274 176.661 69.1673 176.528 69.8605C176.408 70.5538 176.174 71.0804 175.828 71.4403H180.367V65.801H176.848L176.788 67.1808ZM192.029 74.16C190.896 74.16 189.876 73.9267 188.97 73.4601C188.076 72.9801 187.377 72.3202 186.87 71.4803C186.363 70.6404 186.11 69.6872 186.11 68.6207C186.11 67.5541 186.363 66.6009 186.87 65.761C187.377 64.9211 188.076 64.2678 188.97 63.8012C189.876 63.3213 190.896 63.0813 192.029 63.0813C193.163 63.0813 194.176 63.3213 195.069 63.8012C195.962 64.2678 196.662 64.9211 197.169 65.761C197.675 66.6009 197.929 67.5541 197.929 68.6207C197.929 69.6872 197.675 70.6404 197.169 71.4803C196.662 72.3202 195.962 72.9801 195.069 73.4601C194.176 73.9267 193.163 74.16 192.029 74.16ZM192.029 71.6003C192.829 71.6003 193.482 71.3337 193.989 70.8004C194.509 70.2538 194.769 69.5272 194.769 68.6207C194.769 67.7141 194.509 66.9942 193.989 66.4609C193.482 65.9143 192.829 65.641 192.029 65.641C191.229 65.641 190.57 65.9143 190.05 66.4609C189.53 66.9942 189.27 67.7141 189.27 68.6207C189.27 69.5272 189.53 70.2538 190.05 70.8004C190.57 71.3337 191.229 71.6003 192.029 71.6003ZM206.501 74L204.142 70.7004L201.702 74H198.302L202.442 68.5807L198.442 63.2413H201.942L204.222 66.3809L206.561 63.2413H209.881L205.882 68.5007L210.041 74H206.501ZM216.284 74.16C215.151 74.16 214.131 73.9267 213.225 73.4601C212.331 72.9801 211.631 72.3202 211.125 71.4803C210.618 70.6404 210.365 69.6872 210.365 68.6207C210.365 67.5541 210.618 66.6009 211.125 65.761C211.631 64.9211 212.331 64.2678 213.225 63.8012C214.131 63.3213 215.151 63.0813 216.284 63.0813C217.417 63.0813 218.431 63.3213 219.324 63.8012C220.217 64.2678 220.917 64.9211 221.424 65.761C221.93 66.6009 222.183 67.5541 222.183 68.6207C222.183 69.6872 221.93 70.6404 221.424 71.4803C220.917 72.3202 220.217 72.9801 219.324 73.4601C218.431 73.9267 217.417 74.16 216.284 74.16ZM216.284 71.6003C217.084 71.6003 217.737 71.3337 218.244 70.8004C218.764 70.2538 219.024 69.5272 219.024 68.6207C219.024 67.7141 218.764 66.9942 218.244 66.4609C217.737 65.9143 217.084 65.641 216.284 65.641C215.484 65.641 214.824 65.9143 214.304 66.4609C213.785 66.9942 213.525 67.7141 213.525 68.6207C213.525 69.5272 213.785 70.2538 214.304 70.8004C214.824 71.3337 215.484 71.6003 216.284 71.6003ZM236.231 71.4403V76.3197H233.332V74H225.773V76.3197H222.873V71.4403H223.313C223.98 71.427 224.44 71.0337 224.693 70.2605C224.946 69.4872 225.106 68.3873 225.173 66.9609L225.313 63.2413H234.692V71.4403H236.231ZM227.992 67.1808C227.952 68.274 227.866 69.1673 227.732 69.8605C227.613 70.5538 227.379 71.0804 227.033 71.4403H231.572V65.801H228.052L227.992 67.1808ZM242.374 63.0813C244.041 63.0813 245.32 63.4813 246.214 64.2812C247.107 65.0678 247.554 66.2609 247.554 67.8607V74H244.634V72.6602C244.047 73.66 242.954 74.16 241.354 74.16C240.528 74.16 239.808 74.02 239.195 73.74C238.595 73.4601 238.135 73.0734 237.815 72.5802C237.495 72.0869 237.335 71.527 237.335 70.9004C237.335 69.9005 237.708 69.1139 238.455 68.5407C239.215 67.9674 240.381 67.6808 241.954 67.6808H244.434C244.434 67.0009 244.227 66.4809 243.814 66.121C243.401 65.7477 242.781 65.561 241.954 65.561C241.381 65.561 240.814 65.6543 240.254 65.841C239.708 66.0143 239.241 66.2543 238.855 66.5609L237.735 64.3812C238.321 63.9679 239.021 63.6479 239.834 63.4213C240.661 63.1946 241.508 63.0813 242.374 63.0813ZM242.134 72.0602C242.667 72.0602 243.141 71.9403 243.554 71.7003C243.967 71.447 244.261 71.0804 244.434 70.6004V69.5005H242.294C241.014 69.5005 240.374 69.9205 240.374 70.7604C240.374 71.1603 240.528 71.4803 240.834 71.7203C241.154 71.9469 241.588 72.0602 242.134 72.0602Z" fill="white"></path> <path d="M203.18 512.6V521H201.992V513.644H200.096V512.6H203.18ZM208.449 521.096C207.785 521.096 207.193 520.928 206.673 520.592C206.161 520.248 205.757 519.752 205.461 519.104C205.165 518.456 205.017 517.688 205.017 516.8C205.017 515.912 205.165 515.144 205.461 514.496C205.757 513.848 206.161 513.356 206.673 513.02C207.193 512.676 207.785 512.504 208.449 512.504C209.105 512.504 209.689 512.676 210.201 513.02C210.721 513.356 211.129 513.848 211.425 514.496C211.721 515.144 211.869 515.912 211.869 516.8C211.869 517.688 211.721 518.456 211.425 519.104C211.129 519.752 210.721 520.248 210.201 520.592C209.689 520.928 209.105 521.096 208.449 521.096ZM208.449 520.028C209.121 520.028 209.657 519.752 210.057 519.2C210.465 518.648 210.669 517.848 210.669 516.8C210.669 515.752 210.465 514.952 210.057 514.4C209.657 513.848 209.121 513.572 208.449 513.572C207.769 513.572 207.225 513.848 206.817 514.4C206.417 514.952 206.217 515.752 206.217 516.8C206.217 517.848 206.417 518.648 206.817 519.2C207.225 519.752 207.769 520.028 208.449 520.028ZM222.244 514.64V521H221.092V515.648H218.356L218.284 517.064C218.244 517.92 218.168 518.636 218.056 519.212C217.944 519.78 217.76 520.236 217.504 520.58C217.248 520.924 216.892 521.096 216.436 521.096C216.228 521.096 215.992 521.06 215.728 520.988L215.8 520.016C215.904 520.04 216 520.052 216.088 520.052C216.408 520.052 216.648 519.912 216.808 519.632C216.968 519.352 217.072 519.02 217.12 518.636C217.168 518.252 217.212 517.704 217.252 516.992L217.36 514.64H222.244ZM230.219 517.856C230.219 517.944 230.211 518.06 230.195 518.204H225.035C225.107 518.764 225.351 519.216 225.767 519.56C226.191 519.896 226.715 520.064 227.339 520.064C228.099 520.064 228.711 519.808 229.175 519.296L229.811 520.04C229.523 520.376 229.163 520.632 228.731 520.808C228.307 520.984 227.831 521.072 227.303 521.072C226.631 521.072 226.035 520.936 225.515 520.664C224.995 520.384 224.591 519.996 224.303 519.5C224.023 519.004 223.883 518.444 223.883 517.82C223.883 517.204 224.019 516.648 224.291 516.152C224.571 515.656 224.951 515.272 225.431 515C225.919 514.72 226.467 514.58 227.075 514.58C227.683 514.58 228.223 514.72 228.695 515C229.175 515.272 229.547 515.656 229.811 516.152C230.083 516.648 230.219 517.216 230.219 517.856ZM227.075 515.552C226.523 515.552 226.059 515.72 225.683 516.056C225.315 516.392 225.099 516.832 225.035 517.376H229.115C229.051 516.84 228.831 516.404 228.455 516.068C228.087 515.724 227.627 515.552 227.075 515.552ZM236.477 515.648H234.149V521H232.997V515.648H230.669V514.64H236.477V515.648Z" fill="white"></path> <path opacity="0.3" d="M51.064 506.096C50.224 506.096 49.464 505.912 48.784 505.544C48.112 505.168 47.584 504.656 47.2 504.008C46.816 503.352 46.624 502.616 46.624 501.8C46.624 500.984 46.816 500.252 47.2 499.604C47.584 498.948 48.116 498.436 48.796 498.068C49.476 497.692 50.236 497.504 51.076 497.504C51.732 497.504 52.332 497.616 52.876 497.84C53.42 498.056 53.884 498.38 54.268 498.812L53.488 499.568C52.856 498.904 52.068 498.572 51.124 498.572C50.5 498.572 49.936 498.712 49.432 498.992C48.928 499.272 48.532 499.66 48.244 500.156C47.964 500.644 47.824 501.192 47.824 501.8C47.824 502.408 47.964 502.96 48.244 503.456C48.532 503.944 48.928 504.328 49.432 504.608C49.936 504.888 50.5 505.028 51.124 505.028C52.06 505.028 52.848 504.692 53.488 504.02L54.268 504.776C53.884 505.208 53.416 505.536 52.864 505.76C52.32 505.984 51.72 506.096 51.064 506.096ZM59.1013 499.58C59.7173 499.58 60.2693 499.716 60.7573 499.988C61.2453 500.26 61.6253 500.64 61.8973 501.128C62.1773 501.616 62.3173 502.18 62.3173 502.82C62.3173 503.46 62.1773 504.028 61.8973 504.524C61.6253 505.012 61.2453 505.392 60.7573 505.664C60.2693 505.936 59.7173 506.072 59.1013 506.072C58.6453 506.072 58.2253 505.984 57.8413 505.808C57.4653 505.632 57.1453 505.376 56.8813 505.04V508.328H55.7293V499.64H56.8333V500.648C57.0893 500.296 57.4133 500.032 57.8053 499.856C58.1973 499.672 58.6293 499.58 59.1013 499.58ZM59.0053 505.064C59.4133 505.064 59.7773 504.972 60.0973 504.788C60.4253 504.596 60.6813 504.332 60.8653 503.996C61.0573 503.652 61.1533 503.26 61.1533 502.82C61.1533 502.38 61.0573 501.992 60.8653 501.656C60.6813 501.312 60.4253 501.048 60.0973 500.864C59.7773 500.68 59.4133 500.588 59.0053 500.588C58.6053 500.588 58.2413 500.684 57.9133 500.876C57.5933 501.06 57.3373 501.32 57.1453 501.656C56.9613 501.992 56.8693 502.38 56.8693 502.82C56.8693 503.26 56.9613 503.652 57.1453 503.996C57.3293 504.332 57.5853 504.596 57.9133 504.788C58.2413 504.972 58.6053 505.064 59.0053 505.064ZM66.715 506.072C66.083 506.072 65.515 505.932 65.011 505.652C64.507 505.372 64.111 504.988 63.823 504.5C63.543 504.004 63.403 503.444 63.403 502.82C63.403 502.196 63.543 501.64 63.823 501.152C64.111 500.656 64.507 500.272 65.011 500C65.515 499.72 66.083 499.58 66.715 499.58C67.347 499.58 67.911 499.72 68.407 500C68.911 500.272 69.303 500.656 69.583 501.152C69.871 501.64 70.015 502.196 70.015 502.82C70.015 503.444 69.871 504.004 69.583 504.5C69.303 504.988 68.911 505.372 68.407 505.652C67.911 505.932 67.347 506.072 66.715 506.072ZM66.715 505.064C67.123 505.064 67.487 504.972 67.807 504.788C68.135 504.596 68.391 504.332 68.575 503.996C68.759 503.652 68.851 503.26 68.851 502.82C68.851 502.38 68.759 501.992 68.575 501.656C68.391 501.312 68.135 501.048 67.807 500.864C67.487 500.68 67.123 500.588 66.715 500.588C66.307 500.588 65.939 500.68 65.611 500.864C65.291 501.048 65.035 501.312 64.843 501.656C64.659 501.992 64.567 502.38 64.567 502.82C64.567 503.26 64.659 503.652 64.843 503.996C65.035 504.332 65.291 504.596 65.611 504.788C65.939 504.972 66.307 505.064 66.715 505.064ZM74.1505 503.312H72.8305V506H71.6785V499.64H72.8305V502.328H74.1745L76.2385 499.64H77.4745L75.0625 502.7L77.6425 506H76.2865L74.1505 503.312ZM47.116 515.64H48.268V520.272L52.168 515.64H53.212V522H52.06V517.368L48.172 522H47.116V515.64ZM55.448 515.64H56.6V518.34H60.224V515.64H61.376V522H60.224V519.336H56.6V522H55.448V515.64ZM67.948 518.7C68.772 518.908 69.184 519.424 69.184 520.248C69.184 520.808 68.972 521.24 68.548 521.544C68.132 521.848 67.508 522 66.676 522H63.616V515.64H66.568C67.32 515.64 67.908 515.784 68.332 516.072C68.756 516.352 68.968 516.752 68.968 517.272C68.968 517.608 68.876 517.9 68.692 518.148C68.516 518.388 68.268 518.572 67.948 518.7ZM64.744 518.376H66.472C66.912 518.376 67.244 518.296 67.468 518.136C67.7 517.976 67.816 517.744 67.816 517.44C67.816 516.832 67.368 516.528 66.472 516.528H64.744V518.376ZM66.592 521.112C67.072 521.112 67.432 521.036 67.672 520.884C67.912 520.732 68.032 520.496 68.032 520.176C68.032 519.848 67.92 519.604 67.696 519.444C67.48 519.284 67.136 519.204 66.664 519.204H64.744V521.112H66.592ZM76.7351 518.856C76.7351 518.944 76.7271 519.06 76.7111 519.204H71.5511C71.6231 519.764 71.8671 520.216 72.2831 520.56C72.7071 520.896 73.2311 521.064 73.8551 521.064C74.6151 521.064 75.2271 520.808 75.6911 520.296L76.3271 521.04C76.0391 521.376 75.6791 521.632 75.2471 521.808C74.8231 521.984 74.3471 522.072 73.8191 522.072C73.1471 522.072 72.5511 521.936 72.0311 521.664C71.5111 521.384 71.1071 520.996 70.8191 520.5C70.5391 520.004 70.3991 519.444 70.3991 518.82C70.3991 518.204 70.5351 517.648 70.8071 517.152C71.0871 516.656 71.4671 516.272 71.9471 516C72.4351 515.72 72.9831 515.58 73.5911 515.58C74.1991 515.58 74.7391 515.72 75.2111 516C75.6911 516.272 76.0631 516.656 76.3271 517.152C76.5991 517.648 76.7351 518.216 76.7351 518.856ZM73.5911 516.552C73.0391 516.552 72.5751 516.72 72.1991 517.056C71.8311 517.392 71.6151 517.832 71.5511 518.376H75.6311C75.5671 517.84 75.3471 517.404 74.9711 517.068C74.6031 516.724 74.1431 516.552 73.5911 516.552ZM81.2943 522.072C80.6463 522.072 80.0663 521.932 79.5543 521.652C79.0503 521.372 78.6543 520.988 78.3663 520.5C78.0783 520.004 77.9343 519.444 77.9343 518.82C77.9343 518.196 78.0783 517.64 78.3663 517.152C78.6543 516.656 79.0503 516.272 79.5543 516C80.0663 515.72 80.6463 515.58 81.2943 515.58C81.8703 515.58 82.3823 515.696 82.8303 515.928C83.2863 516.16 83.6383 516.496 83.8863 516.936L83.0103 517.5C82.8103 517.196 82.5623 516.968 82.2663 516.816C81.9703 516.664 81.6423 516.588 81.2823 516.588C80.8663 516.588 80.4903 516.68 80.1543 516.864C79.8263 517.048 79.5663 517.312 79.3743 517.656C79.1903 517.992 79.0983 518.38 79.0983 518.82C79.0983 519.268 79.1903 519.664 79.3743 520.008C79.5663 520.344 79.8263 520.604 80.1543 520.788C80.4903 520.972 80.8663 521.064 81.2823 521.064C81.6423 521.064 81.9703 520.988 82.2663 520.836C82.5623 520.684 82.8103 520.456 83.0103 520.152L83.8863 520.704C83.6383 521.144 83.2863 521.484 82.8303 521.724C82.3823 521.956 81.8703 522.072 81.2943 522.072ZM90.0357 516.648H87.7077V522H86.5557V516.648H84.2277V515.64H90.0357V516.648ZM91.2137 515.64H92.3657V520.272L96.2657 515.64H97.3097V522H96.1577V517.368L92.2697 522H91.2137V515.64ZM102.918 515.58C103.534 515.58 104.086 515.716 104.574 515.988C105.062 516.26 105.442 516.64 105.714 517.128C105.994 517.616 106.134 518.18 106.134 518.82C106.134 519.46 105.994 520.028 105.714 520.524C105.442 521.012 105.062 521.392 104.574 521.664C104.086 521.936 103.534 522.072 102.918 522.072C102.462 522.072 102.042 521.984 101.658 521.808C101.282 521.632 100.962 521.376 100.698 521.04V524.328H99.5457V515.64H100.65V516.648C100.906 516.296 101.23 516.032 101.622 515.856C102.014 515.672 102.446 515.58 102.918 515.58ZM102.822 521.064C103.23 521.064 103.594 520.972 103.914 520.788C104.242 520.596 104.498 520.332 104.682 519.996C104.874 519.652 104.97 519.26 104.97 518.82C104.97 518.38 104.874 517.992 104.682 517.656C104.498 517.312 104.242 517.048 103.914 516.864C103.594 516.68 103.23 516.588 102.822 516.588C102.422 516.588 102.058 516.684 101.73 516.876C101.41 517.06 101.154 517.32 100.962 517.656C100.778 517.992 100.686 518.38 100.686 518.82C100.686 519.26 100.778 519.652 100.962 519.996C101.146 520.332 101.402 520.596 101.73 520.788C102.058 520.972 102.422 521.064 102.822 521.064ZM110.531 522.072C109.899 522.072 109.331 521.932 108.827 521.652C108.323 521.372 107.927 520.988 107.639 520.5C107.359 520.004 107.219 519.444 107.219 518.82C107.219 518.196 107.359 517.64 107.639 517.152C107.927 516.656 108.323 516.272 108.827 516C109.331 515.72 109.899 515.58 110.531 515.58C111.163 515.58 111.727 515.72 112.223 516C112.727 516.272 113.119 516.656 113.399 517.152C113.687 517.64 113.831 518.196 113.831 518.82C113.831 519.444 113.687 520.004 113.399 520.5C113.119 520.988 112.727 521.372 112.223 521.652C111.727 521.932 111.163 522.072 110.531 522.072ZM110.531 521.064C110.939 521.064 111.303 520.972 111.623 520.788C111.951 520.596 112.207 520.332 112.391 519.996C112.575 519.652 112.667 519.26 112.667 518.82C112.667 518.38 112.575 517.992 112.391 517.656C112.207 517.312 111.951 517.048 111.623 516.864C111.303 516.68 110.939 516.588 110.531 516.588C110.123 516.588 109.755 516.68 109.427 516.864C109.107 517.048 108.851 517.312 108.659 517.656C108.475 517.992 108.383 518.38 108.383 518.82C108.383 519.26 108.475 519.652 108.659 519.996C108.851 520.332 109.107 520.596 109.427 520.788C109.755 520.972 110.123 521.064 110.531 521.064ZM119.827 518.7C120.651 518.908 121.063 519.424 121.063 520.248C121.063 520.808 120.851 521.24 120.427 521.544C120.011 521.848 119.387 522 118.555 522H115.495V515.64H118.447C119.199 515.64 119.787 515.784 120.211 516.072C120.635 516.352 120.847 516.752 120.847 517.272C120.847 517.608 120.755 517.9 120.571 518.148C120.395 518.388 120.147 518.572 119.827 518.7ZM116.623 518.376H118.351C118.791 518.376 119.123 518.296 119.347 518.136C119.579 517.976 119.695 517.744 119.695 517.44C119.695 516.832 119.247 516.528 118.351 516.528H116.623V518.376ZM118.471 521.112C118.951 521.112 119.311 521.036 119.551 520.884C119.791 520.732 119.911 520.496 119.911 520.176C119.911 519.848 119.799 519.604 119.575 519.444C119.359 519.284 119.015 519.204 118.543 519.204H116.623V521.112H118.471ZM125.134 515.58C126.014 515.58 126.686 515.796 127.15 516.228C127.622 516.66 127.858 517.304 127.858 518.16V522H126.766V521.16C126.574 521.456 126.298 521.684 125.938 521.844C125.586 521.996 125.166 522.072 124.678 522.072C123.966 522.072 123.394 521.9 122.962 521.556C122.538 521.212 122.326 520.76 122.326 520.2C122.326 519.64 122.53 519.192 122.938 518.856C123.346 518.512 123.994 518.34 124.882 518.34H126.706V518.112C126.706 517.616 126.562 517.236 126.274 516.972C125.986 516.708 125.562 516.576 125.002 516.576C124.626 516.576 124.258 516.64 123.898 516.768C123.538 516.888 123.234 517.052 122.986 517.26L122.506 516.396C122.834 516.132 123.226 515.932 123.682 515.796C124.138 515.652 124.622 515.58 125.134 515.58ZM124.87 521.184C125.31 521.184 125.69 521.088 126.01 520.896C126.33 520.696 126.562 520.416 126.706 520.056V519.168H124.93C123.954 519.168 123.466 519.496 123.466 520.152C123.466 520.472 123.59 520.724 123.838 520.908C124.086 521.092 124.43 521.184 124.87 521.184ZM129.932 515.64H131.084V518.34H134.708V515.64H135.86V522H134.708V519.336H131.084V522H129.932V515.64ZM138.1 515.64H139.252V520.272L143.152 515.64H144.196V522H143.044V517.368L139.156 522H138.1V515.64ZM151.532 515.64V522H150.5V519.984H148.652H148.52L147.128 522H145.892L147.44 519.828C146.96 519.684 146.592 519.448 146.336 519.12C146.08 518.784 145.952 518.368 145.952 517.872C145.952 517.144 146.2 516.592 146.696 516.216C147.192 515.832 147.876 515.64 148.748 515.64H151.532ZM147.128 517.908C147.128 518.332 147.26 518.648 147.524 518.856C147.796 519.056 148.2 519.156 148.736 519.156H150.5V516.648H148.784C147.68 516.648 147.128 517.068 147.128 517.908ZM154.032 517.224C153.808 517.224 153.616 517.148 153.456 516.996C153.296 516.836 153.216 516.636 153.216 516.396C153.216 516.164 153.296 515.972 153.456 515.82C153.616 515.66 153.808 515.58 154.032 515.58C154.256 515.58 154.444 515.656 154.596 515.808C154.748 515.96 154.824 516.156 154.824 516.396C154.824 516.636 154.744 516.836 154.584 516.996C154.432 517.148 154.248 517.224 154.032 517.224ZM154.032 522.072C153.808 522.072 153.616 521.996 153.456 521.844C153.296 521.684 153.216 521.484 153.216 521.244C153.216 521.012 153.296 520.82 153.456 520.668C153.616 520.508 153.808 520.428 154.032 520.428C154.256 520.428 154.444 520.504 154.596 520.656C154.748 520.808 154.824 521.004 154.824 521.244C154.824 521.484 154.744 521.684 154.584 521.844C154.432 521.996 154.248 522.072 154.032 522.072Z" fill="white"></path> <path opacity="0.3" d="M35.956 467.688L38.836 467.688L38.836 468.804L37 468.804L37 475.716L38.836 475.728L38.836 476.844L35.956 476.832L35.956 476.424C35.924 475.896 35.508 475.524 34.708 475.308C33.9 475.092 32.764 474.96 31.3 474.912L28.6 474.828L28.6 468.924L35.956 468.924L35.956 467.688ZM31.408 473.856C32.592 473.896 33.572 473.992 34.348 474.144C35.124 474.288 35.66 474.524 35.956 474.852L35.956 470.112L29.644 470.112L29.644 473.796L31.408 473.856ZM37.072 463.656C37.072 464.288 36.932 464.856 36.652 465.36C36.372 465.864 35.988 466.26 35.5 466.548C35.004 466.828 34.444 466.968 33.82 466.968C33.196 466.968 32.64 466.828 32.152 466.548C31.656 466.26 31.272 465.864 31 465.36C30.72 464.856 30.58 464.288 30.58 463.656C30.58 463.024 30.72 462.46 31 461.964C31.272 461.46 31.656 461.068 32.152 460.788C32.64 460.5 33.196 460.356 33.82 460.356C34.444 460.356 35.004 460.5 35.5 460.788C35.988 461.068 36.372 461.46 36.652 461.964C36.932 462.46 37.072 463.024 37.072 463.656ZM36.064 463.656C36.064 463.248 35.972 462.884 35.788 462.564C35.596 462.236 35.332 461.98 34.996 461.796C34.652 461.612 34.26 461.52 33.82 461.52C33.38 461.52 32.992 461.612 32.656 461.796C32.312 461.98 32.048 462.236 31.864 462.564C31.68 462.884 31.588 463.248 31.588 463.656C31.588 464.064 31.68 464.432 31.864 464.76C32.048 465.08 32.312 465.336 32.656 465.528C32.992 465.712 33.38 465.804 33.82 465.804C34.26 465.804 34.652 465.712 34.996 465.528C35.332 465.336 35.596 465.08 35.788 464.76C35.972 464.432 36.064 464.064 36.064 463.656ZM37 454.932L34.564 456.768L37 458.628L37 459.912L33.748 457.404L30.64 459.792L30.64 458.508L32.932 456.756L30.64 455.016L30.64 453.756L33.748 456.156L37 453.624L37 454.932ZM37.072 449.898C37.072 450.53 36.932 451.098 36.652 451.602C36.372 452.106 35.988 452.502 35.5 452.79C35.004 453.07 34.444 453.21 33.82 453.21C33.196 453.21 32.64 453.07 32.152 452.79C31.656 452.502 31.272 452.106 31 451.602C30.72 451.098 30.58 450.53 30.58 449.898C30.58 449.266 30.72 448.702 31 448.206C31.272 447.702 31.656 447.31 32.152 447.03C32.64 446.742 33.196 446.598 33.82 446.598C34.444 446.598 35.004 446.742 35.5 447.03C35.988 447.31 36.372 447.702 36.652 448.206C36.932 448.702 37.072 449.266 37.072 449.898ZM36.064 449.898C36.064 449.49 35.972 449.126 35.788 448.806C35.596 448.478 35.332 448.222 34.996 448.038C34.652 447.854 34.26 447.762 33.82 447.762C33.38 447.762 32.992 447.854 32.656 448.038C32.312 448.222 32.048 448.478 31.864 448.806C31.68 449.126 31.588 449.49 31.588 449.898C31.588 450.306 31.68 450.674 31.864 451.002C32.048 451.322 32.312 451.578 32.656 451.77C32.992 451.954 33.38 452.046 33.82 452.046C34.26 452.046 34.652 451.954 34.996 451.77C35.332 451.578 35.596 451.322 35.788 451.002C35.972 450.674 36.064 450.306 36.064 449.898ZM35.992 438.514L38.476 438.514L38.476 439.594L37 439.594L37 444.91L38.476 444.91L38.476 446.002L35.992 446.002L35.992 445.666C35.968 445.258 35.68 444.978 35.128 444.826C34.576 444.674 33.796 444.57 32.788 444.514L30.64 444.418L30.64 439.486L35.992 439.486L35.992 438.514ZM32.872 443.458C33.672 443.49 34.336 443.558 34.864 443.662C35.384 443.758 35.76 443.938 35.992 444.202L35.992 440.638L31.648 440.638L31.648 443.398L32.872 443.458ZM37.072 431.066C37.072 431.698 36.932 432.266 36.652 432.77C36.372 433.274 35.988 433.67 35.5 433.958C35.004 434.238 34.444 434.378 33.82 434.378C33.196 434.378 32.64 434.238 32.152 433.958C31.656 433.67 31.272 433.274 31 432.77C30.72 432.266 30.58 431.698 30.58 431.066C30.58 430.434 30.72 429.87 31 429.374C31.272 428.87 31.656 428.478 32.152 428.198C32.64 427.91 33.196 427.766 33.82 427.766C34.444 427.766 35.004 427.91 35.5 428.198C35.988 428.478 36.372 428.87 36.652 429.374C36.932 429.87 37.072 430.434 37.072 431.066ZM36.064 431.066C36.064 430.658 35.972 430.294 35.788 429.974C35.596 429.646 35.332 429.39 34.996 429.206C34.652 429.022 34.26 428.93 33.82 428.93C33.38 428.93 32.992 429.022 32.656 429.206C32.312 429.39 32.048 429.646 31.864 429.974C31.68 430.294 31.588 430.658 31.588 431.066C31.588 431.474 31.68 431.842 31.864 432.17C32.048 432.49 32.312 432.746 32.656 432.938C32.992 433.122 33.38 433.214 33.82 433.214C34.26 433.214 34.652 433.122 34.996 432.938C35.332 432.746 35.596 432.49 35.788 432.17C35.972 431.842 36.064 431.474 36.064 431.066ZM31.648 421.597L31.648 423.925L37 423.925L37 425.077L31.648 425.077L31.648 427.405L30.64 427.405L30.64 421.597L31.648 421.597ZM30.64 417.196L30.64 416.044L35.272 416.044L30.64 412.144L30.64 411.1L37 411.1L37 412.252L32.368 412.252L37 416.14L37 417.196L30.64 417.196ZM30.64 408.864L30.64 407.712L33.34 407.712L33.34 404.088L30.64 404.088L30.64 402.936L37 402.936L37 404.088L34.336 404.088L34.336 407.712L37 407.712L37 408.864L30.64 408.864ZM33.7 396.364C33.908 395.54 34.424 395.128 35.248 395.128C35.808 395.128 36.24 395.34 36.544 395.764C36.848 396.18 37 396.804 37 397.636L37 400.696L30.64 400.696L30.64 397.744C30.64 396.992 30.784 396.404 31.072 395.98C31.352 395.556 31.752 395.344 32.272 395.344C32.608 395.344 32.9 395.436 33.148 395.62C33.388 395.796 33.572 396.044 33.7 396.364ZM33.376 399.568L33.376 397.84C33.376 397.4 33.296 397.068 33.136 396.844C32.976 396.612 32.744 396.496 32.44 396.496C31.832 396.496 31.528 396.944 31.528 397.84L31.528 399.568L33.376 399.568ZM36.112 397.72C36.112 397.24 36.036 396.88 35.884 396.64C35.732 396.4 35.496 396.28 35.176 396.28C34.848 396.28 34.604 396.392 34.444 396.616C34.284 396.832 34.204 397.176 34.204 397.648L34.204 399.568L36.112 399.568L36.112 397.72ZM33.856 387.577C33.944 387.577 34.06 387.585 34.204 387.601L34.204 392.761C34.764 392.689 35.216 392.445 35.56 392.029C35.896 391.605 36.064 391.081 36.064 390.457C36.064 389.697 35.808 389.085 35.296 388.621L36.04 387.985C36.376 388.273 36.632 388.633 36.808 389.065C36.984 389.489 37.072 389.965 37.072 390.493C37.072 391.165 36.936 391.761 36.664 392.281C36.384 392.801 35.996 393.205 35.5 393.493C35.004 393.773 34.444 393.913 33.82 393.913C33.204 393.913 32.648 393.777 32.152 393.505C31.656 393.225 31.272 392.845 31 392.365C30.72 391.877 30.58 391.329 30.58 390.721C30.58 390.113 30.72 389.573 31 389.101C31.272 388.621 31.656 388.249 32.152 387.985C32.648 387.713 33.216 387.577 33.856 387.577ZM31.552 390.721C31.552 391.273 31.72 391.737 32.056 392.113C32.392 392.481 32.832 392.697 33.376 392.761L33.376 388.681C32.84 388.745 32.404 388.965 32.068 389.341C31.724 389.709 31.552 390.169 31.552 390.721ZM37.072 383.018C37.072 383.666 36.932 384.246 36.652 384.758C36.372 385.262 35.988 385.658 35.5 385.946C35.004 386.234 34.444 386.378 33.82 386.378C33.196 386.378 32.64 386.234 32.152 385.946C31.656 385.658 31.272 385.262 31 384.758C30.72 384.246 30.58 383.666 30.58 383.018C30.58 382.442 30.696 381.93 30.928 381.482C31.16 381.026 31.496 380.674 31.936 380.426L32.5 381.302C32.196 381.502 31.968 381.75 31.816 382.046C31.664 382.342 31.588 382.67 31.588 383.03C31.588 383.446 31.68 383.822 31.864 384.158C32.048 384.486 32.312 384.746 32.656 384.938C32.992 385.122 33.38 385.214 33.82 385.214C34.268 385.214 34.664 385.122 35.008 384.938C35.344 384.746 35.604 384.486 35.788 384.158C35.972 383.822 36.064 383.446 36.064 383.03C36.064 382.67 35.988 382.342 35.836 382.046C35.684 381.75 35.456 381.502 35.152 381.302L35.704 380.426C36.144 380.674 36.484 381.026 36.724 381.482C36.956 381.93 37.072 382.442 37.072 383.018ZM31.648 374.277L31.648 376.605L37 376.605L37 377.757L31.648 377.757L31.648 380.085L30.64 380.085L30.64 374.277L31.648 374.277ZM30.64 373.099L30.64 371.947L35.272 371.947L30.64 368.047L30.64 367.003L37 367.003L37 368.155L32.368 368.155L37 372.043L37 373.099L30.64 373.099ZM35.992 357.975L38.524 357.975L38.524 359.067L37 359.067L37 364.767L30.64 364.767L30.64 363.615L35.992 363.615L35.992 360.135L30.64 360.135L30.64 358.983L35.992 358.983L35.992 357.975ZM30.64 356.482L30.64 355.33L35.272 355.33L30.64 351.43L30.64 350.386L37 350.386L37 351.538L32.368 351.538L37 355.426L37 356.482L30.64 356.482ZM30.64 348.15L30.64 346.998L35.272 346.998L30.64 343.098L30.64 342.054L37 342.054L37 343.206L32.368 343.206L37 347.094L37 348.15L30.64 348.15ZM29.812 345.174C29.812 345.766 29.672 346.226 29.392 346.554C29.104 346.882 28.692 347.05 28.156 347.058L28.156 346.278C28.452 346.27 28.692 346.17 28.876 345.978C29.052 345.778 29.14 345.514 29.14 345.186C29.14 344.858 29.052 344.594 28.876 344.394C28.692 344.194 28.452 344.09 28.156 344.082L28.156 343.278C28.692 343.286 29.104 343.458 29.392 343.794C29.672 344.13 29.812 344.59 29.812 345.174Z" fill="white"></path> <path d="M378.48 519.956V521H372.444V520.184L375.864 516.884C376.28 516.484 376.56 516.14 376.704 515.852C376.848 515.556 376.92 515.26 376.92 514.964C376.92 514.524 376.764 514.184 376.452 513.944C376.148 513.696 375.708 513.572 375.132 513.572C374.204 513.572 373.488 513.876 372.984 514.484L372.168 513.776C372.496 513.376 372.924 513.064 373.452 512.84C373.988 512.616 374.584 512.504 375.24 512.504C376.12 512.504 376.82 512.716 377.34 513.14C377.86 513.556 378.12 514.124 378.12 514.844C378.12 515.292 378.024 515.716 377.832 516.116C377.64 516.516 377.276 516.972 376.74 517.484L374.172 519.956H378.48ZM382.863 521.096C382.199 521.096 381.607 520.928 381.087 520.592C380.575 520.248 380.171 519.752 379.875 519.104C379.579 518.456 379.431 517.688 379.431 516.8C379.431 515.912 379.579 515.144 379.875 514.496C380.171 513.848 380.575 513.356 381.087 513.02C381.607 512.676 382.199 512.504 382.863 512.504C383.519 512.504 384.103 512.676 384.615 513.02C385.135 513.356 385.543 513.848 385.839 514.496C386.135 515.144 386.283 515.912 386.283 516.8C386.283 517.688 386.135 518.456 385.839 519.104C385.543 519.752 385.135 520.248 384.615 520.592C384.103 520.928 383.519 521.096 382.863 521.096ZM382.863 520.028C383.535 520.028 384.071 519.752 384.471 519.2C384.879 518.648 385.083 517.848 385.083 516.8C385.083 515.752 384.879 514.952 384.471 514.4C384.071 513.848 383.535 513.572 382.863 513.572C382.183 513.572 381.639 513.848 381.231 514.4C380.831 514.952 380.631 515.752 380.631 516.8C380.631 517.848 380.831 518.648 381.231 519.2C381.639 519.752 382.183 520.028 382.863 520.028ZM396.658 514.64V521H395.506V515.648H392.77L392.698 517.064C392.658 517.92 392.582 518.636 392.47 519.212C392.358 519.78 392.174 520.236 391.918 520.58C391.662 520.924 391.306 521.096 390.85 521.096C390.642 521.096 390.406 521.06 390.142 520.988L390.214 520.016C390.318 520.04 390.414 520.052 390.502 520.052C390.822 520.052 391.062 519.912 391.222 519.632C391.382 519.352 391.486 519.02 391.534 518.636C391.582 518.252 391.626 517.704 391.666 516.992L391.774 514.64H396.658ZM404.634 517.856C404.634 517.944 404.626 518.06 404.61 518.204H399.45C399.522 518.764 399.766 519.216 400.182 519.56C400.606 519.896 401.13 520.064 401.754 520.064C402.514 520.064 403.126 519.808 403.59 519.296L404.226 520.04C403.938 520.376 403.578 520.632 403.146 520.808C402.722 520.984 402.246 521.072 401.718 521.072C401.046 521.072 400.45 520.936 399.93 520.664C399.41 520.384 399.006 519.996 398.718 519.5C398.438 519.004 398.298 518.444 398.298 517.82C398.298 517.204 398.434 516.648 398.706 516.152C398.986 515.656 399.366 515.272 399.846 515C400.334 514.72 400.882 514.58 401.49 514.58C402.098 514.58 402.638 514.72 403.11 515C403.59 515.272 403.962 515.656 404.226 516.152C404.498 516.648 404.634 517.216 404.634 517.856ZM401.49 515.552C400.938 515.552 400.474 515.72 400.098 516.056C399.73 516.392 399.514 516.832 399.45 517.376H403.53C403.466 516.84 403.246 516.404 402.87 516.068C402.502 515.724 402.042 515.552 401.49 515.552ZM410.891 515.648H408.563V521H407.411V515.648H405.083V514.64H410.891V515.648Z" fill="white"></path> <g filter="url(#filter0_d)"> <path d="M50 481C350.641 476.333 475 474.5 576 469" stroke="#9A8B00" stroke-width="4" stroke-linecap="round"></path> </g> <path d="M541.792 516.128C542.616 516.208 543.244 516.464 543.676 516.896C544.108 517.32 544.324 517.864 544.324 518.528C544.324 519.008 544.204 519.444 543.964 519.836C543.724 520.22 543.364 520.528 542.884 520.76C542.412 520.984 541.832 521.096 541.144 521.096C540.544 521.096 539.968 521.008 539.416 520.832C538.864 520.648 538.412 520.396 538.06 520.076L538.612 519.128C538.9 519.4 539.268 519.62 539.716 519.788C540.164 519.948 540.64 520.028 541.144 520.028C541.768 520.028 542.252 519.896 542.596 519.632C542.948 519.368 543.124 519.004 543.124 518.54C543.124 518.076 542.952 517.716 542.608 517.46C542.264 517.204 541.744 517.076 541.048 517.076H540.376V516.236L542.488 513.644H538.444V512.6H543.988V513.416L541.792 516.128ZM548.875 521.096C548.211 521.096 547.619 520.928 547.099 520.592C546.587 520.248 546.183 519.752 545.887 519.104C545.591 518.456 545.443 517.688 545.443 516.8C545.443 515.912 545.591 515.144 545.887 514.496C546.183 513.848 546.587 513.356 547.099 513.02C547.619 512.676 548.211 512.504 548.875 512.504C549.531 512.504 550.115 512.676 550.627 513.02C551.147 513.356 551.555 513.848 551.851 514.496C552.147 515.144 552.295 515.912 552.295 516.8C552.295 517.688 552.147 518.456 551.851 519.104C551.555 519.752 551.147 520.248 550.627 520.592C550.115 520.928 549.531 521.096 548.875 521.096ZM548.875 520.028C549.547 520.028 550.083 519.752 550.483 519.2C550.891 518.648 551.095 517.848 551.095 516.8C551.095 515.752 550.891 514.952 550.483 514.4C550.083 513.848 549.547 513.572 548.875 513.572C548.195 513.572 547.651 513.848 547.243 514.4C546.843 514.952 546.643 515.752 546.643 516.8C546.643 517.848 546.843 518.648 547.243 519.2C547.651 519.752 548.195 520.028 548.875 520.028ZM562.67 514.64V521H561.518V515.648H558.782L558.71 517.064C558.67 517.92 558.594 518.636 558.482 519.212C558.37 519.78 558.186 520.236 557.93 520.58C557.674 520.924 557.318 521.096 556.862 521.096C556.654 521.096 556.418 521.06 556.154 520.988L556.226 520.016C556.33 520.04 556.426 520.052 556.514 520.052C556.834 520.052 557.074 519.912 557.234 519.632C557.394 519.352 557.498 519.02 557.546 518.636C557.594 518.252 557.638 517.704 557.678 516.992L557.786 514.64H562.67ZM570.645 517.856C570.645 517.944 570.637 518.06 570.621 518.204H565.461C565.533 518.764 565.777 519.216 566.193 519.56C566.617 519.896 567.141 520.064 567.765 520.064C568.525 520.064 569.137 519.808 569.601 519.296L570.237 520.04C569.949 520.376 569.589 520.632 569.157 520.808C568.733 520.984 568.257 521.072 567.729 521.072C567.057 521.072 566.461 520.936 565.941 520.664C565.421 520.384 565.017 519.996 564.729 519.5C564.449 519.004 564.309 518.444 564.309 517.82C564.309 517.204 564.445 516.648 564.717 516.152C564.997 515.656 565.377 515.272 565.857 515C566.345 514.72 566.893 514.58 567.501 514.58C568.109 514.58 568.649 514.72 569.121 515C569.601 515.272 569.973 515.656 570.237 516.152C570.509 516.648 570.645 517.216 570.645 517.856ZM567.501 515.552C566.949 515.552 566.485 515.72 566.109 516.056C565.741 516.392 565.525 516.832 565.461 517.376H569.541C569.477 516.84 569.257 516.404 568.881 516.068C568.513 515.724 568.053 515.552 567.501 515.552ZM576.903 515.648H574.575V521H573.423V515.648H571.095V514.64H576.903V515.648Z" fill="white"></path> <g filter="url(#filter1_d)"> <path d="M50 481C352.016 481 540.46 278.656 580 123" stroke="#00A3FF" stroke-width="4" stroke-linecap="round"></path> </g> <g filter="url(#filter2_d)"> <circle cx="213.5" cy="461.5" r="5.5" fill="#00A3FF"></circle> <circle cx="213.5" cy="461.5" r="5.5" stroke="white" stroke-linecap="round"></circle> </g> <g filter="url(#filter3_d)"> <circle cx="213.5" cy="480.5" r="5.5" fill="#857E1D"></circle> <circle cx="213.5" cy="480.5" r="5.5" stroke="white" stroke-linecap="round"></circle> </g> <g filter="url(#filter4_d)"> <circle cx="381.5" cy="476.5" r="5.5" fill="#857E1D"></circle> <circle cx="381.5" cy="476.5" r="5.5" stroke="white" stroke-linecap="round"></circle> </g> <g filter="url(#filter5_d)"> <circle cx="557.5" cy="469.5" r="5.5" fill="#857E1D"></circle> <circle cx="557.5" cy="469.5" r="5.5" stroke="white" stroke-linecap="round"></circle> </g> <g filter="url(#filter6_d)"> <circle cx="557.5" cy="182.5" r="5.5" fill="#00A3FF"></circle> <circle cx="557.5" cy="182.5" r="5.5" stroke="white" stroke-linecap="round"></circle> </g> <g filter="url(#filter7_d)"> <circle cx="381.5" cy="384.5" r="5.5" fill="#00A3FF"></circle> <circle cx="381.5" cy="384.5" r="5.5" stroke="white" stroke-linecap="round"></circle> </g> <defs> <filter id="filter0_d" x="26" y="449" width="574" height="60.0001" filterUnits="userSpaceOnUse" color-interpolation-filters="sRGB"> <feFlood flood-opacity="0" result="BackgroundImageFix"></feFlood> <feColorMatrix in="SourceAlpha" type="matrix" values="0 0 0 0 0 0 0 0 0 0 0 0 0 0 0 0 0 0 127 0"></feColorMatrix> <feOffset dy="4"></feOffset> <feGaussianBlur stdDeviation="11"></feGaussianBlur> <feColorMatrix type="matrix" values="0 0 0 0 0 0 0 0 0 0.865 0 0 0 0 1 0 0 0 0.22 0"></feColorMatrix> <feBlend mode="normal" in2="BackgroundImageFix" result="effect1_dropShadow"></feBlend> <feBlend mode="normal" in="SourceGraphic" in2="effect1_dropShadow" result="shape"></feBlend> </filter> <filter id="filter1_d" x="24" y="101" width="582" height="410" filterUnits="userSpaceOnUse" color-interpolation-filters="sRGB"> <feFlood flood-opacity="0" result="BackgroundImageFix"></feFlood> <feColorMatrix in="SourceAlpha" type="matrix" values="0 0 0 0 0 0 0 0 0 0 0 0 0 0 0 0 0 0 127 0"></feColorMatrix> <feOffset dy="4"></feOffset> <feGaussianBlur stdDeviation="12"></feGaussianBlur> <feColorMatrix type="matrix" values="0 0 0 0 0 0 0 0 0 0.865 0 0 0 0 1 0 0 0 0.32 0"></feColorMatrix> <feBlend mode="normal" in2="BackgroundImageFix" result="effect1_dropShadow"></feBlend> <feBlend mode="normal" in="SourceGraphic" in2="effect1_dropShadow" result="shape"></feBlend> </filter> <filter id="filter2_d" x="197.5" y="447.5" width="32" height="32" filterUnits="userSpaceOnUse" color-interpolation-filters="sRGB"> <feFlood flood-opacity="0" result="BackgroundImageFix"></feFlood> <feColorMatrix in="SourceAlpha" type="matrix" values="0 0 0 0 0 0 0 0 0 0 0 0 0 0 0 0 0 0 127 0"></feColorMatrix> <feOffset dy="2"></feOffset> <feGaussianBlur stdDeviation="5"></feGaussianBlur> <feColorMatrix type="matrix" values="0 0 0 0 0 0 0 0 0 0.64 0 0 0 0 1 0 0 0 1 0"></feColorMatrix> <feBlend mode="normal" in2="BackgroundImageFix" result="effect1_dropShadow"></feBlend> <feBlend mode="normal" in="SourceGraphic" in2="effect1_dropShadow" result="shape"></feBlend> </filter> <filter id="filter3_d" x="197.5" y="466.5" width="32" height="32" filterUnits="userSpaceOnUse" color-interpolation-filters="sRGB"> <feFlood flood-opacity="0" result="BackgroundImageFix"></feFlood> <feColorMatrix in="SourceAlpha" type="matrix" values="0 0 0 0 0 0 0 0 0 0 0 0 0 0 0 0 0 0 127 0"></feColorMatrix> <feOffset dy="2"></feOffset> <feGaussianBlur stdDeviation="5"></feGaussianBlur> <feColorMatrix type="matrix" values="0 0 0 0 0.521569 0 0 0 0 0.494118 0 0 0 0 0.113725 0 0 0 0.28 0"></feColorMatrix> <feBlend mode="normal" in2="BackgroundImageFix" result="effect1_dropShadow"></feBlend> <feBlend mode="normal" in="SourceGraphic" in2="effect1_dropShadow" result="shape"></feBlend> </filter> <filter id="filter4_d" x="365.5" y="462.5" width="32" height="32" filterUnits="userSpaceOnUse" color-interpolation-filters="sRGB"> <feFlood flood-opacity="0" result="BackgroundImageFix"></feFlood> <feColorMatrix in="SourceAlpha" type="matrix" values="0 0 0 0 0 0 0 0 0 0 0 0 0 0 0 0 0 0 127 0"></feColorMatrix> <feOffset dy="2"></feOffset> <feGaussianBlur stdDeviation="5"></feGaussianBlur> <feColorMatrix type="matrix" values="0 0 0 0 0.521569 0 0 0 0 0.494118 0 0 0 0 0.113725 0 0 0 0.28 0"></feColorMatrix> <feBlend mode="normal" in2="BackgroundImageFix" result="effect1_dropShadow"></feBlend> <feBlend mode="normal" in="SourceGraphic" in2="effect1_dropShadow" result="shape"></feBlend> </filter> <filter id="filter5_d" x="541.5" y="455.5" width="32" height="32" filterUnits="userSpaceOnUse" color-interpolation-filters="sRGB"> <feFlood flood-opacity="0" result="BackgroundImageFix"></feFlood> <feColorMatrix in="SourceAlpha" type="matrix" values="0 0 0 0 0 0 0 0 0 0 0 0 0 0 0 0 0 0 127 0"></feColorMatrix> <feOffset dy="2"></feOffset> <feGaussianBlur stdDeviation="5"></feGaussianBlur> <feColorMatrix type="matrix" values="0 0 0 0 0.521569 0 0 0 0 0.494118 0 0 0 0 0.113725 0 0 0 0.28 0"></feColorMatrix> <feBlend mode="normal" in2="BackgroundImageFix" result="effect1_dropShadow"></feBlend> <feBlend mode="normal" in="SourceGraphic" in2="effect1_dropShadow" result="shape"></feBlend> </filter> <filter id="filter6_d" x="541.5" y="168.5" width="32" height="32" filterUnits="userSpaceOnUse" color-interpolation-filters="sRGB"> <feFlood flood-opacity="0" result="BackgroundImageFix"></feFlood> <feColorMatrix in="SourceAlpha" type="matrix" values="0 0 0 0 0 0 0 0 0 0 0 0 0 0 0 0 0 0 127 0"></feColorMatrix> <feOffset dy="2"></feOffset> <feGaussianBlur stdDeviation="5"></feGaussianBlur> <feColorMatrix type="matrix" values="0 0 0 0 0 0 0 0 0 0.64 0 0 0 0 1 0 0 0 1 0"></feColorMatrix> <feBlend mode="normal" in2="BackgroundImageFix" result="effect1_dropShadow"></feBlend> <feBlend mode="normal" in="SourceGraphic" in2="effect1_dropShadow" result="shape"></feBlend> </filter> <filter id="filter7_d" x="365.5" y="370.5" width="32" height="32" filterUnits="userSpaceOnUse" color-interpolation-filters="sRGB"> <feFlood flood-opacity="0" result="BackgroundImageFix"></feFlood> <feColorMatrix in="SourceAlpha" type="matrix" values="0 0 0 0 0 0 0 0 0 0 0 0 0 0 0 0 0 0 127 0"></feColorMatrix> <feOffset dy="2"></feOffset> <feGaussianBlur stdDeviation="5"></feGaussianBlur> <feColorMatrix type="matrix" values="0 0 0 0 0 0 0 0 0 0.64 0 0 0 0 1 0 0 0 1 0"></feColorMatrix> <feBlend mode="normal" in2="BackgroundImageFix" result="effect1_dropShadow"></feBlend> <feBlend mode="normal" in="SourceGraphic" in2="effect1_dropShadow" result="shape"></feBlend> </filter> <linearGradient id="paint0_linear" x1="314.5" y1="115" x2="314.5" y2="487" gradientUnits="userSpaceOnUse"> <stop stop-color="white"></stop> <stop offset="1" stop-color="white" stop-opacity="0"></stop> </linearGradient> <linearGradient id="paint1_linear" x1="214" y1="114.662" x2="214" y2="483" gradientUnits="userSpaceOnUse"> <stop stop-color="white" stop-opacity="0.43"></stop> <stop stop-color="white" stop-opacity="0.28"></stop> <stop offset="1" stop-color="white"></stop> </linearGradient> <linearGradient id="paint2_linear" x1="382" y1="114.662" x2="382" y2="483" gradientUnits="userSpaceOnUse"> <stop stop-color="white" stop-opacity="0.43"></stop> <stop stop-color="white" stop-opacity="0.28"></stop> <stop offset="1" stop-color="white"></stop> </linearGradient> <linearGradient id="paint3_linear" x1="557" y1="114.662" x2="557" y2="483" gradientUnits="userSpaceOnUse"> <stop stop-color="white" stop-opacity="0.43"></stop> <stop stop-color="white" stop-opacity="0.28"></stop> <stop offset="1" stop-color="white"></stop> </linearGradient> </defs> </svg> 