<?xml version="1.0" encoding="UTF-8"?> <svg xmlns="http://www.w3.org/2000/svg" width="60" height="60" viewBox="0 0 60 60" fill="none"> <rect width="60" height="60" rx="15" fill="#384E59" fill-opacity="0.48"></rect> <rect width="60" height="60" rx="15" fill="url(#paint0_linear)" fill-opacity="0.1"></rect> <path d="M31.418 28.455C32.8287 28.685 33.9097 29.214 34.661 30.042C35.4123 30.8547 35.788 31.8667 35.788 33.078C35.788 34.0133 35.5427 34.8797 35.052 35.677C34.5613 36.459 33.81 37.0877 32.798 37.563C31.8013 38.0383 30.5747 38.276 29.118 38.276C27.9833 38.276 26.864 38.1303 25.76 37.839C24.6713 37.5323 23.7437 37.103 22.977 36.551L24.426 33.699C25.0393 34.159 25.7447 34.5193 26.542 34.78C27.3547 35.0253 28.1827 35.148 29.026 35.148C29.9613 35.148 30.6973 34.9717 31.234 34.619C31.7707 34.251 32.039 33.7373 32.039 33.078C32.039 31.7593 31.0347 31.1 29.026 31.1H27.324V28.639L30.636 24.89H23.782V21.9H35.052V24.315L31.418 28.455Z" fill="#26A2FC"></path> <defs> <linearGradient id="paint0_linear" x1="30" y1="0" x2="30" y2="60" gradientUnits="userSpaceOnUse"> <stop stop-color="#00A3FF"></stop> <stop offset="1" stop-color="#26A2FC" stop-opacity="0"></stop> </linearGradient> </defs> </svg> 