<?xml version="1.0" encoding="UTF-8"?> <svg xmlns="http://www.w3.org/2000/svg" width="139" height="48" viewBox="0 0 139 48" fill="none"> <path d="M138.601 0H0.398852C0.178572 0 0 0.174424 0 0.389588V47.5298C0 47.7449 0.178572 47.9194 0.398852 47.9194H138.601C138.821 47.9194 139 47.7449 139 47.5298V0.389588C139 0.174424 138.821 0 138.601 0Z" fill="#70A6EE"></path> <path d="M31.5543 17.511C32.2049 17.7118 32.815 17.9337 33.3847 18.1771C33.6471 18.2824 33.9388 18.114 33.9788 17.8342L34.4825 14.3118C34.5761 13.6567 34.1965 13.0233 33.5664 12.8208C32.7074 12.545 31.819 12.3093 30.9012 12.1139C29.9834 11.907 29.0126 11.7518 27.9889 11.6483C26.977 11.5449 25.8885 11.4932 24.7236 11.4932C22.2526 11.4932 19.9756 11.7518 17.8929 12.2691C15.8219 12.7864 14.0334 13.5681 12.5272 14.6142C11.0328 15.6487 9.86788 16.9477 9.03247 18.5111C8.197 20.063 7.7793 21.8793 7.7793 23.96C7.7793 26.0407 8.197 27.8627 9.03247 29.426C9.86788 30.9779 11.0328 32.277 12.5272 33.323C14.0334 34.3576 15.8219 35.1336 17.8929 35.6508C19.9756 36.1681 22.2526 36.4268 24.7236 36.4268C25.8885 36.4268 26.977 36.3751 27.9889 36.2716C29.0126 36.1681 29.9834 36.0129 30.9012 35.8061C31.3418 35.7122 31.6697 35.3466 31.7296 34.9L32.2524 31.006C32.3044 30.6184 31.928 30.3108 31.5543 30.4261C30.66 30.7021 29.6774 30.9262 28.6066 31.0986C27.5358 31.2596 26.3298 31.3401 24.9883 31.3401C23.6116 31.3401 22.3937 31.2481 21.3347 31.0641C20.2875 30.8687 19.3696 30.6044 18.5813 30.271C17.7929 29.9376 17.1339 29.541 16.6045 29.0812C16.0749 28.6213 15.6454 28.1213 15.316 27.5811C14.9865 27.0293 14.7511 26.4487 14.61 25.8395C14.4687 25.2187 14.3982 24.5922 14.3982 23.96C14.3982 23.0058 14.5628 22.0862 14.8924 21.201C15.2218 20.3044 15.7925 19.5112 16.6045 18.8215C17.4163 18.1318 18.4989 17.58 19.8521 17.1661C21.217 16.7523 22.9291 16.5454 24.9883 16.5454C26.3298 16.5454 27.5358 16.6374 28.6066 16.8213C29.6774 16.9937 30.66 17.2236 31.5543 17.511Z" fill="white"></path> <path d="M36.1234 29.9266C37.0374 30.2665 38.0069 30.5595 39.0317 30.8055C41.1026 31.2998 43.3148 31.5469 45.6682 31.5469C47.0567 31.5469 48.1863 31.478 49.0571 31.3401C49.9396 31.1906 50.6279 31.0067 51.1221 30.7883C51.6164 30.5584 51.9517 30.3112 52.1282 30.0468C52.3048 29.7824 52.393 29.5295 52.393 29.2881C52.393 28.9087 52.2164 28.5812 51.8635 28.3052C51.5105 28.0178 51.028 27.7707 50.4161 27.5638C49.8042 27.3454 49.0924 27.1499 48.2804 26.9776C47.4685 26.7936 46.6037 26.6154 45.6858 26.443C44.7798 26.2591 43.8444 26.0636 42.8794 25.8567C41.9146 25.6498 40.9732 25.4084 40.0554 25.1325C39.1493 24.8451 38.2904 24.5175 37.4784 24.1497C36.569 23.7247 36.1286 22.723 36.2489 21.7264L37.2677 13.2901C37.2967 13.0503 37.4483 12.8414 37.6726 12.7519C38.5198 12.4185 39.4082 12.1599 40.3378 11.976C41.2674 11.792 42.2087 11.6656 43.1619 11.5966C44.115 11.5277 45.021 11.4932 45.88 11.4932C46.8214 11.4932 47.7863 11.5391 48.7747 11.6311C49.7748 11.7231 50.7574 11.8552 51.7223 12.0277C52.6872 12.1886 53.6168 12.3783 54.511 12.5967C54.7977 12.6658 55.0773 12.7361 55.3499 12.8075C56.349 13.0693 57.0174 13.9887 57.0174 15.0215V16.8058C57.0174 17.7173 56.0553 18.3419 55.1994 18.0283C54.4463 17.7524 53.5932 17.4938 52.6401 17.2523C51.687 16.9994 50.6515 16.7926 49.5336 16.6316C48.4158 16.4592 47.2685 16.373 46.0918 16.373C45.1505 16.373 44.3444 16.4017 43.6737 16.4592C43.0148 16.5166 42.4558 16.5914 41.9969 16.6833C41.5498 16.7753 41.1909 16.8845 40.9202 17.011C40.6614 17.1259 40.4613 17.2466 40.3202 17.3731C40.179 17.4995 40.0848 17.626 40.0377 17.7524C40.0024 17.8789 39.9848 17.9938 39.9848 18.0973C39.9848 18.4421 40.1613 18.7468 40.5143 19.0112C40.8673 19.2641 41.3497 19.494 41.9616 19.7009C42.5735 19.8963 43.2854 20.086 44.0973 20.2699C44.9093 20.4424 45.7683 20.6263 46.6743 20.8217C47.5921 21.0057 48.5334 21.2125 49.4983 21.4425C50.4749 21.6609 51.4164 21.9195 52.3224 22.2184C53.2402 22.5173 54.1051 22.8679 54.917 23.2702C55.7289 23.6611 56.4408 24.1209 57.0527 24.6497C57.6645 25.1785 58.147 25.7878 58.5 26.4775C58.853 27.1672 59.0295 27.9546 59.0295 28.8398C59.0295 29.9778 58.8236 30.955 58.4117 31.7711C57.9999 32.5873 57.4468 33.277 56.7526 33.8403C56.0701 34.4036 55.2759 34.8576 54.3698 35.2025C53.4638 35.5359 52.5107 35.7945 51.5105 35.9784C50.5221 36.1624 49.516 36.2831 48.4922 36.3406C47.4803 36.398 46.5154 36.4268 45.5976 36.4268C43.1972 36.4268 40.9732 36.2313 38.9258 35.8405C37.3689 35.5504 35.9497 35.2031 34.6681 34.7987C34.6601 34.7961 34.6598 34.785 34.6675 34.7819C34.6706 34.7806 34.6727 34.7777 34.6731 34.7744L35.0886 30.5124C35.1374 30.0113 35.6687 29.7106 36.1234 29.9266Z" fill="white"></path> <path d="M68.8603 19.5371C68.8603 19.6858 68.7398 19.8063 68.5911 19.8063C68.4424 19.8063 68.3219 19.6858 68.3219 19.5371V18.8333C68.3219 18.2959 67.8862 17.8603 67.3489 17.8603H67.1052C66.5678 17.8603 66.1322 18.2959 66.1322 18.8333V19.5371C66.1322 19.6858 66.0117 19.8063 65.863 19.8063C65.7143 19.8063 65.5938 19.6858 65.5938 19.5371V15.903C65.5938 15.7543 65.7143 15.6338 65.863 15.6338C66.0117 15.6338 66.1322 15.7543 66.1322 15.903V16.5162C66.1322 17.0035 66.5273 17.3986 67.0146 17.3986H67.4395C67.9268 17.3986 68.3219 17.0035 68.3219 16.5162V15.903C68.3219 15.7543 68.4424 15.6338 68.5911 15.6338C68.7398 15.6338 68.8603 15.7543 68.8603 15.903V19.5371Z" fill="white"></path> <path d="M71.1708 16.623C71.5611 16.623 71.8503 16.7068 72.0378 16.8743C72.2252 17.0418 72.3193 17.3087 72.3193 17.6749V19.5947C72.3193 19.7125 72.2238 19.8079 72.1061 19.8079C72.0066 19.8079 71.9203 19.7391 71.8982 19.642L71.8383 19.3788C71.8363 19.37 71.8285 19.3638 71.8195 19.3638C71.8137 19.3638 71.8082 19.3664 71.8045 19.3709C71.6672 19.5387 71.521 19.6629 71.3681 19.7436C71.2164 19.8254 71.0051 19.8663 70.7334 19.8663C70.4428 19.8663 70.2013 19.7923 70.0099 19.6443C69.8184 19.4924 69.7227 19.2566 69.7227 18.9372C69.7227 18.6255 69.8483 18.3859 70.0996 18.2184C70.3508 18.0469 70.7376 17.9535 71.2599 17.9379L71.6178 17.9264C71.722 17.923 71.8047 17.8376 71.8047 17.7334C71.8047 17.4723 71.7471 17.2911 71.6313 17.1899C71.5155 17.0886 71.3519 17.0379 71.1406 17.0379C70.9728 17.0379 70.8135 17.0633 70.6618 17.1139C70.5861 17.1372 70.513 17.1625 70.4423 17.1898C70.3288 17.2335 70.1979 17.1838 70.1509 17.0716C70.1083 16.9698 70.1501 16.8514 70.2524 16.81C70.3495 16.7706 70.4561 16.7356 70.572 16.7049C70.7636 16.6503 70.963 16.623 71.1708 16.623ZM71.7984 18.5573C71.7984 18.4041 71.6712 18.2815 71.5181 18.2872L71.3259 18.2943C70.9272 18.3099 70.6499 18.3722 70.4947 18.4813C70.3431 18.5904 70.2673 18.7443 70.2673 18.943C70.2673 19.1183 70.3206 19.2469 70.4287 19.3287C70.5404 19.4105 70.6822 19.4514 70.8535 19.4514C71.1245 19.4514 71.3498 19.3793 71.5295 19.2352C71.7092 19.0872 71.7984 18.8612 71.7984 18.5573Z" fill="white"></path> <path d="M77.3943 16.6748C77.5397 16.6748 77.6576 16.7927 77.6576 16.9381V18.2409C77.6576 19.1059 76.9564 19.8071 76.0915 19.8071H74.8747C74.0098 19.8071 73.3086 19.1059 73.3086 18.2409V16.9381C73.3086 16.7927 73.4265 16.6748 73.5719 16.6748C73.7172 16.6748 73.8351 16.7927 73.8351 16.9381V18.6838C73.8351 19.0653 74.1444 19.3746 74.5259 19.3746C74.9074 19.3746 75.2167 19.0653 75.2167 18.6838V16.9381C75.2167 16.7927 75.3345 16.6748 75.4799 16.6748C75.6253 16.6748 75.7432 16.7927 75.7432 16.9381V18.6807C75.7432 19.0639 76.0539 19.3746 76.4371 19.3746C76.8204 19.3746 77.1311 19.0639 77.1311 18.6807V16.9381C77.1311 16.7927 77.249 16.6748 77.3943 16.6748Z" fill="white"></path> <path d="M82.2905 16.6748C83.0387 16.6748 83.6454 17.2814 83.6454 18.0297V19.5438C83.6454 19.6892 83.5275 19.8071 83.3821 19.8071C83.2367 19.8071 83.1188 19.6892 83.1188 19.5438V17.9414C83.1188 17.4839 82.748 17.113 82.2905 17.113C81.8329 17.113 81.4621 17.4839 81.4621 17.9414V19.5438C81.4621 19.6892 81.3442 19.8071 81.1988 19.8071C81.0534 19.8071 80.9355 19.6892 80.9355 19.5438V18.0297C80.9355 17.2814 81.5422 16.6748 82.2905 16.6748Z" fill="white"></path> <path d="M85.8819 16.623C86.2722 16.623 86.5614 16.7068 86.7488 16.8743C86.9363 17.0418 87.0303 17.3087 87.0303 17.6749V19.5947C87.0303 19.7125 86.9349 19.8079 86.8172 19.8079C86.7177 19.8079 86.6314 19.7391 86.6093 19.642L86.5493 19.3784C86.5473 19.3698 86.5397 19.3638 86.531 19.3638C86.5254 19.3638 86.52 19.3663 86.5164 19.3707C86.3784 19.5386 86.2322 19.6629 86.0791 19.7436C85.9275 19.8254 85.7162 19.8663 85.4452 19.8663C85.1539 19.8663 84.9124 19.7923 84.7207 19.6443C84.5298 19.4924 84.4336 19.2566 84.4336 18.9372C84.4336 18.6255 84.5593 18.3859 84.8106 18.2184C85.0619 18.0469 85.4487 17.9535 85.971 17.9379L86.3289 17.9264C86.4331 17.923 86.5158 17.8376 86.5158 17.7334C86.5158 17.4723 86.4582 17.2911 86.3424 17.1899C86.2265 17.0886 86.063 17.0379 85.8517 17.0379C85.6839 17.0379 85.5245 17.0633 85.3729 17.1139C85.2971 17.1372 85.224 17.1625 85.1534 17.1898C85.0399 17.2335 84.9089 17.1838 84.862 17.0716C84.8193 16.9698 84.8611 16.8514 84.9634 16.81C85.0605 16.7706 85.1671 16.7356 85.283 16.7049C85.4747 16.6503 85.6741 16.623 85.8819 16.623ZM86.5095 18.5573C86.5095 18.4041 86.3822 18.2815 86.2291 18.2872L86.037 18.2943C85.6383 18.3099 85.361 18.3722 85.2058 18.4813C85.0542 18.5904 84.9784 18.7443 84.9784 18.943C84.9784 19.1183 85.0317 19.2469 85.1398 19.3287C85.2514 19.4105 85.3932 19.4514 85.5645 19.4514C85.8355 19.4514 86.0609 19.3793 86.2406 19.2352C86.4203 19.0872 86.5095 18.8612 86.5095 18.5573Z" fill="white"></path> <path d="M89.547 16.6162C89.9415 16.6162 90.2588 16.7506 90.4982 17.0195C90.7418 17.2883 90.8633 17.6935 90.8633 18.235C90.8633 18.7687 90.7418 19.1739 90.4982 19.4505C90.2588 19.7271 89.9401 19.8654 89.5407 19.8654C89.2935 19.8654 89.0886 19.8206 88.925 19.731C88.7688 19.6397 88.6454 19.5355 88.5547 19.4183C88.5504 19.4129 88.5439 19.4096 88.537 19.4096C88.5238 19.4096 88.5135 19.4211 88.515 19.4343C88.5218 19.4962 88.5287 19.5718 88.5361 19.6609C88.5438 19.7621 88.548 19.8498 88.548 19.9238V20.9462C88.548 21.0916 88.4301 21.2095 88.2847 21.2095C88.1393 21.2095 88.0215 21.0916 88.0215 20.9462V16.908C88.0215 16.7791 88.1259 16.6747 88.2548 16.6747C88.3686 16.6747 88.4657 16.7568 88.4848 16.869L88.5217 17.0867C88.5231 17.0951 88.5304 17.1013 88.5389 17.1013C88.5446 17.1013 88.5499 17.0985 88.5533 17.0938C88.6481 16.9607 88.772 16.8483 88.925 16.7565C89.0801 16.663 89.2879 16.6162 89.547 16.6162ZM89.4515 17.0487C89.1244 17.0487 88.8927 17.1383 88.7572 17.3175C88.6252 17.4967 88.5557 17.7694 88.548 18.1356V18.235C88.548 18.6207 88.6119 18.9187 88.7389 19.1291C88.8709 19.3355 89.1124 19.4388 89.4634 19.4388C89.6586 19.4388 89.818 19.3862 89.9415 19.281C90.0693 19.1758 90.1634 19.0336 90.223 18.8544C90.2869 18.6713 90.3185 18.4629 90.3185 18.2291C90.3185 17.8707 90.2469 17.5844 90.103 17.3701C89.964 17.1558 89.7464 17.0487 89.4515 17.0487Z" fill="white"></path> <path d="M93.8582 16.891C93.8582 17.0104 93.7614 17.1072 93.642 17.1072H93.3349C93.0459 17.1072 92.8115 17.3415 92.8115 17.6306V19.5466C92.8115 19.6905 92.6949 19.8071 92.5511 19.8071C92.4072 19.8071 92.2906 19.6905 92.2906 19.5466V17.6246C92.2906 17.3389 92.059 17.1072 91.7732 17.1072H91.4721C91.3527 17.1072 91.2559 17.0104 91.2559 16.891C91.2559 16.7716 91.3527 16.6748 91.4721 16.6748H93.642C93.7614 16.6748 93.8582 16.7716 93.8582 16.891Z" fill="white"></path> <path d="M94.7515 16.6748C94.8969 16.6748 95.0148 16.7927 95.0148 16.9381V17.3264C95.0148 17.6862 95.3065 17.9779 95.6664 17.9779H96.1043C96.4641 17.9779 96.7558 17.6862 96.7558 17.3264V16.9381C96.7558 16.7927 96.8737 16.6748 97.0191 16.6748C97.1645 16.6748 97.2823 16.7927 97.2823 16.9381V19.5438C97.2823 19.6892 97.1645 19.8071 97.0191 19.8071C96.8737 19.8071 96.7558 19.6892 96.7558 19.5438V19.1087C96.7558 18.7231 96.4432 18.4104 96.0575 18.4104H95.7131C95.3275 18.4104 95.0148 18.7231 95.0148 19.1087V19.5438C95.0148 19.6892 94.8969 19.8071 94.7515 19.8071C94.6061 19.8071 94.4883 19.6892 94.4883 19.5438V16.9381C94.4883 16.7927 94.6061 16.6748 94.7515 16.6748Z" fill="white"></path> <path d="M99.5372 16.6163C99.8124 16.6163 100.048 16.6748 100.243 16.7916C100.443 16.9085 100.594 17.0741 100.698 17.2884C100.806 17.4987 100.86 17.7461 100.86 18.0305C100.86 18.2016 100.721 18.3402 100.55 18.3402H99.5413C99.0598 18.3402 98.6096 18.8015 98.9391 19.1525C99.1188 19.3356 99.368 19.4272 99.6867 19.4272C99.8903 19.4272 100.07 19.4097 100.225 19.3746C100.29 19.3587 100.356 19.3402 100.423 19.319C100.564 19.2741 100.716 19.375 100.716 19.5237C100.716 19.6069 100.667 19.683 100.588 19.7118C100.468 19.7561 100.349 19.7898 100.232 19.8129C100.071 19.8479 99.8826 19.8655 99.6629 19.8655C99.3596 19.8655 99.0907 19.8051 98.8556 19.6843C98.6239 19.5636 98.4428 19.3843 98.3108 19.1467C98.183 18.9051 98.1191 18.611 98.1191 18.2643C98.1191 17.9214 98.1774 17.6273 98.2932 17.3818C98.4126 17.1364 98.5783 16.9475 98.7896 16.815C99.0051 16.6825 99.2543 16.6163 99.5372 16.6163ZM99.5316 17.037C99.2803 17.037 99.0809 17.1169 98.9328 17.2766C98.6736 17.5587 99.0083 17.9311 99.3914 17.9311H99.6267C100.002 17.9311 100.344 17.5878 100.118 17.2884C99.9942 17.1208 99.7984 17.037 99.5316 17.037ZM98.652 15.8274C98.652 15.7261 98.68 15.654 98.7355 15.6112C98.7917 15.5644 98.857 15.541 98.9328 15.541C99.0086 15.541 99.0746 15.5644 99.1307 15.6112C99.1862 15.654 99.2143 15.7261 99.2143 15.8274C99.2143 15.9248 99.1862 15.9988 99.1307 16.0495C99.0746 16.0962 99.0086 16.1196 98.9328 16.1196C98.857 16.1196 98.7917 16.0962 98.7355 16.0495C98.68 15.9988 98.652 15.9248 98.652 15.8274ZM99.7766 15.8274C99.7766 15.7261 99.8026 15.654 99.8545 15.6112C99.91 15.5644 99.976 15.541 100.052 15.541C100.128 15.541 100.194 15.5644 100.249 15.6112C100.305 15.654 100.333 15.7261 100.333 15.8274C100.333 15.9248 100.305 15.9988 100.249 16.0495C100.194 16.0962 100.128 16.1196 100.052 16.1196C99.976 16.1196 99.91 16.0962 99.8545 16.0495C99.8026 15.9988 99.7766 15.9248 99.7766 15.8274Z" fill="white"></path> <path d="M103.202 16.6162C103.597 16.6162 103.914 16.7506 104.153 17.0195C104.396 17.2883 104.518 17.6935 104.518 18.235C104.518 18.7687 104.396 19.1739 104.153 19.4505C103.914 19.7271 103.594 19.8654 103.196 19.8654C102.949 19.8654 102.743 19.8206 102.579 19.731C102.424 19.6397 102.3 19.5355 102.209 19.4182C102.205 19.4128 102.198 19.4096 102.191 19.4096C102.178 19.4096 102.168 19.4212 102.17 19.4343C102.177 19.4963 102.184 19.5718 102.19 19.6609C102.199 19.7621 102.202 19.8498 102.202 19.9238V20.9462C102.202 21.0916 102.084 21.2095 101.939 21.2095C101.794 21.2095 101.676 21.0916 101.676 20.9462V16.9082C101.676 16.7792 101.78 16.6747 101.909 16.6747C102.023 16.6747 102.121 16.7571 102.14 16.8695L102.176 17.0867C102.177 17.0951 102.185 17.1013 102.193 17.1013C102.199 17.1013 102.204 17.0985 102.208 17.0939C102.303 16.9607 102.427 16.8483 102.579 16.7565C102.735 16.663 102.942 16.6162 103.202 16.6162ZM103.106 17.0487C102.779 17.0487 102.548 17.1383 102.412 17.3175C102.28 17.4967 102.211 17.7694 102.202 18.1356V18.235C102.202 18.6207 102.266 18.9187 102.394 19.1291C102.526 19.3355 102.767 19.4388 103.118 19.4388C103.314 19.4388 103.473 19.3862 103.597 19.281C103.724 19.1758 103.818 19.0336 103.878 18.8544C103.942 18.6713 103.973 18.4629 103.973 18.2291C103.973 17.8707 103.902 17.5844 103.758 17.3701C103.618 17.1558 103.401 17.0487 103.106 17.0487Z" fill="white"></path> <path d="M69.7284 30.6013C69.7284 30.7545 69.636 30.8936 69.4916 30.9449C69.4389 30.9636 69.3861 30.9815 69.3331 30.9985C69.2003 31.0411 69.0632 31.0775 68.9214 31.1077C68.7796 31.1397 68.6296 31.1636 68.4715 31.1796C68.3152 31.1956 68.147 31.2036 67.9671 31.2036C67.5853 31.2036 67.2336 31.1636 66.9119 31.0837C66.592 31.0038 66.3157 30.884 66.083 30.7242C65.8522 30.5626 65.6723 30.362 65.5432 30.1223C65.4141 29.8808 65.3496 29.5994 65.3496 29.2781C65.3496 28.9567 65.4141 28.6762 65.5432 28.4365C65.6723 28.195 65.8522 27.9944 66.083 27.8346C66.3157 27.673 66.592 27.5523 66.9119 27.4724C67.2336 27.3925 67.5853 27.3525 67.9671 27.3525C68.147 27.3525 68.3152 27.3606 68.4715 27.3765C68.6296 27.3925 68.7796 27.4165 68.9214 27.4485C69.0632 27.4786 69.2003 27.5151 69.3331 27.5576C69.3852 27.5744 69.4371 27.5919 69.4889 27.6103C69.635 27.6621 69.7284 27.8028 69.7284 27.9577V28.2256C69.7284 28.3913 69.5514 28.4984 69.4013 28.4285C69.2867 28.3735 69.1604 28.3246 69.0222 28.282C68.8841 28.2377 68.7323 28.2021 68.5669 28.1755C68.4015 28.1471 68.2152 28.1329 68.008 28.1329C67.6899 28.1329 67.4254 28.1648 67.2145 28.2287C67.0055 28.2927 66.8383 28.3779 66.7129 28.4844C66.5874 28.5909 66.4993 28.7135 66.4484 28.8519C66.3975 28.9887 66.372 29.1307 66.372 29.2781C66.372 29.3757 66.383 29.4725 66.4048 29.5684C66.4266 29.6624 66.4629 29.7521 66.5138 29.8374C66.5647 29.9208 66.6311 29.998 66.7129 30.0691C66.7947 30.14 66.8964 30.2013 67.0182 30.2528C67.14 30.3043 67.2818 30.3451 67.4436 30.3753C67.6072 30.4037 67.7953 30.4179 68.008 30.4179C68.2152 30.4179 68.4015 30.4055 68.5669 30.3807C68.7323 30.354 68.8841 30.3194 69.0222 30.2768C69.1604 30.2342 69.2867 30.1862 69.4013 30.133C69.5504 30.0612 69.7284 30.1674 69.7284 30.3329V30.6013Z" fill="white"></path> <path d="M71.9628 30.5988C71.9628 30.8781 71.7363 31.1046 71.457 31.1046C71.1776 31.1046 70.9512 30.8781 70.9512 30.5988V29.2749C70.9512 28.2645 71.7703 27.4453 72.7808 27.4453H73.4869C73.7593 27.4453 73.9902 27.4728 74.1798 27.5279C74.37 27.5829 74.5252 27.661 74.6431 27.7622C74.7631 27.8634 74.8495 27.9859 74.9021 28.1297C74.9562 28.2718 74.9836 28.4307 74.9836 28.6064C74.9836 28.7609 74.9611 28.8959 74.9155 29.0113C74.8719 29.1267 74.8123 29.2261 74.7358 29.3096C74.6613 29.3912 74.5736 29.4605 74.4739 29.5173C74.3295 29.5996 74.2746 29.7959 74.3821 29.9227L74.755 30.3623C75.0033 30.6552 74.7952 31.1046 74.4113 31.1046C74.2783 31.1046 74.1521 31.0458 74.0665 30.9441L73.2929 30.0252C73.1497 29.8551 72.9387 29.7569 72.7164 29.7569H72.6366C72.2645 29.7569 71.9628 30.0586 71.9628 30.4307V30.5988ZM73.9614 28.6012C73.9614 28.5301 73.9516 28.4698 73.9312 28.4201C73.913 28.3703 73.8807 28.3304 73.833 28.3002C73.7859 28.2682 73.722 28.2451 73.642 28.2309C73.5641 28.2167 73.4658 28.2096 73.3479 28.2096H72.3543C72.1381 28.2096 71.9628 28.3849 71.9628 28.6011C71.9628 28.8173 72.1381 28.9926 72.3543 28.9926H73.3479C73.4658 28.9926 73.5641 28.9855 73.642 28.9713C73.722 28.9571 73.7859 28.9349 73.833 28.9047C73.8807 28.8728 73.913 28.832 73.9312 28.7822C73.9516 28.7325 73.9614 28.6721 73.9614 28.6012Z" fill="white"></path> <path d="M81.2368 29.2781C81.2368 29.5924 81.1778 29.8702 81.0598 30.1116C80.9419 30.3513 80.7727 30.5519 80.553 30.7135C80.3325 30.8751 80.0658 30.9976 79.7513 31.081C79.4382 31.1627 79.0865 31.2036 78.6961 31.2036C78.3051 31.2036 77.9513 31.1627 77.6354 31.081C77.3209 30.9976 77.0527 30.8751 76.8309 30.7135C76.609 30.5519 76.4384 30.3513 76.3184 30.1116C76.1983 29.8702 76.1387 29.5924 76.1387 29.2781C76.1387 28.9638 76.1983 28.6868 76.3184 28.4471C76.4384 28.2057 76.609 28.0042 76.8309 27.8426C77.0527 27.6811 77.3209 27.5594 77.6354 27.4778C77.9513 27.3943 78.3051 27.3525 78.6961 27.3525C79.0865 27.3525 79.4382 27.3943 79.7513 27.4778C80.0658 27.5594 80.3325 27.6811 80.553 27.8426C80.7727 28.0042 80.9419 28.2057 81.0598 28.4471C81.1778 28.6868 81.2368 28.9638 81.2368 29.2781ZM80.2146 29.2781C80.2146 29.1414 80.1921 29.0055 80.1465 28.8706C80.103 28.7339 80.0237 28.6114 79.9092 28.5031C79.7969 28.3948 79.6418 28.3069 79.4459 28.2394C79.2493 28.172 78.9994 28.1382 78.6961 28.1382C78.4925 28.1382 78.3135 28.1542 78.1591 28.1862C78.0046 28.2163 77.8706 28.2589 77.7582 28.314C77.6452 28.369 77.5511 28.4338 77.4746 28.5084C77.3981 28.5812 77.337 28.6602 77.2921 28.7454C77.2465 28.8289 77.2135 28.9168 77.1938 29.0091C77.1756 29.0996 77.1664 29.1893 77.1664 29.2781C77.1664 29.3686 77.1756 29.4601 77.1938 29.5524C77.2135 29.6447 77.2465 29.7335 77.2921 29.8187C77.337 29.9022 77.3981 29.9803 77.4746 30.0531C77.5511 30.1258 77.6452 30.1897 77.7582 30.2448C77.8706 30.2981 78.0046 30.3407 78.1591 30.3726C78.3135 30.4028 78.4925 30.4179 78.6961 30.4179C78.9994 30.4179 79.2493 30.3842 79.4459 30.3167C79.6418 30.2493 79.7969 30.1614 79.9092 30.0531C80.0237 29.9447 80.103 29.8232 80.1465 29.6882C80.1921 29.5515 80.2146 29.4148 80.2146 29.2781Z" fill="white"></path> <path d="M85.5083 27.4453C85.8497 27.4453 86.1563 27.6592 86.2766 27.9787C86.545 28.6913 87.5514 28.7138 87.839 28.0087L87.9457 27.7471C88.0201 27.5646 88.1975 27.4453 88.3946 27.4453C88.7396 27.4453 88.9742 27.7955 88.843 28.1146L87.8254 30.5884C87.697 30.9007 87.3913 31.1046 87.0536 31.1046C86.7142 31.1046 86.4075 30.8973 86.2821 30.5819C86.005 29.8854 85.0187 29.885 84.7422 30.5818C84.617 30.8974 84.3103 31.1046 83.9708 31.1046C83.6333 31.1046 83.3277 30.9009 83.1991 30.5889L82.1807 28.1163C82.0489 27.7965 82.2841 27.4453 82.63 27.4453C82.8275 27.4453 83.0054 27.5649 83.08 27.7478L83.178 27.9883C83.4647 28.691 84.4662 28.6742 84.744 27.968C84.8674 27.6543 85.1712 27.4453 85.5083 27.4453Z" fill="white"></path> <path d="M94.634 29.2723C94.634 29.5066 94.6073 29.7152 94.5547 29.8981C94.502 30.0792 94.4276 30.2372 94.3314 30.3721C94.2367 30.5071 94.1222 30.6216 93.9875 30.7157C93.8548 30.8098 93.7066 30.8853 93.5431 30.9421C93.3795 30.9989 93.2033 31.0406 93.0145 31.0673C92.8256 31.0921 92.6283 31.1046 92.4227 31.1046H91.8745C90.8641 31.1046 90.0449 30.2854 90.0449 29.2749C90.0449 28.2645 90.8641 27.4453 91.8745 27.4453H92.417C92.6227 27.4453 92.82 27.4586 93.0088 27.4852C93.1977 27.5101 93.3746 27.5509 93.5382 27.6078C93.7031 27.6646 93.8534 27.74 93.9875 27.8341C94.1222 27.9265 94.2367 28.041 94.3314 28.1777C94.4276 28.3126 94.502 28.4707 94.5547 28.6518C94.6073 28.8329 94.634 29.0397 94.634 29.2723ZM93.614 29.2723C93.614 29.0965 93.5908 28.9438 93.5431 28.8142C93.4981 28.6846 93.423 28.578 93.3198 28.4946C93.218 28.4094 93.0847 28.3463 92.919 28.3055C92.7533 28.2629 92.5518 28.2416 92.3138 28.2416H92.0899C91.5192 28.2416 91.0565 28.7042 91.0565 29.2749C91.0565 29.8456 91.5192 30.3082 92.0899 30.3082H92.3138C92.5518 30.3082 92.7533 30.2878 92.919 30.247C93.0847 30.2044 93.218 30.1404 93.3198 30.0552C93.423 29.9683 93.4981 29.8599 93.5431 29.7303C93.5908 29.6007 93.614 29.448 93.614 29.2723Z" fill="white"></path> <path d="M101.667 28.1731C101.667 28.3139 101.518 28.4103 101.386 28.3619C101.27 28.3193 101.138 28.2793 100.991 28.242C100.844 28.203 100.684 28.1711 100.511 28.1462C100.339 28.1196 100.161 28.1063 99.9793 28.1063C99.834 28.1063 99.7098 28.1107 99.6059 28.1196C99.5041 28.1284 99.4177 28.14 99.3468 28.1542C99.278 28.1684 99.2226 28.1853 99.1804 28.2048C99.1404 28.2226 99.1095 28.2412 99.0878 28.2607C99.066 28.2802 99.0513 28.2998 99.0442 28.3193C99.0386 28.3389 99.0358 28.3566 99.0358 28.3726C99.0358 28.4258 99.0632 28.4729 99.1179 28.5137C99.1727 28.5528 99.2471 28.5883 99.3412 28.6203C99.436 28.6505 99.5462 28.6797 99.6711 28.7081C99.7968 28.7348 99.9295 28.7632 100.069 28.7934C100.211 28.8218 100.357 28.8537 100.506 28.8892C100.657 28.923 100.802 28.9629 100.942 29.0091C101.084 29.0552 101.218 29.1094 101.343 29.1715C101.468 29.2319 101.579 29.3029 101.673 29.3846C101.767 29.4663 101.842 29.5603 101.897 29.6669C101.951 29.7735 101.978 29.895 101.978 30.0318C101.978 30.2075 101.946 30.3584 101.883 30.4845C101.819 30.6106 101.734 30.7171 101.626 30.8041C101.521 30.8911 101.398 30.9612 101.258 31.0145C101.118 31.066 100.971 31.1059 100.817 31.1343C100.664 31.1627 100.509 31.1814 100.35 31.1903C100.194 31.1991 100.045 31.2036 99.9035 31.2036C99.5321 31.2036 99.1889 31.1734 98.8722 31.113C98.659 31.0732 98.4619 31.0264 98.2817 30.9726C98.134 30.9286 98.0382 30.7896 98.0382 30.6354C98.0382 30.3569 98.3408 30.1725 98.6063 30.2569C98.6973 30.2858 98.7916 30.3119 98.8891 30.3353C99.2085 30.4117 99.5504 30.4498 99.914 30.4498C100.129 30.4498 100.303 30.4392 100.438 30.4179C100.574 30.3948 100.68 30.3665 100.756 30.3327C100.833 30.2972 100.885 30.259 100.912 30.2182C100.939 30.1773 100.953 30.1383 100.953 30.101C100.953 30.0424 100.926 29.9918 100.871 29.9492C100.817 29.9048 100.742 29.8666 100.648 29.8347C100.553 29.801 100.443 29.7708 100.318 29.7441C100.192 29.7157 100.059 29.6882 99.9168 29.6615C99.7771 29.6332 99.6325 29.603 99.483 29.571C99.3342 29.5391 99.1889 29.5018 99.047 29.4592C98.9073 29.4148 98.7747 29.3642 98.649 29.3074C98.5233 29.2487 98.4138 29.1804 98.319 29.1023C98.2243 29.0224 98.1499 28.931 98.0958 28.828C98.0411 28.7232 98.0137 28.6025 98.0137 28.4658C98.0137 28.3042 98.0425 28.1648 98.1007 28.0476C98.159 27.9305 98.2376 27.831 98.3352 27.7494C98.4356 27.6659 98.55 27.5985 98.6792 27.547C98.8098 27.4955 98.9474 27.4555 99.0906 27.4271C99.2345 27.3988 99.3798 27.3792 99.5272 27.3686C99.674 27.3579 99.8144 27.3525 99.947 27.3525C100.092 27.3525 100.241 27.3597 100.394 27.3739C100.549 27.3881 100.7 27.4085 100.849 27.4351C100.999 27.46 101.142 27.4893 101.28 27.523C101.324 27.5337 101.368 27.5445 101.41 27.5556C101.564 27.596 101.667 27.738 101.667 27.8974V28.1731Z" fill="white"></path> <path d="M105.046 31.1046C104.036 31.1046 103.217 30.2854 103.217 29.2749C103.217 28.2645 104.036 27.4453 105.046 27.4453H106.619C106.834 27.4453 107.009 27.62 107.009 27.8354C107.009 28.0509 106.834 28.2256 106.619 28.2256H104.558C104.391 28.2256 104.256 28.3609 104.256 28.5279C104.256 28.6948 104.391 28.8302 104.558 28.8302H106.477C106.693 28.8302 106.867 29.0049 106.867 29.2203C106.867 29.4358 106.693 29.6105 106.477 29.6105H104.613C104.416 29.6105 104.256 29.7702 104.256 29.9673C104.256 30.1644 104.416 30.3242 104.613 30.3242H106.658C106.873 30.3242 107.048 30.4989 107.048 30.7144C107.048 30.9299 106.873 31.1046 106.658 31.1046H105.046Z" fill="white"></path> <path d="M109.316 30.5987C109.316 30.8781 109.09 31.1046 108.81 31.1046C108.531 31.1046 108.305 30.8781 108.305 30.5987V29.2749C108.305 28.2645 109.124 27.4453 110.134 27.4453H110.84C111.113 27.4453 111.344 27.4728 111.533 27.5279C111.724 27.5829 111.878 27.661 111.996 27.7622C112.116 27.8634 112.202 27.9859 112.255 28.1297C112.31 28.2718 112.337 28.4307 112.337 28.6064C112.337 28.7609 112.315 28.8959 112.269 29.0113C112.225 29.1267 112.165 29.2261 112.089 29.3096C112.014 29.3912 111.927 29.4605 111.827 29.5173C111.683 29.5992 111.628 29.7963 111.735 29.9231L112.108 30.3621C112.356 30.655 112.148 31.1046 111.764 31.1046C111.631 31.1046 111.505 31.0458 111.419 30.944L110.646 30.0253C110.503 29.8552 110.292 29.7569 110.07 29.7569H109.99C109.618 29.7569 109.316 30.0586 109.316 30.4307V30.5987ZM111.314 28.6012C111.314 28.5301 111.304 28.4698 111.285 28.4201C111.267 28.3703 111.234 28.3304 111.186 28.3002C111.139 28.2682 111.076 28.2451 110.996 28.2309C110.918 28.2167 110.819 28.2096 110.701 28.2096H109.708C109.492 28.2096 109.316 28.3849 109.316 28.6011C109.316 28.8173 109.492 28.9926 109.708 28.9926H110.701C110.819 28.9926 110.918 28.9855 110.996 28.9713C111.076 28.9571 111.139 28.9349 111.186 28.9047C111.234 28.8728 111.267 28.832 111.285 28.7822C111.304 28.7325 111.314 28.6721 111.314 28.6012Z" fill="white"></path> <path d="M116.529 30.5831C116.362 30.9036 116.03 31.1046 115.669 31.1046C115.307 31.1046 114.974 30.9025 114.808 30.5808L113.561 28.1729C113.389 27.8412 113.629 27.4453 114.003 27.4453C114.193 27.4453 114.366 27.5528 114.45 27.7226L114.633 28.0935C115.06 28.9558 116.29 28.9553 116.716 28.0926L116.899 27.7223C116.983 27.5527 117.156 27.4453 117.345 27.4453C117.718 27.4453 117.959 27.8414 117.786 28.1723L116.529 30.5831Z" fill="white"></path> <path d="M119.568 31.1046C119.289 31.1046 119.062 30.8781 119.062 30.5988V27.9511C119.062 27.6718 119.289 27.4453 119.568 27.4453C119.848 27.4453 120.074 27.6718 120.074 27.9511V30.5988C120.074 30.8781 119.848 31.1046 119.568 31.1046Z" fill="white"></path> <path d="M125.654 30.6018C125.654 30.7547 125.562 30.8936 125.418 30.9448C125.365 30.9635 125.312 30.9814 125.259 30.9985C125.126 31.0411 124.989 31.0775 124.847 31.1077C124.705 31.1397 124.555 31.1636 124.397 31.1796C124.241 31.1956 124.073 31.2036 123.893 31.2036C123.511 31.2036 123.16 31.1636 122.837 31.0837C122.518 31.0038 122.241 30.884 122.009 30.7242C121.778 30.5626 121.598 30.362 121.469 30.1223C121.34 29.8808 121.275 29.5994 121.275 29.2781C121.275 28.9567 121.34 28.6762 121.469 28.4365C121.598 28.195 121.778 27.9944 122.009 27.8346C122.241 27.673 122.518 27.5523 122.837 27.4724C123.16 27.3925 123.511 27.3525 123.893 27.3525C124.073 27.3525 124.241 27.3606 124.397 27.3765C124.555 27.3925 124.705 27.4165 124.847 27.4485C124.989 27.4786 125.126 27.5151 125.259 27.5576C125.311 27.5744 125.363 27.592 125.415 27.6104C125.561 27.6621 125.654 27.8025 125.654 27.9572V28.2256C125.654 28.3911 125.477 28.4983 125.327 28.4285C125.212 28.3735 125.086 28.3246 124.948 28.282C124.81 28.2377 124.658 28.2021 124.493 28.1755C124.327 28.1471 124.141 28.1329 123.934 28.1329C123.616 28.1329 123.351 28.1648 123.14 28.2287C122.931 28.2927 122.764 28.3779 122.639 28.4844C122.513 28.5909 122.425 28.7135 122.374 28.8519C122.324 28.9887 122.298 29.1307 122.298 29.2781C122.298 29.3757 122.309 29.4725 122.331 29.5684C122.352 29.6624 122.389 29.7521 122.439 29.8374C122.491 29.9208 122.557 29.998 122.639 30.0691C122.72 30.14 122.822 30.2013 122.944 30.2528C123.066 30.3043 123.207 30.3451 123.37 30.3753C123.533 30.4037 123.721 30.4179 123.934 30.4179C124.141 30.4179 124.327 30.4055 124.493 30.3807C124.658 30.354 124.81 30.3194 124.948 30.2768C125.086 30.2342 125.212 30.1862 125.327 30.133C125.476 30.0613 125.654 30.1675 125.654 30.3329V30.6018Z" fill="white"></path> <path d="M128.707 31.1046C127.696 31.1046 126.877 30.2854 126.877 29.2749C126.877 28.2645 127.696 27.4453 128.707 27.4453H130.279C130.495 27.4453 130.669 27.62 130.669 27.8354C130.669 28.0509 130.495 28.2256 130.279 28.2256H128.218C128.051 28.2256 127.916 28.3609 127.916 28.5279C127.916 28.6948 128.051 28.8302 128.218 28.8302H130.137C130.353 28.8302 130.527 29.0049 130.527 29.2203C130.527 29.4358 130.353 29.6105 130.137 29.6105H128.273C128.076 29.6105 127.916 29.7702 127.916 29.9673C127.916 30.1644 128.076 30.3242 128.273 30.3242H130.318C130.533 30.3242 130.708 30.4989 130.708 30.7144C130.708 30.9299 130.533 31.1046 130.318 31.1046H128.707Z" fill="white"></path> </svg> 