<?xml version="1.0" encoding="UTF-8"?> <svg xmlns="http://www.w3.org/2000/svg" width="60" height="60" viewBox="0 0 60 60" fill="none"> <rect width="60" height="60" rx="15" fill="#384E59" fill-opacity="0.48"></rect> <rect width="60" height="60" rx="15" fill="url(#paint0_linear)" fill-opacity="0.1"></rect> <path d="M35.926 34.964V38H23.759V35.585L29.969 29.72C30.6283 29.0913 31.073 28.5547 31.303 28.11C31.533 27.65 31.648 27.1977 31.648 26.753C31.648 26.109 31.4257 25.6183 30.981 25.281C30.5517 24.9283 29.9153 24.752 29.072 24.752C28.3667 24.752 27.7303 24.89 27.163 25.166C26.5957 25.4267 26.1203 25.8253 25.737 26.362L23.023 24.614C23.6517 23.6787 24.518 22.9503 25.622 22.429C26.726 21.8923 27.991 21.624 29.417 21.624C30.613 21.624 31.6557 21.8233 32.545 22.222C33.4497 22.6053 34.1473 23.1573 34.638 23.878C35.144 24.5833 35.397 25.419 35.397 26.385C35.397 27.259 35.213 28.0793 34.845 28.846C34.477 29.6127 33.764 30.4867 32.706 31.468L29.003 34.964H35.926Z" fill="#26A2FC"></path> <defs> <linearGradient id="paint0_linear" x1="30" y1="0" x2="30" y2="60" gradientUnits="userSpaceOnUse"> <stop stop-color="#00A3FF"></stop> <stop offset="1" stop-color="#26A2FC" stop-opacity="0"></stop> </linearGradient> </defs> </svg> 