<?xml version="1.0" encoding="UTF-8"?> <svg xmlns="http://www.w3.org/2000/svg" width="183" height="50" viewBox="0 0 183 50" fill="none"> <g clip-path="url(#clip0)"> <path d="M27.9972 22.3872C27.6671 22.1122 27.2821 21.8922 26.8421 21.7272C26.402 21.5621 25.907 21.5071 25.4119 21.5071H24.7519H23.0468L22.0017 22.9373L20.0765 25.5225L17.0513 21.5071H15.9512V22.6073V28.5478H17.4913V24.4224L19.9665 27.7778L22.4417 24.4224V28.5478H22.5517H24.0368H25.4119C25.962 28.5478 26.457 28.4378 26.8971 28.2728C27.3371 28.1078 27.7221 27.8878 28.0522 27.5577C28.3822 27.2277 28.6022 26.8977 28.7672 26.4026C28.9322 25.9626 29.0422 25.4675 29.0422 24.9175C29.0422 24.3674 28.9322 23.8724 28.7672 23.4323C28.5472 23.0473 28.3272 22.6623 27.9972 22.3872ZM27.0071 26.5676C26.622 26.9527 26.127 27.1177 25.4119 27.1177H24.0368V22.8823H25.4119C26.072 22.8823 26.622 23.0473 27.0071 23.4323C27.3921 23.7624 27.5571 24.3124 27.5571 25.0275C27.5571 25.6876 27.3371 26.1826 27.0071 26.5676Z" fill="white"></path> <path d="M41.9125 29.3729C39.2723 27.8328 35.917 28.6029 34.1569 30.9681L31.9017 29.648C32.6168 28.2178 33.0018 26.6227 33.0018 24.9725C33.0018 23.2673 32.6168 21.6722 31.9017 20.297L34.1019 19.0319C35.862 21.5071 39.2723 22.2222 41.9125 20.6821C44.7728 19.0319 45.7628 15.4015 44.1127 12.5413C42.4626 9.68097 38.8323 8.69087 35.972 10.341C33.2768 11.8812 32.2867 15.2365 33.5518 17.9868L31.3517 19.2519C29.5915 16.5567 26.6213 14.7415 23.211 14.5765V11.9362C26.1812 11.5512 28.4364 9.07591 28.4364 5.9956C28.4364 2.69527 25.7412 0 22.4409 0C19.1407 0 16.5004 2.69527 16.5004 5.9956C16.5004 9.13091 18.9206 11.7162 22.0009 11.9362V14.5765C18.5906 14.7415 15.6204 16.6117 13.8602 19.2519L11.44 17.8768C12.5951 15.1265 11.605 11.8812 8.96483 10.341C6.10459 8.69087 2.4743 9.68097 0.824162 12.5413C-0.825973 15.4015 0.164109 19.0319 3.02434 20.6821C5.71956 22.2222 9.18485 21.4521 10.945 18.8669L13.3652 20.242C12.6501 21.6722 12.2651 23.2673 12.2651 24.9175C12.2651 26.6227 12.6501 28.2178 13.3652 29.593L10.89 31.0231C9.12984 28.5479 5.71956 27.7778 3.02434 29.3179C0.164109 30.9681 -0.825973 34.5985 0.824162 37.4587C2.4743 40.319 6.10459 41.3091 8.96483 39.659C11.66 38.1188 12.6501 34.8185 11.44 32.0682L13.9152 30.6381C15.6754 33.3333 18.6456 35.1485 22.0559 35.3135V38.0638C18.9756 38.2838 16.5555 40.8691 16.5555 44.0044C16.5555 47.3047 19.2507 50 22.5509 50C25.8512 50 28.5464 47.3047 28.5464 44.0044C28.5464 40.9791 26.2362 38.4488 23.321 38.0638V35.3135C26.7313 35.1485 29.7015 33.2783 31.4617 30.6381L33.7169 31.9032C32.3967 34.7085 33.3868 38.0638 36.1371 39.659C38.9973 41.3091 42.6276 40.319 44.2777 37.4587C45.7628 34.6535 44.7728 31.0231 41.9125 29.3729ZM9.95491 17.8218C8.68981 20.022 5.82957 20.7921 3.62939 19.527C1.42921 18.2068 0.659149 15.4015 1.97926 13.2013C3.29937 11.0011 6.10459 10.231 8.30477 11.4961C10.505 12.7613 11.275 15.6216 9.95491 17.8218ZM8.30477 38.5589C6.04959 39.824 3.24436 39.0539 1.97926 36.8537C0.714153 34.6535 1.48422 31.7932 3.6844 30.5281C5.88458 29.2629 8.74481 30.033 10.0099 32.2332C11.275 34.4334 10.505 37.2937 8.30477 38.5589ZM17.8206 5.9956C17.8206 3.46535 19.9107 1.37514 22.4409 1.37514C24.9711 1.37514 27.0613 3.46535 27.0613 5.9956C27.0613 8.52585 24.9711 10.6161 22.4409 10.6161C19.9107 10.6161 17.8206 8.52585 17.8206 5.9956ZM27.1163 44.0594C27.1163 46.5897 25.0261 48.6799 22.4959 48.6799C19.9657 48.6799 17.8756 46.5897 17.8756 44.0594C17.8756 41.5291 19.9657 39.4389 22.4959 39.4389C25.0261 39.4389 27.1163 41.4741 27.1163 44.0594ZM30.9116 29.0429C30.7466 29.3729 30.5266 29.758 30.3066 30.088C28.7664 32.3982 26.1812 33.9934 23.211 34.2134C23.046 34.2134 22.826 34.2134 22.6059 34.2134C22.3859 34.2134 22.2209 34.2134 22.0009 34.2134C19.0307 34.0484 16.4454 32.4532 14.9053 30.088C14.6853 29.758 14.4653 29.4279 14.3003 29.0429C13.6952 27.7778 13.3652 26.4026 13.3652 24.9175C13.3652 23.4323 13.6952 22.0572 14.3553 20.7921C14.5203 20.462 14.7403 20.077 14.9603 19.747C16.5004 17.4367 19.0857 15.8416 22.0559 15.6216C22.2209 15.6216 22.4409 15.6216 22.6609 15.6216C22.881 15.6216 23.046 15.6216 23.266 15.6216C26.2362 15.7866 28.8215 17.3817 30.3616 19.747C30.5816 20.077 30.8016 20.407 30.9666 20.7921C31.5717 22.0022 31.9567 23.4323 31.9567 24.9175C31.8467 26.4576 31.5167 27.8328 30.9116 29.0429ZM42.9576 36.8537C41.6925 39.0539 38.8323 39.824 36.6321 38.5589C34.4319 37.2937 33.6618 34.4334 34.927 32.2332C36.1921 30.033 39.0523 29.2629 41.2525 30.5281C43.5077 31.7932 44.2227 34.6535 42.9576 36.8537Z" fill="white"></path> <path d="M76.2913 16.8317V25.5226H74.0361V19.472L70.3508 24.3675L66.6655 19.472V25.5226H64.4103V16.8317L63.3652 15.1815H65.8954L70.3508 21.0671L74.8062 15.1815H77.3364L76.2913 16.8317Z" fill="white"></path> <path d="M79.7012 15.1265H86.1367C86.9068 15.1265 87.6218 15.2365 88.2819 15.4566C88.9419 15.6766 89.492 16.0066 89.932 16.4467C90.372 16.8867 90.7571 17.4368 90.9771 18.0418C91.2521 18.7019 91.3621 19.417 91.3621 20.242C91.3621 21.0671 91.2521 21.7822 90.9771 22.4423C90.7021 23.1023 90.372 23.6524 89.932 24.0924C89.492 24.5325 88.9419 24.9175 88.2819 25.1375C87.6218 25.3575 86.9068 25.5226 86.1367 25.5226H81.9014V17.2167H80.6363L79.7012 15.1265ZM84.1015 17.2167V23.4324H86.1367C87.1268 23.4324 87.8968 23.1573 88.4469 22.6073C88.9969 22.0572 89.272 21.2871 89.272 20.297C89.272 19.3069 88.9969 18.5369 88.4469 17.9868C87.8968 17.4918 87.1268 17.2167 86.1367 17.2167H84.1015Z" fill="white"></path> <path d="M102.693 25.5226H100.658V15.1265H108.414V17.2167H102.693V19.747C103.133 19.472 103.628 19.3069 104.233 19.2519C104.784 19.1969 105.389 19.1419 105.994 19.1419H107.094V21.2321H105.994C105.499 21.2321 105.114 21.2321 104.784 21.2871C104.454 21.2871 104.178 21.3421 103.958 21.3972C103.738 21.4522 103.518 21.5072 103.353 21.5622C103.188 21.6172 102.968 21.7272 102.748 21.8372V25.5226H102.693Z" fill="white"></path> <path d="M112.209 25.5226V15.1265H114.244V25.5226H112.209Z" fill="white"></path> <path d="M120.351 15.1265L126.621 22.3322V15.1265H128.711V25.5226H126.621L120.846 18.7569V25.5226H118.811V16.6667L117.766 15.1265H120.351Z" fill="white"></path> <path d="M135.97 14.9065H138.171L143.781 25.5226H141.526L140.701 23.9824H139.436C138.776 23.9824 138.171 24.0374 137.51 24.1474C136.905 24.2575 136.3 24.3675 135.805 24.5325C135.31 24.6975 134.87 24.8625 134.485 25.0275C134.1 25.1926 133.935 25.3576 133.825 25.4126L133.77 25.5226H131.625L136.575 16.2267L135.97 14.9065ZM139.766 22.0572L137.73 18.2069L135.255 22.9373C135.585 22.7723 136.08 22.5523 136.795 22.3323C137.51 22.1122 138.391 22.0022 139.436 22.0022H139.766V22.0572Z" fill="white"></path> <path d="M148.293 15.1265L154.563 22.3322V15.1265H156.653V25.5226H154.563L148.788 18.7569V25.5226H146.697V16.6667L145.652 15.1265H148.293Z" fill="white"></path> <path d="M170.843 24.3674C170.293 24.8625 169.633 25.2475 168.863 25.4676C168.148 25.6876 167.378 25.8526 166.553 25.8526C165.783 25.8526 165.013 25.7426 164.243 25.4676C163.528 25.2475 162.868 24.8625 162.263 24.3674C161.713 23.8724 161.218 23.3223 160.888 22.6073C160.558 21.8922 160.393 21.1221 160.393 20.242C160.393 19.3619 160.558 18.5919 160.888 17.8768C161.218 17.2167 161.713 16.6117 162.263 16.1716C162.813 15.6766 163.473 15.3465 164.243 15.1265C164.958 14.9065 165.728 14.7415 166.498 14.7415C167.268 14.7415 167.983 14.8515 168.698 15.0715C169.413 15.2915 170.073 15.6216 170.623 16.0616L169.248 17.6568C168.863 17.3817 168.423 17.1617 167.928 17.0517C167.433 16.8867 166.938 16.8317 166.443 16.8317C165.948 16.8317 165.453 16.8867 164.958 17.0517C164.518 17.2167 164.078 17.3817 163.693 17.6568C163.308 17.9318 163.033 18.3168 162.813 18.7019C162.593 19.1419 162.483 19.637 162.483 20.242C162.483 20.8471 162.593 21.3421 162.813 21.7822C163.033 22.2222 163.363 22.5523 163.693 22.8273C164.078 23.1023 164.518 23.3223 164.958 23.4324C165.453 23.5974 165.893 23.6524 166.388 23.6524C166.938 23.6524 167.488 23.5424 168.038 23.3774C168.588 23.1573 169.028 22.8823 169.413 22.5523L170.843 24.3674Z" fill="white"></path> <path d="M176.455 23.4324H182.946V25.5226H174.365V15.1265H182.616V17.2167H176.51V19.747C176.95 19.472 177.445 19.3069 178.051 19.2519C178.601 19.1969 179.206 19.1419 179.811 19.1419H181.351V21.2321H179.811C179.316 21.2321 178.931 21.2321 178.601 21.2871C178.271 21.2871 177.996 21.3421 177.776 21.3972C177.556 21.4522 177.335 21.5072 177.17 21.5622C177.005 21.6172 176.785 21.7272 176.565 21.8372V23.4324H176.455Z" fill="white"></path> <path d="M64.4102 33.8834C64.4102 33.6634 64.5752 33.4434 64.7952 33.4434C65.0152 33.4434 65.2352 33.6084 65.2352 33.8834C65.2352 34.1034 65.0702 34.2684 64.7952 34.2684C64.5752 34.3234 64.4102 34.1034 64.4102 33.8834ZM64.4102 35.2035H65.1252V40.044H64.4102V35.2035Z" fill="white"></path> <path d="M72.3314 37.4037C72.3314 39.0539 72.3314 40.099 72.3314 40.099H71.6164C71.6164 40.099 71.6164 38.1738 71.6164 37.4037C71.6164 36.3586 71.1763 35.8636 70.3513 35.8636C69.5812 35.8636 69.0861 36.3586 69.0861 37.4587V40.099H68.3711V35.2035H69.0861V35.7536C69.4162 35.3685 69.9112 35.0935 70.5163 35.0935C71.3963 35.1485 72.3314 35.6436 72.3314 37.4037Z" fill="white"></path> <path d="M79.2064 35.2035L77.4462 40.044H76.6762L74.916 35.2035H75.6861L77.0612 39.0539L78.4363 35.2035H79.2064Z" fill="white"></path> <path d="M86.026 37.6788C86.026 37.7338 86.026 37.8438 86.026 37.9538H82.2857C82.3957 38.8339 83.0007 39.4939 83.8808 39.4939C84.4859 39.4939 84.9259 39.2189 85.2009 38.7789L85.861 39.1089C85.476 39.769 84.7609 40.209 83.8808 40.209C82.5057 40.209 81.5156 39.1089 81.5156 37.7338C81.5156 36.3586 82.4507 35.2035 83.8258 35.2035C85.2009 35.1485 86.026 36.2486 86.026 37.6788ZM82.2857 37.1837H85.2559C85.0909 36.4136 84.6509 35.8636 83.8258 35.8636C83.0007 35.8636 82.4507 36.4136 82.2857 37.1837Z" fill="white"></path> <path d="M92.3533 38.7239C92.3533 39.769 91.4732 40.209 90.5931 40.209C89.6581 40.209 88.943 39.769 88.668 39.0539L89.328 38.7789C89.493 39.2189 89.9331 39.439 90.5931 39.439C90.9782 39.439 91.6382 39.2739 91.6382 38.7239C91.6382 38.3388 91.3632 38.1738 90.5381 38.0088C89.8231 37.8438 88.888 37.6788 88.723 36.7437C88.613 35.8636 89.328 35.1485 90.4281 35.1485C91.2532 35.1485 91.9132 35.5886 92.1333 36.1936L91.4732 36.4687C91.3632 36.1386 90.9782 35.9186 90.4281 35.8636C89.7131 35.8636 89.383 36.1936 89.438 36.6337C89.493 37.0187 89.9331 37.1287 90.6481 37.2937C91.4182 37.4588 92.3533 37.7888 92.3533 38.7239Z" fill="white"></path> <path d="M97.6324 39.769C97.3023 40.044 96.8073 40.209 96.4773 40.154C95.8172 40.099 95.4322 39.714 95.4322 38.5589C95.4322 38.1188 95.4322 36.9637 95.4322 35.9736H94.6621V35.2035H95.4322C95.4322 34.5435 95.4322 34.1584 95.4322 34.1584L96.1472 33.9384C96.1472 33.9384 96.1472 34.5435 96.1472 35.2035H97.1923V35.9186H96.1472C96.1472 36.9637 96.1472 38.1738 96.1472 38.5039C96.1472 38.8889 96.1472 39.1639 96.3123 39.2739C96.4773 39.384 96.8623 39.439 97.1923 39.1639L97.6324 39.769Z" fill="white"></path> <path d="M107.203 37.4038C107.203 39.0539 107.203 40.099 107.203 40.099H106.488C106.488 40.099 106.488 38.1738 106.488 37.4038C106.488 36.3586 106.158 35.8636 105.333 35.8636C104.563 35.8636 104.178 36.3586 104.178 37.4588C104.178 39.0539 104.178 40.099 104.178 40.099H103.408C103.408 40.099 103.408 38.1738 103.408 37.4038C103.408 36.3586 103.023 35.8636 102.253 35.8636C101.483 35.8636 101.098 36.3586 101.098 37.4588V40.099H100.383V35.2035H101.098V35.6986C101.373 35.3686 101.813 35.1485 102.363 35.1485C103.023 35.1485 103.573 35.3686 103.848 35.9736C104.178 35.4786 104.728 35.1485 105.388 35.1485C106.433 35.1485 107.203 35.6436 107.203 37.4038Z" fill="white"></path> <path d="M114.464 37.6788C114.464 37.7338 114.464 37.8438 114.464 37.9538H110.723C110.833 38.8339 111.438 39.4939 112.318 39.4939C112.923 39.4939 113.363 39.2189 113.638 38.7789L114.298 39.1089C113.913 39.769 113.198 40.209 112.318 40.209C110.943 40.209 109.953 39.1089 109.953 37.7338C109.953 36.3586 110.888 35.2035 112.263 35.2035C113.693 35.1485 114.464 36.2486 114.464 37.6788ZM110.778 37.1837H113.748C113.583 36.4136 113.143 35.8636 112.318 35.8636C111.438 35.8636 110.888 36.4136 110.778 37.1837Z" fill="white"></path> <path d="M121.285 37.4037C121.285 39.0539 121.285 40.099 121.285 40.099H120.569C120.569 40.099 120.569 38.1738 120.569 37.4037C120.569 36.3586 120.129 35.8636 119.304 35.8636C118.534 35.8636 118.039 36.3586 118.039 37.4587V40.099H117.324V35.2035H118.039V35.7536C118.369 35.3685 118.864 35.0935 119.469 35.0935C120.404 35.1485 121.285 35.6436 121.285 37.4037Z" fill="white"></path> <path d="M126.839 39.769C126.509 40.044 126.014 40.209 125.684 40.154C125.024 40.099 124.639 39.714 124.639 38.5589C124.639 38.1188 124.639 36.9637 124.639 35.9736H123.869V35.2035H124.639C124.639 34.5435 124.639 34.1584 124.639 34.1584L125.354 33.9384C125.354 33.9384 125.354 34.5435 125.354 35.2035H126.399V35.9186H125.409C125.409 36.9637 125.409 38.1738 125.409 38.5039C125.409 38.8889 125.409 39.1639 125.574 39.2739C125.739 39.384 126.124 39.439 126.454 39.1639L126.839 39.769Z" fill="white"></path> <path d="M138.997 37.6788C138.997 39.0539 138.117 40.154 136.742 40.154C136.082 40.154 135.532 39.879 135.147 39.439V42.2992H134.432V35.2035H135.147V35.8636C135.532 35.4236 136.082 35.1485 136.742 35.1485C138.117 35.1485 138.997 36.2486 138.997 37.6788ZM138.227 37.6788C138.227 36.6887 137.677 35.8636 136.687 35.8636C135.697 35.8636 135.147 36.6887 135.147 37.6788C135.147 38.6689 135.697 39.439 136.687 39.439C137.732 39.439 138.227 38.6689 138.227 37.6788Z" fill="white"></path> <path d="M143.946 39.824C143.616 40.099 143.121 40.209 142.791 40.154C142.131 40.099 141.746 39.714 141.746 38.6139C141.746 37.7338 141.746 32.5633 141.746 32.5633H142.461C142.461 32.5633 142.461 37.8988 142.461 38.5589C142.461 38.9439 142.516 39.1639 142.681 39.3289C142.846 39.439 143.231 39.494 143.561 39.2739L143.946 39.824Z" fill="white"></path> <path d="M149.612 40.099V39.494C149.172 39.879 148.622 40.154 147.907 40.154C147.027 40.154 146.367 39.714 146.367 38.8889C146.367 37.9538 147.137 37.5137 148.622 37.2387C149.392 37.1287 149.667 36.9637 149.667 36.6337C149.667 36.3036 149.502 35.7536 148.567 35.7536C147.687 35.7536 147.467 36.1936 147.357 36.5787L146.697 36.4136C146.807 35.7536 147.412 35.0935 148.567 35.0935C149.722 35.0935 150.328 35.7536 150.328 36.7437C150.328 37.7338 150.328 39.989 150.328 39.989H149.612V40.099ZM149.667 38.0088V37.7888C149.392 37.8438 149.117 37.8988 148.732 37.9538C147.687 38.1188 147.137 38.3388 147.137 38.8889C147.137 39.4389 147.742 39.494 148.017 39.494C148.952 39.494 149.667 38.8889 149.667 38.0088Z" fill="white"></path> <path d="M155.882 39.769C155.552 40.044 155.057 40.209 154.727 40.154C154.067 40.099 153.682 39.714 153.682 38.5589C153.682 38.1188 153.682 36.9637 153.682 35.9736H152.912V35.2035H153.682C153.682 34.5435 153.682 34.1584 153.682 34.1584L154.397 33.9384C154.397 33.9384 154.397 34.5435 154.397 35.2035H155.442V35.9186H154.397C154.397 36.9637 154.397 38.1738 154.397 38.5039C154.397 38.8889 154.397 39.1639 154.562 39.2739C154.727 39.384 155.112 39.439 155.442 39.1639L155.882 39.769Z" fill="white"></path> <path d="M159.733 34.5985C159.733 34.7085 159.733 34.9285 159.733 35.2585H160.668V35.9736H159.733C159.733 37.6238 159.733 40.099 159.733 40.099H159.018C159.018 40.099 159.018 37.6238 159.018 35.9736H158.303V35.2035H159.018C159.018 34.9285 159.018 34.6535 159.018 34.5434C159.018 33.4433 159.403 33.0583 160.063 32.9483C160.393 32.8933 160.888 33.0033 161.218 33.3333L160.833 33.8834C160.503 33.6634 160.118 33.6634 159.953 33.7734C159.788 33.9384 159.733 34.1584 159.733 34.5985Z" fill="white"></path> <path d="M167.873 37.6788C167.873 39.0539 166.883 40.154 165.508 40.154C164.133 40.154 163.143 39.0539 163.143 37.6788C163.143 36.3036 164.078 35.1485 165.508 35.1485C166.883 35.1485 167.873 36.2486 167.873 37.6788ZM167.103 37.6788C167.103 36.6887 166.443 35.8636 165.453 35.8636C164.463 35.8636 163.858 36.6887 163.858 37.6788C163.858 38.6689 164.463 39.439 165.453 39.439C166.498 39.439 167.103 38.6689 167.103 37.6788Z" fill="white"></path> <path d="M173.21 35.1485L173.045 35.8636C172.935 35.8636 172.825 35.8086 172.715 35.8086C171.944 35.8086 171.449 36.3036 171.449 37.4037V40.044H170.734V35.2035H171.449V35.7536C171.779 35.3685 172.275 35.0935 172.825 35.0935C172.99 35.1485 173.1 35.1485 173.21 35.1485Z" fill="white"></path> <path d="M182.725 37.4038C182.725 39.0539 182.725 40.099 182.725 40.099H182.01C182.01 40.099 182.01 38.1738 182.01 37.4038C182.01 36.3586 181.679 35.8636 180.854 35.8636C180.084 35.8636 179.699 36.3586 179.699 37.4588C179.699 39.0539 179.699 40.099 179.699 40.099H178.984C178.984 40.099 178.984 38.1738 178.984 37.4038C178.984 36.3586 178.599 35.8636 177.829 35.8636C177.059 35.8636 176.674 36.3586 176.674 37.4588V40.099H175.959V35.2035H176.674V35.6986C176.949 35.3686 177.389 35.1485 177.939 35.1485C178.599 35.1485 179.149 35.3686 179.424 35.9736C179.754 35.4786 180.304 35.1485 180.964 35.1485C181.955 35.1485 182.725 35.6436 182.725 37.4038Z" fill="white"></path> </g> <defs> <clipPath id="clip0"> <rect width="183" height="50" fill="white"></rect> </clipPath> </defs> </svg> 