<?xml version="1.0" encoding="UTF-8"?> <svg xmlns="http://www.w3.org/2000/svg" width="185" height="194" viewBox="0 0 185 194" fill="none"> <g filter="url(#filter0_d)"> <path d="M114.944 83.8996C114.88 82.4789 114.88 81.1229 114.88 79.7668C114.88 78.6691 114.048 77.8296 112.961 77.8296C104.969 77.8296 98.8949 75.5049 93.8438 70.5327C93.0765 69.8224 91.9256 69.8224 91.1583 70.5327C86.1072 75.5049 80.033 77.8296 72.0406 77.8296C70.9536 77.8296 70.1224 78.6691 70.1224 79.7668C70.1224 81.1229 70.1224 82.4789 70.0585 83.8996C69.8027 97.4601 69.4191 116.057 91.8617 123.871L92.501 124L93.1404 123.871C115.519 116.057 115.199 97.5247 114.944 83.8996ZM90.9665 102.691C90.5829 103.013 90.1353 103.207 89.6238 103.207H89.5599C89.0483 103.207 88.5368 102.949 88.2171 102.561L82.2708 95.9103L85.1481 93.3274L89.8156 98.5578L100.174 88.6135L102.795 91.4547L90.9665 102.691Z" fill="#1FABFB"></path> </g> <defs> <filter id="filter0_d" x="0" y="0" width="185" height="194" filterUnits="userSpaceOnUse" color-interpolation-filters="sRGB"> <feFlood flood-opacity="0" result="BackgroundImageFix"></feFlood> <feColorMatrix in="SourceAlpha" type="matrix" values="0 0 0 0 0 0 0 0 0 0 0 0 0 0 0 0 0 0 127 0"></feColorMatrix> <feOffset></feOffset> <feGaussianBlur stdDeviation="35"></feGaussianBlur> <feColorMatrix type="matrix" values="0 0 0 0 0.148125 0 0 0 0 0.634962 0 0 0 0 0.9875 0 0 0 0.7 0"></feColorMatrix> <feBlend mode="normal" in2="BackgroundImageFix" result="effect1_dropShadow"></feBlend> <feBlend mode="normal" in="SourceGraphic" in2="effect1_dropShadow" result="shape"></feBlend> </filter> </defs> </svg> 