<?xml version="1.0" encoding="UTF-8"?> <svg xmlns="http://www.w3.org/2000/svg" width="40" height="40" viewBox="0 0 40 40" fill="none"> <rect x="0.25" y="0.25" width="39.5" height="39.5" rx="1.75" stroke="white" stroke-opacity="0.15" stroke-width="0.5"></rect> <path fill-rule="evenodd" clip-rule="evenodd" d="M16.2195 12.0142C15.6631 12.1396 14.3039 13.5572 13.3896 14.9659C13.282 15.1315 13.147 15.3676 13.0895 15.4904C12.9858 15.712 12.9853 15.7161 13.0225 16.0208C13.2038 17.5042 14.0534 19.3751 15.3192 21.078C17.6277 24.184 21.0531 26.5518 23.8408 26.9686C24.2618 27.0316 24.3032 27.0213 24.7908 26.7333C25.6804 26.2078 27.0945 25.0084 27.5805 24.3671C27.9709 23.852 28.0211 23.6333 27.8359 23.2547C27.7149 23.0073 27.5744 22.868 27.1525 22.5767C25.4901 21.4289 24.26 20.7792 23.7531 20.7814C23.4012 20.7829 23.1543 20.9678 22.5628 21.6729C22.383 21.8873 22.2137 22.0627 22.1868 22.0627C22.1109 22.0627 21.6503 21.8727 21.3005 21.697C20.0163 21.0521 18.9475 19.9805 18.2954 18.6842C18.1079 18.3114 17.8993 17.8074 17.9157 17.7667C17.9212 17.7529 18.1129 17.578 18.3416 17.3779C19.0609 16.7487 19.1978 16.5641 19.1974 16.2239C19.1968 15.7349 18.6469 14.6521 17.6104 13.0992C17.1164 12.3592 16.9949 12.2235 16.7145 12.0992C16.5003 12.0042 16.3664 11.9812 16.2195 12.0142Z" fill="#D9D9D9"></path> </svg> 