<?xml version="1.0" encoding="UTF-8"?> <svg xmlns="http://www.w3.org/2000/svg" width="45" height="50" viewBox="0 0 45 50" fill="none"> <path d="M27.9972 22.3874C27.6671 22.1124 27.2821 21.8924 26.8421 21.7273C26.402 21.5623 25.907 21.5073 25.4119 21.5073H24.7519H23.0468L22.0017 22.9375L20.0765 25.5227L17.0513 21.5073H15.9512V22.6074V28.548H17.4913V24.4226L19.9665 27.778L22.4417 24.4226V28.548H22.5517H24.0368H25.4119C25.962 28.548 26.457 28.438 26.8971 28.273C27.3371 28.108 27.7221 27.888 28.0522 27.5579C28.3822 27.2279 28.6022 26.8979 28.7672 26.4028C28.9322 25.9628 29.0422 25.4677 29.0422 24.9177C29.0422 24.3676 28.9322 23.8726 28.7672 23.4325C28.5472 23.0475 28.3272 22.6624 27.9972 22.3874ZM27.0071 26.5678C26.622 26.9529 26.127 27.1179 25.4119 27.1179H24.0368V22.8825H25.4119C26.072 22.8825 26.622 23.0475 27.0071 23.4325C27.3921 23.7625 27.5571 24.3126 27.5571 25.0277C27.5571 25.6877 27.3371 26.1828 27.0071 26.5678Z" fill="white"></path> <path d="M41.9135 29.3729C39.2733 27.8328 35.918 28.6029 34.1579 30.9681L31.9027 29.648C32.6177 28.2178 33.0028 26.6227 33.0028 24.9725C33.0028 23.2673 32.6177 21.6722 31.9027 20.297L34.1029 19.0319C35.863 21.5071 39.2733 22.2222 41.9135 20.6821C44.7737 19.0319 45.7638 15.4015 44.1137 12.5413C42.4635 9.68097 38.8332 8.69087 35.973 10.341C33.2778 11.8812 32.2877 15.2365 33.5528 17.9868L31.3526 19.2519C29.5925 16.5567 26.6223 14.7415 23.212 14.5765V11.9362C26.1822 11.5512 28.4374 9.07591 28.4374 5.9956C28.4374 2.69527 25.7422 0 22.4419 0C19.1416 0 16.5014 2.69527 16.5014 5.9956C16.5014 9.13091 18.9216 11.7162 22.0019 11.9362V14.5765C18.5916 14.7415 15.6214 16.6117 13.8612 19.2519L11.441 17.8768C12.5961 15.1265 11.606 11.8812 8.96581 10.341C6.10557 8.69087 2.47527 9.68097 0.825139 12.5413C-0.824996 15.4015 0.165085 19.0319 3.02532 20.6821C5.72054 22.2222 9.18582 21.4521 10.946 18.8669L13.3662 20.242C12.6511 21.6722 12.2661 23.2673 12.2661 24.9175C12.2661 26.6227 12.6511 28.2178 13.3662 29.593L10.891 31.0231C9.13082 28.5479 5.72054 27.7778 3.02532 29.3179C0.165085 30.9681 -0.824996 34.5985 0.825139 37.4587C2.47527 40.319 6.10557 41.3091 8.96581 39.659C11.661 38.1188 12.6511 34.8185 11.441 32.0682L13.9162 30.6381C15.6764 33.3333 18.6466 35.1485 22.0569 35.3135V38.0638C18.9766 38.2838 16.5564 40.8691 16.5564 44.0044C16.5564 47.3047 19.2516 50 22.5519 50C25.8522 50 28.5474 47.3047 28.5474 44.0044C28.5474 40.9791 26.2372 38.4488 23.322 38.0638V35.3135C26.7323 35.1485 29.7025 33.2783 31.4626 30.6381L33.7178 31.9032C32.3977 34.7085 33.3878 38.0638 36.138 39.659C38.9983 41.3091 42.6286 40.319 44.2787 37.4587C45.7638 34.6535 44.7737 31.0231 41.9135 29.3729ZM9.95589 17.8218C8.69078 20.022 5.83055 20.7921 3.63037 19.527C1.43019 18.2068 0.660125 15.4015 1.98023 13.2013C3.30034 11.0011 6.10557 10.231 8.30575 11.4961C10.5059 12.7613 11.276 15.6216 9.95589 17.8218ZM8.30575 38.5589C6.05057 39.824 3.24534 39.0539 1.98023 36.8537C0.71513 34.6535 1.48519 31.7932 3.68537 30.5281C5.88555 29.2629 8.74579 30.033 10.0109 32.2332C11.276 34.4334 10.5059 37.2937 8.30575 38.5589ZM17.8215 5.9956C17.8215 3.46535 19.9117 1.37514 22.4419 1.37514C24.9721 1.37514 27.0623 3.46535 27.0623 5.9956C27.0623 8.52585 24.9721 10.6161 22.4419 10.6161C19.9117 10.6161 17.8215 8.52585 17.8215 5.9956ZM27.1173 44.0594C27.1173 46.5897 25.0271 48.6799 22.4969 48.6799C19.9667 48.6799 17.8765 46.5897 17.8765 44.0594C17.8765 41.5291 19.9667 39.4389 22.4969 39.4389C25.0271 39.4389 27.1173 41.4741 27.1173 44.0594ZM30.9126 29.0429C30.7476 29.3729 30.5276 29.758 30.3076 30.088C28.7674 32.3982 26.1822 33.9934 23.212 34.2134C23.047 34.2134 22.8269 34.2134 22.6069 34.2134C22.3869 34.2134 22.2219 34.2134 22.0019 34.2134C19.0316 34.0484 16.4464 32.4532 14.9063 30.088C14.6863 29.758 14.4663 29.4279 14.3012 29.0429C13.6962 27.7778 13.3662 26.4026 13.3662 24.9175C13.3662 23.4323 13.6962 22.0572 14.3562 20.7921C14.5213 20.462 14.7413 20.077 14.9613 19.747C16.5014 17.4367 19.0866 15.8416 22.0569 15.6216C22.2219 15.6216 22.4419 15.6216 22.6619 15.6216C22.8819 15.6216 23.047 15.6216 23.267 15.6216C26.2372 15.7866 28.8224 17.3817 30.3626 19.747C30.5826 20.077 30.8026 20.407 30.9676 20.7921C31.5727 22.0022 31.9577 23.4323 31.9577 24.9175C31.8477 26.4576 31.5177 27.8328 30.9126 29.0429ZM42.9586 36.8537C41.6935 39.0539 38.8332 39.824 36.6331 38.5589C34.4329 37.2937 33.6628 34.4334 34.9279 32.2332C36.193 30.033 39.0533 29.2629 41.2534 30.5281C43.5086 31.7932 44.2237 34.6535 42.9586 36.8537Z" fill="white"></path> </svg> 