<?xml version="1.0" encoding="UTF-8"?> <svg xmlns="http://www.w3.org/2000/svg" width="44" height="44" viewBox="0 0 44 44" fill="none"> <rect width="44" height="44" rx="3" fill="#202020"></rect> <path d="M31.5673 17.3471C31.3253 16.4293 30.616 15.7058 29.7165 15.4587C28.0732 15 21.4998 15 21.4998 15C21.4998 15 14.9266 15 13.2833 15.4413C12.4011 15.6882 11.6745 16.4295 11.4325 17.3471C11 19.0235 11 22.5 11 22.5C11 22.5 11 25.994 11.4325 27.6529C11.6747 28.5705 12.3838 29.294 13.2834 29.5412C14.9439 30 21.5 30 21.5 30C21.5 30 28.0732 30 29.7165 29.5587C30.6161 29.3117 31.3253 28.5882 31.5676 27.6705C31.9999 25.994 31.9999 22.5177 31.9999 22.5177C31.9999 22.5177 32.0172 19.0235 31.5673 17.3471ZM19.4069 25.7117V19.2883L24.873 22.5L19.4069 25.7117Z" fill="white"></path> </svg> 