<?xml version="1.0" encoding="UTF-8"?> <svg xmlns="http://www.w3.org/2000/svg" width="48" height="28" viewBox="0 0 48 28" fill="none"> <path fill-rule="evenodd" clip-rule="evenodd" d="M37.4951 0.133077C37.1516 0.400442 37.1139 0.618751 37.1142 2.33721C37.1144 3.80114 37.1275 3.96917 37.2603 4.21128C37.3406 4.35755 37.4966 4.516 37.6071 4.56335C37.9104 4.6933 38.3498 4.59836 38.5682 4.3556L38.7579 4.14468V2.31244V0.480278L38.5193 0.243288C38.2434 -0.030655 37.7707 -0.0815779 37.4951 0.133077ZM33.3144 1.85186C32.9864 2.03687 32.7711 2.50029 32.842 2.86885C32.9046 3.19421 34.754 5.32256 35.1304 5.50238C35.4495 5.65482 35.7425 5.57905 36.0181 5.27262C36.2669 4.99616 36.3139 4.54784 36.1344 4.16458C36.0008 3.87943 34.0901 1.79339 33.9611 1.79192C33.9068 1.79135 33.7966 1.77211 33.7163 1.7492C33.6359 1.72638 33.4551 1.77251 33.3144 1.85186ZM41.8862 1.84317C41.5478 2.02867 39.696 4.18456 39.6512 4.44526C39.6056 4.71068 39.7011 5.0976 39.8606 5.29349C40.0258 5.49653 40.4415 5.6372 40.6798 5.57076C40.8991 5.50969 42.8343 3.43071 43.0018 3.07628C43.2194 2.61578 43.0497 2.06026 42.6227 1.83497C42.3298 1.68058 42.1799 1.6822 41.8862 1.84317ZM37.3696 5.71898C36.879 5.89961 36.6322 6.07568 36.324 6.46479C35.7869 7.14295 35.7987 7.01195 35.7987 12.325C35.7987 14.9302 35.7801 17.0618 35.7573 17.0618C35.7345 17.0618 35.6098 16.9718 35.4802 16.862C35.3506 16.7521 35.0487 16.5602 34.8092 16.4356C34.4155 16.2307 34.297 16.209 33.5701 16.209C32.8227 16.209 32.7329 16.2266 32.288 16.461C31.6649 16.7892 31.2858 17.1672 31.075 17.6703C30.8601 18.1833 30.8466 18.9053 31.043 19.386C31.1181 19.5699 31.9358 20.977 32.8599 22.5128C34.6433 25.4767 35.0808 26.0649 36.0352 26.7825C36.5589 27.1763 37.4757 27.6362 38.15 27.8435C38.8286 28.052 42.2667 28.0523 42.9448 27.8438C45.0987 27.1818 46.7001 25.6364 47.5601 23.39C47.9553 22.3577 48.001 21.8929 48.0002 18.9128C47.9995 16.2372 47.9977 16.2048 47.8263 15.8029C47.6098 15.2954 47.197 14.8505 46.7222 14.6129C46.4403 14.4718 46.2293 14.4315 45.7982 14.4362C45.2785 14.442 45.2339 14.4289 45.1604 14.2497C45.0117 13.8868 44.4903 13.3442 44.1084 13.1548C43.6745 12.9398 42.8265 12.895 42.535 13.0717C42.383 13.164 42.3374 13.1448 42.069 12.8753C41.6267 12.4311 41.1849 12.237 40.6068 12.2329L40.1175 12.2294L40.0953 9.79288C40.0738 7.43208 40.0679 7.34558 39.9056 7.00756C39.5052 6.17404 38.8717 5.70347 38.0676 5.64223C37.8445 5.62526 37.5304 5.65978 37.3696 5.71898ZM31.7869 6.60968C31.1384 6.86227 31.0485 7.91329 31.6459 8.25667C31.9515 8.43234 34.8242 8.42235 35.0522 8.24481C35.615 7.80665 35.5181 6.91408 34.8754 6.61561C34.5629 6.47048 32.1561 6.46585 31.7869 6.60968ZM41.0596 6.59482C40.4194 6.87859 40.2925 7.74761 40.8235 8.21192C40.9919 8.35908 41.1256 8.37159 42.5344 8.37159C44.1939 8.37159 44.3702 8.33301 44.5654 7.92758C44.8064 7.42713 44.5929 6.79331 44.1215 6.60968C43.8142 6.49005 41.3233 6.47795 41.0596 6.59482Z" fill="white" fill-opacity="0.3"></path> <path fill-rule="evenodd" clip-rule="evenodd" d="M22.7278 0.133077C22.3315 0.400442 22.288 0.618751 22.2883 2.33721C22.2886 3.80114 22.3037 3.96917 22.4569 4.21128C22.5495 4.35755 22.7296 4.516 22.8571 4.56335C23.207 4.6933 23.714 4.59836 23.966 4.3556L24.1849 4.14468V2.31244V0.480278L23.9096 0.243288C23.5913 -0.030655 23.0458 -0.0815779 22.7278 0.133077ZM17.9039 1.85186C17.5255 2.03687 17.2771 2.50029 17.3589 2.86885C17.4311 3.19421 19.565 5.32256 19.9993 5.50238C20.3675 5.65482 20.7056 5.57905 21.0236 5.27262C21.3107 4.99616 21.3649 4.54784 21.1577 4.16458C21.0036 3.87943 18.799 1.79339 18.6502 1.79192C18.5875 1.79135 18.4604 1.77211 18.3676 1.7492C18.2749 1.72638 18.0662 1.77251 17.9039 1.85186ZM27.7945 1.84317C27.404 2.02867 25.2673 4.18456 25.2156 4.44526C25.163 4.71068 25.2732 5.0976 25.4572 5.29349C25.6479 5.49653 26.1275 5.6372 26.4025 5.57076C26.6555 5.50969 28.8884 3.43071 29.0817 3.07628C29.3328 2.61578 29.137 2.06026 28.6442 1.83497C28.3063 1.68058 28.1333 1.6822 27.7945 1.84317ZM22.583 5.71898C22.0169 5.89961 21.7321 6.07568 21.3766 6.46479C20.7568 7.14295 20.7704 7.01195 20.7704 12.325C20.7704 14.9302 20.7489 17.0618 20.7226 17.0618C20.6964 17.0618 20.5525 16.9718 20.4029 16.862C20.2534 16.7521 19.905 16.5602 19.6287 16.4356C19.1745 16.2307 19.0377 16.209 18.199 16.209C17.3365 16.209 17.2329 16.2266 16.7197 16.461C16.0007 16.7892 15.5632 17.1672 15.32 17.6703C15.072 18.1833 15.0565 18.9053 15.2831 19.386C15.3698 19.5699 16.3132 20.977 17.3795 22.5128C19.4373 25.4767 19.9421 26.0649 21.0433 26.7825C21.6476 27.1763 22.7054 27.6362 23.4835 27.8435C24.2664 28.052 28.2335 28.0523 29.0159 27.8438C31.5012 27.1818 33.349 25.6364 34.3413 23.39C34.7973 22.3577 34.85 21.8929 34.8491 18.9128C34.8483 16.2372 34.8462 16.2048 34.6484 15.8029C34.3986 15.2954 33.9223 14.8505 33.3745 14.6129C33.0492 14.4718 32.8058 14.4315 32.3083 14.4362C31.7087 14.442 31.6572 14.4289 31.5724 14.2497C31.4008 13.8868 30.7992 13.3442 30.3585 13.1548C29.8579 12.9398 28.8794 12.895 28.5431 13.0717C28.3677 13.164 28.3151 13.1448 28.0054 12.8753C27.495 12.4311 26.9853 12.237 26.3182 12.2329L25.7537 12.2294L25.7281 9.79288C25.7032 7.43208 25.6965 7.34558 25.5091 7.00756C25.0471 6.17404 24.3163 5.70347 23.3884 5.64223C23.131 5.62526 22.7685 5.65978 22.583 5.71898ZM16.1414 6.60968C15.3932 6.86227 15.2895 7.91329 15.9788 8.25667C16.3313 8.43234 19.646 8.42235 19.909 8.24481C20.5585 7.80665 20.4467 6.91408 19.7051 6.61561C19.3445 6.47048 16.5675 6.46585 16.1414 6.60968ZM26.8407 6.59482C26.102 6.87859 25.9556 7.74761 26.5683 8.21192C26.7625 8.35908 26.9168 8.37159 28.5424 8.37159C30.4572 8.37159 30.6606 8.33301 30.8859 7.92758C31.1639 7.42713 30.9176 6.79331 30.3736 6.60968C30.0191 6.49005 27.145 6.47795 26.8407 6.59482Z" fill="#9A9D9F"></path> <path fill-rule="evenodd" clip-rule="evenodd" d="M7.35127 0.133077C6.96815 0.400442 6.92609 0.618751 6.92642 2.33721C6.92666 3.80114 6.94125 3.96917 7.08941 4.21128C7.1789 4.35755 7.35298 4.516 7.4762 4.56335C7.8145 4.6933 8.30455 4.59836 8.54815 4.3556L8.7598 4.14468V2.31244V0.480278L8.49363 0.243288C8.18597 -0.030655 7.65868 -0.0815779 7.35127 0.133077ZM2.6882 1.85186C2.32235 2.03687 2.08226 2.50029 2.16131 2.86885C2.23107 3.19421 4.29387 5.32256 4.71375 5.50238C5.06965 5.65482 5.39646 5.57905 5.70387 5.27262C5.98137 4.99616 6.03377 4.54784 5.83353 4.16458C5.68455 3.87943 3.55338 1.79339 3.40954 1.79192C3.34898 1.79135 3.22608 1.77211 3.13643 1.7492C3.04679 1.72638 2.84508 1.77251 2.6882 1.85186ZM12.2491 1.84317C11.8716 2.02867 9.80615 4.18456 9.75611 4.44526C9.70526 4.71068 9.81177 5.0976 9.98969 5.29349C10.174 5.49653 10.6376 5.6372 10.9034 5.57076C11.148 5.50969 13.3065 3.43071 13.4934 3.07628C13.7361 2.61578 13.5468 2.06026 13.0705 1.83497C12.7438 1.68058 12.5766 1.6822 12.2491 1.84317ZM7.21134 5.71898C6.66408 5.89961 6.38878 6.07568 6.0451 6.46479C5.44601 7.14295 5.45913 7.01195 5.45913 12.325C5.45913 14.9302 5.43835 17.0618 5.41292 17.0618C5.38757 17.0618 5.24846 16.9718 5.10388 16.862C4.9593 16.7521 4.62255 16.5602 4.35548 16.4356C3.91637 16.2307 3.78418 16.209 2.97344 16.209C2.13971 16.209 2.03955 16.2266 1.54339 16.461C0.848378 16.7892 0.425484 17.1672 0.190363 17.6703C-0.0493231 18.1833 -0.0643185 18.9053 0.154748 19.386C0.238528 19.5699 1.15049 20.977 2.18128 22.5128C4.17048 25.4767 4.65841 26.0649 5.72294 26.7825C6.30703 27.1763 7.32959 27.6362 8.08173 27.8435C8.83861 28.052 12.6734 28.0523 13.4298 27.8438C15.8322 27.1818 17.6184 25.6364 18.5776 23.39C19.0184 22.3577 19.0694 21.8929 19.0685 18.9128C19.0677 16.2372 19.0657 16.2048 18.8745 15.8029C18.633 15.2954 18.1727 14.8505 17.6431 14.6129C17.3287 14.4718 17.0933 14.4315 16.6124 14.4362C16.0328 14.442 15.983 14.4289 15.9011 14.2497C15.7351 13.8868 15.1536 13.3442 14.7277 13.1548C14.2437 12.9398 13.2979 12.895 12.9728 13.0717C12.8032 13.164 12.7523 13.1448 12.453 12.8753C11.9596 12.4311 11.4668 12.237 10.822 12.2329L10.2763 12.2294L10.2515 9.79288C10.2275 7.43208 10.221 7.34558 10.0399 7.00756C9.59328 6.17404 8.88677 5.70347 7.98989 5.64223C7.74099 5.62526 7.39063 5.65978 7.21134 5.71898ZM0.984397 6.60968C0.261103 6.86227 0.16086 7.91329 0.827188 8.25667C1.16801 8.43234 4.37219 8.42235 4.62646 8.24481C5.25424 7.80665 5.14618 6.91408 4.42932 6.61561C4.08075 6.47048 1.39629 6.46585 0.984397 6.60968ZM11.3271 6.59482C10.613 6.87859 10.4715 7.74761 11.0637 8.21192C11.2515 8.35908 11.4007 8.37159 12.972 8.37159C14.823 8.37159 15.0197 8.33301 15.2374 7.92758C15.5062 7.42713 15.2681 6.79331 14.7422 6.60968C14.3995 6.49005 11.6212 6.47795 11.3271 6.59482Z" fill="white"></path> </svg> 