<?xml version="1.0" encoding="UTF-8"?> <svg xmlns="http://www.w3.org/2000/svg" width="44" height="44" viewBox="0 0 44 44" fill="none"> <rect width="44" height="44" rx="3" fill="#202020"></rect> <path d="M31.8886 26.8373C31.8632 26.7824 31.8395 26.7369 31.8175 26.7004C31.4531 26.0432 30.7569 25.2365 29.7291 24.2801L29.7074 24.2582L29.6965 24.2475L29.6855 24.2365H29.6745C29.2081 23.7911 28.9127 23.4917 28.789 23.3384C28.5627 23.0463 28.5119 22.7507 28.6356 22.4512C28.723 22.2249 29.0513 21.747 29.6197 21.0168C29.9187 20.6299 30.1555 20.3197 30.3303 20.0861C31.5915 18.4069 32.1382 17.3338 31.9705 16.8666L31.9053 16.7574C31.8616 16.6916 31.7486 16.6315 31.5666 16.5766C31.3841 16.5219 31.1509 16.5128 30.8666 16.5493L27.7177 16.5711C27.6667 16.553 27.5939 16.5547 27.499 16.5766C27.4042 16.5986 27.3568 16.6096 27.3568 16.6096L27.302 16.637L27.2585 16.6699C27.222 16.6917 27.1819 16.73 27.1382 16.7848C27.0946 16.8394 27.0582 16.9034 27.0291 16.9764C26.6863 17.8598 26.2965 18.6811 25.859 19.4403C25.5893 19.893 25.3416 20.2854 25.1154 20.6176C24.8895 20.9496 24.7 21.1943 24.547 21.3511C24.3938 21.5081 24.2556 21.6339 24.1314 21.7289C24.0075 21.824 23.9128 21.8641 23.8473 21.8494C23.7816 21.8347 23.7198 21.8202 23.6612 21.8056C23.5592 21.7398 23.4772 21.6504 23.4154 21.5373C23.3532 21.4241 23.3114 21.2817 23.2896 21.1102C23.2678 20.9385 23.2549 20.7908 23.2513 20.6667C23.2478 20.5427 23.2494 20.3673 23.2568 20.141C23.2644 19.9145 23.2678 19.7614 23.2678 19.681C23.2678 19.4036 23.2732 19.1024 23.284 18.7776C23.2951 18.4527 23.304 18.1953 23.3115 18.0057C23.3189 17.8158 23.3223 17.615 23.3223 17.4033C23.3223 17.1916 23.3095 17.0255 23.284 16.905C23.2589 16.7847 23.2204 16.6678 23.1695 16.5546C23.1184 16.4414 23.0436 16.3539 22.9454 16.2918C22.847 16.2297 22.7247 16.1804 22.5791 16.1439C22.1928 16.0563 21.7008 16.0089 21.1029 16.0016C19.7472 15.987 18.8761 16.0747 18.4898 16.2645C18.3367 16.3447 18.1982 16.4543 18.0743 16.5929C17.9431 16.7536 17.9248 16.8412 18.0195 16.8557C18.4569 16.9213 18.7666 17.0783 18.9488 17.3265L19.0145 17.458C19.0656 17.5529 19.1166 17.7209 19.1677 17.9618C19.2186 18.2026 19.2515 18.4691 19.266 18.761C19.3024 19.294 19.3024 19.7503 19.266 20.1298C19.2295 20.5096 19.1951 20.8052 19.1622 21.0169C19.1293 21.2286 19.0801 21.4002 19.0145 21.5315C18.9488 21.6629 18.9052 21.7433 18.8832 21.7724C18.8614 21.8016 18.8431 21.8199 18.8287 21.8271C18.7339 21.8635 18.6354 21.882 18.5334 21.882C18.4313 21.882 18.3074 21.8309 18.1617 21.7286C18.016 21.6263 17.8647 21.4859 17.708 21.307C17.5512 21.1281 17.3745 20.878 17.1776 20.5568C16.9809 20.2357 16.7767 19.8561 16.5653 19.418L16.3904 19.1004C16.2811 18.896 16.1317 18.5985 15.9422 18.208C15.7526 17.8173 15.585 17.4394 15.4392 17.0744C15.381 16.9211 15.2935 16.8044 15.1769 16.7241L15.1222 16.6911C15.0858 16.662 15.0274 16.631 14.9473 16.598C14.867 16.5651 14.7833 16.5414 14.6958 16.5269L11.6999 16.5487C11.3938 16.5487 11.186 16.6182 11.0767 16.7569L11.0329 16.8225C11.011 16.8591 11 16.9174 11 16.9978C11 17.0781 11.0219 17.1767 11.0656 17.2934C11.503 18.3229 11.9786 19.3157 12.4924 20.2721C13.0063 21.2284 13.4528 21.9988 13.8318 22.5825C14.2108 23.1666 14.5971 23.7179 14.9908 24.2361C15.3844 24.7544 15.645 25.0866 15.7725 25.2326C15.9001 25.3788 16.0004 25.4881 16.0732 25.5611L16.3466 25.8239C16.5216 25.9991 16.7785 26.209 17.1174 26.4535C17.4564 26.6982 17.8318 26.939 18.2436 27.1765C18.6555 27.4136 19.1347 27.607 19.6815 27.7567C20.2282 27.9064 20.7602 27.9665 21.2778 27.9375H22.5352C22.7902 27.9155 22.9835 27.8352 23.1148 27.6966L23.1583 27.6417C23.1875 27.5981 23.2149 27.5304 23.2402 27.4393C23.2658 27.3481 23.2785 27.2475 23.2785 27.1382C23.271 26.8243 23.2949 26.5414 23.3494 26.2896C23.4039 26.0378 23.466 25.848 23.5355 25.7202C23.6049 25.5925 23.6833 25.4847 23.7705 25.3973C23.8579 25.3097 23.9201 25.2567 23.9567 25.2384C23.993 25.2201 24.022 25.2076 24.0438 25.2001C24.2188 25.1417 24.4246 25.1983 24.6618 25.37C24.8987 25.5416 25.1209 25.7534 25.3288 26.0052C25.5366 26.2572 25.7862 26.5399 26.0777 26.8537C26.3694 27.1677 26.6245 27.4011 26.843 27.5546L27.0616 27.686C27.2076 27.7737 27.3972 27.854 27.6305 27.927C27.8633 28 28.0674 28.0182 28.2426 27.9818L31.0415 27.938C31.3184 27.938 31.5338 27.8921 31.6866 27.801C31.8397 27.7098 31.9306 27.6093 31.96 27.4999C31.9892 27.3904 31.9908 27.2662 31.9655 27.1274C31.9396 26.9889 31.9141 26.8921 31.8886 26.8373Z" fill="white"></path> </svg> 