<?xml version="1.0" encoding="UTF-8"?> <svg xmlns="http://www.w3.org/2000/svg" width="17" height="17" viewBox="0 0 17 17" fill="none"> <path d="M8.5 0C3.81286 0 0 3.81286 0 8.5C0 13.1871 3.81286 17 8.5 17C13.1871 17 17 13.1871 17 8.5C17 3.81286 13.1871 0 8.5 0ZM8.5 16.3443C4.17714 16.3443 0.655714 12.8229 0.655714 8.5C0.655714 4.17714 4.17714 0.655714 8.5 0.655714C12.8229 0.655714 16.3443 4.17714 16.3443 8.5C16.3443 12.8229 12.8229 16.3443 8.5 16.3443Z" fill="white"></path> <path d="M8.49955 14.8629C8.79098 14.8629 8.96098 14.6686 8.98527 14.4015C9.05813 14.5229 9.13098 14.5958 9.25241 14.6201C9.37384 14.6443 9.51955 14.6201 9.6167 14.5715C9.73812 14.5229 9.81098 14.4501 9.88384 14.3286C9.93241 14.2072 9.93241 14.0858 9.88384 13.9643C10.0296 14.1586 10.2481 14.2072 10.4667 14.1101C10.7581 13.9886 10.8553 13.7458 10.7338 13.4543C10.3938 12.6286 10.0296 11.8029 9.68955 10.9772C9.66527 10.9043 9.64098 10.8315 9.59241 10.7586C9.56813 10.6858 9.54384 10.6372 9.51955 10.6129C9.49527 10.5886 9.47098 10.5643 9.4467 10.5401C9.98098 10.5886 10.2481 10.8072 10.3938 10.9043C10.4424 10.9286 10.4181 10.9286 10.5881 10.8801C10.661 10.8558 10.7338 10.8801 10.7824 10.9043C10.8553 10.9286 10.9038 10.9772 10.9767 11.0258C11.171 11.1715 11.3653 11.3172 11.5596 11.4872C11.6567 11.5601 11.7781 11.7058 11.7538 11.8029C11.7296 11.9001 11.4624 12.1672 11.3896 12.2401C11.1953 12.4101 11.4867 12.7501 11.8753 12.7258C11.7781 12.6286 11.7538 12.5315 11.7538 12.4586C11.8024 12.4586 11.8753 12.4586 11.9238 12.4101C11.9967 12.3372 11.9724 12.1186 12.0453 12.0458C12.191 11.9243 12.6281 11.9001 12.871 11.9001C12.9924 11.9001 13.0896 11.8758 13.0896 11.7058C13.2596 11.7058 13.2838 11.8515 13.2838 11.9486C13.4296 11.8758 13.551 11.4872 13.0167 11.3901C13.1138 11.3172 13.2596 11.2686 13.3567 11.3901C13.4538 11.2443 13.2353 10.9772 12.8224 11.1229C12.8224 11.1229 12.6524 10.8801 12.1181 11.4872C12.0453 11.4386 11.9967 11.3901 11.9238 11.3415C11.7296 11.1472 11.1953 10.6372 11.1953 10.6372C11.1953 10.3458 11.1467 9.81149 10.7824 9.47149C10.6124 9.32578 10.4667 9.25292 10.1267 9.20435C10.1267 9.20435 10.2967 8.93721 10.321 8.84006C10.6124 9.13149 11.2196 9.22863 11.2196 8.71864C11.7053 9.20435 12.1424 8.93721 12.1424 8.64578C12.1667 8.79149 12.191 8.96149 12.2396 9.10721C12.3124 9.27721 12.531 9.88435 13.0896 9.88435C13.1138 10.1029 13.1138 10.8072 13.7938 10.9772C13.8181 10.9772 13.8667 11.0015 13.891 11.0258C14.1581 11.3658 15.3238 11.7301 15.4453 11.6329C15.3481 11.5601 15.2267 11.4872 15.2024 11.0743C15.1781 10.8072 15.1538 9.42292 15.1538 7.48006C15.1538 6.80006 15.081 4.56578 12.871 4.25006C12.531 4.20149 12.2153 4.22578 11.9238 4.44435C11.5353 4.73578 11.341 5.22149 11.5838 5.78006C11.5838 5.80435 11.6081 5.82863 11.6081 5.82863C11.681 5.95006 11.6567 6.07149 11.5596 6.16863C11.3653 6.36292 11.171 6.48435 10.9038 6.50863C10.7338 6.53292 10.6124 6.46006 10.491 6.33863C10.2481 6.09578 10.0781 5.78006 10.0053 5.44006C9.90812 4.76006 10.0781 4.44435 10.0781 4.42006C10.2481 4.05578 10.6367 3.78863 11.0738 3.76435C11.2681 3.37578 11.851 3.54578 11.851 3.54578C11.9967 3.57006 12.0453 3.61863 12.0938 3.69149C12.0938 3.69149 12.3367 3.30292 12.1181 3.15721C11.8753 3.01149 11.341 2.93863 11.341 2.93863C11.341 2.69578 10.9281 2.50149 10.1753 2.62292C9.25241 2.79292 9.05813 2.42863 9.05813 2.42863C9.00955 2.86578 9.34955 3.08435 9.47098 3.15721C9.13098 3.52149 8.64527 4.27435 8.52384 5.34292C8.40241 4.27435 7.9167 3.52149 7.5767 3.15721C7.67384 3.08435 8.01384 2.86578 7.98955 2.42863C7.98955 2.42863 7.79527 2.79292 6.87241 2.62292C6.11955 2.47721 5.7067 2.69578 5.7067 2.93863C5.7067 2.93863 5.17241 3.01149 4.92955 3.15721C4.6867 3.30292 4.95384 3.69149 4.95384 3.69149C4.97812 3.61863 5.05098 3.57006 5.1967 3.54578C5.1967 3.54578 5.77955 3.40006 5.97384 3.76435C6.41098 3.81292 6.79955 4.05578 6.96955 4.42006C6.96955 4.44435 7.16384 4.78435 7.04241 5.44006C6.99384 5.78006 6.82384 6.09578 6.5567 6.33863C6.45955 6.46006 6.31384 6.53292 6.14384 6.50863C5.8767 6.48435 5.68241 6.36292 5.48813 6.16863C5.3667 6.07149 5.34241 5.95006 5.41527 5.82863C5.41527 5.80435 5.43955 5.78006 5.43955 5.78006C5.65812 5.22149 5.48813 4.73578 5.09955 4.44435C4.80813 4.22578 4.49241 4.20149 4.15241 4.25006C1.94241 4.56578 1.86955 6.77578 1.86955 7.48006C1.86955 9.42292 1.84527 10.8072 1.82098 11.0743C1.7967 11.4872 1.65098 11.5601 1.57812 11.6329C1.72384 11.7301 2.86527 11.3658 3.13241 11.0258C3.1567 11.0015 3.18098 11.0015 3.22955 10.9772C3.90955 10.8072 3.90955 10.1029 3.93384 9.88435C4.5167 9.88435 4.73527 9.25292 4.78384 9.10721C4.83241 8.96149 4.88098 8.81578 4.88098 8.64578C4.88098 8.96149 5.31813 9.20435 5.80384 8.71864C5.80384 9.22863 6.3867 9.13149 6.70241 8.84006C6.7267 8.93721 6.8967 9.20435 6.8967 9.20435C6.5567 9.27721 6.41098 9.35006 6.24098 9.47149C5.8767 9.81149 5.82812 10.3458 5.82812 10.6372C5.82812 10.6372 5.31813 11.1472 5.09955 11.3415C5.05098 11.3901 4.97813 11.4386 4.90527 11.4872C4.37098 10.9043 4.20098 11.1229 4.20098 11.1229C3.81241 10.9529 3.59384 11.2443 3.6667 11.3901C3.76384 11.2929 3.90955 11.3172 4.0067 11.3901C3.47241 11.4872 3.59384 11.8758 3.73955 11.9486C3.73955 11.8272 3.76384 11.7058 3.93384 11.7058C3.93384 11.8758 4.03098 11.9001 4.15241 11.9001C4.41955 11.9001 4.8567 11.9243 4.97813 12.0458C5.05098 12.1186 5.0267 12.3372 5.09955 12.4101C5.17241 12.4829 5.24527 12.4586 5.26955 12.4586C5.29384 12.5315 5.26955 12.6286 5.14813 12.7258C5.5367 12.7501 5.80384 12.4101 5.63384 12.2401C5.56098 12.1672 5.29384 11.9001 5.26955 11.8029C5.24527 11.6815 5.3667 11.5601 5.46384 11.4872C5.65812 11.3172 5.85241 11.1715 6.0467 11.0258C6.09527 10.9772 6.16813 10.9529 6.24098 10.9043C6.28955 10.8801 6.36241 10.8558 6.43527 10.8801C6.58098 10.9286 6.58098 10.9286 6.62955 10.9043C6.77527 10.8072 7.04241 10.5886 7.5767 10.5401C7.52813 10.5643 7.50384 10.5886 7.50384 10.6129C7.47955 10.6615 7.45527 10.7101 7.43098 10.7586C7.4067 10.8315 7.35813 10.9043 7.33384 10.9772C6.99384 11.8029 6.62955 12.6286 6.28955 13.4543C6.16813 13.7215 6.26527 13.9643 6.5567 14.1101C6.75098 14.2072 6.99384 14.1586 7.13955 13.9643C7.09098 14.1101 7.09098 14.2072 7.13955 14.3286C7.18813 14.4501 7.28527 14.5229 7.4067 14.5715C7.52812 14.6201 7.64955 14.6443 7.77098 14.6201C7.89241 14.5958 7.98955 14.5229 8.03812 14.4015C8.03812 14.6686 8.20813 14.8629 8.49955 14.8629Z" fill="white"></path> </svg> 