<?xml version="1.0" encoding="UTF-8"?> <svg xmlns="http://www.w3.org/2000/svg" width="60" height="60" viewBox="0 0 60 60" fill="none"> <rect width="60" height="60" rx="15" fill="#384E59" fill-opacity="0.48"></rect> <rect width="60" height="60" rx="15" fill="url(#paint0_linear)" fill-opacity="0.1"></rect> <path d="M29.417 27.949C31.6863 27.949 33.3577 28.4013 34.431 29.306C35.5197 30.2107 36.064 31.422 36.064 32.94C36.064 33.9213 35.8187 34.8183 35.328 35.631C34.8373 36.4283 34.086 37.0723 33.074 37.563C32.0773 38.0383 30.843 38.276 29.371 38.276C28.2363 38.276 27.117 38.1303 26.013 37.839C24.9243 37.5323 23.9967 37.103 23.23 36.551L24.702 33.699C25.3153 34.159 26.0207 34.5193 26.818 34.78C27.6153 35.0253 28.4357 35.148 29.279 35.148C30.2143 35.148 30.9503 34.964 31.487 34.596C32.0237 34.228 32.292 33.7143 32.292 33.055C32.292 32.365 32.0083 31.8437 31.441 31.491C30.889 31.1383 29.923 30.962 28.543 30.962H24.426L25.254 21.9H35.075V24.89H28.359L28.106 27.949H29.417Z" fill="#26A2FC"></path> <defs> <linearGradient id="paint0_linear" x1="30" y1="0" x2="30" y2="60" gradientUnits="userSpaceOnUse"> <stop stop-color="#00A3FF"></stop> <stop offset="1" stop-color="#26A2FC" stop-opacity="0"></stop> </linearGradient> </defs> </svg> 