<?xml version="1.0" encoding="UTF-8"?> <svg xmlns="http://www.w3.org/2000/svg" width="20" height="20" viewBox="0 0 20 20" fill="none"> <g filter="url(#filter0_i_108_2053)"> <rect width="20" height="20" rx="2" fill="url(#paint0_radial_108_2053)"></rect> </g> <rect x="0.5" y="0.5" width="19" height="19" rx="1.5" stroke="url(#paint1_angular_108_2053)"></rect> <path fill-rule="evenodd" clip-rule="evenodd" d="M11.9003 7.98766C11.5122 8.34956 10.9306 8.89179 10.6079 9.19259C10.2851 9.49339 9.91654 9.83704 9.78879 9.95623C9.66106 10.0754 9.3701 10.3464 9.14222 10.5583L8.72789 10.9437L8.68646 10.8953C8.66367 10.8687 8.29527 10.4725 7.8678 10.0148L7.09056 9.18276L7.04742 9.22179C7.02369 9.24327 6.81784 9.43637 6.58995 9.65089C6.36207 9.86543 6.13612 10.0775 6.08782 10.1223L6 10.2036L6.30205 10.5267C6.46816 10.7045 6.74632 11.0024 6.92019 11.1889C7.52292 11.8352 7.9974 12.3432 8.32632 12.6944L8.65688 13.0473L8.7421 12.9678C8.78898 12.9241 9.09196 12.6422 9.41538 12.3414C9.73881 12.0407 10.1193 11.6864 10.2609 11.5543C10.4025 11.4221 10.779 11.0716 11.0977 10.7753C11.4163 10.4791 11.8451 10.08 12.0504 9.8884C12.2557 9.69683 12.6872 9.29495 13.0093 8.99532C13.3314 8.69571 13.5987 8.44062 13.6034 8.42849C13.6107 8.40941 12.6508 7.34276 12.6175 7.33302C12.6112 7.33116 12.2885 7.62575 11.9003 7.98766Z" fill="#232323"></path> <defs> <filter id="filter0_i_108_2053" x="0" y="0" width="20" height="20" filterUnits="userSpaceOnUse" color-interpolation-filters="sRGB"> <feFlood flood-opacity="0" result="BackgroundImageFix"></feFlood> <feBlend mode="normal" in="SourceGraphic" in2="BackgroundImageFix" result="shape"></feBlend> <feColorMatrix in="SourceAlpha" type="matrix" values="0 0 0 0 0 0 0 0 0 0 0 0 0 0 0 0 0 0 127 0" result="hardAlpha"></feColorMatrix> <feOffset></feOffset> <feGaussianBlur stdDeviation="10"></feGaussianBlur> <feComposite in2="hardAlpha" operator="arithmetic" k2="-1" k3="1"></feComposite> <feColorMatrix type="matrix" values="0 0 0 0 1 0 0 0 0 1 0 0 0 0 1 0 0 0 0.3 0"></feColorMatrix> <feBlend mode="normal" in2="shape" result="effect1_innerShadow_108_2053"></feBlend> </filter> <radialGradient id="paint0_radial_108_2053" cx="0" cy="0" r="1" gradientUnits="userSpaceOnUse" gradientTransform="translate(15.561 9.77781) rotate(92.3474) scale(18.4599 20.9997)"> <stop stop-color="#5DC381"></stop> <stop offset="1" stop-color="#63B781"></stop> </radialGradient> <radialGradient id="paint1_angular_108_2053" cx="0" cy="0" r="1" gradientUnits="userSpaceOnUse" gradientTransform="translate(10 10) rotate(90) scale(10)"> <stop stop-color="white"></stop> <stop offset="1" stop-color="white" stop-opacity="0"></stop> </radialGradient> </defs> </svg> 