<?xml version="1.0" encoding="UTF-8"?> <svg xmlns="http://www.w3.org/2000/svg" width="40" height="40" viewBox="0 0 40 40" fill="none"> <path d="M30.5 13.5H9.5C8.94772 13.5 8.5 13.9477 8.5 14.5C8.5 15.0523 8.94772 15.5 9.5 15.5H30.5C31.0523 15.5 31.5 15.0523 31.5 14.5C31.5 13.9477 31.0523 13.5 30.5 13.5Z" fill="white"></path> <path d="M30.5 19H9.5C8.94772 19 8.5 19.4477 8.5 20C8.5 20.5523 8.94772 21 9.5 21H30.5C31.0523 21 31.5 20.5523 31.5 20C31.5 19.4477 31.0523 19 30.5 19Z" fill="white"></path> <path d="M30.5 24.5H9.5C8.94772 24.5 8.5 24.9477 8.5 25.5C8.5 26.0523 8.94772 26.5 9.5 26.5H30.5C31.0523 26.5 31.5 26.0523 31.5 25.5C31.5 24.9477 31.0523 24.5 30.5 24.5Z" fill="white"></path> <path d="M1.19238 10.0001C1.19238 5.13572 5.13572 1.19238 10.0001 1.19238H30.0001C34.8645 1.19238 38.8078 5.13572 38.8078 10.0001V30.0001C38.8078 34.8645 34.8645 38.8078 30.0001 38.8078H10.0001C5.13572 38.8078 1.19238 34.8645 1.19238 30.0001V10.0001Z" stroke="white" stroke-width="2.38462"></path> </svg> 