<?xml version="1.0" encoding="UTF-8"?> <svg xmlns="http://www.w3.org/2000/svg" width="474" height="555" viewBox="0 0 474 555" fill="none"> <path fill-rule="evenodd" clip-rule="evenodd" d="M224.5 5.04073C220.65 7.70673 217.027 9.91573 216.449 9.95073C215.871 9.98473 212.613 11.8217 209.211 14.0327C205.808 16.2437 201.874 18.4897 200.47 19.0237C199.065 19.5577 195.26 21.7987 192.013 24.0037C188.766 26.2087 185.686 28.0127 185.169 28.0127C183.999 28.0127 171.623 36.1597 171.167 37.2307C170.983 37.6607 170.173 38.0127 169.366 38.0127C168.558 38.0127 162.633 41.2407 156.199 45.1867C149.765 49.1327 142.051 53.6637 139.058 55.2557C136.065 56.8477 132.396 59.0187 130.904 60.0817C129.412 61.1437 127.698 62.0127 127.096 62.0127C126.493 62.0127 126 62.4137 126 62.9037C126 63.3947 124.313 64.5157 122.25 65.3967C118.804 66.8677 115.414 68.8237 100.068 78.1957C97.081 80.0197 92.988 82.4317 90.973 83.5547C85.662 86.5137 73.07 93.9627 69 96.5517C67.075 97.7757 62.35 100.49 58.5 102.582C54.65 104.675 50.15 107.362 48.5 108.553C46.85 109.745 41.988 112.698 37.695 115.116C27.927 120.619 22.366 123.818 17.015 127.013C14.712 128.388 11.629 130.191 10.164 131.02C8.699 131.849 5.813 133.573 3.75 134.851L0 137.176V195.095C0 226.95 0.233 253.013 0.517 253.013C0.801 253.013 4.37 250.988 8.447 248.513C12.524 246.038 16.322 244.013 16.886 244.013C17.45 244.013 19.494 243.001 21.428 241.763C30.303 236.086 32.233 235.013 33.569 235.013C34.784 235.013 35 229.525 35 198.67V162.328L38.75 160.42C40.813 159.371 44.975 156.898 48 154.925C52.958 151.691 58.054 148.669 71.458 141.013C76.119 138.351 86.652 132.037 96.5 126.002C99.8 123.98 103.513 121.789 104.75 121.134L107 119.943V204.873V289.803L101.75 292.535C98.862 294.037 95.375 296.029 94 296.962C92.625 297.895 89.7 299.48 87.5 300.484C85.3 301.488 81.214 303.764 78.421 305.54C75.627 307.317 72.364 309.08 71.171 309.459C69.002 310.147 69 310.178 69 342.512V374.877L71.904 376.945C73.502 378.082 75.154 379.013 75.576 379.013C75.997 379.013 77.053 379.649 77.921 380.426C78.79 381.203 81.975 383.144 85 384.74C88.025 386.336 92.3 388.69 94.5 389.97C96.7 391.25 100.3 393.295 102.5 394.514C104.7 395.733 110.55 399.035 115.5 401.853C120.45 404.671 125.299 406.985 126.275 406.995C128.12 407.014 139.409 400.339 144.327 396.322C145.881 395.052 147.555 394.013 148.046 394.013C148.537 394.013 152.369 391.773 156.563 389.036C165.212 383.389 164.916 383.364 174.989 390.6C177.601 392.477 180.16 394.013 180.674 394.013C181.188 394.013 183.794 395.399 186.464 397.093L191.32 400.172L195.689 397.093C198.092 395.399 200.256 394.013 200.498 394.013C200.74 394.013 204.068 391.988 207.894 389.513C211.72 387.038 215.296 385.013 215.842 385.013C216.387 385.013 216.983 384.659 217.167 384.226C217.35 383.793 219.638 382.199 222.25 380.684C224.863 379.168 227 377.282 227 376.491C227 375.701 225.137 374.103 222.859 372.941C220.582 371.779 217.838 370.008 216.761 369.005C215.684 368.001 213.612 366.881 212.157 366.516C210.702 366.151 208.961 365.395 208.288 364.837C206.415 363.283 195.845 357.013 195.098 357.013C194.734 357.013 191.864 355.403 188.719 353.436L183 349.859V330.171V310.483L178.25 307.869C175.638 306.431 171.475 304.223 169 302.963C162.913 299.863 162.441 299.604 155.021 295.284C151.457 293.21 147.632 291.268 146.521 290.968C144.513 290.426 144.498 289.798 144.245 194.345C144.043 118.24 144.251 98.0537 145.245 97.2447C145.935 96.6837 149.65 94.5467 153.5 92.4967C157.35 90.4457 161.175 88.2237 162 87.5587C162.825 86.8927 165.3 85.5277 167.5 84.5257C169.7 83.5237 174.249 80.9727 177.608 78.8577C180.967 76.7427 184.126 75.0127 184.626 75.0127C185.126 75.0127 187.103 73.9537 189.018 72.6587C190.933 71.3637 196.1 68.3757 200.5 66.0177C204.9 63.6607 208.725 61.4567 209 61.1217C209.657 60.3207 213.534 58.1037 218.5 55.6887C220.7 54.6187 224.3 52.5247 226.5 51.0367C228.7 49.5477 231.906 47.8517 233.624 47.2677C236.885 46.1577 239.147 47.1137 248.89 53.7157C250.754 54.9787 253.079 56.0127 254.056 56.0127C255.034 56.0127 255.983 56.3567 256.167 56.7767C256.626 57.8307 269.877 66.0127 271.124 66.0127C271.679 66.0127 273.566 67.0837 275.317 68.3937C277.068 69.7027 281.425 72.3437 285 74.2617C288.575 76.1797 293.75 79.0917 296.5 80.7327C302.387 84.2467 317.214 92.8387 321.5 95.2197L324.5 96.8857L324.762 133.34L325.024 169.794L331.262 173.713C334.693 175.868 339.525 178.683 342 179.967C344.475 181.251 347.85 183.297 349.5 184.513C351.15 185.73 353.625 187.076 355 187.504C356.375 187.932 358.388 188.897 359.473 189.648C364.13 192.871 364 194.487 364 133.203V75.3927L357.75 71.3087C354.313 69.0627 349.925 66.4377 348 65.4747C346.075 64.5117 341.937 61.9887 338.805 59.8677C335.673 57.7477 332.905 56.0127 332.655 56.0127C332.405 56.0127 329.343 54.2097 325.85 52.0067C322.358 49.8037 318.825 47.7107 318 47.3567C317.175 47.0037 313.312 44.7557 309.416 42.3637C305.52 39.9707 302.017 38.0127 301.632 38.0127C301.247 38.0127 297.63 35.7627 293.595 33.0127C289.56 30.2627 285.95 28.0127 285.574 28.0127C285.198 28.0127 282.234 26.2087 278.987 24.0037C275.74 21.7987 271.906 19.5467 270.466 18.9997C269.027 18.4527 265.904 16.6667 263.527 15.0307C261.149 13.3957 256.571 10.6357 253.352 8.89873C250.134 7.16073 246.6 4.95673 245.5 4.00073C239.032 -1.62027 233.742 -1.35827 224.5 5.04073ZM375 104.513C375 123.846 375.211 127.013 376.5 127.013C377.325 127.013 378 127.412 378 127.899C378 128.386 379.688 129.582 381.75 130.555C383.813 131.529 387.3 133.457 389.5 134.84C391.7 136.223 395.975 138.703 399 140.351C402.025 141.999 406.744 144.847 409.487 146.68C412.229 148.513 414.851 150.013 415.312 150.013C415.773 150.013 419.167 151.926 422.855 154.263C426.543 156.601 431.234 159.371 433.28 160.42L437 162.328V202.613V242.898L431.759 239.446C428.876 237.548 425.614 235.712 424.509 235.367C423.404 235.022 420.7 233.514 418.5 232.017C416.3 230.521 411.039 227.437 406.808 225.164C402.578 222.891 397.453 219.903 395.419 218.522C393.385 217.142 391.27 216.013 390.719 216.013C390.167 216.013 386.866 214.213 383.383 212.013C379.899 209.813 376.738 208.013 376.358 208.013C375.979 208.013 372.48 206.041 368.584 203.631C364.688 201.221 359.475 198.243 357 197.014C354.525 195.785 351.825 194.208 351 193.508C350.175 192.809 347.025 190.981 344 189.447C340.975 187.912 337.375 185.89 336 184.952C334.625 184.014 331.025 181.893 328 180.239C316.802 174.114 312.487 171.615 312 170.972C311.725 170.61 310.375 169.908 309 169.413C307.625 168.918 303.027 166.488 298.782 164.013L291.064 159.513L291.032 138.725L291 117.936L286.476 115.225C283.988 113.733 278.701 110.381 274.726 107.776C270.752 105.171 267.144 103.033 266.71 103.026C266.275 103.019 264.7 102.173 263.21 101.146C260.209 99.0787 253.779 95.0857 246.085 90.5127C243.309 88.8627 241.029 87.1957 241.019 86.8077C241.008 86.4207 239.422 85.8077 237.493 85.4457C234.512 84.8857 233.048 85.3817 227.743 88.7467C213.103 98.0327 204.886 103.013 204.204 103.013C203.802 103.013 201.229 104.518 198.487 106.357C195.744 108.196 190.81 111.192 187.521 113.014C184.233 114.837 180.97 116.9 180.271 117.599C179.32 118.55 179 124.413 179 140.895V162.919L175.546 164.558C173.646 165.46 171.566 166.831 170.924 167.605C170.281 168.379 169.285 169.013 168.711 169.013C168.137 169.013 164.368 171.07 160.334 173.584L153 178.155V200.182V222.209L156.25 220.052C158.037 218.866 161.525 216.99 164 215.883C166.475 214.776 169.175 213.268 170 212.532C170.825 211.795 174.2 209.734 177.5 207.95C180.8 206.166 185.75 203.271 188.5 201.515C191.25 199.76 195.421 197.356 197.769 196.174L202.038 194.025L207.072 196.744C209.841 198.24 212.972 200.27 214.031 201.257C215.09 202.243 218.554 204.637 221.728 206.577C224.903 208.516 229.3 211.418 231.5 213.025C236.089 216.377 236.39 216.455 238.179 214.763C238.905 214.076 241.525 212.163 244 210.513C246.475 208.863 248.65 207.175 248.833 206.763C249.017 206.351 249.743 206.013 250.448 206.013C251.153 206.013 252.991 205.001 254.532 203.763C256.073 202.525 260.72 199.441 264.858 196.908L272.382 192.304L278.824 195.721C282.366 197.601 287.562 200.685 290.369 202.576C293.176 204.466 295.853 206.013 296.317 206.013C296.781 206.013 299.487 207.546 302.331 209.42C305.174 211.294 309.525 213.846 312 215.091C314.475 216.336 318.525 218.784 321 220.531C323.475 222.277 326.85 224.377 328.5 225.196C333.065 227.464 339.439 231.167 340 231.879C340.275 232.228 342.3 233.458 344.5 234.613C348.304 236.61 352.375 238.997 364.25 246.195C367.137 247.946 371.88 250.641 374.789 252.185C377.698 253.728 382.736 256.796 385.984 259.002C389.232 261.208 392.333 263.013 392.874 263.013C393.416 263.013 396.567 264.812 399.877 267.011C403.188 269.21 407.157 271.56 408.698 272.235C410.239 272.909 413.975 275.109 417 277.123C420.025 279.138 424.75 281.974 427.5 283.426C430.25 284.879 433.742 287.087 435.259 288.335L438.019 290.603L437.759 341.405L437.5 392.207L432.899 394.86C430.368 396.319 422.63 401 415.702 405.263C408.774 409.525 402.818 413.013 402.466 413.013C402.115 413.013 399.953 414.322 397.663 415.923C395.374 417.523 390.35 420.743 386.5 423.078C382.65 425.412 375.225 429.979 370 433.225C359.587 439.694 358.399 440.423 352.695 443.834L348.814 446.156L344.928 443.584C342.791 442.17 340.794 441.013 340.489 441.013C340.185 441.013 336.862 438.988 333.105 436.513C329.348 434.038 326.022 432.013 325.713 432.013C325.113 432.013 303.84 418.926 303 418.04C302.227 417.225 298.767 415.127 296 413.796C294.625 413.134 292.427 411.787 291.115 410.803C289.803 409.818 288.003 409.012 287.115 409.01C285.268 409.007 276.669 413.132 276.167 414.263C275.983 414.676 275.447 415.013 274.974 415.013C274.502 415.013 271.277 416.712 267.808 418.788C258.985 424.068 255.985 425.749 252.25 427.509C249.082 429.001 247.747 432.013 250.253 432.013C250.942 432.013 253.755 433.621 256.503 435.587C259.251 437.553 263.794 440.292 266.599 441.675C269.403 443.058 272.953 445.268 274.487 446.587C276.022 447.905 278.79 449.531 280.638 450.199C282.487 450.868 284.002 451.662 284.005 451.964C284.007 452.266 287.183 454.313 291.062 456.513C294.94 458.713 299.551 461.508 301.307 462.724C303.063 463.941 306.525 466.038 309 467.385C311.475 468.732 316.629 471.899 320.453 474.423C324.277 476.948 327.745 479.013 328.159 479.013C328.573 479.013 331.342 480.716 334.312 482.797C337.283 484.877 341.486 487.379 343.653 488.356C347.59 490.132 347.594 490.131 352.74 487.323C360.898 482.87 370.974 477.039 377.725 472.863C381.15 470.746 384.184 469.013 384.469 469.013C384.753 469.013 388.24 466.988 392.217 464.513C396.194 462.038 399.783 460.013 400.193 460.013C400.603 460.013 404.068 457.988 407.894 455.513C411.72 453.038 415.232 451.013 415.698 451.013C416.164 451.013 419.01 449.389 422.023 447.404C425.035 445.42 429.525 442.723 432 441.411C434.475 440.1 438.3 437.899 440.5 436.521C442.7 435.143 446.3 433.11 448.5 432.003C450.7 430.897 454.525 428.651 457 427.013C459.475 425.375 463.525 423.097 466 421.952C468.475 420.807 471.288 419.157 472.25 418.287C473.901 416.793 474 408.781 474 277.013C474 145.208 473.901 137.239 472.25 135.836C471.288 135.018 468.7 133.534 466.5 132.539C464.3 131.544 459.448 128.769 455.719 126.372C451.989 123.974 448.459 122.013 447.873 122.013C447.288 122.013 445.614 121.175 444.154 120.151C442.694 119.128 437.9 116.341 433.5 113.959C429.1 111.577 425.275 109.328 425 108.961C424.725 108.594 420.9 106.37 416.5 104.019C412.1 101.667 407.375 98.9697 406 98.0257C404.625 97.0807 399.788 94.3647 395.25 91.9897C390.712 89.6157 387 87.2987 387 86.8427C387 86.3857 386.431 86.0127 385.735 86.0127C385.04 86.0127 382.791 85.1127 380.739 84.0127C378.686 82.9127 376.556 82.0127 376.004 82.0127C375.362 82.0127 375 90.1247 375 104.513ZM86.5 216.506C81.55 219.473 75.925 222.687 74 223.647C72.075 224.606 67.575 227.157 64 229.315C60.425 231.473 54.125 235.036 50 237.233C45.875 239.429 41.825 241.778 41 242.452C40.175 243.126 37.925 244.447 36 245.387C34.075 246.328 30.925 248.052 29 249.218C21.924 253.505 10.358 260.08 5.25 262.718L0 265.43L0.035 343.471L0.071 421.513L8.285 426.513C12.803 429.263 17.175 431.738 18 432.013C18.825 432.288 22.729 434.425 26.674 436.763C30.62 439.1 34.142 441.013 34.499 441.013C34.857 441.013 38.169 442.926 41.858 445.263C45.548 447.6 50.802 450.638 53.534 452.013C56.265 453.388 58.725 454.781 59 455.108C59.275 455.435 63.1 457.623 67.5 459.969C71.9 462.316 76.679 465.074 78.119 466.099C79.56 467.124 81.869 468.393 83.249 468.918C84.63 469.443 88.969 471.929 92.89 474.443C96.812 476.956 100.656 479.013 101.434 479.013C102.211 479.013 104.119 480.045 105.673 481.305C107.228 482.566 111.425 485.11 115 486.959C118.575 488.809 122.625 491.091 124 492.032C125.375 492.973 130.1 495.667 134.5 498.019C138.9 500.37 142.725 502.573 143 502.913C143.275 503.254 145.288 504.428 147.474 505.523C149.66 506.617 154.667 509.426 158.601 511.763C162.535 514.1 166.077 516.013 166.472 516.013C166.868 516.013 168.386 516.86 169.846 517.896C173.118 520.217 179.196 523.71 184.5 526.317C186.7 527.398 190.378 529.57 192.674 531.144C194.97 532.717 197.929 534.416 199.249 534.918C200.57 535.42 204.499 537.672 207.98 539.922C211.462 542.172 214.657 544.013 215.082 544.013C215.506 544.013 219.519 546.263 224 549.013C230.11 552.763 233.121 554.013 236.042 554.013C239.029 554.013 241.725 552.847 247.597 549.013C251.81 546.263 255.674 544.013 256.183 544.013C256.693 544.013 259.766 542.209 263.013 540.004C266.26 537.799 270.079 535.553 271.5 535.013C272.921 534.473 276.74 532.227 279.987 530.022C283.234 527.817 286.396 526.013 287.015 526.013C287.634 526.013 290.021 524.735 292.32 523.173C294.619 521.611 299.65 518.632 303.5 516.553C307.35 514.474 311.175 512.205 312 511.512C312.825 510.818 317.139 508.284 321.586 505.882C326.034 503.479 330.962 500.477 332.537 499.211L335.402 496.909L332.451 494.554C330.828 493.26 327.475 491.145 325 489.857C322.525 488.568 320.35 487.176 320.167 486.763C319.983 486.35 319.385 486.013 318.836 486.013C318.288 486.013 315.513 484.489 312.669 482.626C309.826 480.763 306.488 478.933 305.25 478.559C304.012 478.184 303 477.492 303 477.019C303 476.546 302.212 475.982 301.25 475.765C298.649 475.18 292.204 478.532 267.5 493.321C264.75 494.967 259.575 497.886 256 499.807C252.425 501.729 248.825 503.841 248 504.501C247.175 505.161 244.076 506.883 241.114 508.327L235.728 510.953L227.178 506.369C222.476 503.848 218.035 501.191 217.309 500.464C216.582 499.738 214.978 498.834 213.744 498.456C211.352 497.722 200.555 491.484 197.921 489.314C197.053 488.598 195.829 488.013 195.202 488.013C194.575 488.013 190.932 485.988 187.106 483.513C183.28 481.038 179.779 479.003 179.325 478.991C177.505 478.942 162.665 469.013 164.412 469.013C165.447 469.013 168.59 467.507 171.396 465.666C174.203 463.825 178.975 460.97 182 459.322C185.025 457.674 189.25 455.13 191.39 453.669C193.529 452.208 195.7 451.013 196.214 451.013C196.729 451.013 200.279 448.988 204.104 446.514C207.929 444.04 212.508 441.338 214.279 440.511C216.051 439.684 219.525 437.682 222 436.063C224.475 434.444 228.309 432.266 230.521 431.223C232.733 430.181 235.208 428.663 236.021 427.85C236.834 427.038 241.25 424.422 245.833 422.038C250.417 419.654 254.692 417.193 255.333 416.57C255.975 415.947 258.075 414.637 260 413.659C261.925 412.681 265.975 410.359 269 408.5C272.025 406.64 276.059 404.403 277.963 403.528C279.868 402.653 282.118 401.325 282.963 400.576C283.809 399.828 286.075 398.344 288 397.279C298.97 391.209 301.605 389.674 304.866 387.458C309.406 384.373 311.61 384.384 316.215 387.513C318.238 388.888 320.368 390.013 320.947 390.013C321.526 390.013 322 390.412 322 390.899C322 391.386 323.669 392.577 325.709 393.545C327.749 394.513 331.72 396.778 334.534 398.578C337.348 400.378 341.333 402.796 343.391 403.952L347.131 406.052L352.102 403.556C354.836 402.182 359.05 399.699 361.467 398.036C363.883 396.373 366.181 395.013 366.572 395.013C366.964 395.013 370.245 393.143 373.863 390.858C377.482 388.572 382.931 385.351 385.971 383.699C389.012 382.047 393.381 379.417 395.68 377.854C397.979 376.292 400.342 375.013 400.93 375.013C401.668 375.013 401.996 365.007 401.988 342.763L401.975 310.513L398.238 308.037C396.182 306.675 393.6 305.058 392.5 304.444C389.43 302.729 384.151 299.648 376.98 295.387C373.394 293.256 369.119 290.754 367.48 289.827L364.5 288.142L364.226 271.637C363.959 255.557 363.895 255.115 361.726 254.451C360.502 254.076 356.372 251.705 352.55 249.181C348.727 246.658 344.227 243.868 342.55 242.981C340.872 242.094 337.25 239.965 334.5 238.251C324.897 232.263 325.538 230.648 325.234 261.602L324.968 288.692L322.234 290.102C320.73 290.878 318.905 292.076 318.179 292.763C317.452 293.451 316.552 294.022 316.179 294.032C315.805 294.043 313.705 295.618 311.511 297.532C309.317 299.447 306.729 301.013 305.761 301.013C304.792 301.013 303.998 301.35 303.995 301.763C303.992 302.176 301.519 304.088 298.5 306.013L293.01 309.513L293.005 330.141C293.001 345.45 292.678 351.02 291.75 351.745C291.063 352.283 287.35 354.417 283.5 356.488C279.65 358.559 275.79 360.874 274.921 361.633C274.053 362.392 272.928 363.033 272.421 363.057C271.915 363.082 267.9 365.313 263.5 368.016C259.1 370.719 253.925 373.716 252 374.676C250.075 375.637 245.293 378.355 241.373 380.718C237.454 383.08 233.935 385.013 233.554 385.013C233.172 385.013 230.979 386.292 228.68 387.854C226.381 389.417 221.805 392.161 218.51 393.952C212.833 397.039 209.169 399.125 192.325 408.864C188.379 411.146 184.914 413.013 184.625 413.013C184.337 413.013 182.165 414.313 179.8 415.902C177.435 417.491 173.025 420.141 170 421.792C166.975 423.442 159.325 427.814 153 431.506C146.675 435.198 138.125 440.041 134 442.267C129.875 444.494 126.029 446.676 125.454 447.118C124.871 447.564 123.098 447.036 121.454 445.926C119.829 444.829 116.475 443 114 441.862C111.525 440.724 108.068 438.718 106.317 437.403C104.566 436.089 102.918 435.013 102.655 435.013C101.801 435.013 87.539 426.631 86.244 425.369C85.553 424.695 83.978 423.838 82.744 423.463C80.643 422.826 73.318 418.627 56.364 408.342C52.439 405.961 48.941 404.013 48.589 404.013C48.238 404.013 45.037 402.173 41.475 399.923L35 395.834V343.631V291.429L41.609 287.471C54.171 279.948 56.628 278.501 61.912 275.513C64.83 273.863 70.557 270.376 74.64 267.763C78.722 265.15 82.466 263.013 82.96 263.013C83.454 263.013 86.59 261.198 89.929 258.981L96 254.948V232.981C96 220.898 95.888 211.035 95.75 211.061C95.612 211.088 91.45 213.538 86.5 216.506Z" fill="url(#paint0_radial_341_140)"></path> <defs> <radialGradient id="paint0_radial_341_140" cx="0" cy="0" r="1" gradientUnits="userSpaceOnUse" gradientTransform="translate(237 277.006) rotate(90) scale(277.006 237)"> <stop stop-color="white"></stop> <stop offset="1" stop-color="#CFCFCF"></stop> </radialGradient> </defs> </svg> 