<?xml version="1.0" encoding="UTF-8"?> <svg xmlns="http://www.w3.org/2000/svg" width="198" height="195" viewBox="0 0 198 195" fill="none"> <g filter="url(#filter0_d)"> <path d="M125.825 98.9474C124.624 98.9474 123.65 99.92 123.65 101.118V104.013H122.2V95.3289C122.2 90.9376 118.624 87.3684 114.225 87.3684H101.175V81.1476C103.298 80.2879 104.8 78.2124 104.8 75.7895C104.8 72.5966 102.199 70 99 70C95.8013 70 93.2 72.5966 93.2 75.7895C93.2 78.2124 94.7022 80.2879 96.825 81.1476V87.3684H83.775C79.3757 87.3684 75.8 90.9376 75.8 95.3289V104.013H74.35V101.118C74.35 99.92 73.3756 98.9474 72.175 98.9474C70.9744 98.9474 70 99.92 70 101.118V111.25C70 112.448 70.9744 113.421 72.175 113.421C73.3756 113.421 74.35 112.448 74.35 111.25V108.355H75.8V117.039C75.8 121.431 79.3757 125 83.775 125H114.225C118.624 125 122.2 121.431 122.2 117.039V108.355H123.65V111.25C123.65 112.448 124.624 113.421 125.825 113.421C127.026 113.421 128 112.448 128 111.25V101.118C128 99.92 127.026 98.9474 125.825 98.9474ZM84.5 101.842C84.5 98.6492 87.1013 96.0526 90.3 96.0526C93.4987 96.0526 96.1 98.6492 96.1 101.842C96.1 105.035 93.4987 107.632 90.3 107.632C87.1013 107.632 84.5 105.035 84.5 101.842ZM105.525 116.316H92.475C91.2744 116.316 90.3 115.343 90.3 114.145C90.3 112.946 91.2744 111.974 92.475 111.974H105.525C106.726 111.974 107.7 112.946 107.7 114.145C107.7 115.343 106.726 116.316 105.525 116.316ZM107.7 107.632C104.501 107.632 101.9 105.035 101.9 101.842C101.9 98.6492 104.501 96.0526 107.7 96.0526C110.899 96.0526 113.5 98.6492 113.5 101.842C113.5 105.035 110.899 107.632 107.7 107.632Z" fill="#1FABFB"></path> </g> <defs> <filter id="filter0_d" x="0" y="0" width="198" height="195" filterUnits="userSpaceOnUse" color-interpolation-filters="sRGB"> <feFlood flood-opacity="0" result="BackgroundImageFix"></feFlood> <feColorMatrix in="SourceAlpha" type="matrix" values="0 0 0 0 0 0 0 0 0 0 0 0 0 0 0 0 0 0 127 0"></feColorMatrix> <feOffset></feOffset> <feGaussianBlur stdDeviation="35"></feGaussianBlur> <feColorMatrix type="matrix" values="0 0 0 0 0.148125 0 0 0 0 0.634962 0 0 0 0 0.9875 0 0 0 0.7 0"></feColorMatrix> <feBlend mode="normal" in2="BackgroundImageFix" result="effect1_dropShadow"></feBlend> <feBlend mode="normal" in="SourceGraphic" in2="effect1_dropShadow" result="shape"></feBlend> </filter> </defs> </svg> 