<?xml version="1.0" encoding="UTF-8"?> <svg xmlns="http://www.w3.org/2000/svg" width="340" height="420" viewBox="0 0 340 420" fill="none"> <path d="M325.004 130.375H14.996C6.92105 130.375 0.375 136.921 0.375 144.996V225.004C0.375 233.079 6.92105 239.625 14.996 239.625H325.004C333.079 239.625 339.625 233.079 339.625 225.004V144.996C339.625 136.921 333.079 130.375 325.004 130.375Z" fill="black" fill-opacity="0.14"></path> <path d="M325.004 130.375H14.996C6.92105 130.375 0.375 136.921 0.375 144.996V225.004C0.375 233.079 6.92105 239.625 14.996 239.625H325.004C333.079 239.625 339.625 233.079 339.625 225.004V144.996C339.625 136.921 333.079 130.375 325.004 130.375Z" stroke="white" stroke-width="0.749797"></path> <path d="M325.004 275.375H14.996C6.92105 275.375 0.375 281.921 0.375 289.996V370.004C0.375 378.079 6.92105 384.625 14.996 384.625H325.004C333.079 384.625 339.625 378.079 339.625 370.004V289.996C339.625 281.921 333.079 275.375 325.004 275.375Z" fill="black" fill-opacity="0.14"></path> <path d="M325.004 275.375H14.996C6.92105 275.375 0.375 281.921 0.375 289.996V370.004C0.375 378.079 6.92105 384.625 14.996 384.625H325.004C333.079 384.625 339.625 378.079 339.625 370.004V289.996C339.625 281.921 333.079 275.375 325.004 275.375Z" stroke="white" stroke-width="0.749797"></path> <path d="M325.004 0.375H14.996C6.92105 0.375 0.375 6.92105 0.375 14.996V95.004C0.375 103.079 6.92105 109.625 14.996 109.625H325.004C333.079 109.625 339.625 103.079 339.625 95.004V14.996C339.625 6.92105 333.079 0.375 325.004 0.375Z" fill="black" fill-opacity="0.14"></path> <path d="M325.004 0.375H14.996C6.92105 0.375 0.375 6.92105 0.375 14.996V95.004C0.375 103.079 6.92105 109.625 14.996 109.625H325.004C333.079 109.625 339.625 103.079 339.625 95.004V14.996C339.625 6.92105 333.079 0.375 325.004 0.375Z" stroke="white" stroke-width="0.749797"></path> <path d="M26.3582 29.0902C25.3183 29.0902 24.3785 28.8602 23.5386 28.4003C22.7088 27.9404 22.0539 27.3055 21.5739 26.4956C21.104 25.6757 20.8691 24.7609 20.8691 23.7511C20.8691 22.7412 21.104 21.8314 21.5739 21.0215C22.0539 20.2016 22.7138 19.5617 23.5536 19.1018C24.3935 18.6419 25.3333 18.4119 26.3732 18.4119C27.153 18.4119 27.8729 18.5419 28.5328 18.8019C29.1927 19.0618 29.7526 19.4417 30.2125 19.9417L29.5077 20.6466C28.6878 19.8167 27.653 19.4018 26.4032 19.4018C25.5733 19.4018 24.8184 19.5917 24.1385 19.9717C23.4586 20.3516 22.9237 20.8715 22.5338 21.5314C22.1539 22.1913 21.9639 22.9312 21.9639 23.7511C21.9639 24.5709 22.1539 25.3108 22.5338 25.9707C22.9237 26.6306 23.4586 27.1505 24.1385 27.5304C24.8184 27.9104 25.5733 28.1003 26.4032 28.1003C27.663 28.1003 28.6978 27.6804 29.5077 26.8405L30.2125 27.5454C29.7526 28.0454 29.1877 28.4303 28.5178 28.7002C27.8579 28.9602 27.138 29.0902 26.3582 29.0902ZM38.9534 21.1115L35.0091 29.945C34.6891 30.6849 34.3192 31.2098 33.8993 31.5198C33.4793 31.8297 32.9744 31.9847 32.3845 31.9847C32.0046 31.9847 31.6496 31.9247 31.3197 31.8047C30.9897 31.6848 30.7048 31.5048 30.4648 31.2648L30.9597 30.47C31.3597 30.8699 31.8396 31.0699 32.3995 31.0699C32.7594 31.0699 33.0644 30.9699 33.3143 30.7699C33.5743 30.5699 33.8143 30.23 34.0342 29.7501L34.3792 28.9852L30.8547 21.1115H31.9646L34.9341 27.8154L37.9036 21.1115H38.9534ZM49.431 21.1115V29.0002H48.4562V22.7612L45.2617 28.0404H44.7817L41.5873 22.7462V29.0002H40.6124V21.1115H41.6922L45.0367 26.7956L48.4412 21.1115H49.431ZM61.2797 21.1115V29.0002H60.3048V22.7612L57.1103 28.0404H56.6304L53.4359 22.7462V29.0002H52.4611V21.1115H53.5409L56.8854 26.7956L60.2898 21.1115H61.2797ZM67.0243 21.0515C68.0541 21.0515 68.844 21.3114 69.3939 21.8314C69.9438 22.3413 70.2188 23.1012 70.2188 24.111V29.0002H69.199V27.7704C68.959 28.1803 68.6041 28.5003 68.1341 28.7302C67.6742 28.9602 67.1243 29.0752 66.4844 29.0752C65.6045 29.0752 64.9047 28.8652 64.3847 28.4453C63.8648 28.0254 63.6049 27.4704 63.6049 26.7806C63.6049 26.1107 63.8448 25.5708 64.3248 25.1608C64.8147 24.7509 65.5895 24.5459 66.6494 24.5459H69.154V24.066C69.154 23.3861 68.964 22.8712 68.5841 22.5212C68.2041 22.1613 67.6492 21.9813 66.9193 21.9813C66.4194 21.9813 65.9395 22.0663 65.4796 22.2363C65.0196 22.3963 64.6247 22.6212 64.2948 22.9112L63.8148 22.1163C64.2148 21.7764 64.6947 21.5164 65.2546 21.3364C65.8145 21.1465 66.4044 21.0515 67.0243 21.0515ZM66.6494 28.2353C67.2493 28.2353 67.7642 28.1003 68.1941 27.8304C68.6241 27.5504 68.944 27.1505 69.154 26.6306V25.3408H66.6794C65.3296 25.3408 64.6547 25.8107 64.6547 26.7506C64.6547 27.2105 64.8297 27.5754 65.1796 27.8454C65.5296 28.1053 66.0195 28.2353 66.6494 28.2353ZM83.8775 25.3858H77.2785C77.3385 26.2057 77.6535 26.8705 78.2234 27.3805C78.7933 27.8804 79.5132 28.1303 80.383 28.1303C80.873 28.1303 81.3229 28.0454 81.7328 27.8754C82.1428 27.6954 82.4977 27.4355 82.7977 27.0955L83.3976 27.7854C83.0476 28.2053 82.6077 28.5253 82.0778 28.7452C81.5579 28.9652 80.9829 29.0752 80.353 29.0752C79.5432 29.0752 78.8233 28.9052 78.1934 28.5653C77.5735 28.2153 77.0886 27.7354 76.7386 27.1255C76.3887 26.5156 76.2137 25.8257 76.2137 25.0558C76.2137 24.286 76.3787 23.5961 76.7086 22.9862C77.0486 22.3763 77.5085 21.9014 78.0884 21.5614C78.6783 21.2215 79.3382 21.0515 80.0681 21.0515C80.798 21.0515 81.4529 21.2215 82.0328 21.5614C82.6127 21.9014 83.0676 22.3763 83.3976 22.9862C83.7275 23.5861 83.8925 24.276 83.8925 25.0558L83.8775 25.3858ZM80.0681 21.9663C79.3082 21.9663 78.6683 22.2113 78.1484 22.7012C77.6385 23.1811 77.3485 23.811 77.2785 24.5909H82.8726C82.8027 23.811 82.5077 23.1811 81.9878 22.7012C81.4779 22.2113 80.838 21.9663 80.0681 21.9663ZM92.9437 25.4908H91.234V29.0002H90.1692V25.4908H88.4595L86.0449 29.0002H84.7701L87.6046 24.9359L84.995 21.1115H86.1498L88.4595 24.5759H90.1692V21.1115H91.234V24.5759H92.9437L95.2684 21.1115H96.4232L93.8136 24.9509L96.6481 29.0002H95.3733L92.9437 25.4908ZM105.041 25.3858H98.4421C98.5021 26.2057 98.817 26.8705 99.387 27.3805C99.9569 27.8804 100.677 28.1303 101.546 28.1303C102.036 28.1303 102.486 28.0454 102.896 27.8754C103.306 27.6954 103.661 27.4355 103.961 27.0955L104.561 27.7854C104.211 28.2053 103.771 28.5253 103.241 28.7452C102.721 28.9652 102.146 29.0752 101.516 29.0752C100.707 29.0752 99.9869 28.9052 99.357 28.5653C98.7371 28.2153 98.2521 27.7354 97.9022 27.1255C97.5523 26.5156 97.3773 25.8257 97.3773 25.0558C97.3773 24.286 97.5423 23.5961 97.8722 22.9862C98.2121 22.3763 98.6721 21.9014 99.252 21.5614C99.8419 21.2215 100.502 21.0515 101.231 21.0515C101.961 21.0515 102.616 21.2215 103.196 21.5614C103.776 21.9014 104.231 22.3763 104.561 22.9862C104.891 23.5861 105.056 24.276 105.056 25.0558L105.041 25.3858ZM101.231 21.9663C100.472 21.9663 99.8319 22.2113 99.312 22.7012C98.8021 23.1811 98.5121 23.811 98.4421 24.5909H104.036C103.966 23.811 103.671 23.1811 103.151 22.7012C102.641 22.2113 102.001 21.9663 101.231 21.9663ZM116.231 21.1115V29.0002H115.257V22.7612L112.062 28.0404H111.582L108.388 22.7462V29.0002H107.413V21.1115H108.493L111.837 26.7956L115.242 21.1115H116.231ZM126.16 25.3858H119.562C119.622 26.2057 119.936 26.8705 120.506 27.3805C121.076 27.8804 121.796 28.1303 122.666 28.1303C123.156 28.1303 123.606 28.0454 124.016 27.8754C124.426 27.6954 124.781 27.4355 125.081 27.0955L125.681 27.7854C125.331 28.2053 124.891 28.5253 124.361 28.7452C123.841 28.9652 123.266 29.0752 122.636 29.0752C121.826 29.0752 121.106 28.9052 120.476 28.5653C119.856 28.2153 119.372 27.7354 119.022 27.1255C118.672 26.5156 118.497 25.8257 118.497 25.0558C118.497 24.286 118.662 23.5961 118.992 22.9862C119.332 22.3763 119.791 21.9014 120.371 21.5614C120.961 21.2215 121.621 21.0515 122.351 21.0515C123.081 21.0515 123.736 21.2215 124.316 21.5614C124.896 21.9014 125.351 22.3763 125.681 22.9862C126.01 23.5861 126.175 24.276 126.175 25.0558L126.16 25.3858ZM122.351 21.9663C121.591 21.9663 120.951 22.2113 120.431 22.7012C119.921 23.1811 119.632 23.811 119.562 24.5909H125.156C125.086 23.811 124.791 23.1811 124.271 22.7012C123.761 22.2113 123.121 21.9663 122.351 21.9663ZM131.832 29.0752C131.052 29.0752 130.352 28.9052 129.732 28.5653C129.122 28.2253 128.643 27.7504 128.293 27.1405C127.943 26.5206 127.768 25.8257 127.768 25.0558C127.768 24.286 127.943 23.5961 128.293 22.9862C128.643 22.3763 129.122 21.9014 129.732 21.5614C130.352 21.2215 131.052 21.0515 131.832 21.0515C132.512 21.0515 133.117 21.1865 133.647 21.4564C134.187 21.7164 134.612 22.1013 134.922 22.6112L134.127 23.1511C133.867 22.7612 133.537 22.4713 133.137 22.2813C132.737 22.0813 132.302 21.9813 131.832 21.9813C131.262 21.9813 130.747 22.1113 130.287 22.3713C129.837 22.6212 129.482 22.9812 129.222 23.4511C128.972 23.921 128.847 24.4559 128.847 25.0558C128.847 25.6657 128.972 26.2057 129.222 26.6756C129.482 27.1355 129.837 27.4954 130.287 27.7554C130.747 28.0054 131.262 28.1303 131.832 28.1303C132.302 28.1303 132.737 28.0354 133.137 27.8454C133.537 27.6554 133.867 27.3655 134.127 26.9755L134.922 27.5154C134.612 28.0254 134.187 28.4153 133.647 28.6853C133.107 28.9452 132.502 29.0752 131.832 29.0752ZM142.779 21.1115V29.0002H141.804V26.3906H139.329H139.029L137.2 29.0002H136.045L138.009 26.2406C137.4 26.0707 136.93 25.7807 136.6 25.3708C136.27 24.9609 136.105 24.4409 136.105 23.811C136.105 22.9312 136.405 22.2613 137.005 21.8014C137.605 21.3414 138.424 21.1115 139.464 21.1115H142.779ZM137.185 23.841C137.185 25.0108 137.929 25.5958 139.419 25.5958H141.804V22.0563H139.494C137.954 22.0563 137.185 22.6512 137.185 23.841ZM151.769 21.1115V29.0002H150.704V25.7157C149.794 26.1157 148.899 26.3156 148.02 26.3156C147.07 26.3156 146.33 26.1007 145.8 25.6707C145.27 25.2308 145.005 24.5759 145.005 23.7061V21.1115H146.07V23.6461C146.07 24.236 146.26 24.6859 146.64 24.9958C147.02 25.2958 147.545 25.4458 148.215 25.4458C148.954 25.4458 149.784 25.2508 150.704 24.8609V21.1115H151.769ZM154.793 21.1115H155.858V24.6059H160.822V21.1115H161.887V29.0002H160.822V25.5208H155.858V29.0002H154.793V21.1115ZM168.228 23.901C169.218 23.911 169.973 24.131 170.492 24.5609C171.012 24.9908 171.272 25.6107 171.272 26.4206C171.272 27.2605 170.992 27.9054 170.432 28.3553C169.873 28.8052 169.073 29.0252 168.033 29.0152L164.913 29.0002V21.1115H165.978V23.871L168.228 23.901ZM172.592 21.1115H173.657V29.0002H172.592V21.1115ZM167.973 28.2053C168.703 28.2153 169.253 28.0704 169.623 27.7704C170.003 27.4604 170.193 27.0105 170.193 26.4206C170.193 25.8407 170.008 25.4108 169.638 25.1308C169.268 24.8509 168.713 24.7059 167.973 24.6959L165.978 24.6659V28.1753L167.973 28.2053ZM181.623 29.0002L179.118 25.7007L176.599 29.0002H175.399L178.519 24.9509L175.549 21.1115H176.749L179.118 24.201L181.488 21.1115H182.658L179.688 24.9509L182.838 29.0002H181.623ZM188.508 21.1115H189.573V27.3805L194.837 21.1115H195.782V29.0002H194.717V22.7312L189.468 29.0002H188.508V21.1115ZM198.834 21.1115H199.898V24.6059H204.863V21.1115H205.927V29.0002H204.863V25.5208H199.898V29.0002H198.834V21.1115ZM213.978 24.9209C215.048 25.1708 215.583 25.8157 215.583 26.8555C215.583 27.5454 215.328 28.0753 214.818 28.4453C214.308 28.8152 213.548 29.0002 212.538 29.0002H208.954V21.1115H212.434C213.333 21.1115 214.038 21.2864 214.548 21.6364C215.058 21.9863 215.313 22.4863 215.313 23.1362C215.313 23.5661 215.193 23.936 214.953 24.246C214.723 24.5459 214.398 24.7709 213.978 24.9209ZM209.989 24.6209H212.359C212.968 24.6209 213.433 24.5059 213.753 24.276C214.083 24.046 214.248 23.7111 214.248 23.2711C214.248 22.8312 214.083 22.5013 213.753 22.2813C213.433 22.0613 212.968 21.9513 212.359 21.9513H209.989V24.6209ZM212.494 28.1603C213.173 28.1603 213.683 28.0504 214.023 27.8304C214.363 27.6104 214.533 27.2655 214.533 26.7956C214.533 26.3256 214.378 25.9807 214.068 25.7607C213.758 25.5308 213.268 25.4158 212.598 25.4158H209.989V28.1603H212.494ZM224.977 25.3858H218.379C218.439 26.2057 218.753 26.8705 219.323 27.3805C219.893 27.8804 220.613 28.1303 221.483 28.1303C221.973 28.1303 222.423 28.0454 222.833 27.8754C223.243 27.6954 223.598 27.4355 223.898 27.0955L224.498 27.7854C224.148 28.2053 223.708 28.5253 223.178 28.7452C222.658 28.9652 222.083 29.0752 221.453 29.0752C220.643 29.0752 219.923 28.9052 219.293 28.5653C218.673 28.2153 218.189 27.7354 217.839 27.1255C217.489 26.5156 217.314 25.8257 217.314 25.0558C217.314 24.286 217.479 23.5961 217.809 22.9862C218.149 22.3763 218.608 21.9014 219.188 21.5614C219.778 21.2215 220.438 21.0515 221.168 21.0515C221.898 21.0515 222.553 21.2215 223.133 21.5614C223.713 21.9014 224.168 22.3763 224.498 22.9862C224.827 23.5861 224.992 24.276 224.992 25.0558L224.977 25.3858ZM221.168 21.9663C220.408 21.9663 219.768 22.2113 219.248 22.7012C218.738 23.1811 218.449 23.811 218.379 24.5909H223.973C223.903 23.811 223.608 23.1811 223.088 22.7012C222.578 22.2113 221.938 21.9663 221.168 21.9663ZM230.649 29.0752C229.869 29.0752 229.169 28.9052 228.549 28.5653C227.939 28.2253 227.46 27.7504 227.11 27.1405C226.76 26.5206 226.585 25.8257 226.585 25.0558C226.585 24.286 226.76 23.5961 227.11 22.9862C227.46 22.3763 227.939 21.9014 228.549 21.5614C229.169 21.2215 229.869 21.0515 230.649 21.0515C231.329 21.0515 231.934 21.1865 232.464 21.4564C233.004 21.7164 233.429 22.1013 233.738 22.6112L232.944 23.1511C232.684 22.7612 232.354 22.4713 231.954 22.2813C231.554 22.0813 231.119 21.9813 230.649 21.9813C230.079 21.9813 229.564 22.1113 229.104 22.3713C228.654 22.6212 228.299 22.9812 228.039 23.4511C227.789 23.921 227.664 24.4559 227.664 25.0558C227.664 25.6657 227.789 26.2057 228.039 26.6756C228.299 27.1355 228.654 27.4954 229.104 27.7554C229.564 28.0054 230.079 28.1303 230.649 28.1303C231.119 28.1303 231.554 28.0354 231.954 27.8454C232.354 27.6554 232.684 27.3655 232.944 26.9755L233.738 27.5154C233.429 28.0254 233.004 28.4153 232.464 28.6853C231.924 28.9452 231.319 29.0752 230.649 29.0752ZM241.203 22.0563H238.218V29.0002H237.154V22.0563H234.169V21.1115H241.203V22.0563ZM242.743 21.1115H243.807V27.3805L249.072 21.1115H250.016V29.0002H248.952V22.7312L243.702 29.0002H242.743V21.1115ZM261.287 28.0704V30.9799H260.282V29.0002H253.068V21.1115H254.133V28.0704H258.947V21.1115H260.012V28.0704H261.287ZM263.32 21.1115H264.385V27.3805L269.649 21.1115H270.594V29.0002H269.529V22.7312L264.28 29.0002H263.32V21.1115ZM273.646 21.1115H274.711V27.3805L279.975 21.1115H280.92V29.0002H279.855V22.7312L274.606 29.0002H273.646V21.1115ZM277.23 19.9717C276.55 19.9717 276.01 19.8017 275.61 19.4617C275.21 19.1218 275.006 18.6419 274.996 18.022H275.76C275.77 18.4119 275.91 18.7269 276.18 18.9668C276.45 19.1968 276.8 19.3118 277.23 19.3118C277.66 19.3118 278.01 19.1968 278.28 18.9668C278.56 18.7269 278.705 18.4119 278.715 18.022H279.48C279.47 18.6419 279.26 19.1218 278.85 19.4617C278.45 19.8017 277.91 19.9717 277.23 19.9717ZM284.046 22.6862C283.826 22.6862 283.636 22.6062 283.476 22.4463C283.326 22.2863 283.251 22.0913 283.251 21.8614C283.251 21.6314 283.326 21.4414 283.476 21.2914C283.636 21.1315 283.826 21.0515 284.046 21.0515C284.266 21.0515 284.456 21.1315 284.616 21.2914C284.776 21.4414 284.856 21.6314 284.856 21.8614C284.856 22.0913 284.776 22.2863 284.616 22.4463C284.456 22.6062 284.266 22.6862 284.046 22.6862ZM284.046 29.0752C283.826 29.0752 283.636 28.9952 283.476 28.8352C283.326 28.6753 283.251 28.4803 283.251 28.2503C283.251 28.0204 283.326 27.8304 283.476 27.6804C283.636 27.5204 283.826 27.4405 284.046 27.4405C284.266 27.4405 284.456 27.5204 284.616 27.6804C284.776 27.8304 284.856 28.0204 284.856 28.2503C284.856 28.4803 284.776 28.6753 284.616 28.8352C284.456 28.9952 284.266 29.0752 284.046 29.0752Z" fill="white"></path> <path d="M26.6031 148.502V159H25.5083V149.462H18.8643V159H17.7695V148.502H26.6031ZM33.9548 151.051C34.6947 151.051 35.3646 151.221 35.9645 151.561C36.5644 151.891 37.0343 152.361 37.3743 152.971C37.7142 153.581 37.8842 154.276 37.8842 155.056C37.8842 155.846 37.7142 156.545 37.3743 157.155C37.0343 157.765 36.5644 158.24 35.9645 158.58C35.3746 158.91 34.7047 159.075 33.9548 159.075C33.3149 159.075 32.735 158.945 32.2151 158.685C31.7052 158.415 31.2853 158.025 30.9553 157.515V161.91H29.8905V151.111H30.9103V152.671C31.2303 152.151 31.6502 151.751 32.1701 151.471C32.7 151.191 33.2949 151.051 33.9548 151.051ZM33.8798 158.13C34.4297 158.13 34.9297 158.005 35.3796 157.755C35.8295 157.495 36.1795 157.13 36.4294 156.66C36.6894 156.19 36.8194 155.656 36.8194 155.056C36.8194 154.456 36.6894 153.926 36.4294 153.466C36.1795 152.996 35.8295 152.631 35.3796 152.371C34.9297 152.111 34.4297 151.981 33.8798 151.981C33.3199 151.981 32.815 152.111 32.3651 152.371C31.9251 152.631 31.5752 152.996 31.3152 153.466C31.0653 153.926 30.9403 154.456 30.9403 155.056C30.9403 155.656 31.0653 156.19 31.3152 156.66C31.5752 157.13 31.9251 157.495 32.3651 157.755C32.815 158.005 33.3199 158.13 33.8798 158.13ZM43.4265 159.075C42.6666 159.075 41.9817 158.905 41.3718 158.565C40.7619 158.215 40.282 157.735 39.9321 157.125C39.5821 156.515 39.4071 155.826 39.4071 155.056C39.4071 154.286 39.5821 153.596 39.9321 152.986C40.282 152.376 40.7619 151.901 41.3718 151.561C41.9817 151.221 42.6666 151.051 43.4265 151.051C44.1864 151.051 44.8713 151.221 45.4812 151.561C46.0911 151.901 46.566 152.376 46.9059 152.986C47.2559 153.596 47.4308 154.286 47.4308 155.056C47.4308 155.826 47.2559 156.515 46.9059 157.125C46.566 157.735 46.0911 158.215 45.4812 158.565C44.8713 158.905 44.1864 159.075 43.4265 159.075ZM43.4265 158.13C43.9864 158.13 44.4863 158.005 44.9262 157.755C45.3762 157.495 45.7261 157.13 45.9761 156.66C46.226 156.19 46.351 155.656 46.351 155.056C46.351 154.456 46.226 153.921 45.9761 153.451C45.7261 152.981 45.3762 152.621 44.9262 152.371C44.4863 152.111 43.9864 151.981 43.4265 151.981C42.8666 151.981 42.3617 152.111 41.9117 152.371C41.4718 152.621 41.1219 152.981 40.8619 153.451C40.6119 153.921 40.487 154.456 40.487 155.056C40.487 155.656 40.6119 156.19 40.8619 156.66C41.1219 157.13 41.4718 157.495 41.9117 157.755C42.3617 158.005 42.8666 158.13 43.4265 158.13ZM57.9253 158.07V160.98H56.9204V159H49.7066V151.111H50.7714V158.07H55.5856V151.111H56.6505V158.07H57.9253ZM66.8577 155.386H60.2588C60.3188 156.205 60.6337 156.87 61.2036 157.38C61.7736 157.88 62.4934 158.13 63.3633 158.13C63.8532 158.13 64.3031 158.045 64.7131 157.875C65.123 157.695 65.478 157.435 65.7779 157.095L66.3778 157.785C66.0279 158.205 65.5879 158.525 65.058 158.745C64.5381 158.965 63.9632 159.075 63.3333 159.075C62.5234 159.075 61.8035 158.905 61.1737 158.565C60.5538 158.215 60.0688 157.735 59.7189 157.125C59.3689 156.515 59.194 155.826 59.194 155.056C59.194 154.286 59.3589 153.596 59.6889 152.986C60.0288 152.376 60.4888 151.901 61.0687 151.561C61.6586 151.221 62.3185 151.051 63.0483 151.051C63.7782 151.051 64.4331 151.221 65.013 151.561C65.5929 151.901 66.0479 152.376 66.3778 152.986C66.7078 153.586 66.8727 154.276 66.8727 155.056L66.8577 155.386ZM63.0483 151.966C62.2885 151.966 61.6486 152.211 61.1287 152.701C60.6187 153.181 60.3288 153.811 60.2588 154.591H65.8529C65.7829 153.811 65.488 153.181 64.968 152.701C64.4581 152.211 63.8182 151.966 63.0483 151.966ZM69.2298 151.111H70.2946V154.606H75.2588V151.111H76.3237V159H75.2588V155.521H70.2946V159H69.2298V151.111ZM84.8993 152.056H81.9148V159H80.85V152.056H77.8655V151.111H84.8993V152.056ZM86.4389 151.111H87.5038V154.606H92.468V151.111H93.5328V159H92.468V155.521H87.5038V159H86.4389V151.111ZM99.2739 151.051C100.304 151.051 101.094 151.311 101.644 151.831C102.194 152.341 102.469 153.101 102.469 154.111V159H101.449V157.77C101.209 158.18 100.854 158.5 100.384 158.73C99.9238 158.96 99.3739 159.075 98.734 159.075C97.8542 159.075 97.1543 158.865 96.6343 158.445C96.1144 158.025 95.8545 157.47 95.8545 156.78C95.8545 156.11 96.0944 155.571 96.5744 155.161C97.0643 154.751 97.8392 154.546 98.899 154.546H101.404V154.066C101.404 153.386 101.214 152.871 100.834 152.521C100.454 152.161 99.8988 151.981 99.1689 151.981C98.669 151.981 98.1891 152.066 97.7292 152.236C97.2692 152.396 96.8743 152.621 96.5444 152.911L96.0644 152.116C96.4644 151.776 96.9443 151.516 97.5042 151.336C98.0641 151.146 98.654 151.051 99.2739 151.051ZM98.899 158.235C99.4989 158.235 100.014 158.1 100.444 157.83C100.874 157.55 101.194 157.15 101.404 156.63V155.341H98.929C97.5792 155.341 96.9043 155.811 96.9043 156.75C96.9043 157.21 97.0793 157.575 97.4292 157.845C97.7792 158.105 98.2691 158.235 98.899 158.235ZM111.362 151.111V159H110.387V156.39H107.913H107.613L105.783 159H104.628L106.593 156.24C105.983 156.07 105.513 155.781 105.183 155.371C104.853 154.961 104.688 154.441 104.688 153.811C104.688 152.931 104.988 152.261 105.588 151.801C106.188 151.341 107.008 151.111 108.048 151.111H111.362ZM105.768 153.841C105.768 155.011 106.513 155.596 108.003 155.596H110.387V152.056H108.078C106.538 152.056 105.768 152.651 105.768 153.841ZM121.623 159.075C120.843 159.075 120.143 158.905 119.523 158.565C118.914 158.225 118.434 157.75 118.084 157.14C117.734 156.52 117.559 155.826 117.559 155.056C117.559 154.286 117.734 153.596 118.084 152.986C118.434 152.376 118.914 151.901 119.523 151.561C120.143 151.221 120.843 151.051 121.623 151.051C122.303 151.051 122.908 151.186 123.438 151.456C123.978 151.716 124.403 152.101 124.713 152.611L123.918 153.151C123.658 152.761 123.328 152.471 122.928 152.281C122.528 152.081 122.093 151.981 121.623 151.981C121.053 151.981 120.538 152.111 120.078 152.371C119.628 152.621 119.273 152.981 119.013 153.451C118.764 153.921 118.639 154.456 118.639 155.056C118.639 155.666 118.764 156.205 119.013 156.675C119.273 157.135 119.628 157.495 120.078 157.755C120.538 158.005 121.053 158.13 121.623 158.13C122.093 158.13 122.528 158.035 122.928 157.845C123.328 157.655 123.658 157.365 123.918 156.975L124.713 157.515C124.403 158.025 123.978 158.415 123.438 158.685C122.898 158.945 122.293 159.075 121.623 159.075ZM132.177 152.056H129.193V159H128.128V152.056H125.143V151.111H132.177V152.056ZM136.431 151.051C137.461 151.051 138.251 151.311 138.801 151.831C139.351 152.341 139.626 153.101 139.626 154.111V159H138.606V157.77C138.366 158.18 138.011 158.5 137.541 158.73C137.081 158.96 136.531 159.075 135.891 159.075C135.011 159.075 134.312 158.865 133.792 158.445C133.272 158.025 133.012 157.47 133.012 156.78C133.012 156.11 133.252 155.571 133.732 155.161C134.222 154.751 134.996 154.546 136.056 154.546H138.561V154.066C138.561 153.386 138.371 152.871 137.991 152.521C137.611 152.161 137.056 151.981 136.326 151.981C135.826 151.981 135.346 152.066 134.886 152.236C134.427 152.396 134.032 152.621 133.702 152.911L133.222 152.116C133.622 151.776 134.102 151.516 134.661 151.336C135.221 151.146 135.811 151.051 136.431 151.051ZM136.056 158.235C136.656 158.235 137.171 158.1 137.601 157.83C138.031 157.55 138.351 157.15 138.561 156.63V155.341H136.086C134.736 155.341 134.062 155.811 134.062 156.75C134.062 157.21 134.237 157.575 134.586 157.845C134.936 158.105 135.426 158.235 136.056 158.235ZM147.485 154.921C148.554 155.171 149.089 155.816 149.089 156.855C149.089 157.545 148.834 158.075 148.324 158.445C147.814 158.815 147.055 159 146.045 159H142.46V151.111H145.94C146.84 151.111 147.545 151.286 148.054 151.636C148.564 151.986 148.819 152.486 148.819 153.136C148.819 153.566 148.699 153.936 148.459 154.246C148.229 154.546 147.904 154.771 147.485 154.921ZM143.495 154.621H145.865C146.475 154.621 146.94 154.506 147.26 154.276C147.589 154.046 147.754 153.711 147.754 153.271C147.754 152.831 147.589 152.501 147.26 152.281C146.94 152.061 146.475 151.951 145.865 151.951H143.495V154.621ZM146 158.16C146.68 158.16 147.19 158.05 147.53 157.83C147.869 157.61 148.039 157.265 148.039 156.795C148.039 156.325 147.884 155.98 147.574 155.761C147.265 155.531 146.775 155.416 146.105 155.416H143.495V158.16H146ZM154.449 155.491H152.65V159H151.585V151.111H152.65V154.576H154.464L157.239 151.111H158.394L155.289 154.936L158.619 159H157.359L154.449 155.491ZM162.867 151.051C163.897 151.051 164.687 151.311 165.237 151.831C165.787 152.341 166.062 153.101 166.062 154.111V159H165.042V157.77C164.802 158.18 164.447 158.5 163.977 158.73C163.517 158.96 162.967 159.075 162.327 159.075C161.448 159.075 160.748 158.865 160.228 158.445C159.708 158.025 159.448 157.47 159.448 156.78C159.448 156.11 159.688 155.571 160.168 155.161C160.658 154.751 161.433 154.546 162.492 154.546H164.997V154.066C164.997 153.386 164.807 152.871 164.427 152.521C164.047 152.161 163.492 151.981 162.762 151.981C162.262 151.981 161.783 152.066 161.323 152.236C160.863 152.396 160.468 152.621 160.138 152.911L159.658 152.116C160.058 151.776 160.538 151.516 161.098 151.336C161.658 151.146 162.247 151.051 162.867 151.051ZM162.492 158.235C163.092 158.235 163.607 158.1 164.037 157.83C164.467 157.55 164.787 157.15 164.997 156.63V155.341H162.522C161.173 155.341 160.498 155.811 160.498 156.75C160.498 157.21 160.673 157.575 161.023 157.845C161.373 158.105 161.862 158.235 162.492 158.235ZM168.971 152.686C168.751 152.686 168.562 152.606 168.402 152.446C168.252 152.286 168.177 152.091 168.177 151.861C168.177 151.631 168.252 151.441 168.402 151.291C168.562 151.131 168.751 151.051 168.971 151.051C169.191 151.051 169.381 151.131 169.541 151.291C169.701 151.441 169.781 151.631 169.781 151.861C169.781 152.091 169.701 152.286 169.541 152.446C169.381 152.606 169.191 152.686 168.971 152.686ZM168.971 159.075C168.751 159.075 168.562 158.995 168.402 158.835C168.252 158.675 168.177 158.48 168.177 158.25C168.177 158.02 168.252 157.83 168.402 157.68C168.562 157.52 168.751 157.44 168.971 157.44C169.191 157.44 169.381 157.52 169.541 157.68C169.701 157.83 169.781 158.02 169.781 158.25C169.781 158.48 169.701 158.675 169.541 158.835C169.381 158.995 169.191 159.075 168.971 159.075Z" fill="white"></path> <path d="M22.3582 304.09C21.3183 304.09 20.3785 303.86 19.5386 303.4C18.7088 302.94 18.0539 302.305 17.5739 301.495C17.104 300.676 16.8691 299.761 16.8691 298.751C16.8691 297.741 17.104 296.831 17.5739 296.021C18.0539 295.201 18.7138 294.562 19.5536 294.102C20.3935 293.642 21.3333 293.412 22.3732 293.412C23.153 293.412 23.8729 293.542 24.5328 293.802C25.1927 294.062 25.7526 294.442 26.2125 294.941L25.5077 295.646C24.6878 294.816 23.653 294.402 22.4032 294.402C21.5733 294.402 20.8184 294.592 20.1385 294.971C19.4586 295.351 18.9237 295.871 18.5338 296.531C18.1539 297.191 17.9639 297.931 17.9639 298.751C17.9639 299.571 18.1539 300.311 18.5338 300.97C18.9237 301.63 19.4586 302.15 20.1385 302.53C20.8184 302.91 21.5733 303.1 22.4032 303.1C23.663 303.1 24.6978 302.68 25.5077 301.84L26.2125 302.545C25.7526 303.045 25.1877 303.43 24.5178 303.7C23.8579 303.96 23.138 304.09 22.3582 304.09ZM32.3139 296.051C33.0537 296.051 33.7236 296.221 34.3235 296.561C34.9234 296.891 35.3934 297.361 35.7333 297.971C36.0733 298.581 36.2432 299.276 36.2432 300.056C36.2432 300.846 36.0733 301.545 35.7333 302.155C35.3934 302.765 34.9234 303.24 34.3235 303.58C33.7336 303.91 33.0637 304.075 32.3139 304.075C31.674 304.075 31.0941 303.945 30.5741 303.685C30.0642 303.415 29.6443 303.025 29.3143 302.515V306.91H28.2495V296.111H29.2694V297.671C29.5893 297.151 30.0092 296.751 30.5291 296.471C31.0591 296.191 31.654 296.051 32.3139 296.051ZM32.2389 303.13C32.7888 303.13 33.2887 303.005 33.7386 302.755C34.1886 302.495 34.5385 302.13 34.7885 301.66C35.0484 301.19 35.1784 300.656 35.1784 300.056C35.1784 299.456 35.0484 298.926 34.7885 298.466C34.5385 297.996 34.1886 297.631 33.7386 297.371C33.2887 297.111 32.7888 296.981 32.2389 296.981C31.679 296.981 31.174 297.111 30.7241 297.371C30.2842 297.631 29.9342 297.996 29.6743 298.466C29.4243 298.926 29.2993 299.456 29.2993 300.056C29.2993 300.656 29.4243 301.19 29.6743 301.66C29.9342 302.13 30.2842 302.495 30.7241 302.755C31.174 303.005 31.679 303.13 32.2389 303.13ZM41.7855 304.075C41.0257 304.075 40.3408 303.905 39.7309 303.565C39.121 303.215 38.641 302.735 38.2911 302.125C37.9412 301.515 37.7662 300.826 37.7662 300.056C37.7662 299.286 37.9412 298.596 38.2911 297.986C38.641 297.376 39.121 296.901 39.7309 296.561C40.3408 296.221 41.0257 296.051 41.7855 296.051C42.5454 296.051 43.2303 296.221 43.8402 296.561C44.4501 296.901 44.925 297.376 45.265 297.986C45.6149 298.596 45.7899 299.286 45.7899 300.056C45.7899 300.826 45.6149 301.515 45.265 302.125C44.925 302.735 44.4501 303.215 43.8402 303.565C43.2303 303.905 42.5454 304.075 41.7855 304.075ZM41.7855 303.13C42.3454 303.13 42.8454 303.005 43.2853 302.755C43.7352 302.495 44.0852 302.13 44.3351 301.66C44.5851 301.19 44.7101 300.656 44.7101 300.056C44.7101 299.456 44.5851 298.921 44.3351 298.451C44.0852 297.981 43.7352 297.621 43.2853 297.371C42.8454 297.111 42.3454 296.981 41.7855 296.981C41.2256 296.981 40.7207 297.111 40.2708 297.371C39.8308 297.621 39.4809 297.981 39.2209 298.451C38.971 298.921 38.846 299.456 38.846 300.056C38.846 300.656 38.971 301.19 39.2209 301.66C39.4809 302.13 39.8308 302.495 40.2708 302.755C40.7207 303.005 41.2256 303.13 41.7855 303.13ZM50.9302 300.491H49.1305V304H48.0656V296.111H49.1305V299.576H50.9452L53.7197 296.111H54.8745L51.77 299.936L55.0995 304H53.8397L50.9302 300.491ZM60.7052 296.111H61.77V302.38L67.0342 296.111H67.979V304H66.9142V297.731L61.665 304H60.7052V296.111ZM71.0307 296.111H72.0955V299.606H77.0597V296.111H78.1245V304H77.0597V300.521H72.0955V304H71.0307V296.111ZM86.1753 299.921C87.2451 300.171 87.78 300.816 87.78 301.855C87.78 302.545 87.5251 303.075 87.0152 303.445C86.5052 303.815 85.7454 304 84.7355 304H81.1511V296.111H84.6305C85.5304 296.111 86.2353 296.286 86.7452 296.636C87.2551 296.986 87.5101 297.486 87.5101 298.136C87.5101 298.566 87.3901 298.936 87.1501 299.246C86.9202 299.546 86.5952 299.771 86.1753 299.921ZM82.1859 299.621H84.5555C85.1655 299.621 85.6304 299.506 85.9503 299.276C86.2803 299.046 86.4452 298.711 86.4452 298.271C86.4452 297.831 86.2803 297.501 85.9503 297.281C85.6304 297.061 85.1655 296.951 84.5555 296.951H82.1859V299.621ZM84.6905 303.16C85.3704 303.16 85.8803 303.05 86.2203 302.83C86.5602 302.61 86.7302 302.265 86.7302 301.795C86.7302 301.325 86.5752 300.98 86.2653 300.761C85.9553 300.531 85.4654 300.416 84.7955 300.416H82.1859V303.16H84.6905ZM97.1745 300.386H90.5755C90.6355 301.205 90.9505 301.87 91.5204 302.38C92.0903 302.88 92.8102 303.13 93.68 303.13C94.17 303.13 94.6199 303.045 95.0298 302.875C95.4398 302.695 95.7947 302.435 96.0947 302.095L96.6946 302.785C96.3446 303.205 95.9047 303.525 95.3748 303.745C94.8549 303.965 94.2799 304.075 93.6501 304.075C92.8402 304.075 92.1203 303.905 91.4904 303.565C90.8705 303.215 90.3856 302.735 90.0356 302.125C89.6857 301.515 89.5107 300.826 89.5107 300.056C89.5107 299.286 89.6757 298.596 90.0056 297.986C90.3456 297.376 90.8055 296.901 91.3854 296.561C91.9753 296.221 92.6352 296.051 93.3651 296.051C94.095 296.051 94.7499 296.221 95.3298 296.561C95.9097 296.901 96.3646 297.376 96.6946 297.986C97.0245 298.586 97.1895 299.276 97.1895 300.056L97.1745 300.386ZM93.3651 296.966C92.6052 296.966 91.9653 297.211 91.4454 297.701C90.9355 298.181 90.6455 298.811 90.5755 299.591H96.1696C96.0997 298.811 95.8047 298.181 95.2848 297.701C94.7749 297.211 94.135 296.966 93.3651 296.966ZM102.846 304.075C102.066 304.075 101.366 303.905 100.746 303.565C100.136 303.225 99.6565 302.75 99.3066 302.14C98.9567 301.52 98.7817 300.826 98.7817 300.056C98.7817 299.286 98.9567 298.596 99.3066 297.986C99.6565 297.376 100.136 296.901 100.746 296.561C101.366 296.221 102.066 296.051 102.846 296.051C103.526 296.051 104.131 296.186 104.661 296.456C105.2 296.716 105.625 297.101 105.935 297.611L105.14 298.151C104.88 297.761 104.551 297.471 104.151 297.281C103.751 297.081 103.316 296.981 102.846 296.981C102.276 296.981 101.761 297.111 101.301 297.371C100.851 297.621 100.496 297.981 100.236 298.451C99.9865 298.921 99.8615 299.456 99.8615 300.056C99.8615 300.666 99.9865 301.205 100.236 301.675C100.496 302.135 100.851 302.495 101.301 302.755C101.761 303.005 102.276 303.13 102.846 303.13C103.316 303.13 103.751 303.035 104.151 302.845C104.551 302.655 104.88 302.365 105.14 301.975L105.935 302.515C105.625 303.025 105.2 303.415 104.661 303.685C104.121 303.945 103.516 304.075 102.846 304.075ZM113.4 297.056H110.415V304H109.35V297.056H106.366V296.111H113.4V297.056ZM114.939 296.111H116.004V302.38L121.268 296.111H122.213V304H121.148V297.731L115.899 304H114.939V296.111ZM129.329 296.051C130.069 296.051 130.739 296.221 131.339 296.561C131.939 296.891 132.409 297.361 132.749 297.971C133.089 298.581 133.259 299.276 133.259 300.056C133.259 300.846 133.089 301.545 132.749 302.155C132.409 302.765 131.939 303.24 131.339 303.58C130.749 303.91 130.079 304.075 129.329 304.075C128.689 304.075 128.109 303.945 127.589 303.685C127.08 303.415 126.66 303.025 126.33 302.515V306.91H125.265V296.111H126.285V297.671C126.605 297.151 127.025 296.751 127.544 296.471C128.074 296.191 128.669 296.051 129.329 296.051ZM129.254 303.13C129.804 303.13 130.304 303.005 130.754 302.755C131.204 302.495 131.554 302.13 131.804 301.66C132.064 301.19 132.194 300.656 132.194 300.056C132.194 299.456 132.064 298.926 131.804 298.466C131.554 297.996 131.204 297.631 130.754 297.371C130.304 297.111 129.804 296.981 129.254 296.981C128.694 296.981 128.189 297.111 127.739 297.371C127.3 297.631 126.95 297.996 126.69 298.466C126.44 298.926 126.315 299.456 126.315 300.056C126.315 300.656 126.44 301.19 126.69 301.66C126.95 302.13 127.3 302.495 127.739 302.755C128.189 303.005 128.694 303.13 129.254 303.13ZM138.801 304.075C138.041 304.075 137.356 303.905 136.746 303.565C136.136 303.215 135.656 302.735 135.306 302.125C134.956 301.515 134.782 300.826 134.782 300.056C134.782 299.286 134.956 298.596 135.306 297.986C135.656 297.376 136.136 296.901 136.746 296.561C137.356 296.221 138.041 296.051 138.801 296.051C139.561 296.051 140.246 296.221 140.856 296.561C141.465 296.901 141.94 297.376 142.28 297.986C142.63 298.596 142.805 299.286 142.805 300.056C142.805 300.826 142.63 301.515 142.28 302.125C141.94 302.735 141.465 303.215 140.856 303.565C140.246 303.905 139.561 304.075 138.801 304.075ZM138.801 303.13C139.361 303.13 139.861 303.005 140.301 302.755C140.751 302.495 141.1 302.13 141.35 301.66C141.6 301.19 141.725 300.656 141.725 300.056C141.725 299.456 141.6 298.921 141.35 298.451C141.1 297.981 140.751 297.621 140.301 297.371C139.861 297.111 139.361 296.981 138.801 296.981C138.241 296.981 137.736 297.111 137.286 297.371C136.846 297.621 136.496 297.981 136.236 298.451C135.986 298.921 135.861 299.456 135.861 300.056C135.861 300.656 135.986 301.19 136.236 301.66C136.496 302.13 136.846 302.495 137.286 302.755C137.736 303.005 138.241 303.13 138.801 303.13ZM150.105 299.921C151.175 300.171 151.71 300.816 151.71 301.855C151.71 302.545 151.455 303.075 150.945 303.445C150.435 303.815 149.675 304 148.665 304H145.081V296.111H148.56C149.46 296.111 150.165 296.286 150.675 296.636C151.185 296.986 151.44 297.486 151.44 298.136C151.44 298.566 151.32 298.936 151.08 299.246C150.85 299.546 150.525 299.771 150.105 299.921ZM146.116 299.621H148.485C149.095 299.621 149.56 299.506 149.88 299.276C150.21 299.046 150.375 298.711 150.375 298.271C150.375 297.831 150.21 297.501 149.88 297.281C149.56 297.061 149.095 296.951 148.485 296.951H146.116V299.621ZM148.62 303.16C149.3 303.16 149.81 303.05 150.15 302.83C150.49 302.61 150.66 302.265 150.66 301.795C150.66 301.325 150.505 300.98 150.195 300.761C149.885 300.531 149.395 300.416 148.725 300.416H146.116V303.16H148.62ZM156.92 296.051C157.95 296.051 158.74 296.311 159.29 296.831C159.84 297.341 160.115 298.101 160.115 299.111V304H159.095V302.77C158.855 303.18 158.5 303.5 158.03 303.73C157.57 303.96 157.02 304.075 156.38 304.075C155.5 304.075 154.8 303.865 154.28 303.445C153.761 303.025 153.501 302.47 153.501 301.78C153.501 301.11 153.741 300.571 154.22 300.161C154.71 299.751 155.485 299.546 156.545 299.546H159.05V299.066C159.05 298.386 158.86 297.871 158.48 297.521C158.1 297.161 157.545 296.981 156.815 296.981C156.315 296.981 155.835 297.066 155.375 297.236C154.915 297.396 154.52 297.621 154.19 297.911L153.711 297.116C154.11 296.776 154.59 296.516 155.15 296.336C155.71 296.146 156.3 296.051 156.92 296.051ZM156.545 303.235C157.145 303.235 157.66 303.1 158.09 302.83C158.52 302.55 158.84 302.15 159.05 301.63V300.341H156.575C155.225 300.341 154.55 300.811 154.55 301.75C154.55 302.21 154.725 302.575 155.075 302.845C155.425 303.105 155.915 303.235 156.545 303.235ZM162.949 296.111H164.014V299.606H168.978V296.111H170.043V304H168.978V300.521H164.014V304H162.949V296.111ZM173.07 296.111H174.134V302.38L179.399 296.111H180.343V304H179.279V297.731L174.029 304H173.07V296.111ZM189.454 296.111V304H188.479V301.39H186.005H185.705L183.875 304H182.72L184.685 301.24C184.075 301.07 183.605 300.781 183.275 300.371C182.945 299.961 182.78 299.441 182.78 298.811C182.78 297.931 183.08 297.261 183.68 296.801C184.28 296.341 185.1 296.111 186.14 296.111H189.454ZM183.86 298.841C183.86 300.011 184.605 300.596 186.095 300.596H188.479V297.056H186.17C184.63 297.056 183.86 297.651 183.86 298.841Z" fill="white"></path> <path d="M261 225H73C64.7157 225 58 231.716 58 240C58 248.284 64.7157 255 73 255H261C269.284 255 276 248.284 276 240C276 231.716 269.284 225 261 225Z" fill="white"></path> <path opacity="0.8" d="M71.5742 235.602H77.717V236.358H72.45V239.105H75.1975C76.1893 239.105 76.9411 239.309 77.453 239.717C77.9729 240.125 78.2329 240.717 78.2329 241.493C78.2329 242.3 77.9529 242.92 77.393 243.352C76.8411 243.784 76.0453 244 75.0055 244H71.5742V235.602ZM74.9935 243.292C75.7694 243.292 76.3532 243.144 76.7452 242.848C77.1451 242.552 77.345 242.112 77.345 241.529C77.345 240.953 77.1491 240.525 76.7572 240.245C76.3732 239.957 75.7854 239.813 74.9935 239.813H72.45V243.292H74.9935ZM82.6907 244.06C82.0828 244.06 81.5349 243.924 81.047 243.652C80.5591 243.372 80.1752 242.988 79.8953 242.5C79.6153 242.012 79.4754 241.461 79.4754 240.845C79.4754 240.229 79.6153 239.677 79.8953 239.189C80.1752 238.701 80.5591 238.321 81.047 238.049C81.5349 237.777 82.0828 237.641 82.6907 237.641C83.2986 237.641 83.8465 237.777 84.3344 238.049C84.8223 238.321 85.2022 238.701 85.4741 239.189C85.7541 239.677 85.8941 240.229 85.8941 240.845C85.8941 241.461 85.7541 242.012 85.4741 242.5C85.2022 242.988 84.8223 243.372 84.3344 243.652C83.8465 243.924 83.2986 244.06 82.6907 244.06ZM82.6907 243.304C83.1386 243.304 83.5385 243.204 83.8905 243.004C84.2504 242.796 84.5303 242.504 84.7303 242.128C84.9303 241.752 85.0302 241.325 85.0302 240.845C85.0302 240.365 84.9303 239.937 84.7303 239.561C84.5303 239.185 84.2504 238.897 83.8905 238.697C83.5385 238.489 83.1386 238.385 82.6907 238.385C82.2428 238.385 81.8389 238.489 81.479 238.697C81.127 238.897 80.8471 239.185 80.6391 239.561C80.4392 239.937 80.3392 240.365 80.3392 240.845C80.3392 241.325 80.4392 241.752 80.6391 242.128C80.8471 242.504 81.127 242.796 81.479 243.004C81.8389 243.204 82.2428 243.304 82.6907 243.304ZM92.8384 237.689V244H91.9866V238.445H88.9632L88.8792 240.005C88.8152 241.317 88.6632 242.324 88.4233 243.028C88.1833 243.732 87.7554 244.084 87.1396 244.084C86.9716 244.084 86.7676 244.052 86.5277 243.988L86.5877 243.256C86.7316 243.288 86.8316 243.304 86.8876 243.304C87.2155 243.304 87.4635 243.152 87.6315 242.848C87.7994 242.544 87.9114 242.168 87.9674 241.72C88.0234 241.273 88.0714 240.681 88.1114 239.945L88.2193 237.689H92.8384ZM97.9714 239.921C98.7632 239.929 99.3631 240.105 99.771 240.449C100.187 240.793 100.395 241.289 100.395 241.936C100.395 242.608 100.171 243.124 99.723 243.484C99.2831 243.844 98.6433 244.02 97.8034 244.012L95.2599 244V237.689H96.1118V239.897L97.9714 239.921ZM97.7554 243.364C98.3393 243.372 98.7792 243.256 99.0752 243.016C99.3791 242.768 99.5311 242.408 99.5311 241.936C99.5311 241.473 99.3831 241.129 99.0872 240.905C98.7912 240.681 98.3473 240.565 97.7554 240.557L96.1118 240.533V243.34L97.7554 243.364ZM110.73 237.689V244H102.02V237.689H102.872V243.256H105.967V237.689H106.819V243.256H109.878V237.689H110.73ZM118.681 241.109H113.402C113.45 241.764 113.702 242.296 114.158 242.704C114.614 243.104 115.19 243.304 115.886 243.304C116.278 243.304 116.638 243.236 116.966 243.1C117.294 242.956 117.577 242.748 117.817 242.476L118.297 243.028C118.017 243.364 117.665 243.62 117.242 243.796C116.826 243.972 116.366 244.06 115.862 244.06C115.214 244.06 114.638 243.924 114.134 243.652C113.638 243.372 113.25 242.988 112.97 242.5C112.69 242.012 112.55 241.461 112.55 240.845C112.55 240.229 112.682 239.677 112.946 239.189C113.218 238.701 113.586 238.321 114.05 238.049C114.522 237.777 115.05 237.641 115.634 237.641C116.218 237.641 116.742 237.777 117.206 238.049C117.669 238.321 118.033 238.701 118.297 239.189C118.561 239.669 118.693 240.221 118.693 240.845L118.681 241.109ZM115.634 238.373C115.026 238.373 114.514 238.569 114.098 238.961C113.69 239.345 113.458 239.849 113.402 240.473H117.877C117.821 239.849 117.585 239.345 117.17 238.961C116.762 238.569 116.25 238.373 115.634 238.373ZM126.358 244.06C125.734 244.06 125.175 243.924 124.679 243.652C124.191 243.38 123.807 243 123.527 242.512C123.247 242.016 123.107 241.461 123.107 240.845C123.107 240.229 123.247 239.677 123.527 239.189C123.807 238.701 124.191 238.321 124.679 238.049C125.175 237.777 125.734 237.641 126.358 237.641C126.902 237.641 127.386 237.749 127.81 237.965C128.242 238.173 128.582 238.481 128.83 238.889L128.194 239.321C127.986 239.009 127.722 238.777 127.402 238.625C127.082 238.465 126.734 238.385 126.358 238.385C125.902 238.385 125.49 238.489 125.123 238.697C124.763 238.897 124.479 239.185 124.271 239.561C124.071 239.937 123.971 240.365 123.971 240.845C123.971 241.333 124.071 241.764 124.271 242.14C124.479 242.508 124.763 242.796 125.123 243.004C125.49 243.204 125.902 243.304 126.358 243.304C126.734 243.304 127.082 243.228 127.402 243.076C127.722 242.924 127.986 242.692 128.194 242.38L128.83 242.812C128.582 243.22 128.242 243.532 127.81 243.748C127.378 243.956 126.894 244.06 126.358 244.06ZM134.801 238.445H132.414V244H131.562V238.445H129.174V237.689H134.801V238.445ZM138.204 237.641C139.028 237.641 139.66 237.849 140.1 238.265C140.54 238.673 140.76 239.281 140.76 240.089V244H139.944V243.016C139.752 243.344 139.468 243.6 139.092 243.784C138.724 243.968 138.284 244.06 137.772 244.06C137.069 244.06 136.509 243.892 136.093 243.556C135.677 243.22 135.469 242.776 135.469 242.224C135.469 241.688 135.661 241.257 136.045 240.929C136.437 240.601 137.057 240.437 137.904 240.437H139.908V240.053C139.908 239.509 139.756 239.097 139.452 238.817C139.148 238.529 138.704 238.385 138.12 238.385C137.72 238.385 137.336 238.453 136.969 238.589C136.601 238.717 136.285 238.897 136.021 239.129L135.637 238.493C135.957 238.221 136.341 238.013 136.789 237.869C137.236 237.717 137.708 237.641 138.204 237.641ZM137.904 243.388C138.384 243.388 138.796 243.28 139.14 243.064C139.484 242.84 139.74 242.52 139.908 242.104V241.073H137.928C136.849 241.073 136.309 241.449 136.309 242.2C136.309 242.568 136.449 242.86 136.729 243.076C137.009 243.284 137.4 243.388 137.904 243.388ZM147.047 240.737C147.902 240.937 148.33 241.453 148.33 242.284C148.33 242.836 148.126 243.26 147.718 243.556C147.311 243.852 146.703 244 145.895 244H143.027V237.689H145.811C146.531 237.689 147.095 237.829 147.502 238.109C147.91 238.389 148.114 238.789 148.114 239.309C148.114 239.653 148.018 239.949 147.826 240.197C147.642 240.437 147.383 240.617 147.047 240.737ZM143.855 240.497H145.751C146.239 240.497 146.611 240.405 146.867 240.221C147.131 240.037 147.263 239.769 147.263 239.417C147.263 239.065 147.131 238.801 146.867 238.625C146.611 238.449 146.239 238.361 145.751 238.361H143.855V240.497ZM145.859 243.328C146.403 243.328 146.811 243.24 147.083 243.064C147.355 242.888 147.491 242.612 147.491 242.236C147.491 241.86 147.367 241.584 147.119 241.409C146.871 241.225 146.479 241.133 145.943 241.133H143.855V243.328H145.859ZM152.618 241.193H151.179V244H150.327V237.689H151.179V240.461H152.63L154.85 237.689H155.774L153.29 240.749L155.954 244H154.946L152.618 241.193ZM159.352 237.641C160.176 237.641 160.808 237.849 161.248 238.265C161.688 238.673 161.908 239.281 161.908 240.089V244H161.092V243.016C160.9 243.344 160.616 243.6 160.24 243.784C159.872 243.968 159.432 244.06 158.92 244.06C158.217 244.06 157.657 243.892 157.241 243.556C156.825 243.22 156.617 242.776 156.617 242.224C156.617 241.688 156.809 241.257 157.193 240.929C157.585 240.601 158.205 240.437 159.052 240.437H161.056V240.053C161.056 239.509 160.904 239.097 160.6 238.817C160.296 238.529 159.852 238.385 159.268 238.385C158.868 238.385 158.485 238.453 158.117 238.589C157.749 238.717 157.433 238.897 157.169 239.129L156.785 238.493C157.105 238.221 157.489 238.013 157.937 237.869C158.385 237.717 158.856 237.641 159.352 237.641ZM159.052 243.388C159.532 243.388 159.944 243.28 160.288 243.064C160.632 242.84 160.888 242.52 161.056 242.104V241.073H159.076C157.997 241.073 157.457 241.449 157.457 242.2C157.457 242.568 157.597 242.86 157.877 243.076C158.157 243.284 158.549 243.388 159.052 243.388ZM166.824 240.377H169.967V241.121H166.824V240.377ZM178.096 237.845C178.68 237.845 179.2 237.977 179.656 238.241C180.12 238.497 180.479 238.861 180.735 239.333C180.991 239.797 181.119 240.329 181.119 240.929C181.119 241.544 180.983 242.092 180.711 242.572C180.447 243.044 180.076 243.412 179.596 243.676C179.116 243.94 178.564 244.072 177.94 244.072C176.892 244.072 176.08 243.704 175.504 242.968C174.929 242.232 174.641 241.217 174.641 239.921C174.641 238.569 174.897 237.533 175.408 236.813C175.928 236.094 176.736 235.606 177.832 235.35L180.663 234.702L180.807 235.482L178.144 236.094C177.24 236.294 176.576 236.649 176.152 237.161C175.728 237.665 175.496 238.413 175.456 239.405C175.712 238.917 176.068 238.537 176.524 238.265C176.98 237.985 177.504 237.845 178.096 237.845ZM177.964 243.364C178.404 243.364 178.796 243.264 179.14 243.064C179.492 242.856 179.764 242.568 179.956 242.2C180.156 241.832 180.255 241.417 180.255 240.953C180.255 240.489 180.16 240.081 179.968 239.729C179.776 239.377 179.504 239.105 179.152 238.913C178.808 238.713 178.412 238.613 177.964 238.613C177.516 238.613 177.116 238.713 176.764 238.913C176.42 239.105 176.148 239.377 175.948 239.729C175.756 240.081 175.66 240.489 175.66 240.953C175.66 241.417 175.756 241.832 175.948 242.2C176.148 242.568 176.424 242.856 176.776 243.064C177.128 243.264 177.524 243.364 177.964 243.364ZM185.549 244.06C184.941 244.06 184.393 243.924 183.905 243.652C183.417 243.372 183.033 242.988 182.753 242.5C182.473 242.012 182.333 241.461 182.333 240.845C182.333 240.229 182.473 239.677 182.753 239.189C183.033 238.701 183.417 238.321 183.905 238.049C184.393 237.777 184.941 237.641 185.549 237.641C186.156 237.641 186.704 237.777 187.192 238.049C187.68 238.321 188.06 238.701 188.332 239.189C188.612 239.677 188.752 240.229 188.752 240.845C188.752 241.461 188.612 242.012 188.332 242.5C188.06 242.988 187.68 243.372 187.192 243.652C186.704 243.924 186.156 244.06 185.549 244.06ZM185.549 243.304C185.996 243.304 186.396 243.204 186.748 243.004C187.108 242.796 187.388 242.504 187.588 242.128C187.788 241.752 187.888 241.325 187.888 240.845C187.888 240.365 187.788 239.937 187.588 239.561C187.388 239.185 187.108 238.897 186.748 238.697C186.396 238.489 185.996 238.385 185.549 238.385C185.101 238.385 184.697 238.489 184.337 238.697C183.985 238.897 183.705 239.185 183.497 239.561C183.297 239.937 183.197 240.365 183.197 240.845C183.197 241.325 183.297 241.752 183.497 242.128C183.705 242.504 183.985 242.796 184.337 243.004C184.697 243.204 185.101 243.304 185.549 243.304ZM195.696 237.689V244H194.844V238.445H191.821L191.737 240.005C191.673 241.317 191.521 242.324 191.281 243.028C191.041 243.732 190.613 244.084 189.997 244.084C189.829 244.084 189.625 244.052 189.386 243.988L189.446 243.256C189.59 243.288 189.689 243.304 189.745 243.304C190.073 243.304 190.321 243.152 190.489 242.848C190.657 242.544 190.769 242.168 190.825 241.72C190.881 241.273 190.929 240.681 190.969 239.945L191.077 237.689H195.696ZM200.829 239.921C201.621 239.929 202.221 240.105 202.629 240.449C203.045 240.793 203.253 241.289 203.253 241.936C203.253 242.608 203.029 243.124 202.581 243.484C202.141 243.844 201.501 244.02 200.661 244.012L198.118 244V237.689H198.97V239.897L200.829 239.921ZM200.613 243.364C201.197 243.372 201.637 243.256 201.933 243.016C202.237 242.768 202.389 242.408 202.389 241.936C202.389 241.473 202.241 241.129 201.945 240.905C201.649 240.681 201.205 240.565 200.613 240.557L198.97 240.533V243.34L200.613 243.364ZM213.588 237.689V244H204.878V237.689H205.73V243.256H208.825V237.689H209.677V243.256H212.737V237.689H213.588ZM221.539 241.109H216.26C216.308 241.764 216.56 242.296 217.016 242.704C217.472 243.104 218.048 243.304 218.744 243.304C219.136 243.304 219.496 243.236 219.824 243.1C220.152 242.956 220.436 242.748 220.675 242.476L221.155 243.028C220.875 243.364 220.524 243.62 220.1 243.796C219.684 243.972 219.224 244.06 218.72 244.06C218.072 244.06 217.496 243.924 216.992 243.652C216.496 243.372 216.108 242.988 215.828 242.5C215.549 242.012 215.409 241.461 215.409 240.845C215.409 240.229 215.541 239.677 215.804 239.189C216.076 238.701 216.444 238.321 216.908 238.049C217.38 237.777 217.908 237.641 218.492 237.641C219.076 237.641 219.6 237.777 220.064 238.049C220.528 238.321 220.891 238.701 221.155 239.189C221.419 239.669 221.551 240.221 221.551 240.845L221.539 241.109ZM218.492 238.373C217.884 238.373 217.372 238.569 216.956 238.961C216.548 239.345 216.316 239.849 216.26 240.473H220.735C220.679 239.849 220.444 239.345 220.028 238.961C219.62 238.569 219.108 238.373 218.492 238.373ZM229.828 237.641C230.42 237.641 230.956 237.777 231.436 238.049C231.916 238.313 232.292 238.689 232.564 239.177C232.836 239.665 232.972 240.221 232.972 240.845C232.972 241.477 232.836 242.036 232.564 242.524C232.292 243.012 231.916 243.392 231.436 243.664C230.964 243.928 230.428 244.06 229.828 244.06C229.316 244.06 228.852 243.956 228.437 243.748C228.029 243.532 227.693 243.22 227.429 242.812V246.328H226.577V237.689H227.393V238.937C227.649 238.521 227.985 238.201 228.401 237.977C228.824 237.753 229.3 237.641 229.828 237.641ZM229.768 243.304C230.208 243.304 230.608 243.204 230.968 243.004C231.328 242.796 231.608 242.504 231.808 242.128C232.016 241.752 232.12 241.325 232.12 240.845C232.12 240.365 232.016 239.941 231.808 239.573C231.608 239.197 231.328 238.905 230.968 238.697C230.608 238.489 230.208 238.385 229.768 238.385C229.32 238.385 228.916 238.489 228.556 238.697C228.205 238.905 227.925 239.197 227.717 239.573C227.517 239.941 227.417 240.365 227.417 240.845C227.417 241.325 227.517 241.752 227.717 242.128C227.925 242.504 228.205 242.796 228.556 243.004C228.916 243.204 229.32 243.304 229.768 243.304ZM234.802 237.689H235.654V242.704L239.865 237.689H240.621V244H239.769V238.985L235.57 244H234.802V237.689ZM245.701 244.06C245.077 244.06 244.518 243.924 244.022 243.652C243.534 243.38 243.15 243 242.87 242.512C242.59 242.016 242.45 241.461 242.45 240.845C242.45 240.229 242.59 239.677 242.87 239.189C243.15 238.701 243.534 238.321 244.022 238.049C244.518 237.777 245.077 237.641 245.701 237.641C246.245 237.641 246.729 237.749 247.153 237.965C247.585 238.173 247.925 238.481 248.173 238.889L247.537 239.321C247.329 239.009 247.065 238.777 246.745 238.625C246.425 238.465 246.077 238.385 245.701 238.385C245.245 238.385 244.833 238.489 244.466 238.697C244.106 238.897 243.822 239.185 243.614 239.561C243.414 239.937 243.314 240.365 243.314 240.845C243.314 241.333 243.414 241.764 243.614 242.14C243.822 242.508 244.106 242.796 244.466 243.004C244.833 243.204 245.245 243.304 245.701 243.304C246.077 243.304 246.425 243.228 246.745 243.076C247.065 242.924 247.329 242.692 247.537 242.38L248.173 242.812C247.925 243.22 247.585 243.532 247.153 243.748C246.721 243.956 246.237 244.06 245.701 244.06ZM252.114 241.193H250.674V244H249.822V237.689H250.674V240.461H252.126L254.345 237.689H255.269L252.786 240.749L255.449 244H254.441L252.114 241.193ZM256.793 237.689H257.645V242.704L261.856 237.689H262.612V244H261.76V238.985L257.561 244H256.793V237.689Z" fill="#1A547E"></path> <path d="M261 225.5H73C64.9919 225.5 58.5 231.992 58.5 240C58.5 248.008 64.9919 254.5 73 254.5H261C269.008 254.5 275.5 248.008 275.5 240C275.5 231.992 269.008 225.5 261 225.5Z" stroke="white" stroke-opacity="0.5"></path> <path d="M22.3595 223.232V224H16.4687V223.388L19.96 219.969C20.3999 219.537 20.6958 219.165 20.8478 218.853C21.0078 218.533 21.0878 218.213 21.0878 217.893C21.0878 217.397 20.9158 217.013 20.5719 216.741C20.2359 216.462 19.752 216.322 19.1202 216.322C18.1364 216.322 17.3725 216.633 16.8286 217.257L16.2168 216.729C16.5447 216.346 16.9606 216.05 17.4645 215.842C17.9764 215.634 18.5523 215.53 19.1922 215.53C20.048 215.53 20.7238 215.734 21.2197 216.142C21.7236 216.542 21.9756 217.093 21.9756 217.797C21.9756 218.229 21.8796 218.645 21.6876 219.045C21.4957 219.445 21.1318 219.905 20.5959 220.425L17.7404 223.232H22.3595ZM26.7441 224.072C26.0962 224.072 25.5163 223.9 25.0044 223.556C24.5005 223.212 24.1046 222.72 23.8167 222.08C23.5367 221.433 23.3967 220.673 23.3967 219.801C23.3967 218.929 23.5367 218.173 23.8167 217.533C24.1046 216.885 24.5005 216.39 25.0044 216.046C25.5163 215.702 26.0962 215.53 26.7441 215.53C27.3919 215.53 27.9678 215.702 28.4717 216.046C28.9836 216.39 29.3835 216.885 29.6715 217.533C29.9594 218.173 30.1034 218.929 30.1034 219.801C30.1034 220.673 29.9594 221.433 29.6715 222.08C29.3835 222.72 28.9836 223.212 28.4717 223.556C27.9678 223.9 27.3919 224.072 26.7441 224.072ZM26.7441 223.28C27.232 223.28 27.6599 223.144 28.0278 222.872C28.4037 222.6 28.6957 222.204 28.9036 221.684C29.1116 221.165 29.2156 220.537 29.2156 219.801C29.2156 219.065 29.1116 218.437 28.9036 217.917C28.6957 217.397 28.4037 217.001 28.0278 216.729C27.6599 216.458 27.232 216.322 26.7441 216.322C26.2562 216.322 25.8242 216.458 25.4483 216.729C25.0804 217.001 24.7925 217.397 24.5845 217.917C24.3765 218.437 24.2726 219.065 24.2726 219.801C24.2726 220.537 24.3765 221.165 24.5845 221.684C24.7925 222.204 25.0804 222.6 25.4483 222.872C25.8242 223.144 26.2562 223.28 26.7441 223.28ZM33.1161 220.101C32.5482 220.101 32.0883 219.893 31.7364 219.477C31.3924 219.053 31.2205 218.501 31.2205 217.821C31.2205 217.141 31.3924 216.594 31.7364 216.178C32.0883 215.754 32.5482 215.542 33.1161 215.542C33.676 215.542 34.1319 215.75 34.4838 216.166C34.8357 216.582 35.0117 217.133 35.0117 217.821C35.0117 218.509 34.8357 219.061 34.4838 219.477C34.1319 219.893 33.676 220.101 33.1161 220.101ZM38.2031 215.602H38.9109L33.1761 224H32.4682L38.2031 215.602ZM33.1161 219.561C33.508 219.561 33.8199 219.409 34.0519 219.105C34.2918 218.793 34.4118 218.365 34.4118 217.821C34.4118 217.277 34.2918 216.853 34.0519 216.55C33.8199 216.238 33.508 216.082 33.1161 216.082C32.7162 216.082 32.4002 216.238 32.1683 216.55C31.9363 216.861 31.8203 217.285 31.8203 217.821C31.8203 218.357 31.9363 218.781 32.1683 219.093C32.4002 219.405 32.7162 219.561 33.1161 219.561ZM38.263 224.06C37.7032 224.06 37.2472 223.852 36.8953 223.436C36.5434 223.012 36.3674 222.46 36.3674 221.78C36.3674 221.101 36.5434 220.553 36.8953 220.137C37.2472 219.713 37.7032 219.501 38.263 219.501C38.8309 219.501 39.2868 219.713 39.6308 220.137C39.9827 220.553 40.1587 221.101 40.1587 221.78C40.1587 222.46 39.9827 223.012 39.6308 223.436C39.2868 223.852 38.8309 224.06 38.263 224.06ZM38.263 223.52C38.663 223.52 38.9789 223.364 39.2108 223.052C39.4428 222.74 39.5588 222.316 39.5588 221.78C39.5588 221.245 39.4428 220.821 39.2108 220.509C38.9789 220.197 38.663 220.041 38.263 220.041C37.8711 220.041 37.5552 220.197 37.3152 220.509C37.0833 220.813 36.9673 221.237 36.9673 221.78C36.9673 222.324 37.0833 222.752 37.3152 223.064C37.5552 223.368 37.8711 223.52 38.263 223.52Z" fill="white"></path> <path d="M18.9508 360.602V369H18.087V361.37H16.1074V360.602H18.9508ZM29.1493 363.445H25.538V369H24.6862V362.689H29.1493V363.445ZM32.6909 369.06C32.083 369.06 31.5352 368.924 31.0473 368.652C30.5594 368.372 30.1754 367.988 29.8955 367.5C29.6155 367.012 29.4756 366.461 29.4756 365.845C29.4756 365.229 29.6155 364.677 29.8955 364.189C30.1754 363.701 30.5594 363.321 31.0473 363.049C31.5352 362.777 32.083 362.641 32.6909 362.641C33.2988 362.641 33.8467 362.777 34.3346 363.049C34.8225 363.321 35.2024 363.701 35.4744 364.189C35.7543 364.677 35.8943 365.229 35.8943 365.845C35.8943 366.461 35.7543 367.012 35.4744 367.5C35.2024 367.988 34.8225 368.372 34.3346 368.652C33.8467 368.924 33.2988 369.06 32.6909 369.06ZM32.6909 368.304C33.1388 368.304 33.5388 368.204 33.8907 368.004C34.2506 367.796 34.5306 367.504 34.7305 367.128C34.9305 366.752 35.0305 366.325 35.0305 365.845C35.0305 365.365 34.9305 364.937 34.7305 364.561C34.5306 364.185 34.2506 363.897 33.8907 363.697C33.5388 363.489 33.1388 363.385 32.6909 363.385C32.243 363.385 31.8391 363.489 31.4792 363.697C31.1272 363.897 30.8473 364.185 30.6393 364.561C30.4394 364.937 30.3394 365.365 30.3394 365.845C30.3394 366.325 30.4394 366.752 30.6393 367.128C30.8473 367.504 31.1272 367.796 31.4792 368.004C31.8391 368.204 32.243 368.304 32.6909 368.304ZM43.8344 368.256V370.524H43.0306V369H37.3797V370.524H36.5759V368.256H36.9358C37.3597 368.232 37.6477 367.92 37.7996 367.32C37.9516 366.72 38.0556 365.881 38.1116 364.801L38.1956 362.689H42.8506V368.256H43.8344ZM38.8914 364.849C38.8514 365.745 38.7754 366.485 38.6635 367.068C38.5515 367.644 38.3515 368.04 38.0636 368.256H41.9988V363.445H38.9634L38.8914 364.849Z" fill="white"></path> <path d="M20.8312 91.0451C22.047 91.0451 22.9308 91.2651 23.4827 91.705C24.0426 92.1369 24.3225 92.7448 24.3225 93.5286C24.3225 94.0165 24.2065 94.4524 23.9746 94.8363C23.7506 95.2203 23.4107 95.5242 22.9548 95.7482C22.4989 95.9641 21.939 96.0721 21.2751 96.0721C20.6753 96.0721 20.1034 95.9761 19.5595 95.7841C19.0236 95.5842 18.5917 95.3202 18.2637 94.9923L18.6837 94.3084C18.9636 94.5964 19.3315 94.8323 19.7874 95.0163C20.2433 95.1923 20.7352 95.2802 21.2631 95.2802C21.959 95.2802 22.4949 95.1243 22.8708 94.8123C23.2547 94.5004 23.4467 94.0845 23.4467 93.5646C23.4467 92.9887 23.2307 92.5528 22.7988 92.2569C22.3749 91.9609 21.6551 91.8129 20.6393 91.8129H18.8516L19.2835 87.6018H23.8786V88.3696H20.0394L19.7514 91.0451H20.8312ZM31.9065 96.0721C31.2586 96.0721 30.6787 95.9001 30.1668 95.5562C29.6629 95.2123 29.267 94.7204 28.9791 94.0805C28.6991 93.4326 28.5592 92.6728 28.5592 91.801C28.5592 90.9291 28.6991 90.1733 28.9791 89.5334C29.267 88.8855 29.6629 88.3896 30.1668 88.0457C30.6787 87.7018 31.2586 87.5298 31.9065 87.5298C32.5544 87.5298 33.1302 87.7018 33.6341 88.0457C34.146 88.3896 34.5459 88.8855 34.8339 89.5334C35.1218 90.1733 35.2658 90.9291 35.2658 91.801C35.2658 92.6728 35.1218 93.4326 34.8339 94.0805C34.5459 94.7204 34.146 95.2123 33.6341 95.5562C33.1302 95.9001 32.5544 96.0721 31.9065 96.0721ZM31.9065 95.2802C32.3944 95.2802 32.8223 95.1443 33.1902 94.8723C33.5661 94.6004 33.8581 94.2045 34.066 93.6846C34.274 93.1647 34.378 92.5368 34.378 91.801C34.378 91.0651 34.274 90.4372 34.066 89.9173C33.8581 89.3974 33.5661 89.0015 33.1902 88.7296C32.8223 88.4576 32.3944 88.3217 31.9065 88.3217C31.4186 88.3217 30.9867 88.4576 30.6107 88.7296C30.2428 89.0015 29.9549 89.3974 29.7469 89.9173C29.539 90.4372 29.435 91.0651 29.435 91.801C29.435 92.5368 29.539 93.1647 29.7469 93.6846C29.9549 94.2045 30.2428 94.6004 30.6107 94.8723C30.9867 95.1443 31.4186 95.2802 31.9065 95.2802ZM39.8502 96.0721C39.2023 96.0721 38.6224 95.9001 38.1105 95.5562C37.6066 95.2123 37.2107 94.7204 36.9228 94.0805C36.6428 93.4326 36.5029 92.6728 36.5029 91.801C36.5029 90.9291 36.6428 90.1733 36.9228 89.5334C37.2107 88.8855 37.6066 88.3896 38.1105 88.0457C38.6224 87.7018 39.2023 87.5298 39.8502 87.5298C40.4981 87.5298 41.0739 87.7018 41.5778 88.0457C42.0897 88.3896 42.4897 88.8855 42.7776 89.5334C43.0655 90.1733 43.2095 90.9291 43.2095 91.801C43.2095 92.6728 43.0655 93.4326 42.7776 94.0805C42.4897 94.7204 42.0897 95.2123 41.5778 95.5562C41.0739 95.9001 40.4981 96.0721 39.8502 96.0721ZM39.8502 95.2802C40.3381 95.2802 40.766 95.1443 41.1339 94.8723C41.5098 94.6004 41.8018 94.2045 42.0097 93.6846C42.2177 93.1647 42.3217 92.5368 42.3217 91.801C42.3217 91.0651 42.2177 90.4372 42.0097 89.9173C41.8018 89.3974 41.5098 89.0015 41.1339 88.7296C40.766 88.4576 40.3381 88.3217 39.8502 88.3217C39.3623 88.3217 38.9304 88.4576 38.5544 88.7296C38.1865 89.0015 37.8986 89.3974 37.6906 89.9173C37.4827 90.4372 37.3787 91.0651 37.3787 91.801C37.3787 92.5368 37.4827 93.1647 37.6906 93.6846C37.8986 94.2045 38.1865 94.6004 38.5544 94.8723C38.9304 95.1443 39.3623 95.2802 39.8502 95.2802ZM47.7939 96.0721C47.146 96.0721 46.5661 95.9001 46.0542 95.5562C45.5503 95.2123 45.1544 94.7204 44.8665 94.0805C44.5865 93.4326 44.4466 92.6728 44.4466 91.801C44.4466 90.9291 44.5865 90.1733 44.8665 89.5334C45.1544 88.8855 45.5503 88.3896 46.0542 88.0457C46.5661 87.7018 47.146 87.5298 47.7939 87.5298C48.4418 87.5298 49.0176 87.7018 49.5215 88.0457C50.0334 88.3896 50.4334 88.8855 50.7213 89.5334C51.0092 90.1733 51.1532 90.9291 51.1532 91.801C51.1532 92.6728 51.0092 93.4326 50.7213 94.0805C50.4334 94.7204 50.0334 95.2123 49.5215 95.5562C49.0176 95.9001 48.4418 96.0721 47.7939 96.0721ZM47.7939 95.2802C48.2818 95.2802 48.7097 95.1443 49.0776 94.8723C49.4536 94.6004 49.7455 94.2045 49.9535 93.6846C50.1614 93.1647 50.2654 92.5368 50.2654 91.801C50.2654 91.0651 50.1614 90.4372 49.9535 89.9173C49.7455 89.3974 49.4536 89.0015 49.0776 88.7296C48.7097 88.4576 48.2818 88.3217 47.7939 88.3217C47.306 88.3217 46.8741 88.4576 46.4982 88.7296C46.1302 89.0015 45.8423 89.3974 45.6343 89.9173C45.4264 90.4372 45.3224 91.0651 45.3224 91.801C45.3224 92.5368 45.4264 93.1647 45.6343 93.6846C45.8423 94.2045 46.1302 94.6004 46.4982 94.8723C46.8741 95.1443 47.306 95.2802 47.7939 95.2802ZM57.4139 93.1807V93.9125H60.1133V94.4404H57.4139V96.0001H56.5261V94.4404H55.2663V93.9125H56.5261V87.6018H59.6694C60.7492 87.6018 61.589 87.8458 62.1889 88.3337C62.7968 88.8136 63.1007 89.4974 63.1007 90.3852C63.1007 91.2811 62.7968 91.9729 62.1889 92.4608C61.589 92.9407 60.7492 93.1807 59.6694 93.1807H57.4139ZM57.4139 88.3696V92.4248H59.6814C60.4973 92.4248 61.1211 92.2489 61.553 91.8969C61.993 91.545 62.2129 91.0451 62.2129 90.3972C62.2129 89.7494 61.993 89.2495 61.553 88.8975C61.1211 88.5456 60.4973 88.3696 59.6814 88.3696H57.4139Z" fill="white"></path> <path d="M304.36 225.232V226H298.469V225.388L301.96 221.969C302.4 221.537 302.696 221.165 302.848 220.853C303.008 220.533 303.088 220.213 303.088 219.893C303.088 219.397 302.916 219.013 302.572 218.741C302.236 218.462 301.752 218.322 301.12 218.322C300.137 218.322 299.373 218.633 298.829 219.257L298.217 218.729C298.545 218.346 298.961 218.05 299.465 217.842C299.977 217.634 300.552 217.53 301.192 217.53C302.048 217.53 302.724 217.734 303.22 218.142C303.724 218.542 303.976 219.093 303.976 219.797C303.976 220.229 303.88 220.645 303.688 221.045C303.496 221.445 303.132 221.905 302.596 222.425L299.741 225.232H304.36ZM308.059 217.53C309.171 217.53 310.023 217.898 310.615 218.633C311.207 219.361 311.503 220.393 311.503 221.729C311.503 222.665 311.343 223.457 311.023 224.104C310.703 224.752 310.255 225.244 309.679 225.58C309.103 225.908 308.431 226.072 307.663 226.072C306.832 226.072 306.168 225.92 305.672 225.616L306.02 224.92C306.42 225.184 306.963 225.316 307.651 225.316C308.579 225.316 309.307 225.024 309.835 224.44C310.363 223.848 310.627 222.993 310.627 221.873C310.627 221.665 310.615 221.437 310.591 221.189C310.383 221.645 310.051 222.001 309.595 222.257C309.139 222.505 308.615 222.629 308.023 222.629C307.471 222.629 306.979 222.525 306.548 222.317C306.124 222.109 305.792 221.817 305.552 221.441C305.312 221.057 305.192 220.613 305.192 220.109C305.192 219.597 305.316 219.145 305.564 218.753C305.812 218.362 306.152 218.062 306.584 217.854C307.023 217.638 307.515 217.53 308.059 217.53ZM308.155 221.897C308.579 221.897 308.951 221.817 309.271 221.657C309.599 221.497 309.855 221.277 310.039 220.997C310.223 220.717 310.315 220.405 310.315 220.061C310.315 219.741 310.227 219.445 310.051 219.173C309.883 218.901 309.631 218.681 309.295 218.514C308.959 218.346 308.559 218.262 308.095 218.262C307.487 218.262 306.991 218.43 306.608 218.765C306.232 219.093 306.044 219.533 306.044 220.085C306.044 220.637 306.232 221.077 306.608 221.405C306.991 221.733 307.507 221.897 308.155 221.897ZM314.53 222.101C313.963 222.101 313.503 221.893 313.151 221.477C312.807 221.053 312.635 220.501 312.635 219.821C312.635 219.141 312.807 218.594 313.151 218.178C313.503 217.754 313.963 217.542 314.53 217.542C315.09 217.542 315.546 217.75 315.898 218.166C316.25 218.582 316.426 219.133 316.426 219.821C316.426 220.509 316.25 221.061 315.898 221.477C315.546 221.893 315.09 222.101 314.53 222.101ZM319.617 217.602H320.325L314.59 226H313.883L319.617 217.602ZM314.53 221.561C314.922 221.561 315.234 221.409 315.466 221.105C315.706 220.793 315.826 220.365 315.826 219.821C315.826 219.277 315.706 218.853 315.466 218.55C315.234 218.238 314.922 218.082 314.53 218.082C314.131 218.082 313.815 218.238 313.583 218.55C313.351 218.861 313.235 219.285 313.235 219.821C313.235 220.357 313.351 220.781 313.583 221.093C313.815 221.405 314.131 221.561 314.53 221.561ZM319.677 226.06C319.118 226.06 318.662 225.852 318.31 225.436C317.958 225.012 317.782 224.46 317.782 223.78C317.782 223.101 317.958 222.553 318.31 222.137C318.662 221.713 319.118 221.501 319.677 221.501C320.245 221.501 320.701 221.713 321.045 222.137C321.397 222.553 321.573 223.101 321.573 223.78C321.573 224.46 321.397 225.012 321.045 225.436C320.701 225.852 320.245 226.06 319.677 226.06ZM319.677 225.52C320.077 225.52 320.393 225.364 320.625 225.052C320.857 224.74 320.973 224.316 320.973 223.78C320.973 223.245 320.857 222.821 320.625 222.509C320.393 222.197 320.077 222.041 319.677 222.041C319.286 222.041 318.97 222.197 318.73 222.509C318.498 222.813 318.382 223.237 318.382 223.78C318.382 224.324 318.498 224.752 318.73 225.064C318.97 225.368 319.286 225.52 319.677 225.52Z" fill="white"></path> <path d="M288.478 366.201C289.358 366.249 290.026 366.489 290.482 366.921C290.946 367.345 291.178 367.901 291.178 368.588C291.178 369.068 291.062 369.496 290.83 369.872C290.598 370.24 290.254 370.532 289.798 370.748C289.342 370.964 288.786 371.072 288.13 371.072C287.522 371.072 286.947 370.976 286.403 370.784C285.867 370.584 285.435 370.32 285.107 369.992L285.527 369.308C285.807 369.596 286.179 369.832 286.643 370.016C287.107 370.192 287.602 370.28 288.13 370.28C288.818 370.28 289.35 370.132 289.726 369.836C290.102 369.532 290.29 369.116 290.29 368.588C290.29 368.069 290.102 367.661 289.726 367.365C289.35 367.069 288.782 366.921 288.022 366.921H287.423V366.285L289.75 363.37H285.455V362.602H290.854V363.214L288.478 366.201ZM295.742 371.072C295.094 371.072 294.515 370.9 294.003 370.556C293.499 370.212 293.103 369.72 292.815 369.08C292.535 368.433 292.395 367.673 292.395 366.801C292.395 365.929 292.535 365.173 292.815 364.533C293.103 363.885 293.499 363.39 294.003 363.046C294.515 362.702 295.094 362.53 295.742 362.53C296.39 362.53 296.966 362.702 297.47 363.046C297.982 363.39 298.382 363.885 298.67 364.533C298.958 365.173 299.102 365.929 299.102 366.801C299.102 367.673 298.958 368.433 298.67 369.08C298.382 369.72 297.982 370.212 297.47 370.556C296.966 370.9 296.39 371.072 295.742 371.072ZM295.742 370.28C296.23 370.28 296.658 370.144 297.026 369.872C297.402 369.6 297.694 369.204 297.902 368.684C298.11 368.165 298.214 367.537 298.214 366.801C298.214 366.065 298.11 365.437 297.902 364.917C297.694 364.397 297.402 364.001 297.026 363.729C296.658 363.458 296.23 363.322 295.742 363.322C295.254 363.322 294.822 363.458 294.447 363.729C294.079 364.001 293.791 364.397 293.583 364.917C293.375 365.437 293.271 366.065 293.271 366.801C293.271 367.537 293.375 368.165 293.583 368.684C293.791 369.204 294.079 369.6 294.447 369.872C294.822 370.144 295.254 370.28 295.742 370.28ZM309.225 364.689V371H308.374V365.445H305.35L305.266 367.005C305.202 368.317 305.05 369.324 304.81 370.028C304.57 370.732 304.142 371.084 303.527 371.084C303.359 371.084 303.155 371.052 302.915 370.988L302.975 370.256C303.119 370.288 303.219 370.304 303.275 370.304C303.603 370.304 303.851 370.152 304.019 369.848C304.186 369.544 304.298 369.168 304.354 368.72C304.41 368.273 304.458 367.681 304.498 366.945L304.606 364.689H309.225ZM317.166 368.109H311.887C311.935 368.764 312.187 369.296 312.643 369.704C313.099 370.104 313.675 370.304 314.37 370.304C314.762 370.304 315.122 370.236 315.45 370.1C315.778 369.956 316.062 369.748 316.302 369.476L316.782 370.028C316.502 370.364 316.15 370.62 315.726 370.796C315.31 370.972 314.85 371.06 314.346 371.06C313.699 371.06 313.123 370.924 312.619 370.652C312.123 370.372 311.735 369.988 311.455 369.5C311.175 369.012 311.035 368.461 311.035 367.845C311.035 367.229 311.167 366.677 311.431 366.189C311.703 365.701 312.071 365.321 312.535 365.049C313.007 364.777 313.535 364.641 314.119 364.641C314.702 364.641 315.226 364.777 315.69 365.049C316.154 365.321 316.518 365.701 316.782 366.189C317.046 366.669 317.178 367.221 317.178 367.845L317.166 368.109ZM314.119 365.373C313.511 365.373 312.999 365.569 312.583 365.961C312.175 366.345 311.943 366.849 311.887 367.473H316.362C316.306 366.849 316.07 366.345 315.654 365.961C315.246 365.569 314.734 365.373 314.119 365.373ZM323.221 365.445H320.834V371H319.982V365.445H317.595V364.689H323.221V365.445Z" fill="white"></path> <path d="M262.95 87.6018V96.0001H262.087V88.3696H260.107V87.6018H262.95ZM271.445 96.0721C270.797 96.0721 270.217 95.9001 269.706 95.5562C269.202 95.2123 268.806 94.7204 268.518 94.0805C268.238 93.4326 268.098 92.6728 268.098 91.801C268.098 90.9291 268.238 90.1733 268.518 89.5334C268.806 88.8855 269.202 88.3896 269.706 88.0457C270.217 87.7018 270.797 87.5298 271.445 87.5298C272.093 87.5298 272.669 87.7018 273.173 88.0457C273.685 88.3896 274.085 88.8855 274.373 89.5334C274.661 90.1733 274.805 90.9291 274.805 91.801C274.805 92.6728 274.661 93.4326 274.373 94.0805C274.085 94.7204 273.685 95.2123 273.173 95.5562C272.669 95.9001 272.093 96.0721 271.445 96.0721ZM271.445 95.2802C271.933 95.2802 272.361 95.1443 272.729 94.8723C273.105 94.6004 273.397 94.2045 273.605 93.6846C273.813 93.1647 273.917 92.5368 273.917 91.801C273.917 91.0651 273.813 90.4372 273.605 89.9173C273.397 89.3974 273.105 89.0015 272.729 88.7296C272.361 88.4576 271.933 88.3217 271.445 88.3217C270.957 88.3217 270.525 88.4576 270.15 88.7296C269.782 89.0015 269.494 89.3974 269.286 89.9173C269.078 90.4372 268.974 91.0651 268.974 91.801C268.974 92.5368 269.078 93.1647 269.286 93.6846C269.494 94.2045 269.782 94.6004 270.15 94.8723C270.525 95.1443 270.957 95.2802 271.445 95.2802ZM279.389 96.0721C278.741 96.0721 278.161 95.9001 277.649 95.5562C277.145 95.2123 276.749 94.7204 276.462 94.0805C276.182 93.4326 276.042 92.6728 276.042 91.801C276.042 90.9291 276.182 90.1733 276.462 89.5334C276.749 88.8855 277.145 88.3896 277.649 88.0457C278.161 87.7018 278.741 87.5298 279.389 87.5298C280.037 87.5298 280.613 87.7018 281.117 88.0457C281.628 88.3896 282.028 88.8855 282.316 89.5334C282.604 90.1733 282.748 90.9291 282.748 91.801C282.748 92.6728 282.604 93.4326 282.316 94.0805C282.028 94.7204 281.628 95.2123 281.117 95.5562C280.613 95.9001 280.037 96.0721 279.389 96.0721ZM279.389 95.2802C279.877 95.2802 280.305 95.1443 280.673 94.8723C281.049 94.6004 281.341 94.2045 281.549 93.6846C281.756 93.1647 281.86 92.5368 281.86 91.801C281.86 91.0651 281.756 90.4372 281.549 89.9173C281.341 89.3974 281.049 89.0015 280.673 88.7296C280.305 88.4576 279.877 88.3217 279.389 88.3217C278.901 88.3217 278.469 88.4576 278.093 88.7296C277.725 89.0015 277.437 89.3974 277.229 89.9173C277.021 90.4372 276.917 91.0651 276.917 91.801C276.917 92.5368 277.021 93.1647 277.229 93.6846C277.437 94.2045 277.725 94.6004 278.093 94.8723C278.469 95.1443 278.901 95.2802 279.389 95.2802ZM290.473 96.0721C289.825 96.0721 289.245 95.9001 288.733 95.5562C288.229 95.2123 287.833 94.7204 287.545 94.0805C287.265 93.4326 287.125 92.6728 287.125 91.801C287.125 90.9291 287.265 90.1733 287.545 89.5334C287.833 88.8855 288.229 88.3896 288.733 88.0457C289.245 87.7018 289.825 87.5298 290.473 87.5298C291.121 87.5298 291.696 87.7018 292.2 88.0457C292.712 88.3896 293.112 88.8855 293.4 89.5334C293.688 90.1733 293.832 90.9291 293.832 91.801C293.832 92.6728 293.688 93.4326 293.4 94.0805C293.112 94.7204 292.712 95.2123 292.2 95.5562C291.696 95.9001 291.121 96.0721 290.473 96.0721ZM290.473 95.2802C290.961 95.2802 291.388 95.1443 291.756 94.8723C292.132 94.6004 292.424 94.2045 292.632 93.6846C292.84 93.1647 292.944 92.5368 292.944 91.801C292.944 91.0651 292.84 90.4372 292.632 89.9173C292.424 89.3974 292.132 89.0015 291.756 88.7296C291.388 88.4576 290.961 88.3217 290.473 88.3217C289.985 88.3217 289.553 88.4576 289.177 88.7296C288.809 89.0015 288.521 89.3974 288.313 89.9173C288.105 90.4372 288.001 91.0651 288.001 91.801C288.001 92.5368 288.105 93.1647 288.313 93.6846C288.521 94.2045 288.809 94.6004 289.177 94.8723C289.553 95.1443 289.985 95.2802 290.473 95.2802ZM298.416 96.0721C297.768 96.0721 297.189 95.9001 296.677 95.5562C296.173 95.2123 295.777 94.7204 295.489 94.0805C295.209 93.4326 295.069 92.6728 295.069 91.801C295.069 90.9291 295.209 90.1733 295.489 89.5334C295.777 88.8855 296.173 88.3896 296.677 88.0457C297.189 87.7018 297.768 87.5298 298.416 87.5298C299.064 87.5298 299.64 87.7018 300.144 88.0457C300.656 88.3896 301.056 88.8855 301.344 89.5334C301.632 90.1733 301.776 90.9291 301.776 91.801C301.776 92.6728 301.632 93.4326 301.344 94.0805C301.056 94.7204 300.656 95.2123 300.144 95.5562C299.64 95.9001 299.064 96.0721 298.416 96.0721ZM298.416 95.2802C298.904 95.2802 299.332 95.1443 299.7 94.8723C300.076 94.6004 300.368 94.2045 300.576 93.6846C300.784 93.1647 300.888 92.5368 300.888 91.801C300.888 91.0651 300.784 90.4372 300.576 89.9173C300.368 89.3974 300.076 89.0015 299.7 88.7296C299.332 88.4576 298.904 88.3217 298.416 88.3217C297.928 88.3217 297.497 88.4576 297.121 88.7296C296.753 89.0015 296.465 89.3974 296.257 89.9173C296.049 90.4372 295.945 91.0651 295.945 91.801C295.945 92.5368 296.049 93.1647 296.257 93.6846C296.465 94.2045 296.753 94.6004 297.121 94.8723C297.497 95.1443 297.928 95.2802 298.416 95.2802ZM306.36 96.0721C305.712 96.0721 305.132 95.9001 304.62 95.5562C304.117 95.2123 303.721 94.7204 303.433 94.0805C303.153 93.4326 303.013 92.6728 303.013 91.801C303.013 90.9291 303.153 90.1733 303.433 89.5334C303.721 88.8855 304.117 88.3896 304.62 88.0457C305.132 87.7018 305.712 87.5298 306.36 87.5298C307.008 87.5298 307.584 87.7018 308.088 88.0457C308.6 88.3896 309 88.8855 309.287 89.5334C309.575 90.1733 309.719 90.9291 309.719 91.801C309.719 92.6728 309.575 93.4326 309.287 94.0805C309 94.7204 308.6 95.2123 308.088 95.5562C307.584 95.9001 307.008 96.0721 306.36 96.0721ZM306.36 95.2802C306.848 95.2802 307.276 95.1443 307.644 94.8723C308.02 94.6004 308.312 94.2045 308.52 93.6846C308.728 93.1647 308.832 92.5368 308.832 91.801C308.832 91.0651 308.728 90.4372 308.52 89.9173C308.312 89.3974 308.02 89.0015 307.644 88.7296C307.276 88.4576 306.848 88.3217 306.36 88.3217C305.872 88.3217 305.44 88.4576 305.064 88.7296C304.696 89.0015 304.408 89.3974 304.2 89.9173C303.993 90.4372 303.889 91.0651 303.889 91.801C303.889 92.5368 303.993 93.1647 304.2 93.6846C304.408 94.2045 304.696 94.6004 305.064 94.8723C305.44 95.1443 305.872 95.2802 306.36 95.2802ZM315.98 93.1807V93.9125H318.679V94.4404H315.98V96.0001H315.092V94.4404H313.832V93.9125H315.092V87.6018H318.236C319.315 87.6018 320.155 87.8458 320.755 88.3337C321.363 88.8136 321.667 89.4974 321.667 90.3852C321.667 91.2811 321.363 91.9729 320.755 92.4608C320.155 92.9407 319.315 93.1807 318.236 93.1807H315.98ZM315.98 88.3696V92.4248H318.248C319.063 92.4248 319.687 92.2489 320.119 91.8969C320.559 91.545 320.779 91.0451 320.779 90.3972C320.779 89.7494 320.559 89.2495 320.119 88.8975C319.687 88.5456 319.063 88.3696 318.248 88.3696H315.98Z" fill="white"></path> <path opacity="0.8" d="M195.64 306.328C195.192 305.592 194.848 304.748 194.608 303.796C194.368 302.836 194.248 301.808 194.248 300.712C194.248 299.616 194.368 298.588 194.608 297.628C194.848 296.66 195.192 295.816 195.64 295.096H196.456C195.984 295.904 195.636 296.772 195.412 297.7C195.196 298.628 195.088 299.632 195.088 300.712C195.088 301.792 195.196 302.796 195.412 303.724C195.636 304.652 195.984 305.52 196.456 306.328H195.64ZM198.365 295.6H204.509V296.356H199.241V299.104H201.989C202.981 299.104 203.733 299.308 204.245 299.716C204.765 300.124 205.025 300.716 205.025 301.492C205.025 302.3 204.745 302.92 204.185 303.352C203.633 303.784 202.837 304 201.797 304H198.365V295.6ZM201.785 303.292C202.561 303.292 203.145 303.144 203.537 302.848C203.937 302.552 204.137 302.112 204.137 301.528C204.137 300.952 203.941 300.524 203.549 300.244C203.165 299.956 202.577 299.812 201.785 299.812H199.241V303.292H201.785ZM212.4 301.108H207.12C207.168 301.764 207.42 302.296 207.876 302.704C208.332 303.104 208.908 303.304 209.604 303.304C209.996 303.304 210.356 303.236 210.684 303.1C211.012 302.956 211.296 302.748 211.536 302.476L212.016 303.028C211.736 303.364 211.384 303.62 210.96 303.796C210.544 303.972 210.084 304.06 209.58 304.06C208.932 304.06 208.356 303.924 207.852 303.652C207.356 303.372 206.968 302.988 206.688 302.5C206.408 302.012 206.268 301.46 206.268 300.844C206.268 300.228 206.4 299.676 206.664 299.188C206.936 298.7 207.304 298.32 207.768 298.048C208.24 297.776 208.768 297.64 209.352 297.64C209.936 297.64 210.46 297.776 210.924 298.048C211.388 298.32 211.752 298.7 212.016 299.188C212.28 299.668 212.412 300.22 212.412 300.844L212.4 301.108ZM209.352 298.372C208.744 298.372 208.232 298.568 207.816 298.96C207.408 299.344 207.176 299.848 207.12 300.472H211.596C211.54 299.848 211.304 299.344 210.888 298.96C210.48 298.568 209.968 298.372 209.352 298.372ZM217.194 300.712C217.642 300.816 217.986 300.996 218.226 301.252C218.474 301.508 218.598 301.82 218.598 302.188C218.598 302.556 218.47 302.884 218.214 303.172C217.966 303.46 217.626 303.684 217.194 303.844C216.762 303.996 216.286 304.072 215.766 304.072C215.31 304.072 214.862 304.008 214.422 303.88C213.982 303.744 213.598 303.548 213.27 303.292L213.558 302.656C213.846 302.872 214.182 303.04 214.566 303.16C214.95 303.28 215.338 303.34 215.73 303.34C216.314 303.34 216.79 303.232 217.158 303.016C217.534 302.792 217.722 302.492 217.722 302.116C217.722 301.78 217.57 301.52 217.266 301.336C216.962 301.144 216.546 301.048 216.018 301.048H214.938V300.424H215.97C216.442 300.424 216.822 300.336 217.11 300.16C217.398 299.976 217.542 299.732 217.542 299.428C217.542 299.092 217.378 298.828 217.05 298.636C216.73 298.444 216.31 298.348 215.79 298.348C215.11 298.348 214.438 298.52 213.774 298.864L213.534 298.204C214.286 297.812 215.066 297.616 215.874 297.616C216.354 297.616 216.786 297.688 217.17 297.832C217.562 297.968 217.866 298.164 218.082 298.42C218.306 298.676 218.418 298.972 218.418 299.308C218.418 299.628 218.306 299.912 218.082 300.16C217.866 300.408 217.57 300.592 217.194 300.712ZM223.673 297.688H224.525V302.704L228.737 297.688H229.493V304H228.641V298.984L224.441 304H223.673V297.688ZM234.878 300.712C235.326 300.816 235.67 300.996 235.91 301.252C236.158 301.508 236.282 301.82 236.282 302.188C236.282 302.556 236.154 302.884 235.898 303.172C235.65 303.46 235.31 303.684 234.878 303.844C234.446 303.996 233.97 304.072 233.45 304.072C232.994 304.072 232.546 304.008 232.106 303.88C231.666 303.744 231.282 303.548 230.954 303.292L231.242 302.656C231.53 302.872 231.866 303.04 232.25 303.16C232.634 303.28 233.022 303.34 233.414 303.34C233.998 303.34 234.474 303.232 234.842 303.016C235.218 302.792 235.406 302.492 235.406 302.116C235.406 301.78 235.254 301.52 234.95 301.336C234.646 301.144 234.23 301.048 233.702 301.048H232.622V300.424H233.654C234.126 300.424 234.506 300.336 234.794 300.16C235.082 299.976 235.226 299.732 235.226 299.428C235.226 299.092 235.062 298.828 234.734 298.636C234.414 298.444 233.994 298.348 233.474 298.348C232.794 298.348 232.122 298.52 231.458 298.864L231.218 298.204C231.97 297.812 232.75 297.616 233.558 297.616C234.038 297.616 234.47 297.688 234.854 297.832C235.246 297.968 235.55 298.164 235.766 298.42C235.99 298.676 236.102 298.972 236.102 299.308C236.102 299.628 235.99 299.912 235.766 300.16C235.55 300.408 235.254 300.592 234.878 300.712ZM241.66 299.896C242.436 299.896 243.028 300.072 243.436 300.424C243.844 300.776 244.048 301.272 244.048 301.912C244.048 302.592 243.828 303.112 243.388 303.472C242.948 303.824 242.316 304 241.492 304H238.996V298.444H237.028V297.688H239.848V299.896H241.66ZM241.48 303.34C242.04 303.34 242.464 303.22 242.752 302.98C243.04 302.74 243.184 302.384 243.184 301.912C243.184 301 242.616 300.544 241.48 300.544H239.848V303.34H241.48ZM250.048 297.688V304H249.268V301.912H247.288H247.048L245.584 304H244.66L246.232 301.792C245.744 301.656 245.368 301.424 245.104 301.096C244.84 300.768 244.708 300.352 244.708 299.848C244.708 299.144 244.948 298.608 245.428 298.24C245.908 297.872 246.564 297.688 247.396 297.688H250.048ZM245.572 299.872C245.572 300.808 246.168 301.276 247.36 301.276H249.268V298.444H247.42C246.188 298.444 245.572 298.92 245.572 299.872ZM256.918 298.444H254.53V304H253.678V298.444H251.29V297.688H256.918V298.444ZM258.15 297.688H259.002V302.704L263.214 297.688H263.97V304H263.118V298.984L258.918 304H258.15V297.688ZM271.259 297.688V304H270.479V301.912H268.499H268.259L266.795 304H265.871L267.443 301.792C266.955 301.656 266.579 301.424 266.315 301.096C266.051 300.768 265.919 300.352 265.919 299.848C265.919 299.144 266.159 298.608 266.639 298.24C267.119 297.872 267.775 297.688 268.607 297.688H271.259ZM266.783 299.872C266.783 300.808 267.379 301.276 268.571 301.276H270.479V298.444H268.631C267.399 298.444 266.783 298.92 266.783 299.872ZM279.469 304.06C278.845 304.06 278.285 303.924 277.789 303.652C277.301 303.38 276.917 303 276.637 302.512C276.357 302.016 276.217 301.46 276.217 300.844C276.217 300.228 276.357 299.676 276.637 299.188C276.917 298.7 277.301 298.32 277.789 298.048C278.285 297.776 278.845 297.64 279.469 297.64C280.013 297.64 280.497 297.748 280.921 297.964C281.353 298.172 281.693 298.48 281.941 298.888L281.305 299.32C281.097 299.008 280.833 298.776 280.513 298.624C280.193 298.464 279.845 298.384 279.469 298.384C279.013 298.384 278.601 298.488 278.233 298.696C277.873 298.896 277.589 299.184 277.381 299.56C277.181 299.936 277.081 300.364 277.081 300.844C277.081 301.332 277.181 301.764 277.381 302.14C277.589 302.508 277.873 302.796 278.233 303.004C278.601 303.204 279.013 303.304 279.469 303.304C279.845 303.304 280.193 303.228 280.513 303.076C280.833 302.924 281.097 302.692 281.305 302.38L281.941 302.812C281.693 303.22 281.353 303.532 280.921 303.748C280.489 303.956 280.005 304.06 279.469 304.06ZM286.843 297.64C287.435 297.64 287.971 297.776 288.451 298.048C288.931 298.312 289.307 298.688 289.579 299.176C289.851 299.664 289.987 300.22 289.987 300.844C289.987 301.476 289.851 302.036 289.579 302.524C289.307 303.012 288.931 303.392 288.451 303.664C287.979 303.928 287.443 304.06 286.843 304.06C286.331 304.06 285.867 303.956 285.451 303.748C285.043 303.532 284.707 303.22 284.443 302.812V306.328H283.591V297.688H284.407V298.936C284.663 298.52 284.999 298.2 285.415 297.976C285.839 297.752 286.315 297.64 286.843 297.64ZM286.783 303.304C287.223 303.304 287.623 303.204 287.983 303.004C288.343 302.796 288.623 302.504 288.823 302.128C289.031 301.752 289.135 301.324 289.135 300.844C289.135 300.364 289.031 299.94 288.823 299.572C288.623 299.196 288.343 298.904 287.983 298.696C287.623 298.488 287.223 298.384 286.783 298.384C286.335 298.384 285.931 298.488 285.571 298.696C285.219 298.904 284.939 299.196 284.731 299.572C284.531 299.94 284.431 300.364 284.431 300.844C284.431 301.324 284.531 301.752 284.731 302.128C284.939 302.504 285.219 302.796 285.571 303.004C285.931 303.204 286.335 303.304 286.783 303.304ZM297.337 301.108H292.057C292.105 301.764 292.357 302.296 292.813 302.704C293.269 303.104 293.845 303.304 294.541 303.304C294.933 303.304 295.293 303.236 295.621 303.1C295.949 302.956 296.233 302.748 296.473 302.476L296.953 303.028C296.673 303.364 296.321 303.62 295.897 303.796C295.481 303.972 295.021 304.06 294.517 304.06C293.869 304.06 293.293 303.924 292.789 303.652C292.293 303.372 291.905 302.988 291.625 302.5C291.345 302.012 291.205 301.46 291.205 300.844C291.205 300.228 291.337 299.676 291.601 299.188C291.873 298.7 292.241 298.32 292.705 298.048C293.177 297.776 293.705 297.64 294.289 297.64C294.873 297.64 295.397 297.776 295.861 298.048C296.325 298.32 296.689 298.7 296.953 299.188C297.217 299.668 297.349 300.22 297.349 300.844L297.337 301.108ZM294.289 298.372C293.681 298.372 293.169 298.568 292.753 298.96C292.345 299.344 292.113 299.848 292.057 300.472H296.533C296.477 299.848 296.241 299.344 295.825 298.96C295.417 298.568 294.905 298.372 294.289 298.372ZM305.263 303.256V305.524H304.459V304H298.807V305.524H298.003V303.256H298.363C298.787 303.232 299.075 302.92 299.227 302.32C299.379 301.72 299.483 300.88 299.539 299.8L299.623 297.688H304.279V303.256H305.263ZM300.319 299.848C300.279 300.744 300.203 301.484 300.091 302.068C299.979 302.644 299.779 303.04 299.491 303.256H303.427V298.444H300.391L300.319 299.848ZM309.563 304.06C308.939 304.06 308.379 303.924 307.883 303.652C307.395 303.38 307.011 303 306.731 302.512C306.451 302.016 306.311 301.46 306.311 300.844C306.311 300.228 306.451 299.676 306.731 299.188C307.011 298.7 307.395 298.32 307.883 298.048C308.379 297.776 308.939 297.64 309.563 297.64C310.107 297.64 310.591 297.748 311.015 297.964C311.447 298.172 311.787 298.48 312.035 298.888L311.399 299.32C311.191 299.008 310.927 298.776 310.607 298.624C310.287 298.464 309.939 298.384 309.563 298.384C309.107 298.384 308.695 298.488 308.327 298.696C307.967 298.896 307.683 299.184 307.475 299.56C307.275 299.936 307.175 300.364 307.175 300.844C307.175 301.332 307.275 301.764 307.475 302.14C307.683 302.508 307.967 302.796 308.327 303.004C308.695 303.204 309.107 303.304 309.563 303.304C309.939 303.304 310.287 303.228 310.607 303.076C310.927 302.924 311.191 302.692 311.399 302.38L312.035 302.812C311.787 303.22 311.447 303.532 311.015 303.748C310.583 303.956 310.099 304.06 309.563 304.06ZM318.007 298.444H315.619V304H314.767V298.444H312.379V297.688H318.007V298.444ZM323.259 300.736C324.115 300.936 324.543 301.452 324.543 302.284C324.543 302.836 324.339 303.26 323.931 303.556C323.523 303.852 322.915 304 322.107 304H319.239V297.688H322.023C322.743 297.688 323.307 297.828 323.715 298.108C324.123 298.388 324.327 298.788 324.327 299.308C324.327 299.652 324.231 299.948 324.039 300.196C323.855 300.436 323.595 300.616 323.259 300.736ZM320.067 300.496H321.963C322.451 300.496 322.823 300.404 323.079 300.22C323.343 300.036 323.475 299.768 323.475 299.416C323.475 299.064 323.343 298.8 323.079 298.624C322.823 298.448 322.451 298.36 321.963 298.36H320.067V300.496ZM322.071 303.328C322.615 303.328 323.023 303.24 323.295 303.064C323.567 302.888 323.703 302.612 323.703 302.236C323.703 301.86 323.579 301.584 323.331 301.408C323.083 301.224 322.691 301.132 322.155 301.132H320.067V303.328H322.071ZM325.808 306.328C326.28 305.52 326.628 304.656 326.852 303.736C327.076 302.808 327.188 301.8 327.188 300.712C327.188 299.624 327.076 298.62 326.852 297.7C326.628 296.772 326.28 295.904 325.808 295.096H326.624C327.072 295.816 327.416 296.66 327.656 297.628C327.904 298.588 328.028 299.616 328.028 300.712C328.028 301.808 327.908 302.836 327.668 303.796C327.428 304.756 327.08 305.6 326.624 306.328H325.808Z" fill="white"></path> </svg> 