<?xml version="1.0" encoding="UTF-8"?> <svg xmlns="http://www.w3.org/2000/svg" width="73" height="43" viewBox="0 0 73 43" fill="none"> <path fill-rule="evenodd" clip-rule="evenodd" d="M57.0235 0.204368C56.5011 0.614964 56.4438 0.950225 56.4442 3.58929C56.4445 5.83746 56.4644 6.09552 56.6665 6.46732C56.7885 6.69195 57.0258 6.93529 57.1938 7.00801C57.6551 7.20757 58.3233 7.06176 58.6554 6.68896L58.944 6.36505V3.55125V0.737569L58.5811 0.373621C58.1616 -0.0470774 57.4427 -0.12528 57.0235 0.204368ZM50.6654 2.84393C50.1665 3.12805 49.8392 3.83974 49.947 4.40574C50.0421 4.90539 52.8547 8.17394 53.4272 8.45008C53.9125 8.68419 54.3581 8.56782 54.7773 8.09723C55.1556 7.67267 55.2271 6.98418 54.9541 6.39561C54.7509 5.95769 51.8451 2.75413 51.6489 2.75188C51.5664 2.75101 51.3988 2.72145 51.2765 2.68628C51.1543 2.65123 50.8793 2.72207 50.6654 2.84393ZM63.7017 2.83058C63.1869 3.11546 60.3707 6.42629 60.3025 6.82666C60.2332 7.23426 60.3784 7.82845 60.621 8.12929C60.8724 8.4411 61.5044 8.65712 61.8669 8.5551C62.2004 8.46131 65.1435 5.26859 65.3983 4.72429C65.7292 4.0171 65.4712 3.16397 64.8217 2.81799C64.3763 2.58088 64.1483 2.58338 63.7017 2.83058ZM56.8327 8.78272C56.0865 9.06011 55.7111 9.33052 55.2425 9.92807C54.4257 10.9695 54.4436 10.7683 54.4436 18.9277C54.4436 22.9286 54.4152 26.202 54.3805 26.202C54.346 26.202 54.1563 26.0639 53.9592 25.8952C53.762 25.7264 53.3029 25.4317 52.9387 25.2403C52.34 24.9257 52.1598 24.8924 51.0543 24.8924C49.9175 24.8924 49.7809 24.9194 49.1044 25.2794C48.1568 25.7834 47.5802 26.3639 47.2596 27.1365C46.9327 27.9243 46.9123 29.0331 47.211 29.7714C47.3252 30.0537 48.5687 32.2146 49.9742 34.5733C52.6865 39.1249 53.3518 40.0283 54.8033 41.1303C55.5997 41.735 56.9939 42.4413 58.0195 42.7596C59.0515 43.0798 64.2803 43.0803 65.3116 42.7601C68.5873 41.7435 71.0228 39.3702 72.3307 35.9203C72.9318 34.3351 73.0012 33.6213 73 29.0447C72.999 24.9356 72.9962 24.8859 72.7355 24.2687C72.4063 23.4893 71.7785 22.8061 71.0564 22.4413C70.6277 22.2245 70.3068 22.1626 69.6511 22.1699C68.8608 22.1787 68.793 22.1586 68.6812 21.8835C68.4549 21.3261 67.6621 20.4929 67.0812 20.2021C66.4214 19.8718 65.1317 19.8031 64.6884 20.0745C64.4572 20.2162 64.3878 20.1866 63.9797 19.7728C63.3069 19.0906 62.6351 18.7925 61.7559 18.7862L61.0118 18.7808L60.978 15.0391C60.9452 11.4136 60.9364 11.2807 60.6894 10.7616C60.0805 9.48156 59.1172 8.7589 57.8943 8.66486C57.5549 8.63879 57.0772 8.6918 56.8327 8.78272ZM48.3422 10.1506C47.356 10.5385 47.2193 12.1525 48.1279 12.6799C48.5926 12.9497 52.9615 12.9343 53.3082 12.6617C54.1642 11.9888 54.0168 10.6181 53.0394 10.1597C52.5641 9.9368 48.9038 9.9297 48.3422 10.1506ZM62.4445 10.1278C61.4709 10.5635 61.278 11.8981 62.0855 12.6112C62.3415 12.8372 62.5449 12.8564 64.6874 12.8564C67.2113 12.8564 67.4794 12.7971 67.7763 12.1745C68.1428 11.4059 67.8181 10.4326 67.1011 10.1506C66.6339 9.96686 62.8456 9.94828 62.4445 10.1278Z" fill="white" fill-opacity="0.3"></path> <path fill-rule="evenodd" clip-rule="evenodd" d="M34.5656 0.204368C33.9628 0.614964 33.8967 0.950225 33.8972 3.58929C33.8976 5.83746 33.9205 6.09552 34.1536 6.46732C34.2944 6.69195 34.5683 6.93529 34.7621 7.00801C35.2944 7.20757 36.0653 7.06176 36.4486 6.68896L36.7816 6.36505V3.55125V0.737569L36.3628 0.373621C35.8788 -0.0470774 35.0492 -0.12528 34.5656 0.204368ZM27.2293 2.84393C26.6537 3.12805 26.276 3.83974 26.4003 4.40574C26.5101 4.90539 29.7554 8.17394 30.416 8.45008C30.976 8.68419 31.4901 8.56782 31.9738 8.09723C32.4103 7.67267 32.4928 6.98418 32.1778 6.39561C31.9434 5.95769 28.5904 2.75413 28.3641 2.75188C28.2689 2.75101 28.0755 2.72145 27.9345 2.68628C27.7934 2.65123 27.4761 2.72207 27.2293 2.84393ZM42.2711 2.83058C41.6772 3.11546 38.4278 6.42629 38.3491 6.82666C38.269 7.23426 38.4366 7.82845 38.7165 8.12929C39.0066 8.4411 39.7359 8.65712 40.1541 8.5551C40.5389 8.46131 43.9348 5.26859 44.2288 4.72429C44.6106 4.0171 44.3129 3.16397 43.5635 2.81799C43.0496 2.58088 42.7865 2.58338 42.2711 2.83058ZM34.3454 8.78272C33.4844 9.06011 33.0513 9.33052 32.5106 9.92807C31.5681 10.9695 31.5887 10.7683 31.5887 18.9277C31.5887 22.9286 31.556 26.202 31.516 26.202C31.4761 26.202 31.2573 26.0639 31.0298 25.8952C30.8023 25.7264 30.2725 25.4317 29.8524 25.2403C29.1615 24.9257 28.9536 24.8924 27.678 24.8924C26.3664 24.8924 26.2088 24.9194 25.4282 25.2794C24.3347 25.7834 23.6694 26.3639 23.2995 27.1365C22.9224 27.9243 22.8988 29.0331 23.2435 29.7714C23.3753 30.0537 24.81 32.2146 26.4318 34.5733C29.5613 39.1249 30.329 40.0283 32.0038 41.1303C32.9227 41.735 34.5315 42.4413 35.7148 42.7596C36.9056 43.0798 42.9388 43.0803 44.1288 42.7601C47.9084 41.7435 50.7186 39.3702 52.2277 35.9203C52.9213 34.3351 53.0014 33.6213 53 29.0447C52.9988 24.9356 52.9956 24.8859 52.6948 24.2687C52.3149 23.4893 51.5906 22.8061 50.7574 22.4413C50.2628 22.2245 49.8925 22.1626 49.1359 22.1699C48.224 22.1787 48.1457 22.1586 48.0168 21.8835C47.7557 21.3261 46.8409 20.4929 46.1707 20.2021C45.4093 19.8718 43.9212 19.8031 43.4097 20.0745C43.1429 20.2162 43.0629 20.1866 42.5919 19.7728C41.8157 19.0906 41.0405 18.7925 40.026 18.7862L39.1675 18.7808L39.1285 15.0391C39.0907 11.4136 39.0804 11.2807 38.7955 10.7616C38.0929 9.48156 36.9813 8.7589 35.5703 8.66486C35.1787 8.63879 34.6275 8.6918 34.3454 8.78272ZM24.5487 10.1506C23.4108 10.5385 23.2531 12.1525 24.3014 12.6799C24.8376 12.9497 29.8787 12.9343 30.2787 12.6617C31.2664 11.9888 31.0964 10.6181 29.9685 10.1597C29.4202 9.9368 25.1967 9.9297 24.5487 10.1506ZM40.8206 10.1278C39.6971 10.5635 39.4746 11.8981 40.4063 12.6112C40.7017 12.8372 40.9364 12.8564 43.4086 12.8564C46.3207 12.8564 46.6301 12.7971 46.9727 12.1745C47.3955 11.4059 47.0209 10.4326 46.1936 10.1506C45.6545 9.96686 41.2833 9.94828 40.8206 10.1278Z" fill="#9A9D9F"></path> <path fill-rule="evenodd" clip-rule="evenodd" d="M11.1801 0.204368C10.5974 0.614964 10.5334 0.950225 10.5339 3.58929C10.5343 5.83746 10.5565 6.09552 10.7818 6.46732C10.9179 6.69195 11.1827 6.93529 11.3701 7.00801C11.8846 7.20757 12.6298 7.06176 13.0003 6.68896L13.3222 6.36505V3.55125V0.737569L12.9174 0.373621C12.4495 -0.0470774 11.6476 -0.12528 11.1801 0.204368ZM4.0883 2.84393C3.53191 3.12805 3.16677 3.83974 3.28699 4.40574C3.39309 4.90539 6.53026 8.17394 7.16882 8.45008C7.71009 8.68419 8.20711 8.56782 8.67463 8.09723C9.09666 7.67267 9.17636 6.98418 8.87183 6.39561C8.64525 5.95769 5.4041 2.75413 5.18534 2.75188C5.09324 2.75101 4.90633 2.72145 4.76999 2.68628C4.63365 2.65123 4.32689 2.72207 4.0883 2.84393ZM18.6288 2.83058C18.0547 3.11546 14.9135 6.42629 14.8374 6.82666C14.7601 7.23426 14.9221 7.82845 15.1926 8.12929C15.473 8.4411 16.178 8.65712 16.5823 8.5551C16.9543 8.46131 20.237 5.26859 20.5212 4.72429C20.8903 4.0171 20.6025 3.16397 19.878 2.81799C19.3812 2.58088 19.1269 2.58338 18.6288 2.83058ZM10.9672 8.78272C10.1349 9.06011 9.71626 9.33052 9.19359 9.92807C8.28247 10.9695 8.30242 10.7683 8.30242 18.9277C8.30242 22.9286 8.27082 26.202 8.23215 26.202C8.1936 26.202 7.98203 26.0639 7.76215 25.8952C7.54227 25.7264 7.03013 25.4317 6.62396 25.2403C5.95615 24.9257 5.75511 24.8924 4.5221 24.8924C3.25415 24.8924 3.10182 24.9194 2.34724 25.2794C1.29024 25.7834 0.647091 26.3639 0.28951 27.1365C-0.0750123 27.9243 -0.0978177 29.0331 0.235346 29.7714C0.362762 30.0537 1.7497 32.2146 3.31736 34.5733C6.34261 39.1249 7.08466 40.0283 8.70363 41.1303C9.59195 41.735 11.1471 42.4413 12.291 42.7596C13.442 43.0798 19.2742 43.0803 20.4245 42.7601C24.0781 41.7435 26.7946 39.3702 28.2535 35.9203C28.9239 34.3351 29.0013 33.6213 29 29.0447C28.9989 24.9356 28.9958 24.8859 28.705 24.2687C28.3377 23.4893 27.6376 22.8061 26.8322 22.4413C26.354 22.2245 25.9961 22.1626 25.2647 22.1699C24.3832 22.1787 24.3076 22.1586 24.1829 21.8835C23.9305 21.3261 23.0462 20.4929 22.3983 20.2021C21.6623 19.8718 20.2238 19.8031 19.7294 20.0745C19.4715 20.2162 19.3941 20.1866 18.9389 19.7728C18.1885 19.0906 17.4391 18.7925 16.4585 18.7862L15.6286 18.7808L15.5909 15.0391C15.5543 11.4136 15.5444 11.2807 15.269 10.7616C14.5898 9.48156 13.5153 8.7589 12.1513 8.66486C11.7728 8.63879 11.2399 8.6918 10.9672 8.78272ZM1.4971 10.1506C0.397093 10.5385 0.244641 12.1525 1.25801 12.6799C1.77635 12.9497 6.64937 12.9343 7.03608 12.6617C7.99083 11.9888 7.82648 10.6181 6.73626 10.1597C6.20615 9.9368 2.12352 9.9297 1.4971 10.1506ZM17.2266 10.1278C16.1406 10.5635 15.9254 11.8981 16.8261 12.6112C17.1117 12.8372 17.3385 12.8564 19.7283 12.8564C22.5433 12.8564 22.8424 12.7971 23.1736 12.1745C23.5824 11.4059 23.2202 10.4326 22.4205 10.1506C21.8993 9.96686 17.6739 9.94828 17.2266 10.1278Z" fill="white"></path> </svg> 