<?xml version="1.0" encoding="UTF-8"?> <svg xmlns="http://www.w3.org/2000/svg" width="300" height="420" viewBox="0 0 300 420" fill="none"> <path d="M285.004 130.375H14.996C6.92105 130.375 0.375 136.921 0.375 144.996V225.004C0.375 233.079 6.92105 239.625 14.996 239.625H285.004C293.079 239.625 299.625 233.079 299.625 225.004V144.996C299.625 136.921 293.079 130.375 285.004 130.375Z" fill="black" fill-opacity="0.14"></path> <path d="M285.004 130.375H14.996C6.92105 130.375 0.375 136.921 0.375 144.996V225.004C0.375 233.079 6.92105 239.625 14.996 239.625H285.004C293.079 239.625 299.625 233.079 299.625 225.004V144.996C299.625 136.921 293.079 130.375 285.004 130.375Z" stroke="white" stroke-width="0.749797"></path> <path d="M285.004 275.375H14.996C6.92105 275.375 0.375 281.921 0.375 289.996V370.004C0.375 378.079 6.92105 384.625 14.996 384.625H285.004C293.079 384.625 299.625 378.079 299.625 370.004V289.996C299.625 281.921 293.079 275.375 285.004 275.375Z" fill="black" fill-opacity="0.14"></path> <path d="M285.004 275.375H14.996C6.92105 275.375 0.375 281.921 0.375 289.996V370.004C0.375 378.079 6.92105 384.625 14.996 384.625H285.004C293.079 384.625 299.625 378.079 299.625 370.004V289.996C299.625 281.921 293.079 275.375 285.004 275.375Z" stroke="white" stroke-width="0.749797"></path> <path d="M285.004 0.375H14.996C6.92105 0.375 0.375 6.92105 0.375 14.996V95.004C0.375 103.079 6.92105 109.625 14.996 109.625H285.004C293.079 109.625 299.625 103.079 299.625 95.004V14.996C299.625 6.92105 293.079 0.375 285.004 0.375Z" fill="black" fill-opacity="0.14"></path> <path d="M285.004 0.375H14.996C6.92105 0.375 0.375 6.92105 0.375 14.996V95.004C0.375 103.079 6.92105 109.625 14.996 109.625H285.004C293.079 109.625 299.625 103.079 299.625 95.004V14.996C299.625 6.92105 293.079 0.375 285.004 0.375Z" stroke="white" stroke-width="0.749797"></path> <path d="M25.9365 28.084C24.9658 28.084 24.0885 27.8693 23.3045 27.44C22.5298 27.0107 21.9185 26.418 21.4705 25.662C21.0318 24.8967 20.8125 24.0427 20.8125 23.1C20.8125 22.1573 21.0318 21.308 21.4705 20.552C21.9185 19.7867 22.5345 19.1893 23.3185 18.76C24.1025 18.3307 24.9798 18.116 25.9505 18.116C26.6785 18.116 27.3505 18.2373 27.9665 18.48C28.5825 18.7227 29.1052 19.0773 29.5345 19.544L28.8765 20.202C28.1112 19.4273 27.1452 19.04 25.9785 19.04C25.2038 19.04 24.4992 19.2173 23.8645 19.572C23.2298 19.9267 22.7305 20.412 22.3665 21.028C22.0118 21.644 21.8345 22.3347 21.8345 23.1C21.8345 23.8653 22.0118 24.556 22.3665 25.172C22.7305 25.788 23.2298 26.2733 23.8645 26.628C24.4992 26.9827 25.2038 27.16 25.9785 27.16C27.1545 27.16 28.1205 26.768 28.8765 25.984L29.5345 26.642C29.1052 27.1087 28.5778 27.468 27.9525 27.72C27.3365 27.9627 26.6645 28.084 25.9365 28.084ZM37.694 20.636L34.012 28.882C33.7133 29.5727 33.368 30.0627 32.976 30.352C32.584 30.6413 32.1127 30.786 31.562 30.786C31.2073 30.786 30.876 30.73 30.568 30.618C30.26 30.506 29.994 30.338 29.77 30.114L30.232 29.372C30.6053 29.7453 31.0533 29.932 31.576 29.932C31.912 29.932 32.1967 29.8387 32.43 29.652C32.6727 29.4653 32.8967 29.148 33.102 28.7L33.424 27.986L30.134 20.636H31.17L33.942 26.894L36.714 20.636H37.694ZM47.4746 20.636V28H46.5646V22.176L43.5826 27.104H43.1346L40.1526 22.162V28H39.2426V20.636H40.2506L43.3726 25.942L46.5506 20.636H47.4746ZM58.5352 20.636V28H57.6252V22.176L54.6432 27.104H54.1952L51.2132 22.162V28H50.3032V20.636H51.3112L54.4332 25.942L57.6112 20.636H58.5352ZM63.8977 20.58C64.8591 20.58 65.5964 20.8227 66.1097 21.308C66.6231 21.784 66.8797 22.4933 66.8797 23.436V28H65.9277V26.852C65.7037 27.2347 65.3724 27.5333 64.9337 27.748C64.5044 27.9627 63.9911 28.07 63.3937 28.07C62.5724 28.07 61.9191 27.874 61.4337 27.482C60.9484 27.09 60.7057 26.572 60.7057 25.928C60.7057 25.3027 60.9297 24.7987 61.3777 24.416C61.8351 24.0333 62.5584 23.842 63.5477 23.842H65.8857V23.394C65.8857 22.7593 65.7084 22.2787 65.3537 21.952C64.9991 21.616 64.4811 21.448 63.7997 21.448C63.3331 21.448 62.8851 21.5273 62.4557 21.686C62.0264 21.8353 61.6577 22.0453 61.3497 22.316L60.9017 21.574C61.2751 21.2567 61.7231 21.014 62.2457 20.846C62.7684 20.6687 63.3191 20.58 63.8977 20.58ZM63.5477 27.286C64.1077 27.286 64.5884 27.16 64.9897 26.908C65.3911 26.6467 65.6897 26.2733 65.8857 25.788V24.584H63.5757C62.3157 24.584 61.6857 25.0227 61.6857 25.9C61.6857 26.3293 61.8491 26.67 62.1757 26.922C62.5024 27.1647 62.9597 27.286 63.5477 27.286ZM79.6299 24.626H73.4699C73.5259 25.3913 73.8199 26.012 74.3519 26.488C74.8839 26.9547 75.5559 27.188 76.3679 27.188C76.8252 27.188 77.2452 27.1087 77.6279 26.95C78.0106 26.782 78.3419 26.5393 78.6219 26.222L79.1819 26.866C78.8552 27.258 78.4446 27.5567 77.9499 27.762C77.4646 27.9673 76.9279 28.07 76.3399 28.07C75.5839 28.07 74.9119 27.9113 74.3239 27.594C73.7452 27.2673 73.2926 26.8193 72.9659 26.25C72.6392 25.6807 72.4759 25.0367 72.4759 24.318C72.4759 23.5993 72.6299 22.9553 72.9379 22.386C73.2552 21.8167 73.6846 21.3733 74.2259 21.056C74.7766 20.7387 75.3926 20.58 76.0739 20.58C76.7552 20.58 77.3666 20.7387 77.9079 21.056C78.4492 21.3733 78.8739 21.8167 79.1819 22.386C79.4899 22.946 79.6439 23.59 79.6439 24.318L79.6299 24.626ZM76.0739 21.434C75.3646 21.434 74.7672 21.6627 74.2819 22.12C73.8059 22.568 73.5352 23.156 73.4699 23.884H78.6919C78.6266 23.156 78.3512 22.568 77.8659 22.12C77.3899 21.6627 76.7926 21.434 76.0739 21.434ZM88.0931 24.724H86.4971V28H85.5031V24.724H83.9071L81.6531 28H80.4631L83.1091 24.206L80.6731 20.636H81.7511L83.9071 23.87H85.5031V20.636H86.4971V23.87H88.0931L90.2631 20.636H91.3411L88.9051 24.22L91.5511 28H90.3611L88.0931 24.724ZM99.3858 24.626H93.2258C93.2818 25.3913 93.5758 26.012 94.1078 26.488C94.6398 26.9547 95.3118 27.188 96.1238 27.188C96.5811 27.188 97.0011 27.1087 97.3838 26.95C97.7664 26.782 98.0978 26.5393 98.3778 26.222L98.9378 26.866C98.6111 27.258 98.2004 27.5567 97.7058 27.762C97.2204 27.9673 96.6838 28.07 96.0958 28.07C95.3398 28.07 94.6678 27.9113 94.0798 27.594C93.5011 27.2673 93.0484 26.8193 92.7218 26.25C92.3951 25.6807 92.2318 25.0367 92.2318 24.318C92.2318 23.5993 92.3858 22.9553 92.6938 22.386C93.0111 21.8167 93.4404 21.3733 93.9818 21.056C94.5324 20.7387 95.1484 20.58 95.8298 20.58C96.5111 20.58 97.1224 20.7387 97.6638 21.056C98.2051 21.3733 98.6298 21.8167 98.9378 22.386C99.2458 22.946 99.3998 23.59 99.3998 24.318L99.3858 24.626ZM95.8298 21.434C95.1204 21.434 94.5231 21.6627 94.0378 22.12C93.5618 22.568 93.2911 23.156 93.2258 23.884H98.4478C98.3824 23.156 98.1071 22.568 97.6218 22.12C97.1458 21.6627 96.5484 21.434 95.8298 21.434ZM109.833 20.636V28H108.923V22.176L105.941 27.104H105.492L102.51 22.162V28H101.6V20.636H102.609L105.73 25.942L108.908 20.636H109.833ZM119.1 24.626H112.941C112.997 25.3913 113.29 26.012 113.822 26.488C114.354 26.9547 115.027 27.188 115.839 27.188C116.296 27.188 116.715 27.1087 117.098 26.95C117.481 26.782 117.812 26.5393 118.092 26.222L118.652 26.866C118.325 27.258 117.916 27.5567 117.421 27.762C116.936 27.9673 116.399 28.07 115.811 28.07C115.055 28.07 114.382 27.9113 113.794 27.594C113.215 27.2673 112.763 26.8193 112.436 26.25C112.109 25.6807 111.947 25.0367 111.947 24.318C111.947 23.5993 112.1 22.9553 112.408 22.386C112.725 21.8167 113.156 21.3733 113.697 21.056C114.248 20.7387 114.863 20.58 115.544 20.58C116.225 20.58 116.837 20.7387 117.378 21.056C117.919 21.3733 118.344 21.8167 118.652 22.386C118.96 22.946 119.115 23.59 119.115 24.318L119.1 24.626ZM115.544 21.434C114.835 21.434 114.238 21.6627 113.753 22.12C113.277 22.568 113.006 23.156 112.941 23.884H118.163C118.098 23.156 117.822 22.568 117.337 22.12C116.861 21.6627 116.263 21.434 115.544 21.434ZM124.395 28.07C123.667 28.07 123.013 27.9113 122.434 27.594C121.865 27.2767 121.417 26.8333 121.09 26.264C120.764 25.6853 120.6 25.0367 120.6 24.318C120.6 23.5993 120.764 22.9553 121.09 22.386C121.417 21.8167 121.865 21.3733 122.434 21.056C123.013 20.7387 123.667 20.58 124.395 20.58C125.03 20.58 125.595 20.706 126.089 20.958C126.593 21.2007 126.99 21.56 127.279 22.036L126.536 22.54C126.294 22.176 125.987 21.9053 125.613 21.728C125.24 21.5413 124.834 21.448 124.395 21.448C123.863 21.448 123.382 21.5693 122.952 21.812C122.532 22.0453 122.201 22.3813 121.958 22.82C121.725 23.2587 121.609 23.758 121.609 24.318C121.609 24.8873 121.725 25.3913 121.958 25.83C122.201 26.2593 122.532 26.5953 122.952 26.838C123.382 27.0713 123.863 27.188 124.395 27.188C124.834 27.188 125.24 27.0993 125.613 26.922C125.987 26.7447 126.294 26.474 126.536 26.11L127.279 26.614C126.99 27.09 126.593 27.454 126.089 27.706C125.585 27.9487 125.021 28.07 124.395 28.07ZM134.614 20.636V28H133.704V25.564H131.394H131.114L129.406 28H128.327L130.161 25.424C129.592 25.2653 129.154 24.9947 128.846 24.612C128.538 24.2293 128.383 23.744 128.383 23.156C128.383 22.3347 128.664 21.7093 129.224 21.28C129.784 20.8507 130.549 20.636 131.52 20.636H134.614ZM129.392 23.184C129.392 24.276 130.087 24.822 131.478 24.822H133.704V21.518H131.548C130.111 21.518 129.392 22.0733 129.392 23.184ZM143.006 20.636V28H142.012V24.934C141.163 25.3073 140.328 25.494 139.506 25.494C138.62 25.494 137.929 25.2933 137.434 24.892C136.94 24.4813 136.691 23.87 136.691 23.058V20.636H137.686V23.002C137.686 23.5527 137.863 23.9727 138.217 24.262C138.572 24.542 139.062 24.682 139.688 24.682C140.378 24.682 141.154 24.5 142.012 24.136V20.636H143.006ZM145.829 20.636H146.823V23.898H151.456V20.636H152.451V28H151.456V24.752H146.823V28H145.829V20.636ZM158.37 23.24C159.294 23.2493 159.999 23.4547 160.484 23.856C160.97 24.2573 161.212 24.836 161.212 25.592C161.212 26.376 160.951 26.978 160.428 27.398C159.906 27.818 159.159 28.0233 158.188 28.014L155.275 28V20.636H156.27V23.212L158.37 23.24ZM162.443 20.636H163.438V28H162.443V20.636ZM158.132 27.258C158.814 27.2673 159.327 27.132 159.672 26.852C160.027 26.5627 160.204 26.1427 160.204 25.592C160.204 25.0507 160.032 24.6493 159.686 24.388C159.341 24.1267 158.823 23.9913 158.132 23.982L156.27 23.954V27.23L158.132 27.258ZM170.874 28L168.536 24.92L166.185 28H165.064L167.977 24.22L165.204 20.636H166.325L168.536 23.52L170.749 20.636H171.84L169.068 24.22L172.008 28H170.874ZM177.301 20.636H178.296V26.488L183.21 20.636H184.092V28H183.098V22.148L178.198 28H177.301V20.636ZM186.939 20.636H187.934V23.898H192.568V20.636H193.562V28H192.568V24.752H187.934V28H186.939V20.636ZM201.077 24.192C202.075 24.4253 202.576 25.0273 202.576 25.998C202.576 26.642 202.337 27.1367 201.861 27.482C201.385 27.8273 200.676 28 199.734 28H196.387V20.636H199.635C200.475 20.636 201.133 20.7993 201.609 21.126C202.085 21.4527 202.324 21.9193 202.324 22.526C202.324 22.9273 202.212 23.2727 201.988 23.562C201.773 23.842 201.469 24.052 201.077 24.192ZM197.354 23.912H199.566C200.135 23.912 200.569 23.8047 200.868 23.59C201.176 23.3753 201.329 23.0627 201.329 22.652C201.329 22.2413 201.176 21.9333 200.868 21.728C200.569 21.5227 200.135 21.42 199.566 21.42H197.354V23.912ZM199.691 27.216C200.325 27.216 200.802 27.1133 201.12 26.908C201.437 26.7027 201.596 26.3807 201.596 25.942C201.596 25.5033 201.45 25.1813 201.161 24.976C200.871 24.7613 200.415 24.654 199.79 24.654H197.354V27.216H199.691ZM211.344 24.626H205.185C205.241 25.3913 205.534 26.012 206.066 26.488C206.598 26.9547 207.271 27.188 208.083 27.188C208.541 27.188 208.96 27.1087 209.342 26.95C209.725 26.782 210.057 26.5393 210.337 26.222L210.896 26.866C210.57 27.258 210.16 27.5567 209.665 27.762C209.18 27.9673 208.643 28.07 208.055 28.07C207.299 28.07 206.626 27.9113 206.038 27.594C205.46 27.2673 205.007 26.8193 204.68 26.25C204.354 25.6807 204.191 25.0367 204.191 24.318C204.191 23.5993 204.344 22.9553 204.652 22.386C204.97 21.8167 205.4 21.3733 205.941 21.056C206.492 20.7387 207.107 20.58 207.788 20.58C208.47 20.58 209.081 20.7387 209.622 21.056C210.164 21.3733 210.588 21.8167 210.896 22.386C211.204 22.946 211.359 23.59 211.359 24.318L211.344 24.626ZM207.788 21.434C207.079 21.434 206.483 21.6627 205.997 22.12C205.521 22.568 205.251 23.156 205.185 23.884H210.407C210.342 23.156 210.067 22.568 209.581 22.12C209.105 21.6627 208.507 21.434 207.788 21.434ZM216.64 28.07C215.912 28.07 215.258 27.9113 214.68 27.594C214.11 27.2767 213.662 26.8333 213.336 26.264C213.009 25.6853 212.846 25.0367 212.846 24.318C212.846 23.5993 213.009 22.9553 213.336 22.386C213.662 21.8167 214.11 21.3733 214.68 21.056C215.258 20.7387 215.912 20.58 216.64 20.58C217.274 20.58 217.838 20.706 218.333 20.958C218.837 21.2007 219.233 21.56 219.523 22.036L218.782 22.54C218.539 22.176 218.23 21.9053 217.857 21.728C217.483 21.5413 217.078 21.448 216.64 21.448C216.108 21.448 215.627 21.5693 215.198 21.812C214.778 22.0453 214.446 22.3813 214.204 22.82C213.97 23.2587 213.854 23.758 213.854 24.318C213.854 24.8873 213.97 25.3913 214.204 25.83C214.446 26.2593 214.778 26.5953 215.198 26.838C215.627 27.0713 216.108 27.188 216.64 27.188C217.078 27.188 217.483 27.0993 217.857 26.922C218.23 26.7447 218.539 26.474 218.782 26.11L219.523 26.614C219.233 27.09 218.837 27.454 218.333 27.706C217.829 27.9487 217.265 28.07 216.64 28.07ZM226.491 21.518H223.704V28H222.711V21.518H219.924V20.636H226.491V21.518ZM227.928 20.636H228.923V26.488L233.837 20.636H234.719V28H233.725V22.148L228.825 28H227.928V20.636ZM245.239 27.132V29.848H244.301V28H237.566V20.636H238.561V27.132H243.055V20.636H244.049V27.132H245.239ZM247.137 20.636H248.132V26.488L253.046 20.636H253.928V28H252.934V22.148L248.034 28H247.137V20.636ZM256.775 20.636H257.77V26.488L262.684 20.636H263.566V28H262.572V22.148L257.671 28H256.775V20.636ZM260.122 19.572C259.488 19.572 258.984 19.4133 258.61 19.096C258.237 18.7787 258.046 18.3307 258.036 17.752H258.749C258.759 18.116 258.889 18.41 259.141 18.634C259.393 18.8487 259.721 18.956 260.122 18.956C260.524 18.956 260.85 18.8487 261.102 18.634C261.364 18.41 261.498 18.116 261.507 17.752H262.222C262.213 18.3307 262.016 18.7787 261.633 19.096C261.26 19.4133 260.757 19.572 260.122 19.572ZM266.485 22.106C266.28 22.106 266.101 22.0313 265.952 21.882C265.812 21.7327 265.743 21.5507 265.743 21.336C265.743 21.1213 265.812 20.944 265.952 20.804C266.101 20.6547 266.28 20.58 266.485 20.58C266.69 20.58 266.867 20.6547 267.016 20.804C267.165 20.944 267.24 21.1213 267.24 21.336C267.24 21.5507 267.165 21.7327 267.016 21.882C266.867 22.0313 266.69 22.106 266.485 22.106ZM266.485 28.07C266.28 28.07 266.101 27.9953 265.952 27.846C265.812 27.6967 265.743 27.5147 265.743 27.3C265.743 27.0853 265.812 26.908 265.952 26.768C266.101 26.6187 266.28 26.544 266.485 26.544C266.69 26.544 266.867 26.6187 267.016 26.768C267.165 26.908 267.24 27.0853 267.24 27.3C267.24 27.5147 267.165 27.6967 267.016 27.846C266.867 27.9953 266.69 28.07 266.485 28.07Z" fill="white"></path> <path d="M25.8983 148.2V158H24.8763V149.096H18.6743V158H17.6523V148.2H25.8983ZM32.761 150.58C33.4517 150.58 34.077 150.739 34.637 151.056C35.197 151.364 35.6357 151.803 35.953 152.372C36.2704 152.941 36.429 153.59 36.429 154.318C36.429 155.055 36.2704 155.709 35.953 156.278C35.6357 156.847 35.197 157.291 34.637 157.608C34.0864 157.916 33.461 158.07 32.761 158.07C32.1637 158.07 31.6224 157.949 31.137 157.706C30.661 157.454 30.269 157.09 29.961 156.614V160.716H28.967V150.636H29.919V152.092C30.2177 151.607 30.6097 151.233 31.095 150.972C31.5897 150.711 32.145 150.58 32.761 150.58ZM32.691 157.188C33.2044 157.188 33.671 157.071 34.091 156.838C34.511 156.595 34.8377 156.255 35.071 155.816C35.3137 155.377 35.435 154.878 35.435 154.318C35.435 153.758 35.3137 153.263 35.071 152.834C34.8377 152.395 34.511 152.055 34.091 151.812C33.671 151.569 33.2044 151.448 32.691 151.448C32.1684 151.448 31.697 151.569 31.277 151.812C30.8664 152.055 30.5397 152.395 30.297 152.834C30.0637 153.263 29.947 153.758 29.947 154.318C29.947 154.878 30.0637 155.377 30.297 155.816C30.5397 156.255 30.8664 156.595 31.277 156.838C31.697 157.071 32.1684 157.188 32.691 157.188ZM41.6027 158.07C40.8934 158.07 40.254 157.911 39.6847 157.594C39.1154 157.267 38.6674 156.819 38.3407 156.25C38.014 155.681 37.8507 155.037 37.8507 154.318C37.8507 153.599 38.014 152.955 38.3407 152.386C38.6674 151.817 39.1154 151.373 39.6847 151.056C40.254 150.739 40.8934 150.58 41.6027 150.58C42.312 150.58 42.9514 150.739 43.5207 151.056C44.09 151.373 44.5334 151.817 44.8507 152.386C45.1774 152.955 45.3407 153.599 45.3407 154.318C45.3407 155.037 45.1774 155.681 44.8507 156.25C44.5334 156.819 44.09 157.267 43.5207 157.594C42.9514 157.911 42.312 158.07 41.6027 158.07ZM41.6027 157.188C42.1254 157.188 42.592 157.071 43.0027 156.838C43.4227 156.595 43.7494 156.255 43.9827 155.816C44.216 155.377 44.3327 154.878 44.3327 154.318C44.3327 153.758 44.216 153.259 43.9827 152.82C43.7494 152.381 43.4227 152.045 43.0027 151.812C42.592 151.569 42.1254 151.448 41.6027 151.448C41.08 151.448 40.6087 151.569 40.1887 151.812C39.778 152.045 39.4514 152.381 39.2087 152.82C38.9754 153.259 38.8587 153.758 38.8587 154.318C38.8587 154.878 38.9754 155.377 39.2087 155.816C39.4514 156.255 39.778 156.595 40.1887 156.838C40.6087 157.071 41.08 157.188 41.6027 157.188ZM55.1371 157.132V159.848H54.1991V158H47.4651V150.636H48.4591V157.132H52.9531V150.636H53.9471V157.132H55.1371ZM63.4754 154.626H57.3154C57.3714 155.391 57.6654 156.012 58.1974 156.488C58.7294 156.955 59.4014 157.188 60.2134 157.188C60.6707 157.188 61.0907 157.109 61.4734 156.95C61.8561 156.782 62.1874 156.539 62.4674 156.222L63.0274 156.866C62.7007 157.258 62.2901 157.557 61.7954 157.762C61.3101 157.967 60.7734 158.07 60.1854 158.07C59.4294 158.07 58.7574 157.911 58.1694 157.594C57.5907 157.267 57.1381 156.819 56.8114 156.25C56.4847 155.681 56.3214 155.037 56.3214 154.318C56.3214 153.599 56.4754 152.955 56.7834 152.386C57.1007 151.817 57.5301 151.373 58.0714 151.056C58.6221 150.739 59.2381 150.58 59.9194 150.58C60.6007 150.58 61.2121 150.739 61.7534 151.056C62.2947 151.373 62.7194 151.817 63.0274 152.386C63.3354 152.946 63.4894 153.59 63.4894 154.318L63.4754 154.626ZM59.9194 151.434C59.2101 151.434 58.6127 151.663 58.1274 152.12C57.6514 152.568 57.3807 153.156 57.3154 153.884H62.5374C62.4721 153.156 62.1967 152.568 61.7114 152.12C61.2354 151.663 60.6381 151.434 59.9194 151.434ZM65.6897 150.636H66.6837V153.898H71.3177V150.636H72.3117V158H71.3177V154.752H66.6837V158H65.6897V150.636ZM80.317 151.518H77.531V158H76.537V151.518H73.751V150.636H80.317V151.518ZM81.7541 150.636H82.7481V153.898H87.3821V150.636H88.3761V158H87.3821V154.752H82.7481V158H81.7541V150.636ZM93.7354 150.58C94.6967 150.58 95.4341 150.823 95.9474 151.308C96.4607 151.784 96.7174 152.493 96.7174 153.436V158H95.7654V156.852C95.5414 157.235 95.2101 157.533 94.7714 157.748C94.3421 157.963 93.8287 158.07 93.2314 158.07C92.4101 158.07 91.7567 157.874 91.2714 157.482C90.7861 157.09 90.5434 156.572 90.5434 155.928C90.5434 155.303 90.7674 154.799 91.2154 154.416C91.6727 154.033 92.3961 153.842 93.3854 153.842H95.7234V153.394C95.7234 152.759 95.5461 152.279 95.1914 151.952C94.8367 151.616 94.3187 151.448 93.6374 151.448C93.1707 151.448 92.7227 151.527 92.2934 151.686C91.8641 151.835 91.4954 152.045 91.1874 152.316L90.7394 151.574C91.1127 151.257 91.5607 151.014 92.0834 150.846C92.6061 150.669 93.1567 150.58 93.7354 150.58ZM93.3854 157.286C93.9454 157.286 94.4261 157.16 94.8274 156.908C95.2287 156.647 95.5274 156.273 95.7234 155.788V154.584H93.4134C92.1534 154.584 91.5234 155.023 91.5234 155.9C91.5234 156.329 91.6867 156.67 92.0134 156.922C92.3401 157.165 92.7974 157.286 93.3854 157.286ZM105.019 150.636V158H104.109V155.564H101.799H101.519L99.8115 158H98.7335L100.567 155.424C99.9982 155.265 99.5595 154.995 99.2515 154.612C98.9435 154.229 98.7895 153.744 98.7895 153.156C98.7895 152.335 99.0695 151.709 99.6295 151.28C100.189 150.851 100.955 150.636 101.925 150.636H105.019ZM99.7975 153.184C99.7975 154.276 100.493 154.822 101.883 154.822H104.109V151.518H101.953C100.516 151.518 99.7975 152.073 99.7975 153.184ZM114.598 158.07C113.87 158.07 113.216 157.911 112.638 157.594C112.068 157.277 111.62 156.833 111.294 156.264C110.967 155.685 110.804 155.037 110.804 154.318C110.804 153.599 110.967 152.955 111.294 152.386C111.62 151.817 112.068 151.373 112.638 151.056C113.216 150.739 113.87 150.58 114.598 150.58C115.232 150.58 115.797 150.706 116.292 150.958C116.796 151.201 117.192 151.56 117.482 152.036L116.74 152.54C116.497 152.176 116.189 151.905 115.816 151.728C115.442 151.541 115.036 151.448 114.598 151.448C114.066 151.448 113.585 151.569 113.156 151.812C112.736 152.045 112.404 152.381 112.162 152.82C111.928 153.259 111.812 153.758 111.812 154.318C111.812 154.887 111.928 155.391 112.162 155.83C112.404 156.259 112.736 156.595 113.156 156.838C113.585 157.071 114.066 157.188 114.598 157.188C115.036 157.188 115.442 157.099 115.816 156.922C116.189 156.745 116.497 156.474 116.74 156.11L117.482 156.614C117.192 157.09 116.796 157.454 116.292 157.706C115.788 157.949 115.223 158.07 114.598 158.07ZM124.449 151.518H121.663V158H120.669V151.518H117.883V150.636H124.449V151.518ZM128.421 150.58C129.382 150.58 130.119 150.823 130.633 151.308C131.146 151.784 131.403 152.493 131.403 153.436V158H130.451V156.852C130.227 157.235 129.895 157.533 129.457 157.748C129.027 157.963 128.514 158.07 127.917 158.07C127.095 158.07 126.442 157.874 125.957 157.482C125.471 157.09 125.229 156.572 125.229 155.928C125.229 155.303 125.453 154.799 125.901 154.416C126.358 154.033 127.081 153.842 128.071 153.842H130.409V153.394C130.409 152.759 130.231 152.279 129.877 151.952C129.522 151.616 129.004 151.448 128.323 151.448C127.856 151.448 127.408 151.527 126.979 151.686C126.549 151.835 126.181 152.045 125.873 152.316L125.425 151.574C125.798 151.257 126.246 151.014 126.769 150.846C127.291 150.669 127.842 150.58 128.421 150.58ZM128.071 157.286C128.631 157.286 129.111 157.16 129.513 156.908C129.914 156.647 130.213 156.273 130.409 155.788V154.584H128.099C126.839 154.584 126.209 155.023 126.209 155.9C126.209 156.329 126.372 156.67 126.699 156.922C127.025 157.165 127.483 157.286 128.071 157.286ZM138.739 154.192C139.737 154.425 140.237 155.027 140.237 155.998C140.237 156.642 139.999 157.137 139.523 157.482C139.047 157.827 138.337 158 137.395 158H134.049V150.636H137.297C138.137 150.636 138.795 150.799 139.271 151.126C139.747 151.453 139.985 151.919 139.985 152.526C139.985 152.927 139.873 153.273 139.649 153.562C139.434 153.842 139.131 154.052 138.739 154.192ZM135.015 153.912H137.227C137.796 153.912 138.23 153.805 138.529 153.59C138.837 153.375 138.991 153.063 138.991 152.652C138.991 152.241 138.837 151.933 138.529 151.728C138.23 151.523 137.796 151.42 137.227 151.42H135.015V153.912ZM137.353 157.216C137.987 157.216 138.463 157.113 138.781 156.908C139.098 156.703 139.257 156.381 139.257 155.942C139.257 155.503 139.112 155.181 138.823 154.976C138.533 154.761 138.076 154.654 137.451 154.654H135.015V157.216H137.353ZM145.24 154.724H143.56V158H142.566V150.636H143.56V153.87H145.254L147.844 150.636H148.922L146.024 154.206L149.132 158H147.956L145.24 154.724ZM153.098 150.58C154.06 150.58 154.797 150.823 155.31 151.308C155.824 151.784 156.08 152.493 156.08 153.436V158H155.128V156.852C154.904 157.235 154.573 157.533 154.134 157.748C153.705 157.963 153.192 158.07 152.594 158.07C151.773 158.07 151.12 157.874 150.634 157.482C150.149 157.09 149.906 156.572 149.906 155.928C149.906 155.303 150.13 154.799 150.578 154.416C151.036 154.033 151.759 153.842 152.748 153.842H155.086V153.394C155.086 152.759 154.909 152.279 154.554 151.952C154.2 151.616 153.682 151.448 153 151.448C152.534 151.448 152.086 151.527 151.656 151.686C151.227 151.835 150.858 152.045 150.55 152.316L150.102 151.574C150.476 151.257 150.924 151.014 151.446 150.846C151.969 150.669 152.52 150.58 153.098 150.58ZM152.748 157.286C153.308 157.286 153.789 157.16 154.19 156.908C154.592 156.647 154.89 156.273 155.086 155.788V154.584H152.776C151.516 154.584 150.886 155.023 150.886 155.9C150.886 156.329 151.05 156.67 151.376 156.922C151.703 157.165 152.16 157.286 152.748 157.286ZM158.797 152.106C158.591 152.106 158.414 152.031 158.265 151.882C158.125 151.733 158.055 151.551 158.055 151.336C158.055 151.121 158.125 150.944 158.265 150.804C158.414 150.655 158.591 150.58 158.797 150.58C159.002 150.58 159.179 150.655 159.329 150.804C159.478 150.944 159.553 151.121 159.553 151.336C159.553 151.551 159.478 151.733 159.329 151.882C159.179 152.031 159.002 152.106 158.797 152.106ZM158.797 158.07C158.591 158.07 158.414 157.995 158.265 157.846C158.125 157.697 158.055 157.515 158.055 157.3C158.055 157.085 158.125 156.908 158.265 156.768C158.414 156.619 158.591 156.544 158.797 156.544C159.002 156.544 159.179 156.619 159.329 156.768C159.478 156.908 159.553 157.085 159.553 157.3C159.553 157.515 159.478 157.697 159.329 157.846C159.179 157.995 159.002 158.07 158.797 158.07Z" fill="white"></path> <path d="M21.9365 303.084C20.9658 303.084 20.0885 302.869 19.3045 302.44C18.5298 302.011 17.9185 301.418 17.4705 300.662C17.0318 299.897 16.8125 299.043 16.8125 298.1C16.8125 297.157 17.0318 296.308 17.4705 295.552C17.9185 294.787 18.5345 294.189 19.3185 293.76C20.1025 293.331 20.9798 293.116 21.9505 293.116C22.6785 293.116 23.3505 293.237 23.9665 293.48C24.5825 293.723 25.1052 294.077 25.5345 294.544L24.8765 295.202C24.1112 294.427 23.1452 294.04 21.9785 294.04C21.2038 294.04 20.4992 294.217 19.8645 294.572C19.2298 294.927 18.7305 295.412 18.3665 296.028C18.0118 296.644 17.8345 297.335 17.8345 298.1C17.8345 298.865 18.0118 299.556 18.3665 300.172C18.7305 300.788 19.2298 301.273 19.8645 301.628C20.4992 301.983 21.2038 302.16 21.9785 302.16C23.1545 302.16 24.1205 301.768 24.8765 300.984L25.5345 301.642C25.1052 302.109 24.5778 302.468 23.9525 302.72C23.3365 302.963 22.6645 303.084 21.9365 303.084ZM31.23 295.58C31.9207 295.58 32.546 295.739 33.106 296.056C33.666 296.364 34.1047 296.803 34.422 297.372C34.7393 297.941 34.898 298.59 34.898 299.318C34.898 300.055 34.7393 300.709 34.422 301.278C34.1047 301.847 33.666 302.291 33.106 302.608C32.5553 302.916 31.93 303.07 31.23 303.07C30.6327 303.07 30.0913 302.949 29.606 302.706C29.13 302.454 28.738 302.09 28.43 301.614V305.716H27.436V295.636H28.388V297.092C28.6867 296.607 29.0787 296.233 29.564 295.972C30.0587 295.711 30.614 295.58 31.23 295.58ZM31.16 302.188C31.6733 302.188 32.14 302.071 32.56 301.838C32.98 301.595 33.3067 301.255 33.54 300.816C33.7827 300.377 33.904 299.878 33.904 299.318C33.904 298.758 33.7827 298.263 33.54 297.834C33.3067 297.395 32.98 297.055 32.56 296.812C32.14 296.569 31.6733 296.448 31.16 296.448C30.6373 296.448 30.166 296.569 29.746 296.812C29.3353 297.055 29.0087 297.395 28.766 297.834C28.5327 298.263 28.416 298.758 28.416 299.318C28.416 299.878 28.5327 300.377 28.766 300.816C29.0087 301.255 29.3353 301.595 29.746 301.838C30.166 302.071 30.6373 302.188 31.16 302.188ZM40.0716 303.07C39.3623 303.07 38.723 302.911 38.1536 302.594C37.5843 302.267 37.1363 301.819 36.8096 301.25C36.483 300.681 36.3196 300.037 36.3196 299.318C36.3196 298.599 36.483 297.955 36.8096 297.386C37.1363 296.817 37.5843 296.373 38.1536 296.056C38.723 295.739 39.3623 295.58 40.0716 295.58C40.781 295.58 41.4203 295.739 41.9896 296.056C42.559 296.373 43.0023 296.817 43.3196 297.386C43.6463 297.955 43.8096 298.599 43.8096 299.318C43.8096 300.037 43.6463 300.681 43.3196 301.25C43.0023 301.819 42.559 302.267 41.9896 302.594C41.4203 302.911 40.781 303.07 40.0716 303.07ZM40.0716 302.188C40.5943 302.188 41.061 302.071 41.4716 301.838C41.8916 301.595 42.2183 301.255 42.4516 300.816C42.685 300.377 42.8016 299.878 42.8016 299.318C42.8016 298.758 42.685 298.259 42.4516 297.82C42.2183 297.381 41.8916 297.045 41.4716 296.812C41.061 296.569 40.5943 296.448 40.0716 296.448C39.549 296.448 39.0776 296.569 38.6576 296.812C38.247 297.045 37.9203 297.381 37.6776 297.82C37.4443 298.259 37.3276 298.758 37.3276 299.318C37.3276 299.878 37.4443 300.377 37.6776 300.816C37.9203 301.255 38.247 301.595 38.6576 301.838C39.0776 302.071 39.549 302.188 40.0716 302.188ZM48.608 299.724H46.928V303H45.934V295.636H46.928V298.87H48.622L51.212 295.636H52.29L49.392 299.206L52.5 303H51.324L48.608 299.724ZM57.7329 295.636H58.7269V301.488L63.6409 295.636H64.5229V303H63.5289V297.148L58.6289 303H57.7329V295.636ZM67.3715 295.636H68.3655V298.898H72.9995V295.636H73.9935V303H72.9995V299.752H68.3655V303H67.3715V295.636ZM81.5088 299.192C82.5075 299.425 83.0068 300.027 83.0068 300.998C83.0068 301.642 82.7688 302.137 82.2928 302.482C81.8168 302.827 81.1075 303 80.1648 303H76.8188V295.636H80.0668C80.9068 295.636 81.5648 295.799 82.0408 296.126C82.5168 296.453 82.7548 296.919 82.7548 297.526C82.7548 297.927 82.6428 298.273 82.4188 298.562C82.2041 298.842 81.9008 299.052 81.5088 299.192ZM77.7848 298.912H79.9968C80.5661 298.912 81.0001 298.805 81.2988 298.59C81.6068 298.375 81.7608 298.063 81.7608 297.652C81.7608 297.241 81.6068 296.933 81.2988 296.728C81.0001 296.523 80.5661 296.42 79.9968 296.42H77.7848V298.912ZM80.1228 302.216C80.7575 302.216 81.2335 302.113 81.5508 301.908C81.8681 301.703 82.0268 301.381 82.0268 300.942C82.0268 300.503 81.8821 300.181 81.5928 299.976C81.3035 299.761 80.8461 299.654 80.2208 299.654H77.7848V302.216H80.1228ZM91.7764 299.626H85.6164C85.6724 300.391 85.9664 301.012 86.4984 301.488C87.0304 301.955 87.7024 302.188 88.5144 302.188C88.9717 302.188 89.3917 302.109 89.7744 301.95C90.157 301.782 90.4884 301.539 90.7684 301.222L91.3284 301.866C91.0017 302.258 90.591 302.557 90.0964 302.762C89.611 302.967 89.0744 303.07 88.4864 303.07C87.7304 303.07 87.0584 302.911 86.4704 302.594C85.8917 302.267 85.439 301.819 85.1124 301.25C84.7857 300.681 84.6224 300.037 84.6224 299.318C84.6224 298.599 84.7764 297.955 85.0844 297.386C85.4017 296.817 85.831 296.373 86.3724 296.056C86.923 295.739 87.539 295.58 88.2204 295.58C88.9017 295.58 89.513 295.739 90.0544 296.056C90.5957 296.373 91.0204 296.817 91.3284 297.386C91.6364 297.946 91.7904 298.59 91.7904 299.318L91.7764 299.626ZM88.2204 296.434C87.511 296.434 86.9137 296.663 86.4284 297.12C85.9524 297.568 85.6817 298.156 85.6164 298.884H90.8384C90.773 298.156 90.4977 297.568 90.0124 297.12C89.5364 296.663 88.939 296.434 88.2204 296.434ZM97.0707 303.07C96.3427 303.07 95.6893 302.911 95.1107 302.594C94.5413 302.277 94.0933 301.833 93.7667 301.264C93.44 300.685 93.2767 300.037 93.2767 299.318C93.2767 298.599 93.44 297.955 93.7667 297.386C94.0933 296.817 94.5413 296.373 95.1107 296.056C95.6893 295.739 96.3427 295.58 97.0707 295.58C97.7053 295.58 98.27 295.706 98.7647 295.958C99.2687 296.201 99.6653 296.56 99.9547 297.036L99.2127 297.54C98.97 297.176 98.662 296.905 98.2887 296.728C97.9153 296.541 97.5093 296.448 97.0707 296.448C96.5387 296.448 96.058 296.569 95.6287 296.812C95.2087 297.045 94.8773 297.381 94.6347 297.82C94.4013 298.259 94.2847 298.758 94.2847 299.318C94.2847 299.887 94.4013 300.391 94.6347 300.83C94.8773 301.259 95.2087 301.595 95.6287 301.838C96.058 302.071 96.5387 302.188 97.0707 302.188C97.5093 302.188 97.9153 302.099 98.2887 301.922C98.662 301.745 98.97 301.474 99.2127 301.11L99.9547 301.614C99.6653 302.09 99.2687 302.454 98.7647 302.706C98.2607 302.949 97.696 303.07 97.0707 303.07ZM106.923 296.518H104.137V303H103.143V296.518H100.357V295.636H106.923V296.518ZM108.359 295.636H109.354V301.488L114.268 295.636H115.15V303H114.156V297.148L109.255 303H108.359V295.636ZM121.792 295.58C122.483 295.58 123.109 295.739 123.669 296.056C124.229 296.364 124.667 296.803 124.984 297.372C125.301 297.941 125.46 298.59 125.46 299.318C125.46 300.055 125.301 300.709 124.984 301.278C124.667 301.847 124.229 302.291 123.669 302.608C123.118 302.916 122.492 303.07 121.792 303.07C121.195 303.07 120.654 302.949 120.169 302.706C119.693 302.454 119.3 302.09 118.992 301.614V305.716H117.999V295.636H118.951V297.092C119.25 296.607 119.641 296.233 120.126 295.972C120.621 295.711 121.176 295.58 121.792 295.58ZM121.723 302.188C122.236 302.188 122.702 302.071 123.122 301.838C123.542 301.595 123.869 301.255 124.102 300.816C124.345 300.377 124.467 299.878 124.467 299.318C124.467 298.758 124.345 298.263 124.102 297.834C123.869 297.395 123.542 297.055 123.122 296.812C122.702 296.569 122.236 296.448 121.723 296.448C121.2 296.448 120.729 296.569 120.309 296.812C119.898 297.055 119.572 297.395 119.329 297.834C119.096 298.263 118.979 298.758 118.979 299.318C118.979 299.878 119.096 300.377 119.329 300.816C119.572 301.255 119.898 301.595 120.309 301.838C120.729 302.071 121.2 302.188 121.723 302.188ZM130.635 303.07C129.925 303.07 129.286 302.911 128.717 302.594C128.147 302.267 127.698 301.819 127.372 301.25C127.045 300.681 126.883 300.037 126.883 299.318C126.883 298.599 127.045 297.955 127.372 297.386C127.698 296.817 128.147 296.373 128.717 296.056C129.286 295.739 129.925 295.58 130.635 295.58C131.344 295.58 131.983 295.739 132.553 296.056C133.122 296.373 133.565 296.817 133.883 297.386C134.209 297.955 134.372 298.599 134.372 299.318C134.372 300.037 134.209 300.681 133.883 301.25C133.565 301.819 133.122 302.267 132.553 302.594C131.983 302.911 131.344 303.07 130.635 303.07ZM130.635 302.188C131.157 302.188 131.624 302.071 132.035 301.838C132.455 301.595 132.781 301.255 133.015 300.816C133.248 300.377 133.365 299.878 133.365 299.318C133.365 298.758 133.248 298.259 133.015 297.82C132.781 297.381 132.455 297.045 132.035 296.812C131.624 296.569 131.157 296.448 130.635 296.448C130.112 296.448 129.641 296.569 129.221 296.812C128.81 297.045 128.483 297.381 128.241 297.82C128.007 298.259 127.891 298.758 127.891 299.318C127.891 299.878 128.007 300.377 128.241 300.816C128.483 301.255 128.81 301.595 129.221 301.838C129.641 302.071 130.112 302.188 130.635 302.188ZM141.187 299.192C142.186 299.425 142.685 300.027 142.685 300.998C142.685 301.642 142.447 302.137 141.971 302.482C141.495 302.827 140.785 303 139.842 303H136.497V295.636H139.745C140.585 295.636 141.243 295.799 141.719 296.126C142.195 296.453 142.433 296.919 142.433 297.526C142.433 297.927 142.32 298.273 142.096 298.562C141.881 298.842 141.579 299.052 141.187 299.192ZM137.463 298.912H139.674C140.243 298.912 140.678 298.805 140.977 298.59C141.285 298.375 141.439 298.063 141.439 297.652C141.439 297.241 141.285 296.933 140.977 296.728C140.678 296.523 140.243 296.42 139.674 296.42H137.463V298.912ZM139.801 302.216C140.436 302.216 140.912 302.113 141.229 301.908C141.546 301.703 141.704 301.381 141.704 300.942C141.704 300.503 141.56 300.181 141.271 299.976C140.982 299.761 140.523 299.654 139.898 299.654H137.463V302.216H139.801ZM147.549 295.58C148.51 295.58 149.246 295.823 149.76 296.308C150.273 296.784 150.531 297.493 150.531 298.436V303H149.579V301.852C149.355 302.235 149.023 302.533 148.585 302.748C148.155 302.963 147.642 303.07 147.045 303.07C146.223 303.07 145.57 302.874 145.085 302.482C144.599 302.09 144.357 301.572 144.357 300.928C144.357 300.303 144.581 299.799 145.029 299.416C145.486 299.033 146.209 298.842 147.199 298.842H149.536V298.394C149.536 297.759 149.359 297.279 149.005 296.952C148.65 296.616 148.132 296.448 147.451 296.448C146.984 296.448 146.536 296.527 146.107 296.686C145.677 296.835 145.309 297.045 145.001 297.316L144.553 296.574C144.926 296.257 145.373 296.014 145.896 295.846C146.418 295.669 146.97 295.58 147.549 295.58ZM147.199 302.286C147.759 302.286 148.239 302.16 148.641 301.908C149.042 301.647 149.34 301.273 149.536 300.788V299.584H147.227C145.967 299.584 145.337 300.023 145.337 300.9C145.337 301.329 145.5 301.67 145.827 301.922C146.153 302.165 146.611 302.286 147.199 302.286ZM153.176 295.636H154.171V298.898H158.805V295.636H159.799V303H158.805V299.752H154.171V303H153.176V295.636ZM162.624 295.636H163.618V301.488L168.532 295.636H169.413V303H168.42V297.148L163.52 303H162.624V295.636ZM177.919 295.636V303H177.008V300.564H174.699H174.419L172.711 303H171.633L173.467 300.424C172.897 300.265 172.458 299.995 172.15 299.612C171.842 299.229 171.689 298.744 171.689 298.156C171.689 297.335 171.969 296.709 172.529 296.28C173.089 295.851 173.854 295.636 174.825 295.636H177.919ZM172.697 298.184C172.697 299.276 173.392 299.822 174.783 299.822H177.008V296.518H174.853C173.415 296.518 172.697 297.073 172.697 298.184Z" fill="white"></path> <path d="M244 225H56C47.7157 225 41 231.716 41 240C41 248.284 47.7157 255 56 255H244C252.284 255 259 248.284 259 240C259 231.716 252.284 225 244 225Z" fill="white"></path> <path opacity="0.8" d="M54.5742 235.602H60.717V236.358H55.45V239.105H58.1975C59.1893 239.105 59.9411 239.309 60.453 239.717C60.9729 240.125 61.2329 240.717 61.2329 241.493C61.2329 242.3 60.9529 242.92 60.393 243.352C59.8411 243.784 59.0453 244 58.0055 244H54.5742V235.602ZM57.9935 243.292C58.7694 243.292 59.3532 243.144 59.7452 242.848C60.1451 242.552 60.345 242.112 60.345 241.529C60.345 240.953 60.1491 240.525 59.7572 240.245C59.3732 239.957 58.7854 239.813 57.9935 239.813H55.45V243.292H57.9935ZM65.6907 244.06C65.0828 244.06 64.5349 243.924 64.047 243.652C63.5591 243.372 63.1752 242.988 62.8953 242.5C62.6153 242.012 62.4754 241.461 62.4754 240.845C62.4754 240.229 62.6153 239.677 62.8953 239.189C63.1752 238.701 63.5591 238.321 64.047 238.049C64.5349 237.777 65.0828 237.641 65.6907 237.641C66.2986 237.641 66.8465 237.777 67.3344 238.049C67.8223 238.321 68.2022 238.701 68.4741 239.189C68.7541 239.677 68.8941 240.229 68.8941 240.845C68.8941 241.461 68.7541 242.012 68.4741 242.5C68.2022 242.988 67.8223 243.372 67.3344 243.652C66.8465 243.924 66.2986 244.06 65.6907 244.06ZM65.6907 243.304C66.1386 243.304 66.5385 243.204 66.8905 243.004C67.2504 242.796 67.5303 242.504 67.7303 242.128C67.9303 241.752 68.0302 241.325 68.0302 240.845C68.0302 240.365 67.9303 239.937 67.7303 239.561C67.5303 239.185 67.2504 238.897 66.8905 238.697C66.5385 238.489 66.1386 238.385 65.6907 238.385C65.2428 238.385 64.8389 238.489 64.479 238.697C64.127 238.897 63.8471 239.185 63.6391 239.561C63.4392 239.937 63.3392 240.365 63.3392 240.845C63.3392 241.325 63.4392 241.752 63.6391 242.128C63.8471 242.504 64.127 242.796 64.479 243.004C64.8389 243.204 65.2428 243.304 65.6907 243.304ZM75.8384 237.689V244H74.9866V238.445H71.9632L71.8792 240.005C71.8152 241.317 71.6632 242.324 71.4233 243.028C71.1833 243.732 70.7554 244.084 70.1396 244.084C69.9716 244.084 69.7676 244.052 69.5277 243.988L69.5877 243.256C69.7316 243.288 69.8316 243.304 69.8876 243.304C70.2155 243.304 70.4635 243.152 70.6315 242.848C70.7994 242.544 70.9114 242.168 70.9674 241.72C71.0234 241.273 71.0714 240.681 71.1114 239.945L71.2193 237.689H75.8384ZM80.9714 239.921C81.7632 239.929 82.3631 240.105 82.771 240.449C83.1869 240.793 83.3949 241.289 83.3949 241.936C83.3949 242.608 83.1709 243.124 82.723 243.484C82.2831 243.844 81.6433 244.02 80.8034 244.012L78.2599 244V237.689H79.1118V239.897L80.9714 239.921ZM80.7554 243.364C81.3393 243.372 81.7792 243.256 82.0752 243.016C82.3791 242.768 82.5311 242.408 82.5311 241.936C82.5311 241.473 82.3831 241.129 82.0872 240.905C81.7912 240.681 81.3473 240.565 80.7554 240.557L79.1118 240.533V243.34L80.7554 243.364ZM93.7305 237.689V244H85.0203V237.689H85.8721V243.256H88.9675V237.689H89.8193V243.256H92.8787V237.689H93.7305ZM101.681 241.109H96.4025C96.4505 241.764 96.7025 242.296 97.1584 242.704C97.6143 243.104 98.1902 243.304 98.886 243.304C99.2779 243.304 99.6379 243.236 99.9658 243.1C100.294 242.956 100.577 242.748 100.817 242.476L101.297 243.028C101.017 243.364 100.665 243.62 100.242 243.796C99.8258 243.972 99.3659 244.06 98.862 244.06C98.2141 244.06 97.6383 243.924 97.1344 243.652C96.6385 243.372 96.2505 242.988 95.9706 242.5C95.6907 242.012 95.5507 241.461 95.5507 240.845C95.5507 240.229 95.6827 239.677 95.9466 239.189C96.2186 238.701 96.5865 238.321 97.0504 238.049C97.5223 237.777 98.0502 237.641 98.6341 237.641C99.2179 237.641 99.7418 237.777 100.206 238.049C100.669 238.321 101.033 238.701 101.297 239.189C101.561 239.669 101.693 240.221 101.693 240.845L101.681 241.109ZM98.6341 238.373C98.0262 238.373 97.5143 238.569 97.0984 238.961C96.6905 239.345 96.4585 239.849 96.4025 240.473H100.877C100.821 239.849 100.585 239.345 100.17 238.961C99.7618 238.569 99.2499 238.373 98.6341 238.373ZM109.358 244.06C108.734 244.06 108.175 243.924 107.679 243.652C107.191 243.38 106.807 243 106.527 242.512C106.247 242.016 106.107 241.461 106.107 240.845C106.107 240.229 106.247 239.677 106.527 239.189C106.807 238.701 107.191 238.321 107.679 238.049C108.175 237.777 108.734 237.641 109.358 237.641C109.902 237.641 110.386 237.749 110.81 237.965C111.242 238.173 111.582 238.481 111.83 238.889L111.194 239.321C110.986 239.009 110.722 238.777 110.402 238.625C110.082 238.465 109.734 238.385 109.358 238.385C108.902 238.385 108.49 238.489 108.123 238.697C107.763 238.897 107.479 239.185 107.271 239.561C107.071 239.937 106.971 240.365 106.971 240.845C106.971 241.333 107.071 241.764 107.271 242.14C107.479 242.508 107.763 242.796 108.123 243.004C108.49 243.204 108.902 243.304 109.358 243.304C109.734 243.304 110.082 243.228 110.402 243.076C110.722 242.924 110.986 242.692 111.194 242.38L111.83 242.812C111.582 243.22 111.242 243.532 110.81 243.748C110.378 243.956 109.894 244.06 109.358 244.06ZM117.801 238.445H115.414V244H114.562V238.445H112.174V237.689H117.801V238.445ZM121.204 237.641C122.028 237.641 122.66 237.849 123.1 238.265C123.54 238.673 123.76 239.281 123.76 240.089V244H122.944V243.016C122.752 243.344 122.468 243.6 122.092 243.784C121.724 243.968 121.284 244.06 120.772 244.06C120.069 244.06 119.509 243.892 119.093 243.556C118.677 243.22 118.469 242.776 118.469 242.224C118.469 241.688 118.661 241.257 119.045 240.929C119.437 240.601 120.057 240.437 120.904 240.437H122.908V240.053C122.908 239.509 122.756 239.097 122.452 238.817C122.148 238.529 121.704 238.385 121.12 238.385C120.72 238.385 120.336 238.453 119.969 238.589C119.601 238.717 119.285 238.897 119.021 239.129L118.637 238.493C118.957 238.221 119.341 238.013 119.789 237.869C120.236 237.717 120.708 237.641 121.204 237.641ZM120.904 243.388C121.384 243.388 121.796 243.28 122.14 243.064C122.484 242.84 122.74 242.52 122.908 242.104V241.073H120.928C119.849 241.073 119.309 241.449 119.309 242.2C119.309 242.568 119.449 242.86 119.729 243.076C120.009 243.284 120.4 243.388 120.904 243.388ZM130.047 240.737C130.902 240.937 131.33 241.453 131.33 242.284C131.33 242.836 131.126 243.26 130.718 243.556C130.311 243.852 129.703 244 128.895 244H126.027V237.689H128.811C129.531 237.689 130.095 237.829 130.502 238.109C130.91 238.389 131.114 238.789 131.114 239.309C131.114 239.653 131.018 239.949 130.826 240.197C130.642 240.437 130.383 240.617 130.047 240.737ZM126.855 240.497H128.751C129.239 240.497 129.611 240.405 129.867 240.221C130.131 240.037 130.263 239.769 130.263 239.417C130.263 239.065 130.131 238.801 129.867 238.625C129.611 238.449 129.239 238.361 128.751 238.361H126.855V240.497ZM128.859 243.328C129.403 243.328 129.811 243.24 130.083 243.064C130.355 242.888 130.491 242.612 130.491 242.236C130.491 241.86 130.367 241.584 130.119 241.409C129.871 241.225 129.479 241.133 128.943 241.133H126.855V243.328H128.859ZM135.618 241.193H134.179V244H133.327V237.689H134.179V240.461H135.63L137.85 237.689H138.774L136.29 240.749L138.954 244H137.946L135.618 241.193ZM142.352 237.641C143.176 237.641 143.808 237.849 144.248 238.265C144.688 238.673 144.908 239.281 144.908 240.089V244H144.092V243.016C143.9 243.344 143.616 243.6 143.24 243.784C142.872 243.968 142.432 244.06 141.92 244.06C141.217 244.06 140.657 243.892 140.241 243.556C139.825 243.22 139.617 242.776 139.617 242.224C139.617 241.688 139.809 241.257 140.193 240.929C140.585 240.601 141.205 240.437 142.052 240.437H144.056V240.053C144.056 239.509 143.904 239.097 143.6 238.817C143.296 238.529 142.852 238.385 142.268 238.385C141.868 238.385 141.485 238.453 141.117 238.589C140.749 238.717 140.433 238.897 140.169 239.129L139.785 238.493C140.105 238.221 140.489 238.013 140.937 237.869C141.385 237.717 141.856 237.641 142.352 237.641ZM142.052 243.388C142.532 243.388 142.944 243.28 143.288 243.064C143.632 242.84 143.888 242.52 144.056 242.104V241.073H142.076C140.997 241.073 140.457 241.449 140.457 242.2C140.457 242.568 140.597 242.86 140.877 243.076C141.157 243.284 141.549 243.388 142.052 243.388ZM149.824 240.377H152.967V241.121H149.824V240.377ZM161.096 237.845C161.68 237.845 162.2 237.977 162.656 238.241C163.12 238.497 163.479 238.861 163.735 239.333C163.991 239.797 164.119 240.329 164.119 240.929C164.119 241.544 163.983 242.092 163.711 242.572C163.447 243.044 163.076 243.412 162.596 243.676C162.116 243.94 161.564 244.072 160.94 244.072C159.892 244.072 159.08 243.704 158.504 242.968C157.929 242.232 157.641 241.217 157.641 239.921C157.641 238.569 157.897 237.533 158.408 236.813C158.928 236.094 159.736 235.606 160.832 235.35L163.663 234.702L163.807 235.482L161.144 236.094C160.24 236.294 159.576 236.649 159.152 237.161C158.728 237.665 158.496 238.413 158.456 239.405C158.712 238.917 159.068 238.537 159.524 238.265C159.98 237.985 160.504 237.845 161.096 237.845ZM160.964 243.364C161.404 243.364 161.796 243.264 162.14 243.064C162.492 242.856 162.764 242.568 162.956 242.2C163.156 241.832 163.255 241.417 163.255 240.953C163.255 240.489 163.16 240.081 162.968 239.729C162.776 239.377 162.504 239.105 162.152 238.913C161.808 238.713 161.412 238.613 160.964 238.613C160.516 238.613 160.116 238.713 159.764 238.913C159.42 239.105 159.148 239.377 158.948 239.729C158.756 240.081 158.66 240.489 158.66 240.953C158.66 241.417 158.756 241.832 158.948 242.2C159.148 242.568 159.424 242.856 159.776 243.064C160.128 243.264 160.524 243.364 160.964 243.364ZM168.549 244.06C167.941 244.06 167.393 243.924 166.905 243.652C166.417 243.372 166.033 242.988 165.753 242.5C165.473 242.012 165.333 241.461 165.333 240.845C165.333 240.229 165.473 239.677 165.753 239.189C166.033 238.701 166.417 238.321 166.905 238.049C167.393 237.777 167.941 237.641 168.549 237.641C169.156 237.641 169.704 237.777 170.192 238.049C170.68 238.321 171.06 238.701 171.332 239.189C171.612 239.677 171.752 240.229 171.752 240.845C171.752 241.461 171.612 242.012 171.332 242.5C171.06 242.988 170.68 243.372 170.192 243.652C169.704 243.924 169.156 244.06 168.549 244.06ZM168.549 243.304C168.996 243.304 169.396 243.204 169.748 243.004C170.108 242.796 170.388 242.504 170.588 242.128C170.788 241.752 170.888 241.325 170.888 240.845C170.888 240.365 170.788 239.937 170.588 239.561C170.388 239.185 170.108 238.897 169.748 238.697C169.396 238.489 168.996 238.385 168.549 238.385C168.101 238.385 167.697 238.489 167.337 238.697C166.985 238.897 166.705 239.185 166.497 239.561C166.297 239.937 166.197 240.365 166.197 240.845C166.197 241.325 166.297 241.752 166.497 242.128C166.705 242.504 166.985 242.796 167.337 243.004C167.697 243.204 168.101 243.304 168.549 243.304ZM178.696 237.689V244H177.844V238.445H174.821L174.737 240.005C174.673 241.317 174.521 242.324 174.281 243.028C174.041 243.732 173.613 244.084 172.997 244.084C172.829 244.084 172.625 244.052 172.386 243.988L172.446 243.256C172.59 243.288 172.689 243.304 172.745 243.304C173.073 243.304 173.321 243.152 173.489 242.848C173.657 242.544 173.769 242.168 173.825 241.72C173.881 241.273 173.929 240.681 173.969 239.945L174.077 237.689H178.696ZM183.829 239.921C184.621 239.929 185.221 240.105 185.629 240.449C186.045 240.793 186.253 241.289 186.253 241.936C186.253 242.608 186.029 243.124 185.581 243.484C185.141 243.844 184.501 244.02 183.661 244.012L181.118 244V237.689H181.97V239.897L183.829 239.921ZM183.613 243.364C184.197 243.372 184.637 243.256 184.933 243.016C185.237 242.768 185.389 242.408 185.389 241.936C185.389 241.473 185.241 241.129 184.945 240.905C184.649 240.681 184.205 240.565 183.613 240.557L181.97 240.533V243.34L183.613 243.364ZM196.588 237.689V244H187.878V237.689H188.73V243.256H191.825V237.689H192.677V243.256H195.737V237.689H196.588ZM204.539 241.109H199.26C199.308 241.764 199.56 242.296 200.016 242.704C200.472 243.104 201.048 243.304 201.744 243.304C202.136 243.304 202.496 243.236 202.824 243.1C203.152 242.956 203.436 242.748 203.675 242.476L204.155 243.028C203.875 243.364 203.524 243.62 203.1 243.796C202.684 243.972 202.224 244.06 201.72 244.06C201.072 244.06 200.496 243.924 199.992 243.652C199.496 243.372 199.108 242.988 198.828 242.5C198.549 242.012 198.409 241.461 198.409 240.845C198.409 240.229 198.541 239.677 198.804 239.189C199.076 238.701 199.444 238.321 199.908 238.049C200.38 237.777 200.908 237.641 201.492 237.641C202.076 237.641 202.6 237.777 203.064 238.049C203.528 238.321 203.891 238.701 204.155 239.189C204.419 239.669 204.551 240.221 204.551 240.845L204.539 241.109ZM201.492 238.373C200.884 238.373 200.372 238.569 199.956 238.961C199.548 239.345 199.316 239.849 199.26 240.473H203.735C203.679 239.849 203.444 239.345 203.028 238.961C202.62 238.569 202.108 238.373 201.492 238.373ZM212.828 237.641C213.42 237.641 213.956 237.777 214.436 238.049C214.916 238.313 215.292 238.689 215.564 239.177C215.836 239.665 215.972 240.221 215.972 240.845C215.972 241.477 215.836 242.036 215.564 242.524C215.292 243.012 214.916 243.392 214.436 243.664C213.964 243.928 213.428 244.06 212.828 244.06C212.316 244.06 211.852 243.956 211.437 243.748C211.029 243.532 210.693 243.22 210.429 242.812V246.328H209.577V237.689H210.393V238.937C210.649 238.521 210.985 238.201 211.401 237.977C211.824 237.753 212.3 237.641 212.828 237.641ZM212.768 243.304C213.208 243.304 213.608 243.204 213.968 243.004C214.328 242.796 214.608 242.504 214.808 242.128C215.016 241.752 215.12 241.325 215.12 240.845C215.12 240.365 215.016 239.941 214.808 239.573C214.608 239.197 214.328 238.905 213.968 238.697C213.608 238.489 213.208 238.385 212.768 238.385C212.32 238.385 211.916 238.489 211.556 238.697C211.205 238.905 210.925 239.197 210.717 239.573C210.517 239.941 210.417 240.365 210.417 240.845C210.417 241.325 210.517 241.752 210.717 242.128C210.925 242.504 211.205 242.796 211.556 243.004C211.916 243.204 212.32 243.304 212.768 243.304ZM217.802 237.689H218.654V242.704L222.865 237.689H223.621V244H222.769V238.985L218.57 244H217.802V237.689ZM228.701 244.06C228.077 244.06 227.518 243.924 227.022 243.652C226.534 243.38 226.15 243 225.87 242.512C225.59 242.016 225.45 241.461 225.45 240.845C225.45 240.229 225.59 239.677 225.87 239.189C226.15 238.701 226.534 238.321 227.022 238.049C227.518 237.777 228.077 237.641 228.701 237.641C229.245 237.641 229.729 237.749 230.153 237.965C230.585 238.173 230.925 238.481 231.173 238.889L230.537 239.321C230.329 239.009 230.065 238.777 229.745 238.625C229.425 238.465 229.077 238.385 228.701 238.385C228.245 238.385 227.833 238.489 227.466 238.697C227.106 238.897 226.822 239.185 226.614 239.561C226.414 239.937 226.314 240.365 226.314 240.845C226.314 241.333 226.414 241.764 226.614 242.14C226.822 242.508 227.106 242.796 227.466 243.004C227.833 243.204 228.245 243.304 228.701 243.304C229.077 243.304 229.425 243.228 229.745 243.076C230.065 242.924 230.329 242.692 230.537 242.38L231.173 242.812C230.925 243.22 230.585 243.532 230.153 243.748C229.721 243.956 229.237 244.06 228.701 244.06ZM235.114 241.193H233.674V244H232.822V237.689H233.674V240.461H235.126L237.345 237.689H238.269L235.786 240.749L238.449 244H237.441L235.114 241.193ZM239.793 237.689H240.645V242.704L244.856 237.689H245.612V244H244.76V238.985L240.561 244H239.793V237.689Z" fill="#1A547E"></path> <path d="M244 225.5H56C47.9919 225.5 41.5 231.992 41.5 240C41.5 248.008 47.9919 254.5 56 254.5H244C252.008 254.5 258.5 248.008 258.5 240C258.5 231.992 252.008 225.5 244 225.5Z" stroke="white" stroke-opacity="0.5"></path> <path d="M22.3595 223.232V224H16.4687V223.388L19.96 219.969C20.3999 219.537 20.6958 219.165 20.8478 218.853C21.0078 218.533 21.0878 218.213 21.0878 217.893C21.0878 217.397 20.9158 217.013 20.5719 216.741C20.2359 216.462 19.752 216.322 19.1202 216.322C18.1364 216.322 17.3725 216.633 16.8286 217.257L16.2168 216.729C16.5447 216.346 16.9606 216.05 17.4645 215.842C17.9764 215.634 18.5523 215.53 19.1922 215.53C20.048 215.53 20.7238 215.734 21.2197 216.142C21.7236 216.542 21.9756 217.093 21.9756 217.797C21.9756 218.229 21.8796 218.645 21.6876 219.045C21.4957 219.445 21.1318 219.905 20.5959 220.425L17.7404 223.232H22.3595ZM26.7441 224.072C26.0962 224.072 25.5163 223.9 25.0044 223.556C24.5005 223.212 24.1046 222.72 23.8167 222.08C23.5367 221.433 23.3967 220.673 23.3967 219.801C23.3967 218.929 23.5367 218.173 23.8167 217.533C24.1046 216.885 24.5005 216.39 25.0044 216.046C25.5163 215.702 26.0962 215.53 26.7441 215.53C27.3919 215.53 27.9678 215.702 28.4717 216.046C28.9836 216.39 29.3835 216.885 29.6715 217.533C29.9594 218.173 30.1034 218.929 30.1034 219.801C30.1034 220.673 29.9594 221.433 29.6715 222.08C29.3835 222.72 28.9836 223.212 28.4717 223.556C27.9678 223.9 27.3919 224.072 26.7441 224.072ZM26.7441 223.28C27.232 223.28 27.6599 223.144 28.0278 222.872C28.4037 222.6 28.6957 222.204 28.9036 221.684C29.1116 221.165 29.2156 220.537 29.2156 219.801C29.2156 219.065 29.1116 218.437 28.9036 217.917C28.6957 217.397 28.4037 217.001 28.0278 216.729C27.6599 216.458 27.232 216.322 26.7441 216.322C26.2562 216.322 25.8242 216.458 25.4483 216.729C25.0804 217.001 24.7925 217.397 24.5845 217.917C24.3765 218.437 24.2726 219.065 24.2726 219.801C24.2726 220.537 24.3765 221.165 24.5845 221.684C24.7925 222.204 25.0804 222.6 25.4483 222.872C25.8242 223.144 26.2562 223.28 26.7441 223.28ZM33.1161 220.101C32.5482 220.101 32.0883 219.893 31.7364 219.477C31.3924 219.053 31.2205 218.501 31.2205 217.821C31.2205 217.141 31.3924 216.594 31.7364 216.178C32.0883 215.754 32.5482 215.542 33.1161 215.542C33.676 215.542 34.1319 215.75 34.4838 216.166C34.8357 216.582 35.0117 217.133 35.0117 217.821C35.0117 218.509 34.8357 219.061 34.4838 219.477C34.1319 219.893 33.676 220.101 33.1161 220.101ZM38.2031 215.602H38.9109L33.1761 224H32.4682L38.2031 215.602ZM33.1161 219.561C33.508 219.561 33.8199 219.409 34.0519 219.105C34.2918 218.793 34.4118 218.365 34.4118 217.821C34.4118 217.277 34.2918 216.853 34.0519 216.55C33.8199 216.238 33.508 216.082 33.1161 216.082C32.7162 216.082 32.4002 216.238 32.1683 216.55C31.9363 216.861 31.8203 217.285 31.8203 217.821C31.8203 218.357 31.9363 218.781 32.1683 219.093C32.4002 219.405 32.7162 219.561 33.1161 219.561ZM38.263 224.06C37.7032 224.06 37.2472 223.852 36.8953 223.436C36.5434 223.012 36.3674 222.46 36.3674 221.78C36.3674 221.101 36.5434 220.553 36.8953 220.137C37.2472 219.713 37.7032 219.501 38.263 219.501C38.8309 219.501 39.2868 219.713 39.6308 220.137C39.9827 220.553 40.1587 221.101 40.1587 221.78C40.1587 222.46 39.9827 223.012 39.6308 223.436C39.2868 223.852 38.8309 224.06 38.263 224.06ZM38.263 223.52C38.663 223.52 38.9789 223.364 39.2108 223.052C39.4428 222.74 39.5588 222.316 39.5588 221.78C39.5588 221.245 39.4428 220.821 39.2108 220.509C38.9789 220.197 38.663 220.041 38.263 220.041C37.8711 220.041 37.5552 220.197 37.3152 220.509C37.0833 220.813 36.9673 221.237 36.9673 221.78C36.9673 222.324 37.0833 222.752 37.3152 223.064C37.5552 223.368 37.8711 223.52 38.263 223.52Z" fill="white"></path> <path d="M18.9508 360.602V369H18.087V361.37H16.1074V360.602H18.9508ZM29.1493 363.445H25.538V369H24.6862V362.689H29.1493V363.445ZM32.6909 369.06C32.083 369.06 31.5352 368.924 31.0473 368.652C30.5594 368.372 30.1754 367.988 29.8955 367.5C29.6155 367.012 29.4756 366.461 29.4756 365.845C29.4756 365.229 29.6155 364.677 29.8955 364.189C30.1754 363.701 30.5594 363.321 31.0473 363.049C31.5352 362.777 32.083 362.641 32.6909 362.641C33.2988 362.641 33.8467 362.777 34.3346 363.049C34.8225 363.321 35.2024 363.701 35.4744 364.189C35.7543 364.677 35.8943 365.229 35.8943 365.845C35.8943 366.461 35.7543 367.012 35.4744 367.5C35.2024 367.988 34.8225 368.372 34.3346 368.652C33.8467 368.924 33.2988 369.06 32.6909 369.06ZM32.6909 368.304C33.1388 368.304 33.5388 368.204 33.8907 368.004C34.2506 367.796 34.5306 367.504 34.7305 367.128C34.9305 366.752 35.0305 366.325 35.0305 365.845C35.0305 365.365 34.9305 364.937 34.7305 364.561C34.5306 364.185 34.2506 363.897 33.8907 363.697C33.5388 363.489 33.1388 363.385 32.6909 363.385C32.243 363.385 31.8391 363.489 31.4792 363.697C31.1272 363.897 30.8473 364.185 30.6393 364.561C30.4394 364.937 30.3394 365.365 30.3394 365.845C30.3394 366.325 30.4394 366.752 30.6393 367.128C30.8473 367.504 31.1272 367.796 31.4792 368.004C31.8391 368.204 32.243 368.304 32.6909 368.304ZM43.8344 368.256V370.524H43.0306V369H37.3797V370.524H36.5759V368.256H36.9358C37.3597 368.232 37.6477 367.92 37.7996 367.32C37.9516 366.72 38.0556 365.881 38.1116 364.801L38.1956 362.689H42.8506V368.256H43.8344ZM38.8914 364.849C38.8514 365.745 38.7754 366.485 38.6635 367.068C38.5515 367.644 38.3515 368.04 38.0636 368.256H41.9988V363.445H38.9634L38.8914 364.849Z" fill="white"></path> <path d="M20.8312 91.0451C22.047 91.0451 22.9308 91.2651 23.4827 91.705C24.0426 92.1369 24.3225 92.7448 24.3225 93.5286C24.3225 94.0165 24.2065 94.4524 23.9746 94.8363C23.7506 95.2203 23.4107 95.5242 22.9548 95.7482C22.4989 95.9641 21.939 96.0721 21.2751 96.0721C20.6753 96.0721 20.1034 95.9761 19.5595 95.7841C19.0236 95.5842 18.5917 95.3202 18.2637 94.9923L18.6837 94.3084C18.9636 94.5964 19.3315 94.8323 19.7874 95.0163C20.2433 95.1923 20.7352 95.2802 21.2631 95.2802C21.959 95.2802 22.4949 95.1243 22.8708 94.8123C23.2547 94.5004 23.4467 94.0845 23.4467 93.5646C23.4467 92.9887 23.2307 92.5528 22.7988 92.2569C22.3749 91.9609 21.6551 91.8129 20.6393 91.8129H18.8516L19.2835 87.6018H23.8786V88.3696H20.0394L19.7514 91.0451H20.8312ZM31.9065 96.0721C31.2586 96.0721 30.6787 95.9001 30.1668 95.5562C29.6629 95.2123 29.267 94.7204 28.9791 94.0805C28.6991 93.4326 28.5592 92.6728 28.5592 91.801C28.5592 90.9291 28.6991 90.1733 28.9791 89.5334C29.267 88.8855 29.6629 88.3896 30.1668 88.0457C30.6787 87.7018 31.2586 87.5298 31.9065 87.5298C32.5544 87.5298 33.1302 87.7018 33.6341 88.0457C34.146 88.3896 34.5459 88.8855 34.8339 89.5334C35.1218 90.1733 35.2658 90.9291 35.2658 91.801C35.2658 92.6728 35.1218 93.4326 34.8339 94.0805C34.5459 94.7204 34.146 95.2123 33.6341 95.5562C33.1302 95.9001 32.5544 96.0721 31.9065 96.0721ZM31.9065 95.2802C32.3944 95.2802 32.8223 95.1443 33.1902 94.8723C33.5661 94.6004 33.8581 94.2045 34.066 93.6846C34.274 93.1647 34.378 92.5368 34.378 91.801C34.378 91.0651 34.274 90.4372 34.066 89.9173C33.8581 89.3974 33.5661 89.0015 33.1902 88.7296C32.8223 88.4576 32.3944 88.3217 31.9065 88.3217C31.4186 88.3217 30.9867 88.4576 30.6107 88.7296C30.2428 89.0015 29.9549 89.3974 29.7469 89.9173C29.539 90.4372 29.435 91.0651 29.435 91.801C29.435 92.5368 29.539 93.1647 29.7469 93.6846C29.9549 94.2045 30.2428 94.6004 30.6107 94.8723C30.9867 95.1443 31.4186 95.2802 31.9065 95.2802ZM39.8502 96.0721C39.2023 96.0721 38.6224 95.9001 38.1105 95.5562C37.6066 95.2123 37.2107 94.7204 36.9228 94.0805C36.6428 93.4326 36.5029 92.6728 36.5029 91.801C36.5029 90.9291 36.6428 90.1733 36.9228 89.5334C37.2107 88.8855 37.6066 88.3896 38.1105 88.0457C38.6224 87.7018 39.2023 87.5298 39.8502 87.5298C40.4981 87.5298 41.0739 87.7018 41.5778 88.0457C42.0897 88.3896 42.4897 88.8855 42.7776 89.5334C43.0655 90.1733 43.2095 90.9291 43.2095 91.801C43.2095 92.6728 43.0655 93.4326 42.7776 94.0805C42.4897 94.7204 42.0897 95.2123 41.5778 95.5562C41.0739 95.9001 40.4981 96.0721 39.8502 96.0721ZM39.8502 95.2802C40.3381 95.2802 40.766 95.1443 41.1339 94.8723C41.5098 94.6004 41.8018 94.2045 42.0097 93.6846C42.2177 93.1647 42.3217 92.5368 42.3217 91.801C42.3217 91.0651 42.2177 90.4372 42.0097 89.9173C41.8018 89.3974 41.5098 89.0015 41.1339 88.7296C40.766 88.4576 40.3381 88.3217 39.8502 88.3217C39.3623 88.3217 38.9304 88.4576 38.5544 88.7296C38.1865 89.0015 37.8986 89.3974 37.6906 89.9173C37.4827 90.4372 37.3787 91.0651 37.3787 91.801C37.3787 92.5368 37.4827 93.1647 37.6906 93.6846C37.8986 94.2045 38.1865 94.6004 38.5544 94.8723C38.9304 95.1443 39.3623 95.2802 39.8502 95.2802ZM47.7939 96.0721C47.146 96.0721 46.5661 95.9001 46.0542 95.5562C45.5503 95.2123 45.1544 94.7204 44.8665 94.0805C44.5865 93.4326 44.4466 92.6728 44.4466 91.801C44.4466 90.9291 44.5865 90.1733 44.8665 89.5334C45.1544 88.8855 45.5503 88.3896 46.0542 88.0457C46.5661 87.7018 47.146 87.5298 47.7939 87.5298C48.4418 87.5298 49.0176 87.7018 49.5215 88.0457C50.0334 88.3896 50.4334 88.8855 50.7213 89.5334C51.0092 90.1733 51.1532 90.9291 51.1532 91.801C51.1532 92.6728 51.0092 93.4326 50.7213 94.0805C50.4334 94.7204 50.0334 95.2123 49.5215 95.5562C49.0176 95.9001 48.4418 96.0721 47.7939 96.0721ZM47.7939 95.2802C48.2818 95.2802 48.7097 95.1443 49.0776 94.8723C49.4536 94.6004 49.7455 94.2045 49.9535 93.6846C50.1614 93.1647 50.2654 92.5368 50.2654 91.801C50.2654 91.0651 50.1614 90.4372 49.9535 89.9173C49.7455 89.3974 49.4536 89.0015 49.0776 88.7296C48.7097 88.4576 48.2818 88.3217 47.7939 88.3217C47.306 88.3217 46.8741 88.4576 46.4982 88.7296C46.1302 89.0015 45.8423 89.3974 45.6343 89.9173C45.4264 90.4372 45.3224 91.0651 45.3224 91.801C45.3224 92.5368 45.4264 93.1647 45.6343 93.6846C45.8423 94.2045 46.1302 94.6004 46.4982 94.8723C46.8741 95.1443 47.306 95.2802 47.7939 95.2802ZM57.4139 93.1807V93.9125H60.1133V94.4404H57.4139V96.0001H56.5261V94.4404H55.2663V93.9125H56.5261V87.6018H59.6694C60.7492 87.6018 61.589 87.8458 62.1889 88.3337C62.7968 88.8136 63.1007 89.4974 63.1007 90.3852C63.1007 91.2811 62.7968 91.9729 62.1889 92.4608C61.589 92.9407 60.7492 93.1807 59.6694 93.1807H57.4139ZM57.4139 88.3696V92.4248H59.6814C60.4973 92.4248 61.1211 92.2489 61.553 91.8969C61.993 91.545 62.2129 91.0451 62.2129 90.3972C62.2129 89.7494 61.993 89.2495 61.553 88.8975C61.1211 88.5456 60.4973 88.3696 59.6814 88.3696H57.4139Z" fill="white"></path> <path d="M264.36 225.232V226H258.469V225.388L261.96 221.969C262.4 221.537 262.696 221.165 262.848 220.853C263.008 220.533 263.088 220.213 263.088 219.893C263.088 219.397 262.916 219.013 262.572 218.741C262.236 218.462 261.752 218.322 261.12 218.322C260.137 218.322 259.373 218.633 258.829 219.257L258.217 218.729C258.545 218.346 258.961 218.05 259.465 217.842C259.977 217.634 260.552 217.53 261.192 217.53C262.048 217.53 262.724 217.734 263.22 218.142C263.724 218.542 263.976 219.093 263.976 219.797C263.976 220.229 263.88 220.645 263.688 221.045C263.496 221.445 263.132 221.905 262.596 222.425L259.741 225.232H264.36ZM268.059 217.53C269.171 217.53 270.023 217.898 270.615 218.633C271.207 219.361 271.503 220.393 271.503 221.729C271.503 222.665 271.343 223.457 271.023 224.104C270.703 224.752 270.255 225.244 269.679 225.58C269.103 225.908 268.431 226.072 267.663 226.072C266.832 226.072 266.168 225.92 265.672 225.616L266.02 224.92C266.42 225.184 266.963 225.316 267.651 225.316C268.579 225.316 269.307 225.024 269.835 224.44C270.363 223.848 270.627 222.993 270.627 221.873C270.627 221.665 270.615 221.437 270.591 221.189C270.383 221.645 270.051 222.001 269.595 222.257C269.139 222.505 268.615 222.629 268.023 222.629C267.471 222.629 266.979 222.525 266.548 222.317C266.124 222.109 265.792 221.817 265.552 221.441C265.312 221.057 265.192 220.613 265.192 220.109C265.192 219.597 265.316 219.145 265.564 218.753C265.812 218.362 266.152 218.062 266.584 217.854C267.023 217.638 267.515 217.53 268.059 217.53ZM268.155 221.897C268.579 221.897 268.951 221.817 269.271 221.657C269.599 221.497 269.855 221.277 270.039 220.997C270.223 220.717 270.315 220.405 270.315 220.061C270.315 219.741 270.227 219.445 270.051 219.173C269.883 218.901 269.631 218.681 269.295 218.514C268.959 218.346 268.559 218.262 268.095 218.262C267.487 218.262 266.991 218.43 266.608 218.765C266.232 219.093 266.044 219.533 266.044 220.085C266.044 220.637 266.232 221.077 266.608 221.405C266.991 221.733 267.507 221.897 268.155 221.897ZM274.53 222.101C273.963 222.101 273.503 221.893 273.151 221.477C272.807 221.053 272.635 220.501 272.635 219.821C272.635 219.141 272.807 218.594 273.151 218.178C273.503 217.754 273.963 217.542 274.53 217.542C275.09 217.542 275.546 217.75 275.898 218.166C276.25 218.582 276.426 219.133 276.426 219.821C276.426 220.509 276.25 221.061 275.898 221.477C275.546 221.893 275.09 222.101 274.53 222.101ZM279.617 217.602H280.325L274.59 226H273.883L279.617 217.602ZM274.53 221.561C274.922 221.561 275.234 221.409 275.466 221.105C275.706 220.793 275.826 220.365 275.826 219.821C275.826 219.277 275.706 218.853 275.466 218.55C275.234 218.238 274.922 218.082 274.53 218.082C274.131 218.082 273.815 218.238 273.583 218.55C273.351 218.861 273.235 219.285 273.235 219.821C273.235 220.357 273.351 220.781 273.583 221.093C273.815 221.405 274.131 221.561 274.53 221.561ZM279.677 226.06C279.118 226.06 278.662 225.852 278.31 225.436C277.958 225.012 277.782 224.46 277.782 223.78C277.782 223.101 277.958 222.553 278.31 222.137C278.662 221.713 279.118 221.501 279.677 221.501C280.245 221.501 280.701 221.713 281.045 222.137C281.397 222.553 281.573 223.101 281.573 223.78C281.573 224.46 281.397 225.012 281.045 225.436C280.701 225.852 280.245 226.06 279.677 226.06ZM279.677 225.52C280.077 225.52 280.393 225.364 280.625 225.052C280.857 224.74 280.973 224.316 280.973 223.78C280.973 223.245 280.857 222.821 280.625 222.509C280.393 222.197 280.077 222.041 279.677 222.041C279.286 222.041 278.97 222.197 278.73 222.509C278.498 222.813 278.382 223.237 278.382 223.78C278.382 224.324 278.498 224.752 278.73 225.064C278.97 225.368 279.286 225.52 279.677 225.52Z" fill="white"></path> <path d="M248.478 366.201C249.358 366.249 250.026 366.489 250.482 366.921C250.946 367.345 251.178 367.901 251.178 368.588C251.178 369.068 251.062 369.496 250.83 369.872C250.598 370.24 250.254 370.532 249.798 370.748C249.342 370.964 248.786 371.072 248.13 371.072C247.522 371.072 246.947 370.976 246.403 370.784C245.867 370.584 245.435 370.32 245.107 369.992L245.527 369.308C245.807 369.596 246.179 369.832 246.643 370.016C247.107 370.192 247.602 370.28 248.13 370.28C248.818 370.28 249.35 370.132 249.726 369.836C250.102 369.532 250.29 369.116 250.29 368.588C250.29 368.069 250.102 367.661 249.726 367.365C249.35 367.069 248.782 366.921 248.022 366.921H247.423V366.285L249.75 363.37H245.455V362.602H250.854V363.214L248.478 366.201ZM255.742 371.072C255.094 371.072 254.515 370.9 254.003 370.556C253.499 370.212 253.103 369.72 252.815 369.08C252.535 368.433 252.395 367.673 252.395 366.801C252.395 365.929 252.535 365.173 252.815 364.533C253.103 363.885 253.499 363.39 254.003 363.046C254.515 362.702 255.094 362.53 255.742 362.53C256.39 362.53 256.966 362.702 257.47 363.046C257.982 363.39 258.382 363.885 258.67 364.533C258.958 365.173 259.102 365.929 259.102 366.801C259.102 367.673 258.958 368.433 258.67 369.08C258.382 369.72 257.982 370.212 257.47 370.556C256.966 370.9 256.39 371.072 255.742 371.072ZM255.742 370.28C256.23 370.28 256.658 370.144 257.026 369.872C257.402 369.6 257.694 369.204 257.902 368.684C258.11 368.165 258.214 367.537 258.214 366.801C258.214 366.065 258.11 365.437 257.902 364.917C257.694 364.397 257.402 364.001 257.026 363.729C256.658 363.458 256.23 363.322 255.742 363.322C255.254 363.322 254.822 363.458 254.447 363.729C254.079 364.001 253.791 364.397 253.583 364.917C253.375 365.437 253.271 366.065 253.271 366.801C253.271 367.537 253.375 368.165 253.583 368.684C253.791 369.204 254.079 369.6 254.447 369.872C254.822 370.144 255.254 370.28 255.742 370.28ZM269.225 364.689V371H268.374V365.445H265.35L265.266 367.005C265.202 368.317 265.05 369.324 264.81 370.028C264.57 370.732 264.142 371.084 263.527 371.084C263.359 371.084 263.155 371.052 262.915 370.988L262.975 370.256C263.119 370.288 263.219 370.304 263.275 370.304C263.603 370.304 263.851 370.152 264.019 369.848C264.186 369.544 264.298 369.168 264.354 368.72C264.41 368.273 264.458 367.681 264.498 366.945L264.606 364.689H269.225ZM277.166 368.109H271.887C271.935 368.764 272.187 369.296 272.643 369.704C273.099 370.104 273.675 370.304 274.37 370.304C274.762 370.304 275.122 370.236 275.45 370.1C275.778 369.956 276.062 369.748 276.302 369.476L276.782 370.028C276.502 370.364 276.15 370.62 275.726 370.796C275.31 370.972 274.85 371.06 274.346 371.06C273.699 371.06 273.123 370.924 272.619 370.652C272.123 370.372 271.735 369.988 271.455 369.5C271.175 369.012 271.035 368.461 271.035 367.845C271.035 367.229 271.167 366.677 271.431 366.189C271.703 365.701 272.071 365.321 272.535 365.049C273.007 364.777 273.535 364.641 274.119 364.641C274.702 364.641 275.226 364.777 275.69 365.049C276.154 365.321 276.518 365.701 276.782 366.189C277.046 366.669 277.178 367.221 277.178 367.845L277.166 368.109ZM274.119 365.373C273.511 365.373 272.999 365.569 272.583 365.961C272.175 366.345 271.943 366.849 271.887 367.473H276.362C276.306 366.849 276.07 366.345 275.654 365.961C275.246 365.569 274.734 365.373 274.119 365.373ZM283.221 365.445H280.834V371H279.982V365.445H277.595V364.689H283.221V365.445Z" fill="white"></path> <path d="M222.95 87.6018V96.0001H222.087V88.3696H220.107V87.6018H222.95ZM231.445 96.0721C230.797 96.0721 230.217 95.9001 229.706 95.5562C229.202 95.2123 228.806 94.7204 228.518 94.0805C228.238 93.4326 228.098 92.6728 228.098 91.801C228.098 90.9291 228.238 90.1733 228.518 89.5334C228.806 88.8855 229.202 88.3896 229.706 88.0457C230.217 87.7018 230.797 87.5298 231.445 87.5298C232.093 87.5298 232.669 87.7018 233.173 88.0457C233.685 88.3896 234.085 88.8855 234.373 89.5334C234.661 90.1733 234.805 90.9291 234.805 91.801C234.805 92.6728 234.661 93.4326 234.373 94.0805C234.085 94.7204 233.685 95.2123 233.173 95.5562C232.669 95.9001 232.093 96.0721 231.445 96.0721ZM231.445 95.2802C231.933 95.2802 232.361 95.1443 232.729 94.8723C233.105 94.6004 233.397 94.2045 233.605 93.6846C233.813 93.1647 233.917 92.5368 233.917 91.801C233.917 91.0651 233.813 90.4372 233.605 89.9173C233.397 89.3974 233.105 89.0015 232.729 88.7296C232.361 88.4576 231.933 88.3217 231.445 88.3217C230.957 88.3217 230.525 88.4576 230.15 88.7296C229.782 89.0015 229.494 89.3974 229.286 89.9173C229.078 90.4372 228.974 91.0651 228.974 91.801C228.974 92.5368 229.078 93.1647 229.286 93.6846C229.494 94.2045 229.782 94.6004 230.15 94.8723C230.525 95.1443 230.957 95.2802 231.445 95.2802ZM239.389 96.0721C238.741 96.0721 238.161 95.9001 237.649 95.5562C237.145 95.2123 236.749 94.7204 236.462 94.0805C236.182 93.4326 236.042 92.6728 236.042 91.801C236.042 90.9291 236.182 90.1733 236.462 89.5334C236.749 88.8855 237.145 88.3896 237.649 88.0457C238.161 87.7018 238.741 87.5298 239.389 87.5298C240.037 87.5298 240.613 87.7018 241.117 88.0457C241.628 88.3896 242.028 88.8855 242.316 89.5334C242.604 90.1733 242.748 90.9291 242.748 91.801C242.748 92.6728 242.604 93.4326 242.316 94.0805C242.028 94.7204 241.628 95.2123 241.117 95.5562C240.613 95.9001 240.037 96.0721 239.389 96.0721ZM239.389 95.2802C239.877 95.2802 240.305 95.1443 240.673 94.8723C241.049 94.6004 241.341 94.2045 241.549 93.6846C241.756 93.1647 241.86 92.5368 241.86 91.801C241.86 91.0651 241.756 90.4372 241.549 89.9173C241.341 89.3974 241.049 89.0015 240.673 88.7296C240.305 88.4576 239.877 88.3217 239.389 88.3217C238.901 88.3217 238.469 88.4576 238.093 88.7296C237.725 89.0015 237.437 89.3974 237.229 89.9173C237.021 90.4372 236.917 91.0651 236.917 91.801C236.917 92.5368 237.021 93.1647 237.229 93.6846C237.437 94.2045 237.725 94.6004 238.093 94.8723C238.469 95.1443 238.901 95.2802 239.389 95.2802ZM250.473 96.0721C249.825 96.0721 249.245 95.9001 248.733 95.5562C248.229 95.2123 247.833 94.7204 247.545 94.0805C247.265 93.4326 247.125 92.6728 247.125 91.801C247.125 90.9291 247.265 90.1733 247.545 89.5334C247.833 88.8855 248.229 88.3896 248.733 88.0457C249.245 87.7018 249.825 87.5298 250.473 87.5298C251.121 87.5298 251.696 87.7018 252.2 88.0457C252.712 88.3896 253.112 88.8855 253.4 89.5334C253.688 90.1733 253.832 90.9291 253.832 91.801C253.832 92.6728 253.688 93.4326 253.4 94.0805C253.112 94.7204 252.712 95.2123 252.2 95.5562C251.696 95.9001 251.121 96.0721 250.473 96.0721ZM250.473 95.2802C250.961 95.2802 251.388 95.1443 251.756 94.8723C252.132 94.6004 252.424 94.2045 252.632 93.6846C252.84 93.1647 252.944 92.5368 252.944 91.801C252.944 91.0651 252.84 90.4372 252.632 89.9173C252.424 89.3974 252.132 89.0015 251.756 88.7296C251.388 88.4576 250.961 88.3217 250.473 88.3217C249.985 88.3217 249.553 88.4576 249.177 88.7296C248.809 89.0015 248.521 89.3974 248.313 89.9173C248.105 90.4372 248.001 91.0651 248.001 91.801C248.001 92.5368 248.105 93.1647 248.313 93.6846C248.521 94.2045 248.809 94.6004 249.177 94.8723C249.553 95.1443 249.985 95.2802 250.473 95.2802ZM258.416 96.0721C257.768 96.0721 257.189 95.9001 256.677 95.5562C256.173 95.2123 255.777 94.7204 255.489 94.0805C255.209 93.4326 255.069 92.6728 255.069 91.801C255.069 90.9291 255.209 90.1733 255.489 89.5334C255.777 88.8855 256.173 88.3896 256.677 88.0457C257.189 87.7018 257.768 87.5298 258.416 87.5298C259.064 87.5298 259.64 87.7018 260.144 88.0457C260.656 88.3896 261.056 88.8855 261.344 89.5334C261.632 90.1733 261.776 90.9291 261.776 91.801C261.776 92.6728 261.632 93.4326 261.344 94.0805C261.056 94.7204 260.656 95.2123 260.144 95.5562C259.64 95.9001 259.064 96.0721 258.416 96.0721ZM258.416 95.2802C258.904 95.2802 259.332 95.1443 259.7 94.8723C260.076 94.6004 260.368 94.2045 260.576 93.6846C260.784 93.1647 260.888 92.5368 260.888 91.801C260.888 91.0651 260.784 90.4372 260.576 89.9173C260.368 89.3974 260.076 89.0015 259.7 88.7296C259.332 88.4576 258.904 88.3217 258.416 88.3217C257.928 88.3217 257.497 88.4576 257.121 88.7296C256.753 89.0015 256.465 89.3974 256.257 89.9173C256.049 90.4372 255.945 91.0651 255.945 91.801C255.945 92.5368 256.049 93.1647 256.257 93.6846C256.465 94.2045 256.753 94.6004 257.121 94.8723C257.497 95.1443 257.928 95.2802 258.416 95.2802ZM266.36 96.0721C265.712 96.0721 265.132 95.9001 264.62 95.5562C264.117 95.2123 263.721 94.7204 263.433 94.0805C263.153 93.4326 263.013 92.6728 263.013 91.801C263.013 90.9291 263.153 90.1733 263.433 89.5334C263.721 88.8855 264.117 88.3896 264.62 88.0457C265.132 87.7018 265.712 87.5298 266.36 87.5298C267.008 87.5298 267.584 87.7018 268.088 88.0457C268.6 88.3896 269 88.8855 269.287 89.5334C269.575 90.1733 269.719 90.9291 269.719 91.801C269.719 92.6728 269.575 93.4326 269.287 94.0805C269 94.7204 268.6 95.2123 268.088 95.5562C267.584 95.9001 267.008 96.0721 266.36 96.0721ZM266.36 95.2802C266.848 95.2802 267.276 95.1443 267.644 94.8723C268.02 94.6004 268.312 94.2045 268.52 93.6846C268.728 93.1647 268.832 92.5368 268.832 91.801C268.832 91.0651 268.728 90.4372 268.52 89.9173C268.312 89.3974 268.02 89.0015 267.644 88.7296C267.276 88.4576 266.848 88.3217 266.36 88.3217C265.872 88.3217 265.44 88.4576 265.064 88.7296C264.696 89.0015 264.408 89.3974 264.2 89.9173C263.993 90.4372 263.889 91.0651 263.889 91.801C263.889 92.5368 263.993 93.1647 264.2 93.6846C264.408 94.2045 264.696 94.6004 265.064 94.8723C265.44 95.1443 265.872 95.2802 266.36 95.2802ZM275.98 93.1807V93.9125H278.679V94.4404H275.98V96.0001H275.092V94.4404H273.832V93.9125H275.092V87.6018H278.236C279.315 87.6018 280.155 87.8458 280.755 88.3337C281.363 88.8136 281.667 89.4974 281.667 90.3852C281.667 91.2811 281.363 91.9729 280.755 92.4608C280.155 92.9407 279.315 93.1807 278.236 93.1807H275.98ZM275.98 88.3696V92.4248H278.248C279.063 92.4248 279.687 92.2489 280.119 91.8969C280.559 91.545 280.779 91.0451 280.779 90.3972C280.779 89.7494 280.559 89.2495 280.119 88.8975C279.687 88.5456 279.063 88.3696 278.248 88.3696H275.98Z" fill="white"></path> <path opacity="0.8" d="M189.98 304.746C189.644 304.194 189.386 303.561 189.206 302.847C189.026 302.127 188.936 301.356 188.936 300.534C188.936 299.712 189.026 298.941 189.206 298.221C189.386 297.495 189.644 296.862 189.98 296.322H190.592C190.238 296.928 189.977 297.579 189.809 298.275C189.647 298.971 189.566 299.724 189.566 300.534C189.566 301.344 189.647 302.097 189.809 302.793C189.977 303.489 190.238 304.14 190.592 304.746H189.98ZM192.024 296.7H196.632V297.267H192.681V299.328H194.742C195.486 299.328 196.05 299.481 196.434 299.787C196.824 300.093 197.019 300.537 197.019 301.119C197.019 301.725 196.809 302.19 196.389 302.514C195.975 302.838 195.378 303 194.598 303H192.024V296.7ZM194.589 302.469C195.171 302.469 195.609 302.358 195.903 302.136C196.203 301.914 196.353 301.584 196.353 301.146C196.353 300.714 196.206 300.393 195.912 300.183C195.624 299.967 195.183 299.859 194.589 299.859H192.681V302.469H194.589ZM202.55 300.831H198.59C198.626 301.323 198.815 301.722 199.157 302.028C199.499 302.328 199.931 302.478 200.453 302.478C200.747 302.478 201.017 302.427 201.263 302.325C201.509 302.217 201.722 302.061 201.902 301.857L202.262 302.271C202.052 302.523 201.788 302.715 201.47 302.847C201.158 302.979 200.813 303.045 200.435 303.045C199.949 303.045 199.517 302.943 199.139 302.739C198.767 302.529 198.476 302.241 198.266 301.875C198.056 301.509 197.951 301.095 197.951 300.633C197.951 300.171 198.05 299.757 198.248 299.391C198.452 299.025 198.728 298.74 199.076 298.536C199.43 298.332 199.826 298.23 200.264 298.23C200.702 298.23 201.095 298.332 201.443 298.536C201.791 298.74 202.064 299.025 202.262 299.391C202.46 299.751 202.559 300.165 202.559 300.633L202.55 300.831ZM200.264 298.779C199.808 298.779 199.424 298.926 199.112 299.22C198.806 299.508 198.632 299.886 198.59 300.354H201.947C201.905 299.886 201.728 299.508 201.416 299.22C201.11 298.926 200.726 298.779 200.264 298.779ZM206.146 300.534C206.482 300.612 206.74 300.747 206.92 300.939C207.106 301.131 207.199 301.365 207.199 301.641C207.199 301.917 207.103 302.163 206.911 302.379C206.725 302.595 206.47 302.763 206.146 302.883C205.822 302.997 205.465 303.054 205.075 303.054C204.733 303.054 204.397 303.006 204.067 302.91C203.737 302.808 203.449 302.661 203.203 302.469L203.419 301.992C203.635 302.154 203.887 302.28 204.175 302.37C204.463 302.46 204.754 302.505 205.048 302.505C205.486 302.505 205.843 302.424 206.119 302.262C206.401 302.094 206.542 301.869 206.542 301.587C206.542 301.335 206.428 301.14 206.2 301.002C205.972 300.858 205.66 300.786 205.264 300.786H204.454V300.318H205.228C205.582 300.318 205.867 300.252 206.083 300.12C206.299 299.982 206.407 299.799 206.407 299.571C206.407 299.319 206.284 299.121 206.038 298.977C205.798 298.833 205.483 298.761 205.093 298.761C204.583 298.761 204.079 298.89 203.581 299.148L203.401 298.653C203.965 298.359 204.55 298.212 205.156 298.212C205.516 298.212 205.84 298.266 206.128 298.374C206.422 298.476 206.65 298.623 206.812 298.815C206.98 299.007 207.064 299.229 207.064 299.481C207.064 299.721 206.98 299.934 206.812 300.12C206.65 300.306 206.428 300.444 206.146 300.534ZM211.005 298.266H211.644V302.028L214.803 298.266H215.37V303H214.731V299.238L211.581 303H211.005V298.266ZM219.408 300.534C219.744 300.612 220.002 300.747 220.182 300.939C220.368 301.131 220.461 301.365 220.461 301.641C220.461 301.917 220.365 302.163 220.173 302.379C219.987 302.595 219.732 302.763 219.408 302.883C219.084 302.997 218.727 303.054 218.337 303.054C217.995 303.054 217.659 303.006 217.329 302.91C216.999 302.808 216.711 302.661 216.465 302.469L216.681 301.992C216.897 302.154 217.149 302.28 217.437 302.37C217.725 302.46 218.016 302.505 218.31 302.505C218.748 302.505 219.105 302.424 219.381 302.262C219.663 302.094 219.804 301.869 219.804 301.587C219.804 301.335 219.69 301.14 219.462 301.002C219.234 300.858 218.922 300.786 218.526 300.786H217.716V300.318H218.49C218.844 300.318 219.129 300.252 219.345 300.12C219.561 299.982 219.669 299.799 219.669 299.571C219.669 299.319 219.546 299.121 219.3 298.977C219.06 298.833 218.745 298.761 218.355 298.761C217.845 298.761 217.341 298.89 216.843 299.148L216.663 298.653C217.227 298.359 217.812 298.212 218.418 298.212C218.778 298.212 219.102 298.266 219.39 298.374C219.684 298.476 219.912 298.623 220.074 298.815C220.242 299.007 220.326 299.229 220.326 299.481C220.326 299.721 220.242 299.934 220.074 300.12C219.912 300.306 219.69 300.444 219.408 300.534ZM224.495 299.922C225.077 299.922 225.521 300.054 225.827 300.318C226.133 300.582 226.286 300.954 226.286 301.434C226.286 301.944 226.121 302.334 225.791 302.604C225.461 302.868 224.987 303 224.369 303H222.497V298.833H221.021V298.266H223.136V299.922H224.495ZM224.36 302.505C224.78 302.505 225.098 302.415 225.314 302.235C225.53 302.055 225.638 301.788 225.638 301.434C225.638 300.75 225.212 300.408 224.36 300.408H223.136V302.505H224.36ZM230.786 298.266V303H230.201V301.434H228.716H228.536L227.438 303H226.745L227.924 301.344C227.558 301.242 227.276 301.068 227.078 300.822C226.88 300.576 226.781 300.264 226.781 299.886C226.781 299.358 226.961 298.956 227.321 298.68C227.681 298.404 228.173 298.266 228.797 298.266H230.786ZM227.429 299.904C227.429 300.606 227.876 300.957 228.77 300.957H230.201V298.833H228.815C227.891 298.833 227.429 299.19 227.429 299.904ZM235.938 298.833H234.147V303H233.508V298.833H231.717V298.266H235.938V298.833ZM236.862 298.266H237.501V302.028L240.66 298.266H241.227V303H240.588V299.238L237.438 303H236.862V298.266ZM246.694 298.266V303H246.109V301.434H244.624H244.444L243.346 303H242.653L243.832 301.344C243.466 301.242 243.184 301.068 242.986 300.822C242.788 300.576 242.689 300.264 242.689 299.886C242.689 299.358 242.869 298.956 243.229 298.68C243.589 298.404 244.081 298.266 244.705 298.266H246.694ZM243.337 299.904C243.337 300.606 243.784 300.957 244.678 300.957H246.109V298.833H244.723C243.799 298.833 243.337 299.19 243.337 299.904ZM252.852 303.045C252.384 303.045 251.964 302.943 251.592 302.739C251.226 302.535 250.938 302.25 250.728 301.884C250.518 301.512 250.413 301.095 250.413 300.633C250.413 300.171 250.518 299.757 250.728 299.391C250.938 299.025 251.226 298.74 251.592 298.536C251.964 298.332 252.384 298.23 252.852 298.23C253.26 298.23 253.623 298.311 253.941 298.473C254.265 298.629 254.52 298.86 254.706 299.166L254.229 299.49C254.073 299.256 253.875 299.082 253.635 298.968C253.395 298.848 253.134 298.788 252.852 298.788C252.51 298.788 252.201 298.866 251.925 299.022C251.655 299.172 251.442 299.388 251.286 299.67C251.136 299.952 251.061 300.273 251.061 300.633C251.061 300.999 251.136 301.323 251.286 301.605C251.442 301.881 251.655 302.097 251.925 302.253C252.201 302.403 252.51 302.478 252.852 302.478C253.134 302.478 253.395 302.421 253.635 302.307C253.875 302.193 254.073 302.019 254.229 301.785L254.706 302.109C254.52 302.415 254.265 302.649 253.941 302.811C253.617 302.967 253.254 303.045 252.852 303.045ZM258.382 298.23C258.826 298.23 259.228 298.332 259.588 298.536C259.948 298.734 260.23 299.016 260.434 299.382C260.638 299.748 260.74 300.165 260.74 300.633C260.74 301.107 260.638 301.527 260.434 301.893C260.23 302.259 259.948 302.544 259.588 302.748C259.234 302.946 258.832 303.045 258.382 303.045C257.998 303.045 257.65 302.967 257.338 302.811C257.032 302.649 256.78 302.415 256.582 302.109V304.746H255.943V298.266H256.555V299.202C256.747 298.89 256.999 298.65 257.311 298.482C257.629 298.314 257.986 298.23 258.382 298.23ZM258.337 302.478C258.667 302.478 258.967 302.403 259.237 302.253C259.507 302.097 259.717 301.878 259.867 301.596C260.023 301.314 260.101 300.993 260.101 300.633C260.101 300.273 260.023 299.955 259.867 299.679C259.717 299.397 259.507 299.178 259.237 299.022C258.967 298.866 258.667 298.788 258.337 298.788C258.001 298.788 257.698 298.866 257.428 299.022C257.164 299.178 256.954 299.397 256.798 299.679C256.648 299.955 256.573 300.273 256.573 300.633C256.573 300.993 256.648 301.314 256.798 301.596C256.954 301.878 257.164 302.097 257.428 302.253C257.698 302.403 258.001 302.478 258.337 302.478ZM266.253 300.831H262.293C262.329 301.323 262.518 301.722 262.86 302.028C263.202 302.328 263.634 302.478 264.156 302.478C264.45 302.478 264.72 302.427 264.966 302.325C265.212 302.217 265.425 302.061 265.605 301.857L265.965 302.271C265.755 302.523 265.491 302.715 265.173 302.847C264.861 302.979 264.516 303.045 264.138 303.045C263.652 303.045 263.22 302.943 262.842 302.739C262.47 302.529 262.179 302.241 261.969 301.875C261.759 301.509 261.654 301.095 261.654 300.633C261.654 300.171 261.753 299.757 261.951 299.391C262.155 299.025 262.431 298.74 262.779 298.536C263.133 298.332 263.529 298.23 263.967 298.23C264.405 298.23 264.798 298.332 265.146 298.536C265.494 298.74 265.767 299.025 265.965 299.391C266.163 299.751 266.262 300.165 266.262 300.633L266.253 300.831ZM263.967 298.779C263.511 298.779 263.127 298.926 262.815 299.22C262.509 299.508 262.335 299.886 262.293 300.354H265.65C265.608 299.886 265.431 299.508 265.119 299.22C264.813 298.926 264.429 298.779 263.967 298.779ZM272.197 302.442V304.143H271.594V303H267.355V304.143H266.752V302.442H267.022C267.34 302.424 267.556 302.19 267.67 301.74C267.784 301.29 267.862 300.66 267.904 299.85L267.967 298.266H271.459V302.442H272.197ZM268.489 299.886C268.459 300.558 268.402 301.113 268.318 301.551C268.234 301.983 268.084 302.28 267.868 302.442H270.82V298.833H268.543L268.489 299.886ZM275.422 303.045C274.954 303.045 274.534 302.943 274.162 302.739C273.796 302.535 273.508 302.25 273.298 301.884C273.088 301.512 272.983 301.095 272.983 300.633C272.983 300.171 273.088 299.757 273.298 299.391C273.508 299.025 273.796 298.74 274.162 298.536C274.534 298.332 274.954 298.23 275.422 298.23C275.83 298.23 276.193 298.311 276.511 298.473C276.835 298.629 277.09 298.86 277.276 299.166L276.799 299.49C276.643 299.256 276.445 299.082 276.205 298.968C275.965 298.848 275.704 298.788 275.422 298.788C275.08 298.788 274.771 298.866 274.495 299.022C274.225 299.172 274.012 299.388 273.856 299.67C273.706 299.952 273.631 300.273 273.631 300.633C273.631 300.999 273.706 301.323 273.856 301.605C274.012 301.881 274.225 302.097 274.495 302.253C274.771 302.403 275.08 302.478 275.422 302.478C275.704 302.478 275.965 302.421 276.205 302.307C276.445 302.193 276.643 302.019 276.799 301.785L277.276 302.109C277.09 302.415 276.835 302.649 276.511 302.811C276.187 302.967 275.824 303.045 275.422 303.045ZM281.756 298.833H279.965V303H279.326V298.833H277.535V298.266H281.756V298.833ZM285.695 300.552C286.337 300.702 286.658 301.089 286.658 301.713C286.658 302.127 286.505 302.445 286.199 302.667C285.893 302.889 285.437 303 284.831 303H282.68V298.266H284.768C285.308 298.266 285.731 298.371 286.037 298.581C286.343 298.791 286.496 299.091 286.496 299.481C286.496 299.739 286.424 299.961 286.28 300.147C286.142 300.327 285.947 300.462 285.695 300.552ZM283.301 300.372H284.723C285.089 300.372 285.368 300.303 285.56 300.165C285.758 300.027 285.857 299.826 285.857 299.562C285.857 299.298 285.758 299.1 285.56 298.968C285.368 298.836 285.089 298.77 284.723 298.77H283.301V300.372ZM284.804 302.496C285.212 302.496 285.518 302.43 285.722 302.298C285.926 302.166 286.028 301.959 286.028 301.677C286.028 301.395 285.935 301.188 285.749 301.056C285.563 300.918 285.269 300.849 284.867 300.849H283.301V302.496H284.804ZM287.606 304.746C287.96 304.14 288.221 303.492 288.389 302.802C288.557 302.106 288.641 301.35 288.641 300.534C288.641 299.718 288.557 298.965 288.389 298.275C288.221 297.579 287.96 296.928 287.606 296.322H288.218C288.554 296.862 288.812 297.495 288.992 298.221C289.178 298.941 289.271 299.712 289.271 300.534C289.271 301.356 289.181 302.127 289.001 302.847C288.821 303.567 288.56 304.2 288.218 304.746H287.606Z" fill="white"></path> </svg> 