<?xml version="1.0" encoding="UTF-8"?> <svg xmlns="http://www.w3.org/2000/svg" width="589" height="211" viewBox="0 0 589 211" fill="none"> <path d="M85.1084 78H35.5332C30.1979 78 25.346 76.9974 20.9775 74.9922C16.609 72.987 12.8672 70.2477 9.75195 66.7744C6.67253 63.3011 4.29134 59.2191 2.6084 54.5283C0.925456 49.8376 0.0839844 44.8245 0.0839844 39.4893C0.0839844 34.1898 0.925456 29.2126 2.6084 24.5576C4.29134 19.8669 6.67253 15.7848 9.75195 12.3115C12.8672 8.80241 16.609 6.04525 20.9775 4.04004C25.346 1.99902 30.1979 0.978516 35.5332 0.978516H85.1084V11.9893H35.5332C31.7376 11.9893 28.318 12.7233 25.2744 14.1914C22.2666 15.6237 19.7064 17.5931 17.5938 20.0996C15.5169 22.5703 13.9056 25.4707 12.7598 28.8008C11.6497 32.1309 11.0947 35.6937 11.0947 39.4893C11.0947 43.2848 11.6497 46.8656 12.7598 50.2314C13.9056 53.5615 15.5169 56.4798 17.5938 58.9863C19.7064 61.457 22.2666 63.4085 25.2744 64.8408C28.318 66.2731 31.7376 66.9893 35.5332 66.9893H85.1084V78ZM187.374 78H172.496L149.4 55.9785H115.67V45.1289H159.874C162.166 45.1289 164.314 44.6992 166.319 43.8398C168.325 42.9447 170.061 41.7451 171.529 40.2412C173.033 38.7373 174.215 36.9827 175.074 34.9775C175.934 32.9365 176.363 30.7702 176.363 28.4785C176.363 26.1868 175.934 24.0384 175.074 22.0332C174.215 20.028 173.033 18.2913 171.529 16.8232C170.061 15.3193 168.325 14.1377 166.319 13.2783C164.314 12.4189 162.166 11.9893 159.874 11.9893H109.493V78H98.4824V0.978516H159.874C163.67 0.978516 167.232 1.71257 170.562 3.18066C173.893 4.61296 176.793 6.58236 179.264 9.08887C181.77 11.5596 183.74 14.46 185.172 17.79C186.64 21.1201 187.374 24.6829 187.374 28.4785C187.374 31.916 186.783 35.1745 185.602 38.2539C184.42 41.2975 182.791 44.0368 180.714 46.4717C178.637 48.8708 176.184 50.876 173.355 52.4873C170.562 54.0628 167.537 55.1191 164.278 55.6562L187.374 78ZM287.545 55.9785C287.545 59.0579 286.811 61.9404 285.343 64.626C283.91 67.2757 281.941 69.6032 279.435 71.6084C276.964 73.5778 274.063 75.1354 270.733 76.2812C267.403 77.4271 263.84 78 260.045 78H198.546V66.9893H260.045C262.301 66.9893 264.431 66.7028 266.437 66.1299C268.442 65.557 270.178 64.7692 271.646 63.7666C273.15 62.764 274.332 61.6003 275.191 60.2754C276.087 58.9147 276.534 57.4824 276.534 55.9785V50.5H226.046C222.25 50.5 218.67 49.7839 215.304 48.3516C211.974 46.9193 209.055 44.9678 206.549 42.4971C204.078 39.9906 202.127 37.0723 200.694 33.7422C199.262 30.3763 198.546 26.7956 198.546 23V0.978516H209.557V23C209.557 25.2917 209.986 27.4401 210.846 29.4453C211.705 31.4505 212.869 33.2051 214.337 34.709C215.841 36.1771 217.595 37.3408 219.601 38.2002C221.606 39.0596 223.754 39.4893 226.046 39.4893H276.534V0.978516H287.545V55.9785ZM394.269 28.4785C394.269 32.2741 393.535 35.8548 392.066 39.2207C390.634 42.5508 388.665 45.4691 386.158 47.9756C383.688 50.4463 380.787 52.3978 377.457 53.8301C374.127 55.2624 370.564 55.9785 366.769 55.9785H322.564V45.1289H366.769C369.06 45.1289 371.209 44.6992 373.214 43.8398C375.219 42.9447 376.956 41.7451 378.424 40.2412C379.928 38.7373 381.109 36.9827 381.969 34.9775C382.828 32.9365 383.258 30.7702 383.258 28.4785C383.258 26.1868 382.828 24.0384 381.969 22.0332C381.109 20.028 379.928 18.2913 378.424 16.8232C376.956 15.3193 375.219 14.1377 373.214 13.2783C371.209 12.4189 369.06 11.9893 366.769 11.9893H316.388V78H305.377V0.978516H366.769C370.564 0.978516 374.127 1.71257 377.457 3.18066C380.787 4.61296 383.688 6.58236 386.158 9.08887C388.665 11.5596 390.634 14.46 392.066 17.79C393.535 21.1201 394.269 24.6829 394.269 28.4785ZM448.033 78H437.022V11.9893H398.082V0.978516H486.974V11.9893H448.033V78ZM588.004 39.4893C588.004 44.8245 587.162 49.8376 585.479 54.5283C583.797 59.2191 581.397 63.3011 578.282 66.7744C575.203 70.2477 571.497 72.987 567.164 74.9922C562.831 76.9974 558.015 78 552.716 78H527.096C521.76 78 516.909 76.9974 512.54 74.9922C508.172 72.987 504.43 70.2477 501.314 66.7744C498.235 63.3011 495.854 59.2191 494.171 54.5283C492.488 49.8376 491.646 44.8245 491.646 39.4893C491.646 34.1898 492.488 29.2126 494.171 24.5576C495.854 19.8669 498.235 15.7848 501.314 12.3115C504.43 8.80241 508.172 6.04525 512.54 4.04004C516.909 1.99902 521.76 0.978516 527.096 0.978516H552.716C558.015 0.978516 562.831 1.99902 567.164 4.04004C571.497 6.04525 575.203 8.80241 578.282 12.3115C581.397 15.7848 583.797 19.8669 585.479 24.5576C587.162 29.2126 588.004 34.1898 588.004 39.4893ZM576.993 39.4893C576.993 35.6937 576.438 32.1309 575.328 28.8008C574.218 25.4707 572.607 22.5703 570.494 20.0996C568.417 17.5931 565.875 15.6237 562.867 14.1914C559.895 12.7233 556.511 11.9893 552.716 11.9893H527.096C523.3 11.9893 519.881 12.7233 516.837 14.1914C513.829 15.6237 511.269 17.5931 509.156 20.0996C507.079 22.5703 505.468 25.4707 504.322 28.8008C503.212 32.1309 502.657 35.6937 502.657 39.4893C502.657 43.2848 503.212 46.8656 504.322 50.2314C505.468 53.5615 507.079 56.4798 509.156 58.9863C511.269 61.457 513.829 63.4085 516.837 64.8408C519.881 66.2731 523.3 66.9893 527.096 66.9893H552.716C556.511 66.9893 559.895 66.2731 562.867 64.8408C565.875 63.4085 568.417 61.457 570.494 58.9863C572.607 56.4798 574.218 53.5615 575.328 50.2314C576.438 46.8656 576.993 43.2848 576.993 39.4893ZM97.999 211H86.9883V133.979H97.999V211ZM127.54 211H116.529V133.979H122.008C125.589 133.979 129.384 134.444 133.395 135.375C137.441 136.306 141.559 137.649 145.748 139.403C149.938 141.158 154.109 143.288 158.263 145.795C162.452 148.266 166.498 151.076 170.401 154.228C174.304 157.379 177.975 160.816 181.412 164.54C184.85 168.228 187.929 172.167 190.65 176.356V133.979H201.661V211H190.65C190.65 205.342 189.666 199.9 187.696 194.672C185.727 189.408 183.095 184.449 179.801 179.794C176.507 175.139 172.711 170.86 168.414 166.957C164.117 163.018 159.623 159.563 154.933 156.591C150.278 153.619 145.587 151.184 140.86 149.286C136.134 147.353 131.694 146.063 127.54 145.419V211ZM310.963 172.489C310.963 177.825 310.104 182.838 308.385 187.528C306.702 192.219 304.303 196.301 301.188 199.774C298.072 203.248 294.33 205.987 289.962 207.992C285.629 209.997 280.813 211 275.514 211H236.681V199.989H275.514C279.309 199.989 282.711 199.273 285.719 197.841C288.762 196.409 291.323 194.457 293.399 191.986C295.512 189.48 297.123 186.562 298.233 183.231C299.379 179.866 299.952 176.285 299.952 172.489C299.952 168.694 299.379 165.131 298.233 161.801C297.123 158.471 295.512 155.57 293.399 153.1C291.323 150.593 288.762 148.624 285.719 147.191C282.711 145.723 279.309 144.989 275.514 144.989H231.202V211H220.191V133.979H275.514C280.813 133.979 285.629 134.999 289.962 137.04C294.33 139.045 298.072 141.802 301.188 145.312C304.303 148.785 306.702 152.867 308.385 157.558C310.104 162.213 310.963 167.19 310.963 172.489ZM404.688 211H325.035V133.979H404.688V144.989H336.046V199.989H404.688V211ZM395.343 178.021H341.524V167.011H395.343V178.021ZM498.683 211H484.288L454.156 179.955L424.132 211H409.684L447.013 172.489L409.684 133.979H424.132L498.683 211ZM498.683 133.979L465.113 168.515L457.97 161.156L484.288 133.979H498.683Z" fill="url(#paint0_radial_341_130)"></path> <defs> <radialGradient id="paint0_radial_341_130" cx="0" cy="0" r="1" gradientUnits="userSpaceOnUse" gradientTransform="translate(310.5 103.5) rotate(90) scale(130.5 356.5)"> <stop stop-color="white"></stop> <stop offset="1" stop-color="#CFCFCF"></stop> </radialGradient> </defs> </svg> 